M48
; DRILL file {KiCad (5.1.6)-1} date 09/15/20 09:47:03
; FORMAT={-:-/ absolute / inch / decimal}
; #@! TF.CreationDate,2020-09-15T09:47:03+02:00
; #@! TF.GenerationSoftware,Kicad,Pcbnew,(5.1.6)-1
; #@! TF.FileFunction,Plated,1,2,PTH
FMAT,2
INCH
T1C0.0157
T2C0.0354
T3C0.0394
%
G90
G05
T1
X5.0984Y-2.9134
X5.4528Y-2.5591
X5.5118Y-2.5984
X5.5118Y-2.815
X5.5906Y-3.1102
X5.7087Y-2.7953
T2
X4.8228Y-2.5591
X4.8228Y-2.6591
X5.7677Y-2.5575
X5.7677Y-2.6575
X5.7677Y-2.9331
X5.7677Y-3.0331
X4.8228Y-2.9331
X4.8228Y-3.0331
T3
X5.2362Y-2.4409
X5.3362Y-2.4409
X5.0512Y-3.2677
X5.1512Y-3.2677
X5.2512Y-3.2677
X5.3512Y-3.2677
X5.4512Y-3.2677
X5.5512Y-3.2677
T0
M30
