%TF.GenerationSoftware,KiCad,Pcbnew,(5.1.6)-1*%
%TF.CreationDate,2020-10-27T09:44:08+01:00*%
%TF.ProjectId,Beacon_Listener,42656163-6f6e-45f4-9c69-7374656e6572,rev?*%
%TF.SameCoordinates,Original*%
%TF.FileFunction,Copper,L2,Bot*%
%TF.FilePolarity,Positive*%
%FSLAX46Y46*%
G04 Gerber Fmt 4.6, Leading zero omitted, Abs format (unit mm)*
G04 Created by KiCad (PCBNEW (5.1.6)-1) date 2020-10-27 09:44:08*
%MOMM*%
%LPD*%
G01*
G04 APERTURE LIST*
%TA.AperFunction,ComponentPad*%
%ADD10C,2.300000*%
%TD*%
%TA.AperFunction,ComponentPad*%
%ADD11R,2.300000X2.000000*%
%TD*%
%TA.AperFunction,ComponentPad*%
%ADD12O,1.700000X1.700000*%
%TD*%
%TA.AperFunction,ComponentPad*%
%ADD13R,1.700000X1.700000*%
%TD*%
%TA.AperFunction,ComponentPad*%
%ADD14O,1.750000X1.200000*%
%TD*%
%TA.AperFunction,ComponentPad*%
%ADD15C,0.800000*%
%TD*%
%TA.AperFunction,ComponentPad*%
%ADD16C,6.400000*%
%TD*%
%TA.AperFunction,ComponentPad*%
%ADD17C,2.500000*%
%TD*%
%TA.AperFunction,ComponentPad*%
%ADD18R,2.500000X2.500000*%
%TD*%
%TA.AperFunction,ViaPad*%
%ADD19C,0.800000*%
%TD*%
%TA.AperFunction,Conductor*%
%ADD20C,0.300000*%
%TD*%
%TA.AperFunction,Conductor*%
%ADD21C,0.750000*%
%TD*%
%TA.AperFunction,Conductor*%
%ADD22C,0.250000*%
%TD*%
%TA.AperFunction,Conductor*%
%ADD23C,0.254000*%
%TD*%
G04 APERTURE END LIST*
D10*
%TO.P,PS1,4*%
%TO.N,MainInput*%
X136900000Y-126400000D03*
%TO.P,PS1,2*%
%TO.N,GNDPWR*%
X107500000Y-121200000D03*
D11*
%TO.P,PS1,1*%
%TO.N,AC*%
X107500000Y-116200000D03*
D10*
%TO.P,PS1,3*%
%TO.N,GND*%
X136900000Y-111000000D03*
%TD*%
D12*
%TO.P,J1,6*%
%TO.N,+5V*%
X88750000Y-91500000D03*
%TO.P,J1,5*%
%TO.N,GPIO0*%
X88750000Y-88960000D03*
%TO.P,J1,4*%
%TO.N,EN*%
X88750000Y-86420000D03*
%TO.P,J1,3*%
%TO.N,RX*%
X88750000Y-83880000D03*
%TO.P,J1,2*%
%TO.N,TX*%
X88750000Y-81340000D03*
D13*
%TO.P,J1,1*%
%TO.N,GND*%
X88750000Y-78800000D03*
%TD*%
D14*
%TO.P,I2C,3*%
%TO.N,SCL*%
X143600000Y-91850000D03*
%TO.P,I2C,2*%
%TO.N,SDA*%
X143600000Y-93850000D03*
%TO.P,I2C,1*%
%TO.N,GND*%
%TA.AperFunction,ComponentPad*%
G36*
G01*
X144225001Y-96450000D02*
X142974999Y-96450000D01*
G75*
G02*
X142725000Y-96200001I0J249999D01*
G01*
X142725000Y-95499999D01*
G75*
G02*
X142974999Y-95250000I249999J0D01*
G01*
X144225001Y-95250000D01*
G75*
G02*
X144475000Y-95499999I0J-249999D01*
G01*
X144475000Y-96200001D01*
G75*
G02*
X144225001Y-96450000I-249999J0D01*
G01*
G37*
%TD.AperFunction*%
%TD*%
%TO.P,UART,3*%
%TO.N,RX_UART2*%
X143600000Y-101800000D03*
%TO.P,UART,2*%
%TO.N,TX_UART2*%
X143600000Y-103800000D03*
%TO.P,UART,1*%
%TO.N,GND*%
%TA.AperFunction,ComponentPad*%
G36*
G01*
X144225001Y-106400000D02*
X142974999Y-106400000D01*
G75*
G02*
X142725000Y-106150001I0J249999D01*
G01*
X142725000Y-105449999D01*
G75*
G02*
X142974999Y-105200000I249999J0D01*
G01*
X144225001Y-105200000D01*
G75*
G02*
X144475000Y-105449999I0J-249999D01*
G01*
X144475000Y-106150001D01*
G75*
G02*
X144225001Y-106400000I-249999J0D01*
G01*
G37*
%TD.AperFunction*%
%TD*%
D15*
%TO.P,U1,39*%
%TO.N,GND*%
X114600000Y-81490000D03*
X114600000Y-82490000D03*
X114600000Y-83490000D03*
X114600000Y-84490000D03*
X114600000Y-85490000D03*
X115600000Y-85490000D03*
X115600000Y-84490000D03*
X115600000Y-83490000D03*
X115600000Y-82490000D03*
X115600000Y-81490000D03*
X117600000Y-81490000D03*
X117600000Y-82490000D03*
X117600000Y-83490000D03*
X117600000Y-84490000D03*
X117600000Y-85490000D03*
X116600000Y-85490000D03*
X116600000Y-84490000D03*
X116600000Y-83490000D03*
X116600000Y-82490000D03*
X116600000Y-81490000D03*
X118600000Y-85490000D03*
X118600000Y-84490000D03*
X118600000Y-83490000D03*
X118600000Y-82490000D03*
X118600000Y-81490000D03*
%TD*%
%TO.P,H4,1*%
%TO.N,GND*%
X92697056Y-71302944D03*
X91000000Y-70600000D03*
X89302944Y-71302944D03*
X88600000Y-73000000D03*
X89302944Y-74697056D03*
X91000000Y-75400000D03*
X92697056Y-74697056D03*
X93400000Y-73000000D03*
D16*
X91000000Y-73000000D03*
%TD*%
D15*
%TO.P,H3,1*%
%TO.N,GND*%
X144697056Y-71702944D03*
X143000000Y-71000000D03*
X141302944Y-71702944D03*
X140600000Y-73400000D03*
X141302944Y-75097056D03*
X143000000Y-75800000D03*
X144697056Y-75097056D03*
X145400000Y-73400000D03*
D16*
X143000000Y-73400000D03*
%TD*%
D15*
%TO.P,H2,1*%
%TO.N,GND*%
X144697056Y-123302944D03*
X143000000Y-122600000D03*
X141302944Y-123302944D03*
X140600000Y-125000000D03*
X141302944Y-126697056D03*
X143000000Y-127400000D03*
X144697056Y-126697056D03*
X145400000Y-125000000D03*
D16*
X143000000Y-125000000D03*
%TD*%
D12*
%TO.P,J3,2*%
%TO.N,+3V3*%
X91250000Y-110750000D03*
D13*
%TO.P,J3,1*%
%TO.N,MainInput*%
X88710000Y-110750000D03*
%TD*%
D17*
%TO.P,J2,2*%
%TO.N,GNDPWR*%
X95000000Y-125000000D03*
D18*
%TO.P,J2,1*%
%TO.N,AC*%
X90000000Y-125000000D03*
%TD*%
D19*
%TO.N,GND*%
X99500000Y-105500000D03*
X91500000Y-101750000D03*
X112750000Y-103250000D03*
X107750000Y-103500000D03*
X107750000Y-105500000D03*
X112750000Y-105500000D03*
X117250000Y-105500000D03*
X122500000Y-105250000D03*
X122500000Y-103750000D03*
X92400000Y-93000000D03*
X97400000Y-111500000D03*
X99300000Y-111500000D03*
X101200000Y-110900000D03*
X105500000Y-109000000D03*
X107000000Y-109000000D03*
X108500000Y-109000000D03*
X110000000Y-109000000D03*
X113000000Y-109000000D03*
X111500000Y-109000000D03*
X116000000Y-109000000D03*
X117500000Y-109000000D03*
X114500000Y-109000000D03*
X120500000Y-109000000D03*
X122000000Y-109000000D03*
X119000000Y-109000000D03*
X94000000Y-78500000D03*
X103000000Y-80000000D03*
X104500000Y-74500000D03*
X93500000Y-85500000D03*
X95000000Y-85500000D03*
X123500000Y-110000000D03*
X124500000Y-111000000D03*
X125500000Y-112000000D03*
X126500000Y-113000000D03*
X127500000Y-114000000D03*
X128500000Y-115000000D03*
X129500000Y-116000000D03*
X130500000Y-117000000D03*
X131500000Y-118000000D03*
X132500000Y-119000000D03*
X133500000Y-120000000D03*
X134500000Y-121000000D03*
X135500000Y-122000000D03*
X136500000Y-123000000D03*
%TO.N,TX*%
X121500000Y-83250000D03*
%TO.N,RX*%
X122500000Y-84500000D03*
%TO.N,GPIO0*%
X122750000Y-95750000D03*
%TO.N,LED*%
X105500000Y-96500000D03*
X136750000Y-99250000D03*
%TO.N,LED2*%
X105000000Y-90250000D03*
X133250000Y-101500000D03*
%TO.N,LED3*%
X105000000Y-92000000D03*
X129500000Y-102000000D03*
%TO.N,LED4*%
X105000000Y-88750000D03*
X131500000Y-100000000D03*
%TO.N,ConfigButton*%
X105500000Y-86000000D03*
X121250000Y-95250000D03*
X128500000Y-93000000D03*
X143750000Y-84500000D03*
%TO.N,Net-(J4-Pad6)*%
X89500000Y-95500000D03*
X93000000Y-95500000D03*
%TO.N,RX_UART2*%
X130250000Y-93250000D03*
%TO.N,TX_UART2*%
X133500000Y-93500000D03*
%TD*%
D20*
%TO.N,TX*%
X90410000Y-83000000D02*
X88750000Y-81340000D01*
X121500000Y-85250000D02*
X118500000Y-88250000D01*
X121500000Y-83250000D02*
X121500000Y-85250000D01*
X118500000Y-88250000D02*
X110500000Y-88250000D01*
X110500000Y-88250000D02*
X105250000Y-83000000D01*
X105250000Y-83000000D02*
X90410000Y-83000000D01*
%TO.N,RX*%
X104880000Y-83880000D02*
X88750000Y-83880000D01*
X118750000Y-89250000D02*
X110250000Y-89250000D01*
X122500000Y-84500000D02*
X122500000Y-85500000D01*
X110250000Y-89250000D02*
X104880000Y-83880000D01*
X122500000Y-85500000D02*
X118750000Y-89250000D01*
%TO.N,GPIO0*%
X89710001Y-87999999D02*
X92249999Y-87999999D01*
X88750000Y-88960000D02*
X89710001Y-87999999D01*
X92249999Y-87999999D02*
X92999998Y-87250000D01*
X92999998Y-87250000D02*
X105000000Y-87250000D01*
X105000000Y-87250000D02*
X116250000Y-98500000D01*
X116250000Y-98500000D02*
X116750000Y-99000000D01*
X116750000Y-99000000D02*
X117000000Y-99250000D01*
X117000000Y-99250000D02*
X119250000Y-99250000D01*
X119250000Y-99250000D02*
X122750000Y-95750000D01*
%TO.N,LED*%
X105500000Y-96500000D02*
X107000000Y-98000000D01*
X107000000Y-98000000D02*
X109250000Y-98000000D01*
X109250000Y-98000000D02*
X114250000Y-103000000D01*
X114250000Y-103000000D02*
X133000000Y-103000000D01*
X133000000Y-103000000D02*
X136750000Y-99250000D01*
%TO.N,LED2*%
X105000000Y-90250000D02*
X115750000Y-101000000D01*
X115750000Y-101000000D02*
X128500000Y-101000000D01*
X128500000Y-101000000D02*
X132750000Y-101000000D01*
X132750000Y-101000000D02*
X133250000Y-101500000D01*
%TO.N,LED3*%
X105000000Y-92000000D02*
X115000000Y-102000000D01*
X115000000Y-102000000D02*
X128500000Y-102000000D01*
X128500000Y-102000000D02*
X129500000Y-102000000D01*
%TO.N,LED4*%
X116250000Y-100000000D02*
X105000000Y-88750000D01*
X131500000Y-100000000D02*
X116250000Y-100000000D01*
D21*
%TO.N,GNDPWR*%
X107500000Y-121200000D02*
X107500000Y-123000000D01*
X105500000Y-125000000D02*
X95000000Y-125000000D01*
X107500000Y-123000000D02*
X105500000Y-125000000D01*
%TO.N,AC*%
X90000000Y-125000000D02*
X90000000Y-124000000D01*
X90000000Y-124000000D02*
X93000000Y-121000000D01*
X102700000Y-121000000D02*
X107500000Y-116200000D01*
X93000000Y-121000000D02*
X102700000Y-121000000D01*
D20*
%TO.N,ConfigButton*%
X105500000Y-86000000D02*
X117500000Y-98000000D01*
X117500000Y-98000000D02*
X118500000Y-98000000D01*
X118500000Y-98000000D02*
X121250000Y-95250000D01*
X128500000Y-93000000D02*
X129000000Y-93000000D01*
X129000000Y-93000000D02*
X129250000Y-93000000D01*
X129250000Y-93000000D02*
X130500000Y-91750000D01*
X130500000Y-91750000D02*
X138750000Y-91750000D01*
X138750000Y-91750000D02*
X143750000Y-86750000D01*
X143750000Y-86750000D02*
X143750000Y-84500000D01*
D22*
%TO.N,Net-(J4-Pad6)*%
X89500000Y-95500000D02*
X92500000Y-95500000D01*
X92500000Y-95500000D02*
X93000000Y-95500000D01*
D20*
%TO.N,RX_UART2*%
X130250000Y-93250000D02*
X131750000Y-93250000D01*
X131750000Y-93250000D02*
X132500000Y-92500000D01*
X132500000Y-92500000D02*
X136250000Y-92500000D01*
X136250000Y-92500000D02*
X140250000Y-96500000D01*
X140250000Y-96500000D02*
X140250000Y-100750000D01*
X141300000Y-101800000D02*
X143600000Y-101800000D01*
X140250000Y-100750000D02*
X141300000Y-101800000D01*
%TO.N,TX_UART2*%
X133500000Y-93500000D02*
X135750000Y-93500000D01*
X135750000Y-93500000D02*
X139000000Y-96750000D01*
X139000000Y-96750000D02*
X139000000Y-102000000D01*
X140800000Y-103800000D02*
X143600000Y-103800000D01*
X139000000Y-102000000D02*
X140800000Y-103800000D01*
%TD*%
D23*
%TO.N,GND*%
G36*
X141547792Y-69830548D02*
G01*
X140879330Y-70182445D01*
X140838912Y-70209452D01*
X140478724Y-70699119D01*
X143000000Y-73220395D01*
X143014143Y-73206253D01*
X143193748Y-73385858D01*
X143179605Y-73400000D01*
X145700881Y-75921276D01*
X146190548Y-75561088D01*
X146340000Y-75285675D01*
X146340001Y-123111928D01*
X146217555Y-122879330D01*
X146190548Y-122838912D01*
X145700881Y-122478724D01*
X143179605Y-125000000D01*
X143193748Y-125014143D01*
X143014143Y-125193748D01*
X143000000Y-125179605D01*
X140478724Y-127700881D01*
X140838912Y-128190548D01*
X141114325Y-128340000D01*
X111127000Y-128340000D01*
X111127000Y-126224193D01*
X135115000Y-126224193D01*
X135115000Y-126575807D01*
X135183596Y-126920665D01*
X135318153Y-127245515D01*
X135513500Y-127537871D01*
X135762129Y-127786500D01*
X136054485Y-127981847D01*
X136379335Y-128116404D01*
X136724193Y-128185000D01*
X137075807Y-128185000D01*
X137420665Y-128116404D01*
X137745515Y-127981847D01*
X138037871Y-127786500D01*
X138286500Y-127537871D01*
X138481847Y-127245515D01*
X138616404Y-126920665D01*
X138685000Y-126575807D01*
X138685000Y-126224193D01*
X138616404Y-125879335D01*
X138481847Y-125554485D01*
X138286500Y-125262129D01*
X138037871Y-125013500D01*
X137981293Y-124975695D01*
X139146520Y-124975695D01*
X139215822Y-125727938D01*
X139430548Y-126452208D01*
X139782445Y-127120670D01*
X139809452Y-127161088D01*
X140299119Y-127521276D01*
X142820395Y-125000000D01*
X140299119Y-122478724D01*
X139809452Y-122838912D01*
X139449151Y-123502882D01*
X139225306Y-124224385D01*
X139146520Y-124975695D01*
X137981293Y-124975695D01*
X137745515Y-124818153D01*
X137420665Y-124683596D01*
X137075807Y-124615000D01*
X136724193Y-124615000D01*
X136379335Y-124683596D01*
X136054485Y-124818153D01*
X135762129Y-125013500D01*
X135513500Y-125262129D01*
X135318153Y-125554485D01*
X135183596Y-125879335D01*
X135115000Y-126224193D01*
X111127000Y-126224193D01*
X111127000Y-122299119D01*
X140478724Y-122299119D01*
X143000000Y-124820395D01*
X145521276Y-122299119D01*
X145161088Y-121809452D01*
X144497118Y-121449151D01*
X143775615Y-121225306D01*
X143024305Y-121146520D01*
X142272062Y-121215822D01*
X141547792Y-121430548D01*
X140879330Y-121782445D01*
X140838912Y-121809452D01*
X140478724Y-122299119D01*
X111127000Y-122299119D01*
X111127000Y-114000000D01*
X111124560Y-113975224D01*
X111117333Y-113951399D01*
X111105597Y-113929443D01*
X111089803Y-113910197D01*
X111070557Y-113894403D01*
X111048601Y-113882667D01*
X111024776Y-113875440D01*
X111000000Y-113873000D01*
X87660000Y-113873000D01*
X87660000Y-112242349D01*
X135837256Y-112242349D01*
X135951118Y-112522090D01*
X136266296Y-112677961D01*
X136605826Y-112769349D01*
X136956661Y-112792741D01*
X137305319Y-112747240D01*
X137638400Y-112634594D01*
X137848882Y-112522090D01*
X137962744Y-112242349D01*
X136900000Y-111179605D01*
X135837256Y-112242349D01*
X87660000Y-112242349D01*
X87660000Y-112202904D01*
X87735518Y-112225812D01*
X87860000Y-112238072D01*
X89560000Y-112238072D01*
X89684482Y-112225812D01*
X89804180Y-112189502D01*
X89914494Y-112130537D01*
X90011185Y-112051185D01*
X90090537Y-111954494D01*
X90149502Y-111844180D01*
X90171513Y-111771620D01*
X90303368Y-111903475D01*
X90546589Y-112065990D01*
X90816842Y-112177932D01*
X91103740Y-112235000D01*
X91396260Y-112235000D01*
X91683158Y-112177932D01*
X91953411Y-112065990D01*
X92196632Y-111903475D01*
X92403475Y-111696632D01*
X92565990Y-111453411D01*
X92677932Y-111183158D01*
X92703094Y-111056661D01*
X135107259Y-111056661D01*
X135152760Y-111405319D01*
X135265406Y-111738400D01*
X135377910Y-111948882D01*
X135657651Y-112062744D01*
X136720395Y-111000000D01*
X137079605Y-111000000D01*
X138142349Y-112062744D01*
X138422090Y-111948882D01*
X138577961Y-111633704D01*
X138669349Y-111294174D01*
X138692741Y-110943339D01*
X138647240Y-110594681D01*
X138534594Y-110261600D01*
X138422090Y-110051118D01*
X138142349Y-109937256D01*
X137079605Y-111000000D01*
X136720395Y-111000000D01*
X135657651Y-109937256D01*
X135377910Y-110051118D01*
X135222039Y-110366296D01*
X135130651Y-110705826D01*
X135107259Y-111056661D01*
X92703094Y-111056661D01*
X92735000Y-110896260D01*
X92735000Y-110603740D01*
X92677932Y-110316842D01*
X92565990Y-110046589D01*
X92403475Y-109803368D01*
X92357758Y-109757651D01*
X135837256Y-109757651D01*
X136900000Y-110820395D01*
X137962744Y-109757651D01*
X137848882Y-109477910D01*
X137533704Y-109322039D01*
X137194174Y-109230651D01*
X136843339Y-109207259D01*
X136494681Y-109252760D01*
X136161600Y-109365406D01*
X135951118Y-109477910D01*
X135837256Y-109757651D01*
X92357758Y-109757651D01*
X92196632Y-109596525D01*
X91953411Y-109434010D01*
X91683158Y-109322068D01*
X91396260Y-109265000D01*
X91103740Y-109265000D01*
X90816842Y-109322068D01*
X90546589Y-109434010D01*
X90303368Y-109596525D01*
X90171513Y-109728380D01*
X90149502Y-109655820D01*
X90090537Y-109545506D01*
X90011185Y-109448815D01*
X89914494Y-109369463D01*
X89804180Y-109310498D01*
X89684482Y-109274188D01*
X89560000Y-109261928D01*
X87860000Y-109261928D01*
X87735518Y-109274188D01*
X87660000Y-109297096D01*
X87660000Y-106400000D01*
X142086928Y-106400000D01*
X142099188Y-106524482D01*
X142135498Y-106644180D01*
X142194463Y-106754494D01*
X142273815Y-106851185D01*
X142370506Y-106930537D01*
X142480820Y-106989502D01*
X142600518Y-107025812D01*
X142725000Y-107038072D01*
X143314250Y-107035000D01*
X143473000Y-106876250D01*
X143473000Y-105927000D01*
X143727000Y-105927000D01*
X143727000Y-106876250D01*
X143885750Y-107035000D01*
X144475000Y-107038072D01*
X144599482Y-107025812D01*
X144719180Y-106989502D01*
X144829494Y-106930537D01*
X144926185Y-106851185D01*
X145005537Y-106754494D01*
X145064502Y-106644180D01*
X145100812Y-106524482D01*
X145113072Y-106400000D01*
X145110000Y-106085750D01*
X144951250Y-105927000D01*
X143727000Y-105927000D01*
X143473000Y-105927000D01*
X142248750Y-105927000D01*
X142090000Y-106085750D01*
X142086928Y-106400000D01*
X87660000Y-106400000D01*
X87660000Y-103588212D01*
X90365000Y-103588212D01*
X90365000Y-103811788D01*
X90408617Y-104031067D01*
X90494176Y-104237624D01*
X90618388Y-104423520D01*
X90776480Y-104581612D01*
X90962376Y-104705824D01*
X91168933Y-104791383D01*
X91388212Y-104835000D01*
X91611788Y-104835000D01*
X91831067Y-104791383D01*
X92037624Y-104705824D01*
X92223520Y-104581612D01*
X92381612Y-104423520D01*
X92505824Y-104237624D01*
X92591383Y-104031067D01*
X92635000Y-103811788D01*
X92635000Y-103588212D01*
X92591383Y-103368933D01*
X92505824Y-103162376D01*
X92381612Y-102976480D01*
X92223520Y-102818388D01*
X92037624Y-102694176D01*
X91831067Y-102608617D01*
X91611788Y-102565000D01*
X91388212Y-102565000D01*
X91168933Y-102608617D01*
X90962376Y-102694176D01*
X90776480Y-102818388D01*
X90618388Y-102976480D01*
X90494176Y-103162376D01*
X90408617Y-103368933D01*
X90365000Y-103588212D01*
X87660000Y-103588212D01*
X87660000Y-99188212D01*
X90365000Y-99188212D01*
X90365000Y-99411788D01*
X90408617Y-99631067D01*
X90494176Y-99837624D01*
X90618388Y-100023520D01*
X90776480Y-100181612D01*
X90962376Y-100305824D01*
X91168933Y-100391383D01*
X91388212Y-100435000D01*
X91611788Y-100435000D01*
X91831067Y-100391383D01*
X92037624Y-100305824D01*
X92223520Y-100181612D01*
X92381612Y-100023520D01*
X92505824Y-99837624D01*
X92591383Y-99631067D01*
X92635000Y-99411788D01*
X92635000Y-99188212D01*
X92591383Y-98968933D01*
X92505824Y-98762376D01*
X92381612Y-98576480D01*
X92223520Y-98418388D01*
X92037624Y-98294176D01*
X91831067Y-98208617D01*
X91611788Y-98165000D01*
X91388212Y-98165000D01*
X91168933Y-98208617D01*
X90962376Y-98294176D01*
X90776480Y-98418388D01*
X90618388Y-98576480D01*
X90494176Y-98762376D01*
X90408617Y-98968933D01*
X90365000Y-99188212D01*
X87660000Y-99188212D01*
X87660000Y-95398061D01*
X88465000Y-95398061D01*
X88465000Y-95601939D01*
X88504774Y-95801898D01*
X88582795Y-95990256D01*
X88696063Y-96159774D01*
X88840226Y-96303937D01*
X89009744Y-96417205D01*
X89198102Y-96495226D01*
X89398061Y-96535000D01*
X89601939Y-96535000D01*
X89801898Y-96495226D01*
X89990256Y-96417205D01*
X90159774Y-96303937D01*
X90203711Y-96260000D01*
X92296289Y-96260000D01*
X92340226Y-96303937D01*
X92509744Y-96417205D01*
X92698102Y-96495226D01*
X92898061Y-96535000D01*
X93101939Y-96535000D01*
X93301898Y-96495226D01*
X93490256Y-96417205D01*
X93659774Y-96303937D01*
X93803937Y-96159774D01*
X93917205Y-95990256D01*
X93995226Y-95801898D01*
X94035000Y-95601939D01*
X94035000Y-95398061D01*
X93995226Y-95198102D01*
X93917205Y-95009744D01*
X93803937Y-94840226D01*
X93659774Y-94696063D01*
X93490256Y-94582795D01*
X93301898Y-94504774D01*
X93101939Y-94465000D01*
X92898061Y-94465000D01*
X92698102Y-94504774D01*
X92509744Y-94582795D01*
X92340226Y-94696063D01*
X92296289Y-94740000D01*
X90203711Y-94740000D01*
X90159774Y-94696063D01*
X89990256Y-94582795D01*
X89801898Y-94504774D01*
X89601939Y-94465000D01*
X89398061Y-94465000D01*
X89198102Y-94504774D01*
X89009744Y-94582795D01*
X88840226Y-94696063D01*
X88696063Y-94840226D01*
X88582795Y-95009744D01*
X88504774Y-95198102D01*
X88465000Y-95398061D01*
X87660000Y-95398061D01*
X87660000Y-92510107D01*
X87803368Y-92653475D01*
X88046589Y-92815990D01*
X88316842Y-92927932D01*
X88603740Y-92985000D01*
X88896260Y-92985000D01*
X89183158Y-92927932D01*
X89453411Y-92815990D01*
X89696632Y-92653475D01*
X89903475Y-92446632D01*
X90065990Y-92203411D01*
X90177932Y-91933158D01*
X90235000Y-91646260D01*
X90235000Y-91353740D01*
X90177932Y-91066842D01*
X90065990Y-90796589D01*
X89903475Y-90553368D01*
X89696632Y-90346525D01*
X89522240Y-90230000D01*
X89696632Y-90113475D01*
X89903475Y-89906632D01*
X90065990Y-89663411D01*
X90177932Y-89393158D01*
X90235000Y-89106260D01*
X90235000Y-88813740D01*
X90229283Y-88784999D01*
X92211446Y-88784999D01*
X92249999Y-88788796D01*
X92288552Y-88784999D01*
X92288560Y-88784999D01*
X92403886Y-88773640D01*
X92551859Y-88728753D01*
X92688232Y-88655861D01*
X92807763Y-88557763D01*
X92832346Y-88527809D01*
X93325155Y-88035000D01*
X104251289Y-88035000D01*
X104196063Y-88090226D01*
X104082795Y-88259744D01*
X104004774Y-88448102D01*
X103965000Y-88648061D01*
X103965000Y-88851939D01*
X104004774Y-89051898D01*
X104082795Y-89240256D01*
X104196063Y-89409774D01*
X104286289Y-89500000D01*
X104196063Y-89590226D01*
X104082795Y-89759744D01*
X104004774Y-89948102D01*
X103965000Y-90148061D01*
X103965000Y-90351939D01*
X104004774Y-90551898D01*
X104082795Y-90740256D01*
X104196063Y-90909774D01*
X104340226Y-91053937D01*
X104446580Y-91125000D01*
X104340226Y-91196063D01*
X104196063Y-91340226D01*
X104082795Y-91509744D01*
X104004774Y-91698102D01*
X103965000Y-91898061D01*
X103965000Y-92101939D01*
X104004774Y-92301898D01*
X104082795Y-92490256D01*
X104196063Y-92659774D01*
X104340226Y-92803937D01*
X104509744Y-92917205D01*
X104698102Y-92995226D01*
X104898061Y-93035000D01*
X104924843Y-93035000D01*
X109104843Y-97215000D01*
X107325158Y-97215000D01*
X106535000Y-96424843D01*
X106535000Y-96398061D01*
X106495226Y-96198102D01*
X106417205Y-96009744D01*
X106303937Y-95840226D01*
X106159774Y-95696063D01*
X105990256Y-95582795D01*
X105801898Y-95504774D01*
X105601939Y-95465000D01*
X105398061Y-95465000D01*
X105198102Y-95504774D01*
X105009744Y-95582795D01*
X104840226Y-95696063D01*
X104696063Y-95840226D01*
X104582795Y-96009744D01*
X104504774Y-96198102D01*
X104465000Y-96398061D01*
X104465000Y-96601939D01*
X104504774Y-96801898D01*
X104582795Y-96990256D01*
X104696063Y-97159774D01*
X104840226Y-97303937D01*
X105009744Y-97417205D01*
X105198102Y-97495226D01*
X105398061Y-97535000D01*
X105424843Y-97535000D01*
X106417658Y-98527816D01*
X106442236Y-98557764D01*
X106472184Y-98582342D01*
X106472187Y-98582345D01*
X106481790Y-98590226D01*
X106561767Y-98655862D01*
X106698140Y-98728754D01*
X106800301Y-98759744D01*
X106846112Y-98773641D01*
X106860490Y-98775057D01*
X106961439Y-98785000D01*
X106961446Y-98785000D01*
X106999999Y-98788797D01*
X107038552Y-98785000D01*
X108924843Y-98785000D01*
X113667653Y-103527810D01*
X113692236Y-103557764D01*
X113811767Y-103655862D01*
X113948140Y-103728754D01*
X114096113Y-103773642D01*
X114171026Y-103781020D01*
X114211439Y-103785000D01*
X114211444Y-103785000D01*
X114250000Y-103788797D01*
X114288556Y-103785000D01*
X132961447Y-103785000D01*
X133000000Y-103788797D01*
X133038553Y-103785000D01*
X133038561Y-103785000D01*
X133153887Y-103773641D01*
X133301860Y-103728754D01*
X133438233Y-103655862D01*
X133557764Y-103557764D01*
X133582347Y-103527810D01*
X136825157Y-100285000D01*
X136851939Y-100285000D01*
X137051898Y-100245226D01*
X137240256Y-100167205D01*
X137409774Y-100053937D01*
X137553937Y-99909774D01*
X137667205Y-99740256D01*
X137745226Y-99551898D01*
X137785000Y-99351939D01*
X137785000Y-99148061D01*
X137745226Y-98948102D01*
X137667205Y-98759744D01*
X137553937Y-98590226D01*
X137409774Y-98446063D01*
X137240256Y-98332795D01*
X137051898Y-98254774D01*
X136851939Y-98215000D01*
X136648061Y-98215000D01*
X136448102Y-98254774D01*
X136259744Y-98332795D01*
X136090226Y-98446063D01*
X135946063Y-98590226D01*
X135832795Y-98759744D01*
X135754774Y-98948102D01*
X135715000Y-99148061D01*
X135715000Y-99174843D01*
X134051777Y-100838066D01*
X133909774Y-100696063D01*
X133740256Y-100582795D01*
X133551898Y-100504774D01*
X133351939Y-100465000D01*
X133326446Y-100465000D01*
X133307764Y-100442236D01*
X133188233Y-100344138D01*
X133051860Y-100271246D01*
X132903887Y-100226359D01*
X132788561Y-100215000D01*
X132788553Y-100215000D01*
X132750000Y-100211203D01*
X132711447Y-100215000D01*
X132512511Y-100215000D01*
X132535000Y-100101939D01*
X132535000Y-99898061D01*
X132495226Y-99698102D01*
X132417205Y-99509744D01*
X132303937Y-99340226D01*
X132159774Y-99196063D01*
X131990256Y-99082795D01*
X131801898Y-99004774D01*
X131601939Y-98965000D01*
X131398061Y-98965000D01*
X131198102Y-99004774D01*
X131009744Y-99082795D01*
X130840226Y-99196063D01*
X130821289Y-99215000D01*
X120395157Y-99215000D01*
X122825158Y-96785000D01*
X122851939Y-96785000D01*
X123051898Y-96745226D01*
X123240256Y-96667205D01*
X123409774Y-96553937D01*
X123553937Y-96409774D01*
X123667205Y-96240256D01*
X123745226Y-96051898D01*
X123785000Y-95851939D01*
X123785000Y-95648061D01*
X123745226Y-95448102D01*
X123667205Y-95259744D01*
X123553937Y-95090226D01*
X123409774Y-94946063D01*
X123240256Y-94832795D01*
X123051898Y-94754774D01*
X122851939Y-94715000D01*
X122648061Y-94715000D01*
X122448102Y-94754774D01*
X122259744Y-94832795D01*
X122210965Y-94865388D01*
X122167205Y-94759744D01*
X122053937Y-94590226D01*
X121909774Y-94446063D01*
X121740256Y-94332795D01*
X121551898Y-94254774D01*
X121351939Y-94215000D01*
X121148061Y-94215000D01*
X120948102Y-94254774D01*
X120759744Y-94332795D01*
X120590226Y-94446063D01*
X120446063Y-94590226D01*
X120332795Y-94759744D01*
X120254774Y-94948102D01*
X120215000Y-95148061D01*
X120215000Y-95174842D01*
X118174843Y-97215000D01*
X117825157Y-97215000D01*
X113508218Y-92898061D01*
X127465000Y-92898061D01*
X127465000Y-93101939D01*
X127504774Y-93301898D01*
X127582795Y-93490256D01*
X127696063Y-93659774D01*
X127840226Y-93803937D01*
X128009744Y-93917205D01*
X128198102Y-93995226D01*
X128398061Y-94035000D01*
X128601939Y-94035000D01*
X128801898Y-93995226D01*
X128990256Y-93917205D01*
X129159774Y-93803937D01*
X129178711Y-93785000D01*
X129211447Y-93785000D01*
X129250000Y-93788797D01*
X129288553Y-93785000D01*
X129288561Y-93785000D01*
X129358114Y-93778149D01*
X129446063Y-93909774D01*
X129590226Y-94053937D01*
X129759744Y-94167205D01*
X129948102Y-94245226D01*
X130148061Y-94285000D01*
X130351939Y-94285000D01*
X130551898Y-94245226D01*
X130740256Y-94167205D01*
X130909774Y-94053937D01*
X130928711Y-94035000D01*
X131711447Y-94035000D01*
X131750000Y-94038797D01*
X131788553Y-94035000D01*
X131788561Y-94035000D01*
X131903887Y-94023641D01*
X132051860Y-93978754D01*
X132188233Y-93905862D01*
X132307764Y-93807764D01*
X132332347Y-93777811D01*
X132472170Y-93637987D01*
X132504774Y-93801898D01*
X132582795Y-93990256D01*
X132696063Y-94159774D01*
X132840226Y-94303937D01*
X133009744Y-94417205D01*
X133198102Y-94495226D01*
X133398061Y-94535000D01*
X133601939Y-94535000D01*
X133801898Y-94495226D01*
X133990256Y-94417205D01*
X134159774Y-94303937D01*
X134178711Y-94285000D01*
X135424843Y-94285000D01*
X138215000Y-97075158D01*
X138215001Y-101961437D01*
X138211203Y-102000000D01*
X138226359Y-102153886D01*
X138271246Y-102301859D01*
X138271247Y-102301860D01*
X138344139Y-102438233D01*
X138358607Y-102455862D01*
X138417655Y-102527812D01*
X138417659Y-102527816D01*
X138442237Y-102557764D01*
X138472185Y-102582342D01*
X140217658Y-104327816D01*
X140242236Y-104357764D01*
X140272184Y-104382342D01*
X140272187Y-104382345D01*
X140301559Y-104406450D01*
X140361767Y-104455862D01*
X140498140Y-104528754D01*
X140607500Y-104561928D01*
X140646112Y-104573641D01*
X140660490Y-104575057D01*
X140761439Y-104585000D01*
X140761446Y-104585000D01*
X140799999Y-104588797D01*
X140838552Y-104585000D01*
X142371584Y-104585000D01*
X142419436Y-104643309D01*
X142370506Y-104669463D01*
X142273815Y-104748815D01*
X142194463Y-104845506D01*
X142135498Y-104955820D01*
X142099188Y-105075518D01*
X142086928Y-105200000D01*
X142090000Y-105514250D01*
X142248750Y-105673000D01*
X143473000Y-105673000D01*
X143473000Y-105653000D01*
X143727000Y-105653000D01*
X143727000Y-105673000D01*
X144951250Y-105673000D01*
X145110000Y-105514250D01*
X145113072Y-105200000D01*
X145100812Y-105075518D01*
X145064502Y-104955820D01*
X145005537Y-104845506D01*
X144926185Y-104748815D01*
X144829494Y-104669463D01*
X144780564Y-104643309D01*
X144906833Y-104489449D01*
X145021511Y-104274901D01*
X145092130Y-104042102D01*
X145115975Y-103800000D01*
X145092130Y-103557898D01*
X145021511Y-103325099D01*
X144906833Y-103110551D01*
X144752502Y-102922498D01*
X144603238Y-102800000D01*
X144752502Y-102677502D01*
X144906833Y-102489449D01*
X145021511Y-102274901D01*
X145092130Y-102042102D01*
X145115975Y-101800000D01*
X145092130Y-101557898D01*
X145021511Y-101325099D01*
X144906833Y-101110551D01*
X144752502Y-100922498D01*
X144564449Y-100768167D01*
X144349901Y-100653489D01*
X144117102Y-100582870D01*
X143935665Y-100565000D01*
X143264335Y-100565000D01*
X143082898Y-100582870D01*
X142850099Y-100653489D01*
X142635551Y-100768167D01*
X142447498Y-100922498D01*
X142371584Y-101015000D01*
X141625158Y-101015000D01*
X141035000Y-100424843D01*
X141035000Y-96538552D01*
X141038797Y-96499999D01*
X141035000Y-96461446D01*
X141035000Y-96461439D01*
X141033874Y-96450000D01*
X142086928Y-96450000D01*
X142099188Y-96574482D01*
X142135498Y-96694180D01*
X142194463Y-96804494D01*
X142273815Y-96901185D01*
X142370506Y-96980537D01*
X142480820Y-97039502D01*
X142600518Y-97075812D01*
X142725000Y-97088072D01*
X143314250Y-97085000D01*
X143473000Y-96926250D01*
X143473000Y-95977000D01*
X143727000Y-95977000D01*
X143727000Y-96926250D01*
X143885750Y-97085000D01*
X144475000Y-97088072D01*
X144599482Y-97075812D01*
X144719180Y-97039502D01*
X144829494Y-96980537D01*
X144926185Y-96901185D01*
X145005537Y-96804494D01*
X145064502Y-96694180D01*
X145100812Y-96574482D01*
X145113072Y-96450000D01*
X145110000Y-96135750D01*
X144951250Y-95977000D01*
X143727000Y-95977000D01*
X143473000Y-95977000D01*
X142248750Y-95977000D01*
X142090000Y-96135750D01*
X142086928Y-96450000D01*
X141033874Y-96450000D01*
X141023641Y-96346113D01*
X140978754Y-96198140D01*
X140905862Y-96061767D01*
X140847174Y-95990256D01*
X140832345Y-95972187D01*
X140832342Y-95972184D01*
X140807764Y-95942236D01*
X140777817Y-95917659D01*
X137395157Y-92535000D01*
X138711447Y-92535000D01*
X138750000Y-92538797D01*
X138788553Y-92535000D01*
X138788561Y-92535000D01*
X138903887Y-92523641D01*
X139051860Y-92478754D01*
X139188233Y-92405862D01*
X139307764Y-92307764D01*
X139332347Y-92277810D01*
X139760157Y-91850000D01*
X142084025Y-91850000D01*
X142107870Y-92092102D01*
X142178489Y-92324901D01*
X142293167Y-92539449D01*
X142447498Y-92727502D01*
X142596762Y-92850000D01*
X142447498Y-92972498D01*
X142293167Y-93160551D01*
X142178489Y-93375099D01*
X142107870Y-93607898D01*
X142084025Y-93850000D01*
X142107870Y-94092102D01*
X142178489Y-94324901D01*
X142293167Y-94539449D01*
X142419436Y-94693309D01*
X142370506Y-94719463D01*
X142273815Y-94798815D01*
X142194463Y-94895506D01*
X142135498Y-95005820D01*
X142099188Y-95125518D01*
X142086928Y-95250000D01*
X142090000Y-95564250D01*
X142248750Y-95723000D01*
X143473000Y-95723000D01*
X143473000Y-95703000D01*
X143727000Y-95703000D01*
X143727000Y-95723000D01*
X144951250Y-95723000D01*
X145110000Y-95564250D01*
X145113072Y-95250000D01*
X145100812Y-95125518D01*
X145064502Y-95005820D01*
X145005537Y-94895506D01*
X144926185Y-94798815D01*
X144829494Y-94719463D01*
X144780564Y-94693309D01*
X144906833Y-94539449D01*
X145021511Y-94324901D01*
X145092130Y-94092102D01*
X145115975Y-93850000D01*
X145092130Y-93607898D01*
X145021511Y-93375099D01*
X144906833Y-93160551D01*
X144752502Y-92972498D01*
X144603238Y-92850000D01*
X144752502Y-92727502D01*
X144906833Y-92539449D01*
X145021511Y-92324901D01*
X145092130Y-92092102D01*
X145115975Y-91850000D01*
X145092130Y-91607898D01*
X145021511Y-91375099D01*
X144906833Y-91160551D01*
X144752502Y-90972498D01*
X144564449Y-90818167D01*
X144349901Y-90703489D01*
X144117102Y-90632870D01*
X143935665Y-90615000D01*
X143264335Y-90615000D01*
X143082898Y-90632870D01*
X142850099Y-90703489D01*
X142635551Y-90818167D01*
X142447498Y-90972498D01*
X142293167Y-91160551D01*
X142178489Y-91375099D01*
X142107870Y-91607898D01*
X142084025Y-91850000D01*
X139760157Y-91850000D01*
X144277811Y-87332346D01*
X144307764Y-87307764D01*
X144405862Y-87188233D01*
X144478754Y-87051860D01*
X144478754Y-87051859D01*
X144523642Y-86903887D01*
X144532714Y-86811767D01*
X144535000Y-86788561D01*
X144535000Y-86788556D01*
X144538797Y-86750000D01*
X144535000Y-86711444D01*
X144535000Y-85178711D01*
X144553937Y-85159774D01*
X144667205Y-84990256D01*
X144745226Y-84801898D01*
X144785000Y-84601939D01*
X144785000Y-84398061D01*
X144745226Y-84198102D01*
X144667205Y-84009744D01*
X144553937Y-83840226D01*
X144409774Y-83696063D01*
X144240256Y-83582795D01*
X144051898Y-83504774D01*
X143851939Y-83465000D01*
X143648061Y-83465000D01*
X143448102Y-83504774D01*
X143259744Y-83582795D01*
X143090226Y-83696063D01*
X142946063Y-83840226D01*
X142832795Y-84009744D01*
X142754774Y-84198102D01*
X142715000Y-84398061D01*
X142715000Y-84601939D01*
X142754774Y-84801898D01*
X142832795Y-84990256D01*
X142946063Y-85159774D01*
X142965001Y-85178712D01*
X142965000Y-86424843D01*
X138424843Y-90965000D01*
X130538555Y-90965000D01*
X130500000Y-90961203D01*
X130461444Y-90965000D01*
X130461439Y-90965000D01*
X130421026Y-90968980D01*
X130346113Y-90976358D01*
X130198140Y-91021246D01*
X130061767Y-91094138D01*
X130001559Y-91143550D01*
X129972187Y-91167655D01*
X129972184Y-91167658D01*
X129942236Y-91192236D01*
X129917658Y-91222185D01*
X129030295Y-92109548D01*
X128990256Y-92082795D01*
X128801898Y-92004774D01*
X128601939Y-91965000D01*
X128398061Y-91965000D01*
X128198102Y-92004774D01*
X128009744Y-92082795D01*
X127840226Y-92196063D01*
X127696063Y-92340226D01*
X127582795Y-92509744D01*
X127504774Y-92698102D01*
X127465000Y-92898061D01*
X113508218Y-92898061D01*
X110645157Y-90035000D01*
X118711447Y-90035000D01*
X118750000Y-90038797D01*
X118788553Y-90035000D01*
X118788561Y-90035000D01*
X118903887Y-90023641D01*
X119051860Y-89978754D01*
X119188233Y-89905862D01*
X119307764Y-89807764D01*
X119332347Y-89777810D01*
X123027810Y-86082347D01*
X123057764Y-86057764D01*
X123155862Y-85938233D01*
X123228754Y-85801860D01*
X123260229Y-85698102D01*
X123273642Y-85653887D01*
X123283690Y-85551860D01*
X123285000Y-85538561D01*
X123285000Y-85538556D01*
X123288797Y-85500000D01*
X123285000Y-85461444D01*
X123285000Y-85178711D01*
X123303937Y-85159774D01*
X123417205Y-84990256D01*
X123495226Y-84801898D01*
X123535000Y-84601939D01*
X123535000Y-84398061D01*
X123495226Y-84198102D01*
X123417205Y-84009744D01*
X123303937Y-83840226D01*
X123159774Y-83696063D01*
X122990256Y-83582795D01*
X122801898Y-83504774D01*
X122601939Y-83465000D01*
X122512511Y-83465000D01*
X122535000Y-83351939D01*
X122535000Y-83148061D01*
X122495226Y-82948102D01*
X122417205Y-82759744D01*
X122303937Y-82590226D01*
X122159774Y-82446063D01*
X121990256Y-82332795D01*
X121801898Y-82254774D01*
X121601939Y-82215000D01*
X121398061Y-82215000D01*
X121198102Y-82254774D01*
X121009744Y-82332795D01*
X120840226Y-82446063D01*
X120696063Y-82590226D01*
X120582795Y-82759744D01*
X120504774Y-82948102D01*
X120465000Y-83148061D01*
X120465000Y-83351939D01*
X120504774Y-83551898D01*
X120582795Y-83740256D01*
X120696063Y-83909774D01*
X120715000Y-83928711D01*
X120715001Y-84924842D01*
X118174843Y-87465000D01*
X110825158Y-87465000D01*
X105832345Y-82472188D01*
X105807764Y-82442236D01*
X105688233Y-82344138D01*
X105551860Y-82271246D01*
X105403887Y-82226359D01*
X105288561Y-82215000D01*
X105288553Y-82215000D01*
X105250000Y-82211203D01*
X105211447Y-82215000D01*
X90735157Y-82215000D01*
X90197075Y-81676918D01*
X90217074Y-81576377D01*
X113563587Y-81576377D01*
X113600353Y-81776912D01*
X113675534Y-81966420D01*
X113688362Y-81990422D01*
X113609423Y-82173184D01*
X113566649Y-82372523D01*
X113563587Y-82576377D01*
X113600353Y-82776912D01*
X113675534Y-82966420D01*
X113688362Y-82990422D01*
X113609423Y-83173184D01*
X113566649Y-83372523D01*
X113563587Y-83576377D01*
X113600353Y-83776912D01*
X113675534Y-83966420D01*
X113688362Y-83990422D01*
X113609423Y-84173184D01*
X113566649Y-84372523D01*
X113563587Y-84576377D01*
X113600353Y-84776912D01*
X113675534Y-84966420D01*
X113688362Y-84990422D01*
X113609423Y-85173184D01*
X113566649Y-85372523D01*
X113563587Y-85576377D01*
X113600353Y-85776912D01*
X113675534Y-85966420D01*
X113690264Y-85993981D01*
X113893559Y-86016836D01*
X114403912Y-85506483D01*
X114482523Y-85523351D01*
X114564365Y-85524580D01*
X114563587Y-85576377D01*
X114583673Y-85685932D01*
X114073164Y-86196441D01*
X114096019Y-86399736D01*
X114283184Y-86480577D01*
X114482523Y-86523351D01*
X114686377Y-86526413D01*
X114886912Y-86489647D01*
X115076420Y-86414466D01*
X115100422Y-86401638D01*
X115283184Y-86480577D01*
X115482523Y-86523351D01*
X115686377Y-86526413D01*
X115886912Y-86489647D01*
X116076420Y-86414466D01*
X116100422Y-86401638D01*
X116283184Y-86480577D01*
X116482523Y-86523351D01*
X116686377Y-86526413D01*
X116886912Y-86489647D01*
X117076420Y-86414466D01*
X117100422Y-86401638D01*
X117283184Y-86480577D01*
X117482523Y-86523351D01*
X117686377Y-86526413D01*
X117886912Y-86489647D01*
X118076420Y-86414466D01*
X118100422Y-86401638D01*
X118283184Y-86480577D01*
X118482523Y-86523351D01*
X118686377Y-86526413D01*
X118886912Y-86489647D01*
X119076420Y-86414466D01*
X119103981Y-86399736D01*
X119126836Y-86196441D01*
X118616483Y-85686088D01*
X118633351Y-85607477D01*
X118634580Y-85525635D01*
X118686377Y-85526413D01*
X118795932Y-85506327D01*
X119306441Y-86016836D01*
X119509736Y-85993981D01*
X119590577Y-85806816D01*
X119633351Y-85607477D01*
X119636413Y-85403623D01*
X119599647Y-85203088D01*
X119524466Y-85013580D01*
X119511638Y-84989578D01*
X119590577Y-84806816D01*
X119633351Y-84607477D01*
X119636413Y-84403623D01*
X119599647Y-84203088D01*
X119524466Y-84013580D01*
X119511638Y-83989578D01*
X119590577Y-83806816D01*
X119633351Y-83607477D01*
X119636413Y-83403623D01*
X119599647Y-83203088D01*
X119524466Y-83013580D01*
X119511638Y-82989578D01*
X119590577Y-82806816D01*
X119633351Y-82607477D01*
X119636413Y-82403623D01*
X119599647Y-82203088D01*
X119524466Y-82013580D01*
X119511638Y-81989578D01*
X119590577Y-81806816D01*
X119633351Y-81607477D01*
X119636413Y-81403623D01*
X119599647Y-81203088D01*
X119524466Y-81013580D01*
X119509736Y-80986019D01*
X119306441Y-80963164D01*
X118796088Y-81473517D01*
X118717477Y-81456649D01*
X118635635Y-81455420D01*
X118636413Y-81403623D01*
X118616327Y-81294068D01*
X119126836Y-80783559D01*
X119103981Y-80580264D01*
X118916816Y-80499423D01*
X118717477Y-80456649D01*
X118513623Y-80453587D01*
X118313088Y-80490353D01*
X118123580Y-80565534D01*
X118099578Y-80578362D01*
X117916816Y-80499423D01*
X117717477Y-80456649D01*
X117513623Y-80453587D01*
X117313088Y-80490353D01*
X117123580Y-80565534D01*
X117099578Y-80578362D01*
X116916816Y-80499423D01*
X116717477Y-80456649D01*
X116513623Y-80453587D01*
X116313088Y-80490353D01*
X116123580Y-80565534D01*
X116099578Y-80578362D01*
X115916816Y-80499423D01*
X115717477Y-80456649D01*
X115513623Y-80453587D01*
X115313088Y-80490353D01*
X115123580Y-80565534D01*
X115099578Y-80578362D01*
X114916816Y-80499423D01*
X114717477Y-80456649D01*
X114513623Y-80453587D01*
X114313088Y-80490353D01*
X114123580Y-80565534D01*
X114096019Y-80580264D01*
X114073164Y-80783559D01*
X114583517Y-81293912D01*
X114566649Y-81372523D01*
X114565420Y-81454365D01*
X114513623Y-81453587D01*
X114404068Y-81473673D01*
X113893559Y-80963164D01*
X113690264Y-80986019D01*
X113609423Y-81173184D01*
X113566649Y-81372523D01*
X113563587Y-81576377D01*
X90217074Y-81576377D01*
X90235000Y-81486260D01*
X90235000Y-81193740D01*
X90177932Y-80906842D01*
X90065990Y-80636589D01*
X89903475Y-80393368D01*
X89771620Y-80261513D01*
X89844180Y-80239502D01*
X89954494Y-80180537D01*
X90051185Y-80101185D01*
X90130537Y-80004494D01*
X90189502Y-79894180D01*
X90225812Y-79774482D01*
X90238072Y-79650000D01*
X90235000Y-79085750D01*
X90076250Y-78927000D01*
X88877000Y-78927000D01*
X88877000Y-78947000D01*
X88623000Y-78947000D01*
X88623000Y-78927000D01*
X88603000Y-78927000D01*
X88603000Y-78673000D01*
X88623000Y-78673000D01*
X88623000Y-77473750D01*
X88877000Y-77473750D01*
X88877000Y-78673000D01*
X90076250Y-78673000D01*
X90235000Y-78514250D01*
X90238072Y-77950000D01*
X90225812Y-77825518D01*
X90189502Y-77705820D01*
X90130537Y-77595506D01*
X90051185Y-77498815D01*
X89954494Y-77419463D01*
X89844180Y-77360498D01*
X89724482Y-77324188D01*
X89600000Y-77311928D01*
X89035750Y-77315000D01*
X88877000Y-77473750D01*
X88623000Y-77473750D01*
X88464250Y-77315000D01*
X87900000Y-77311928D01*
X87775518Y-77324188D01*
X87660000Y-77359230D01*
X87660000Y-75700881D01*
X88478724Y-75700881D01*
X88838912Y-76190548D01*
X89502882Y-76550849D01*
X90224385Y-76774694D01*
X90975695Y-76853480D01*
X91727938Y-76784178D01*
X92452208Y-76569452D01*
X93120670Y-76217555D01*
X93161088Y-76190548D01*
X93227045Y-76100881D01*
X140478724Y-76100881D01*
X140838912Y-76590548D01*
X141502882Y-76950849D01*
X142224385Y-77174694D01*
X142975695Y-77253480D01*
X143727938Y-77184178D01*
X144452208Y-76969452D01*
X145120670Y-76617555D01*
X145161088Y-76590548D01*
X145521276Y-76100881D01*
X143000000Y-73579605D01*
X140478724Y-76100881D01*
X93227045Y-76100881D01*
X93521276Y-75700881D01*
X91000000Y-73179605D01*
X88478724Y-75700881D01*
X87660000Y-75700881D01*
X87660000Y-74888074D01*
X87782445Y-75120670D01*
X87809452Y-75161088D01*
X88299119Y-75521276D01*
X90820395Y-73000000D01*
X91179605Y-73000000D01*
X93700881Y-75521276D01*
X94190548Y-75161088D01*
X94550849Y-74497118D01*
X94774694Y-73775615D01*
X94816631Y-73375695D01*
X139146520Y-73375695D01*
X139215822Y-74127938D01*
X139430548Y-74852208D01*
X139782445Y-75520670D01*
X139809452Y-75561088D01*
X140299119Y-75921276D01*
X142820395Y-73400000D01*
X140299119Y-70878724D01*
X139809452Y-71238912D01*
X139449151Y-71902882D01*
X139225306Y-72624385D01*
X139146520Y-73375695D01*
X94816631Y-73375695D01*
X94853480Y-73024305D01*
X94784178Y-72272062D01*
X94569452Y-71547792D01*
X94217555Y-70879330D01*
X94190548Y-70838912D01*
X93700881Y-70478724D01*
X91179605Y-73000000D01*
X90820395Y-73000000D01*
X90806253Y-72985858D01*
X90985858Y-72806253D01*
X91000000Y-72820395D01*
X93521276Y-70299119D01*
X93161088Y-69809452D01*
X92885675Y-69660000D01*
X142123050Y-69660000D01*
X141547792Y-69830548D01*
G37*
X141547792Y-69830548D02*
X140879330Y-70182445D01*
X140838912Y-70209452D01*
X140478724Y-70699119D01*
X143000000Y-73220395D01*
X143014143Y-73206253D01*
X143193748Y-73385858D01*
X143179605Y-73400000D01*
X145700881Y-75921276D01*
X146190548Y-75561088D01*
X146340000Y-75285675D01*
X146340001Y-123111928D01*
X146217555Y-122879330D01*
X146190548Y-122838912D01*
X145700881Y-122478724D01*
X143179605Y-125000000D01*
X143193748Y-125014143D01*
X143014143Y-125193748D01*
X143000000Y-125179605D01*
X140478724Y-127700881D01*
X140838912Y-128190548D01*
X141114325Y-128340000D01*
X111127000Y-128340000D01*
X111127000Y-126224193D01*
X135115000Y-126224193D01*
X135115000Y-126575807D01*
X135183596Y-126920665D01*
X135318153Y-127245515D01*
X135513500Y-127537871D01*
X135762129Y-127786500D01*
X136054485Y-127981847D01*
X136379335Y-128116404D01*
X136724193Y-128185000D01*
X137075807Y-128185000D01*
X137420665Y-128116404D01*
X137745515Y-127981847D01*
X138037871Y-127786500D01*
X138286500Y-127537871D01*
X138481847Y-127245515D01*
X138616404Y-126920665D01*
X138685000Y-126575807D01*
X138685000Y-126224193D01*
X138616404Y-125879335D01*
X138481847Y-125554485D01*
X138286500Y-125262129D01*
X138037871Y-125013500D01*
X137981293Y-124975695D01*
X139146520Y-124975695D01*
X139215822Y-125727938D01*
X139430548Y-126452208D01*
X139782445Y-127120670D01*
X139809452Y-127161088D01*
X140299119Y-127521276D01*
X142820395Y-125000000D01*
X140299119Y-122478724D01*
X139809452Y-122838912D01*
X139449151Y-123502882D01*
X139225306Y-124224385D01*
X139146520Y-124975695D01*
X137981293Y-124975695D01*
X137745515Y-124818153D01*
X137420665Y-124683596D01*
X137075807Y-124615000D01*
X136724193Y-124615000D01*
X136379335Y-124683596D01*
X136054485Y-124818153D01*
X135762129Y-125013500D01*
X135513500Y-125262129D01*
X135318153Y-125554485D01*
X135183596Y-125879335D01*
X135115000Y-126224193D01*
X111127000Y-126224193D01*
X111127000Y-122299119D01*
X140478724Y-122299119D01*
X143000000Y-124820395D01*
X145521276Y-122299119D01*
X145161088Y-121809452D01*
X144497118Y-121449151D01*
X143775615Y-121225306D01*
X143024305Y-121146520D01*
X142272062Y-121215822D01*
X141547792Y-121430548D01*
X140879330Y-121782445D01*
X140838912Y-121809452D01*
X140478724Y-122299119D01*
X111127000Y-122299119D01*
X111127000Y-114000000D01*
X111124560Y-113975224D01*
X111117333Y-113951399D01*
X111105597Y-113929443D01*
X111089803Y-113910197D01*
X111070557Y-113894403D01*
X111048601Y-113882667D01*
X111024776Y-113875440D01*
X111000000Y-113873000D01*
X87660000Y-113873000D01*
X87660000Y-112242349D01*
X135837256Y-112242349D01*
X135951118Y-112522090D01*
X136266296Y-112677961D01*
X136605826Y-112769349D01*
X136956661Y-112792741D01*
X137305319Y-112747240D01*
X137638400Y-112634594D01*
X137848882Y-112522090D01*
X137962744Y-112242349D01*
X136900000Y-111179605D01*
X135837256Y-112242349D01*
X87660000Y-112242349D01*
X87660000Y-112202904D01*
X87735518Y-112225812D01*
X87860000Y-112238072D01*
X89560000Y-112238072D01*
X89684482Y-112225812D01*
X89804180Y-112189502D01*
X89914494Y-112130537D01*
X90011185Y-112051185D01*
X90090537Y-111954494D01*
X90149502Y-111844180D01*
X90171513Y-111771620D01*
X90303368Y-111903475D01*
X90546589Y-112065990D01*
X90816842Y-112177932D01*
X91103740Y-112235000D01*
X91396260Y-112235000D01*
X91683158Y-112177932D01*
X91953411Y-112065990D01*
X92196632Y-111903475D01*
X92403475Y-111696632D01*
X92565990Y-111453411D01*
X92677932Y-111183158D01*
X92703094Y-111056661D01*
X135107259Y-111056661D01*
X135152760Y-111405319D01*
X135265406Y-111738400D01*
X135377910Y-111948882D01*
X135657651Y-112062744D01*
X136720395Y-111000000D01*
X137079605Y-111000000D01*
X138142349Y-112062744D01*
X138422090Y-111948882D01*
X138577961Y-111633704D01*
X138669349Y-111294174D01*
X138692741Y-110943339D01*
X138647240Y-110594681D01*
X138534594Y-110261600D01*
X138422090Y-110051118D01*
X138142349Y-109937256D01*
X137079605Y-111000000D01*
X136720395Y-111000000D01*
X135657651Y-109937256D01*
X135377910Y-110051118D01*
X135222039Y-110366296D01*
X135130651Y-110705826D01*
X135107259Y-111056661D01*
X92703094Y-111056661D01*
X92735000Y-110896260D01*
X92735000Y-110603740D01*
X92677932Y-110316842D01*
X92565990Y-110046589D01*
X92403475Y-109803368D01*
X92357758Y-109757651D01*
X135837256Y-109757651D01*
X136900000Y-110820395D01*
X137962744Y-109757651D01*
X137848882Y-109477910D01*
X137533704Y-109322039D01*
X137194174Y-109230651D01*
X136843339Y-109207259D01*
X136494681Y-109252760D01*
X136161600Y-109365406D01*
X135951118Y-109477910D01*
X135837256Y-109757651D01*
X92357758Y-109757651D01*
X92196632Y-109596525D01*
X91953411Y-109434010D01*
X91683158Y-109322068D01*
X91396260Y-109265000D01*
X91103740Y-109265000D01*
X90816842Y-109322068D01*
X90546589Y-109434010D01*
X90303368Y-109596525D01*
X90171513Y-109728380D01*
X90149502Y-109655820D01*
X90090537Y-109545506D01*
X90011185Y-109448815D01*
X89914494Y-109369463D01*
X89804180Y-109310498D01*
X89684482Y-109274188D01*
X89560000Y-109261928D01*
X87860000Y-109261928D01*
X87735518Y-109274188D01*
X87660000Y-109297096D01*
X87660000Y-106400000D01*
X142086928Y-106400000D01*
X142099188Y-106524482D01*
X142135498Y-106644180D01*
X142194463Y-106754494D01*
X142273815Y-106851185D01*
X142370506Y-106930537D01*
X142480820Y-106989502D01*
X142600518Y-107025812D01*
X142725000Y-107038072D01*
X143314250Y-107035000D01*
X143473000Y-106876250D01*
X143473000Y-105927000D01*
X143727000Y-105927000D01*
X143727000Y-106876250D01*
X143885750Y-107035000D01*
X144475000Y-107038072D01*
X144599482Y-107025812D01*
X144719180Y-106989502D01*
X144829494Y-106930537D01*
X144926185Y-106851185D01*
X145005537Y-106754494D01*
X145064502Y-106644180D01*
X145100812Y-106524482D01*
X145113072Y-106400000D01*
X145110000Y-106085750D01*
X144951250Y-105927000D01*
X143727000Y-105927000D01*
X143473000Y-105927000D01*
X142248750Y-105927000D01*
X142090000Y-106085750D01*
X142086928Y-106400000D01*
X87660000Y-106400000D01*
X87660000Y-103588212D01*
X90365000Y-103588212D01*
X90365000Y-103811788D01*
X90408617Y-104031067D01*
X90494176Y-104237624D01*
X90618388Y-104423520D01*
X90776480Y-104581612D01*
X90962376Y-104705824D01*
X91168933Y-104791383D01*
X91388212Y-104835000D01*
X91611788Y-104835000D01*
X91831067Y-104791383D01*
X92037624Y-104705824D01*
X92223520Y-104581612D01*
X92381612Y-104423520D01*
X92505824Y-104237624D01*
X92591383Y-104031067D01*
X92635000Y-103811788D01*
X92635000Y-103588212D01*
X92591383Y-103368933D01*
X92505824Y-103162376D01*
X92381612Y-102976480D01*
X92223520Y-102818388D01*
X92037624Y-102694176D01*
X91831067Y-102608617D01*
X91611788Y-102565000D01*
X91388212Y-102565000D01*
X91168933Y-102608617D01*
X90962376Y-102694176D01*
X90776480Y-102818388D01*
X90618388Y-102976480D01*
X90494176Y-103162376D01*
X90408617Y-103368933D01*
X90365000Y-103588212D01*
X87660000Y-103588212D01*
X87660000Y-99188212D01*
X90365000Y-99188212D01*
X90365000Y-99411788D01*
X90408617Y-99631067D01*
X90494176Y-99837624D01*
X90618388Y-100023520D01*
X90776480Y-100181612D01*
X90962376Y-100305824D01*
X91168933Y-100391383D01*
X91388212Y-100435000D01*
X91611788Y-100435000D01*
X91831067Y-100391383D01*
X92037624Y-100305824D01*
X92223520Y-100181612D01*
X92381612Y-100023520D01*
X92505824Y-99837624D01*
X92591383Y-99631067D01*
X92635000Y-99411788D01*
X92635000Y-99188212D01*
X92591383Y-98968933D01*
X92505824Y-98762376D01*
X92381612Y-98576480D01*
X92223520Y-98418388D01*
X92037624Y-98294176D01*
X91831067Y-98208617D01*
X91611788Y-98165000D01*
X91388212Y-98165000D01*
X91168933Y-98208617D01*
X90962376Y-98294176D01*
X90776480Y-98418388D01*
X90618388Y-98576480D01*
X90494176Y-98762376D01*
X90408617Y-98968933D01*
X90365000Y-99188212D01*
X87660000Y-99188212D01*
X87660000Y-95398061D01*
X88465000Y-95398061D01*
X88465000Y-95601939D01*
X88504774Y-95801898D01*
X88582795Y-95990256D01*
X88696063Y-96159774D01*
X88840226Y-96303937D01*
X89009744Y-96417205D01*
X89198102Y-96495226D01*
X89398061Y-96535000D01*
X89601939Y-96535000D01*
X89801898Y-96495226D01*
X89990256Y-96417205D01*
X90159774Y-96303937D01*
X90203711Y-96260000D01*
X92296289Y-96260000D01*
X92340226Y-96303937D01*
X92509744Y-96417205D01*
X92698102Y-96495226D01*
X92898061Y-96535000D01*
X93101939Y-96535000D01*
X93301898Y-96495226D01*
X93490256Y-96417205D01*
X93659774Y-96303937D01*
X93803937Y-96159774D01*
X93917205Y-95990256D01*
X93995226Y-95801898D01*
X94035000Y-95601939D01*
X94035000Y-95398061D01*
X93995226Y-95198102D01*
X93917205Y-95009744D01*
X93803937Y-94840226D01*
X93659774Y-94696063D01*
X93490256Y-94582795D01*
X93301898Y-94504774D01*
X93101939Y-94465000D01*
X92898061Y-94465000D01*
X92698102Y-94504774D01*
X92509744Y-94582795D01*
X92340226Y-94696063D01*
X92296289Y-94740000D01*
X90203711Y-94740000D01*
X90159774Y-94696063D01*
X89990256Y-94582795D01*
X89801898Y-94504774D01*
X89601939Y-94465000D01*
X89398061Y-94465000D01*
X89198102Y-94504774D01*
X89009744Y-94582795D01*
X88840226Y-94696063D01*
X88696063Y-94840226D01*
X88582795Y-95009744D01*
X88504774Y-95198102D01*
X88465000Y-95398061D01*
X87660000Y-95398061D01*
X87660000Y-92510107D01*
X87803368Y-92653475D01*
X88046589Y-92815990D01*
X88316842Y-92927932D01*
X88603740Y-92985000D01*
X88896260Y-92985000D01*
X89183158Y-92927932D01*
X89453411Y-92815990D01*
X89696632Y-92653475D01*
X89903475Y-92446632D01*
X90065990Y-92203411D01*
X90177932Y-91933158D01*
X90235000Y-91646260D01*
X90235000Y-91353740D01*
X90177932Y-91066842D01*
X90065990Y-90796589D01*
X89903475Y-90553368D01*
X89696632Y-90346525D01*
X89522240Y-90230000D01*
X89696632Y-90113475D01*
X89903475Y-89906632D01*
X90065990Y-89663411D01*
X90177932Y-89393158D01*
X90235000Y-89106260D01*
X90235000Y-88813740D01*
X90229283Y-88784999D01*
X92211446Y-88784999D01*
X92249999Y-88788796D01*
X92288552Y-88784999D01*
X92288560Y-88784999D01*
X92403886Y-88773640D01*
X92551859Y-88728753D01*
X92688232Y-88655861D01*
X92807763Y-88557763D01*
X92832346Y-88527809D01*
X93325155Y-88035000D01*
X104251289Y-88035000D01*
X104196063Y-88090226D01*
X104082795Y-88259744D01*
X104004774Y-88448102D01*
X103965000Y-88648061D01*
X103965000Y-88851939D01*
X104004774Y-89051898D01*
X104082795Y-89240256D01*
X104196063Y-89409774D01*
X104286289Y-89500000D01*
X104196063Y-89590226D01*
X104082795Y-89759744D01*
X104004774Y-89948102D01*
X103965000Y-90148061D01*
X103965000Y-90351939D01*
X104004774Y-90551898D01*
X104082795Y-90740256D01*
X104196063Y-90909774D01*
X104340226Y-91053937D01*
X104446580Y-91125000D01*
X104340226Y-91196063D01*
X104196063Y-91340226D01*
X104082795Y-91509744D01*
X104004774Y-91698102D01*
X103965000Y-91898061D01*
X103965000Y-92101939D01*
X104004774Y-92301898D01*
X104082795Y-92490256D01*
X104196063Y-92659774D01*
X104340226Y-92803937D01*
X104509744Y-92917205D01*
X104698102Y-92995226D01*
X104898061Y-93035000D01*
X104924843Y-93035000D01*
X109104843Y-97215000D01*
X107325158Y-97215000D01*
X106535000Y-96424843D01*
X106535000Y-96398061D01*
X106495226Y-96198102D01*
X106417205Y-96009744D01*
X106303937Y-95840226D01*
X106159774Y-95696063D01*
X105990256Y-95582795D01*
X105801898Y-95504774D01*
X105601939Y-95465000D01*
X105398061Y-95465000D01*
X105198102Y-95504774D01*
X105009744Y-95582795D01*
X104840226Y-95696063D01*
X104696063Y-95840226D01*
X104582795Y-96009744D01*
X104504774Y-96198102D01*
X104465000Y-96398061D01*
X104465000Y-96601939D01*
X104504774Y-96801898D01*
X104582795Y-96990256D01*
X104696063Y-97159774D01*
X104840226Y-97303937D01*
X105009744Y-97417205D01*
X105198102Y-97495226D01*
X105398061Y-97535000D01*
X105424843Y-97535000D01*
X106417658Y-98527816D01*
X106442236Y-98557764D01*
X106472184Y-98582342D01*
X106472187Y-98582345D01*
X106481790Y-98590226D01*
X106561767Y-98655862D01*
X106698140Y-98728754D01*
X106800301Y-98759744D01*
X106846112Y-98773641D01*
X106860490Y-98775057D01*
X106961439Y-98785000D01*
X106961446Y-98785000D01*
X106999999Y-98788797D01*
X107038552Y-98785000D01*
X108924843Y-98785000D01*
X113667653Y-103527810D01*
X113692236Y-103557764D01*
X113811767Y-103655862D01*
X113948140Y-103728754D01*
X114096113Y-103773642D01*
X114171026Y-103781020D01*
X114211439Y-103785000D01*
X114211444Y-103785000D01*
X114250000Y-103788797D01*
X114288556Y-103785000D01*
X132961447Y-103785000D01*
X133000000Y-103788797D01*
X133038553Y-103785000D01*
X133038561Y-103785000D01*
X133153887Y-103773641D01*
X133301860Y-103728754D01*
X133438233Y-103655862D01*
X133557764Y-103557764D01*
X133582347Y-103527810D01*
X136825157Y-100285000D01*
X136851939Y-100285000D01*
X137051898Y-100245226D01*
X137240256Y-100167205D01*
X137409774Y-100053937D01*
X137553937Y-99909774D01*
X137667205Y-99740256D01*
X137745226Y-99551898D01*
X137785000Y-99351939D01*
X137785000Y-99148061D01*
X137745226Y-98948102D01*
X137667205Y-98759744D01*
X137553937Y-98590226D01*
X137409774Y-98446063D01*
X137240256Y-98332795D01*
X137051898Y-98254774D01*
X136851939Y-98215000D01*
X136648061Y-98215000D01*
X136448102Y-98254774D01*
X136259744Y-98332795D01*
X136090226Y-98446063D01*
X135946063Y-98590226D01*
X135832795Y-98759744D01*
X135754774Y-98948102D01*
X135715000Y-99148061D01*
X135715000Y-99174843D01*
X134051777Y-100838066D01*
X133909774Y-100696063D01*
X133740256Y-100582795D01*
X133551898Y-100504774D01*
X133351939Y-100465000D01*
X133326446Y-100465000D01*
X133307764Y-100442236D01*
X133188233Y-100344138D01*
X133051860Y-100271246D01*
X132903887Y-100226359D01*
X132788561Y-100215000D01*
X132788553Y-100215000D01*
X132750000Y-100211203D01*
X132711447Y-100215000D01*
X132512511Y-100215000D01*
X132535000Y-100101939D01*
X132535000Y-99898061D01*
X132495226Y-99698102D01*
X132417205Y-99509744D01*
X132303937Y-99340226D01*
X132159774Y-99196063D01*
X131990256Y-99082795D01*
X131801898Y-99004774D01*
X131601939Y-98965000D01*
X131398061Y-98965000D01*
X131198102Y-99004774D01*
X131009744Y-99082795D01*
X130840226Y-99196063D01*
X130821289Y-99215000D01*
X120395157Y-99215000D01*
X122825158Y-96785000D01*
X122851939Y-96785000D01*
X123051898Y-96745226D01*
X123240256Y-96667205D01*
X123409774Y-96553937D01*
X123553937Y-96409774D01*
X123667205Y-96240256D01*
X123745226Y-96051898D01*
X123785000Y-95851939D01*
X123785000Y-95648061D01*
X123745226Y-95448102D01*
X123667205Y-95259744D01*
X123553937Y-95090226D01*
X123409774Y-94946063D01*
X123240256Y-94832795D01*
X123051898Y-94754774D01*
X122851939Y-94715000D01*
X122648061Y-94715000D01*
X122448102Y-94754774D01*
X122259744Y-94832795D01*
X122210965Y-94865388D01*
X122167205Y-94759744D01*
X122053937Y-94590226D01*
X121909774Y-94446063D01*
X121740256Y-94332795D01*
X121551898Y-94254774D01*
X121351939Y-94215000D01*
X121148061Y-94215000D01*
X120948102Y-94254774D01*
X120759744Y-94332795D01*
X120590226Y-94446063D01*
X120446063Y-94590226D01*
X120332795Y-94759744D01*
X120254774Y-94948102D01*
X120215000Y-95148061D01*
X120215000Y-95174842D01*
X118174843Y-97215000D01*
X117825157Y-97215000D01*
X113508218Y-92898061D01*
X127465000Y-92898061D01*
X127465000Y-93101939D01*
X127504774Y-93301898D01*
X127582795Y-93490256D01*
X127696063Y-93659774D01*
X127840226Y-93803937D01*
X128009744Y-93917205D01*
X128198102Y-93995226D01*
X128398061Y-94035000D01*
X128601939Y-94035000D01*
X128801898Y-93995226D01*
X128990256Y-93917205D01*
X129159774Y-93803937D01*
X129178711Y-93785000D01*
X129211447Y-93785000D01*
X129250000Y-93788797D01*
X129288553Y-93785000D01*
X129288561Y-93785000D01*
X129358114Y-93778149D01*
X129446063Y-93909774D01*
X129590226Y-94053937D01*
X129759744Y-94167205D01*
X129948102Y-94245226D01*
X130148061Y-94285000D01*
X130351939Y-94285000D01*
X130551898Y-94245226D01*
X130740256Y-94167205D01*
X130909774Y-94053937D01*
X130928711Y-94035000D01*
X131711447Y-94035000D01*
X131750000Y-94038797D01*
X131788553Y-94035000D01*
X131788561Y-94035000D01*
X131903887Y-94023641D01*
X132051860Y-93978754D01*
X132188233Y-93905862D01*
X132307764Y-93807764D01*
X132332347Y-93777811D01*
X132472170Y-93637987D01*
X132504774Y-93801898D01*
X132582795Y-93990256D01*
X132696063Y-94159774D01*
X132840226Y-94303937D01*
X133009744Y-94417205D01*
X133198102Y-94495226D01*
X133398061Y-94535000D01*
X133601939Y-94535000D01*
X133801898Y-94495226D01*
X133990256Y-94417205D01*
X134159774Y-94303937D01*
X134178711Y-94285000D01*
X135424843Y-94285000D01*
X138215000Y-97075158D01*
X138215001Y-101961437D01*
X138211203Y-102000000D01*
X138226359Y-102153886D01*
X138271246Y-102301859D01*
X138271247Y-102301860D01*
X138344139Y-102438233D01*
X138358607Y-102455862D01*
X138417655Y-102527812D01*
X138417659Y-102527816D01*
X138442237Y-102557764D01*
X138472185Y-102582342D01*
X140217658Y-104327816D01*
X140242236Y-104357764D01*
X140272184Y-104382342D01*
X140272187Y-104382345D01*
X140301559Y-104406450D01*
X140361767Y-104455862D01*
X140498140Y-104528754D01*
X140607500Y-104561928D01*
X140646112Y-104573641D01*
X140660490Y-104575057D01*
X140761439Y-104585000D01*
X140761446Y-104585000D01*
X140799999Y-104588797D01*
X140838552Y-104585000D01*
X142371584Y-104585000D01*
X142419436Y-104643309D01*
X142370506Y-104669463D01*
X142273815Y-104748815D01*
X142194463Y-104845506D01*
X142135498Y-104955820D01*
X142099188Y-105075518D01*
X142086928Y-105200000D01*
X142090000Y-105514250D01*
X142248750Y-105673000D01*
X143473000Y-105673000D01*
X143473000Y-105653000D01*
X143727000Y-105653000D01*
X143727000Y-105673000D01*
X144951250Y-105673000D01*
X145110000Y-105514250D01*
X145113072Y-105200000D01*
X145100812Y-105075518D01*
X145064502Y-104955820D01*
X145005537Y-104845506D01*
X144926185Y-104748815D01*
X144829494Y-104669463D01*
X144780564Y-104643309D01*
X144906833Y-104489449D01*
X145021511Y-104274901D01*
X145092130Y-104042102D01*
X145115975Y-103800000D01*
X145092130Y-103557898D01*
X145021511Y-103325099D01*
X144906833Y-103110551D01*
X144752502Y-102922498D01*
X144603238Y-102800000D01*
X144752502Y-102677502D01*
X144906833Y-102489449D01*
X145021511Y-102274901D01*
X145092130Y-102042102D01*
X145115975Y-101800000D01*
X145092130Y-101557898D01*
X145021511Y-101325099D01*
X144906833Y-101110551D01*
X144752502Y-100922498D01*
X144564449Y-100768167D01*
X144349901Y-100653489D01*
X144117102Y-100582870D01*
X143935665Y-100565000D01*
X143264335Y-100565000D01*
X143082898Y-100582870D01*
X142850099Y-100653489D01*
X142635551Y-100768167D01*
X142447498Y-100922498D01*
X142371584Y-101015000D01*
X141625158Y-101015000D01*
X141035000Y-100424843D01*
X141035000Y-96538552D01*
X141038797Y-96499999D01*
X141035000Y-96461446D01*
X141035000Y-96461439D01*
X141033874Y-96450000D01*
X142086928Y-96450000D01*
X142099188Y-96574482D01*
X142135498Y-96694180D01*
X142194463Y-96804494D01*
X142273815Y-96901185D01*
X142370506Y-96980537D01*
X142480820Y-97039502D01*
X142600518Y-97075812D01*
X142725000Y-97088072D01*
X143314250Y-97085000D01*
X143473000Y-96926250D01*
X143473000Y-95977000D01*
X143727000Y-95977000D01*
X143727000Y-96926250D01*
X143885750Y-97085000D01*
X144475000Y-97088072D01*
X144599482Y-97075812D01*
X144719180Y-97039502D01*
X144829494Y-96980537D01*
X144926185Y-96901185D01*
X145005537Y-96804494D01*
X145064502Y-96694180D01*
X145100812Y-96574482D01*
X145113072Y-96450000D01*
X145110000Y-96135750D01*
X144951250Y-95977000D01*
X143727000Y-95977000D01*
X143473000Y-95977000D01*
X142248750Y-95977000D01*
X142090000Y-96135750D01*
X142086928Y-96450000D01*
X141033874Y-96450000D01*
X141023641Y-96346113D01*
X140978754Y-96198140D01*
X140905862Y-96061767D01*
X140847174Y-95990256D01*
X140832345Y-95972187D01*
X140832342Y-95972184D01*
X140807764Y-95942236D01*
X140777817Y-95917659D01*
X137395157Y-92535000D01*
X138711447Y-92535000D01*
X138750000Y-92538797D01*
X138788553Y-92535000D01*
X138788561Y-92535000D01*
X138903887Y-92523641D01*
X139051860Y-92478754D01*
X139188233Y-92405862D01*
X139307764Y-92307764D01*
X139332347Y-92277810D01*
X139760157Y-91850000D01*
X142084025Y-91850000D01*
X142107870Y-92092102D01*
X142178489Y-92324901D01*
X142293167Y-92539449D01*
X142447498Y-92727502D01*
X142596762Y-92850000D01*
X142447498Y-92972498D01*
X142293167Y-93160551D01*
X142178489Y-93375099D01*
X142107870Y-93607898D01*
X142084025Y-93850000D01*
X142107870Y-94092102D01*
X142178489Y-94324901D01*
X142293167Y-94539449D01*
X142419436Y-94693309D01*
X142370506Y-94719463D01*
X142273815Y-94798815D01*
X142194463Y-94895506D01*
X142135498Y-95005820D01*
X142099188Y-95125518D01*
X142086928Y-95250000D01*
X142090000Y-95564250D01*
X142248750Y-95723000D01*
X143473000Y-95723000D01*
X143473000Y-95703000D01*
X143727000Y-95703000D01*
X143727000Y-95723000D01*
X144951250Y-95723000D01*
X145110000Y-95564250D01*
X145113072Y-95250000D01*
X145100812Y-95125518D01*
X145064502Y-95005820D01*
X145005537Y-94895506D01*
X144926185Y-94798815D01*
X144829494Y-94719463D01*
X144780564Y-94693309D01*
X144906833Y-94539449D01*
X145021511Y-94324901D01*
X145092130Y-94092102D01*
X145115975Y-93850000D01*
X145092130Y-93607898D01*
X145021511Y-93375099D01*
X144906833Y-93160551D01*
X144752502Y-92972498D01*
X144603238Y-92850000D01*
X144752502Y-92727502D01*
X144906833Y-92539449D01*
X145021511Y-92324901D01*
X145092130Y-92092102D01*
X145115975Y-91850000D01*
X145092130Y-91607898D01*
X145021511Y-91375099D01*
X144906833Y-91160551D01*
X144752502Y-90972498D01*
X144564449Y-90818167D01*
X144349901Y-90703489D01*
X144117102Y-90632870D01*
X143935665Y-90615000D01*
X143264335Y-90615000D01*
X143082898Y-90632870D01*
X142850099Y-90703489D01*
X142635551Y-90818167D01*
X142447498Y-90972498D01*
X142293167Y-91160551D01*
X142178489Y-91375099D01*
X142107870Y-91607898D01*
X142084025Y-91850000D01*
X139760157Y-91850000D01*
X144277811Y-87332346D01*
X144307764Y-87307764D01*
X144405862Y-87188233D01*
X144478754Y-87051860D01*
X144478754Y-87051859D01*
X144523642Y-86903887D01*
X144532714Y-86811767D01*
X144535000Y-86788561D01*
X144535000Y-86788556D01*
X144538797Y-86750000D01*
X144535000Y-86711444D01*
X144535000Y-85178711D01*
X144553937Y-85159774D01*
X144667205Y-84990256D01*
X144745226Y-84801898D01*
X144785000Y-84601939D01*
X144785000Y-84398061D01*
X144745226Y-84198102D01*
X144667205Y-84009744D01*
X144553937Y-83840226D01*
X144409774Y-83696063D01*
X144240256Y-83582795D01*
X144051898Y-83504774D01*
X143851939Y-83465000D01*
X143648061Y-83465000D01*
X143448102Y-83504774D01*
X143259744Y-83582795D01*
X143090226Y-83696063D01*
X142946063Y-83840226D01*
X142832795Y-84009744D01*
X142754774Y-84198102D01*
X142715000Y-84398061D01*
X142715000Y-84601939D01*
X142754774Y-84801898D01*
X142832795Y-84990256D01*
X142946063Y-85159774D01*
X142965001Y-85178712D01*
X142965000Y-86424843D01*
X138424843Y-90965000D01*
X130538555Y-90965000D01*
X130500000Y-90961203D01*
X130461444Y-90965000D01*
X130461439Y-90965000D01*
X130421026Y-90968980D01*
X130346113Y-90976358D01*
X130198140Y-91021246D01*
X130061767Y-91094138D01*
X130001559Y-91143550D01*
X129972187Y-91167655D01*
X129972184Y-91167658D01*
X129942236Y-91192236D01*
X129917658Y-91222185D01*
X129030295Y-92109548D01*
X128990256Y-92082795D01*
X128801898Y-92004774D01*
X128601939Y-91965000D01*
X128398061Y-91965000D01*
X128198102Y-92004774D01*
X128009744Y-92082795D01*
X127840226Y-92196063D01*
X127696063Y-92340226D01*
X127582795Y-92509744D01*
X127504774Y-92698102D01*
X127465000Y-92898061D01*
X113508218Y-92898061D01*
X110645157Y-90035000D01*
X118711447Y-90035000D01*
X118750000Y-90038797D01*
X118788553Y-90035000D01*
X118788561Y-90035000D01*
X118903887Y-90023641D01*
X119051860Y-89978754D01*
X119188233Y-89905862D01*
X119307764Y-89807764D01*
X119332347Y-89777810D01*
X123027810Y-86082347D01*
X123057764Y-86057764D01*
X123155862Y-85938233D01*
X123228754Y-85801860D01*
X123260229Y-85698102D01*
X123273642Y-85653887D01*
X123283690Y-85551860D01*
X123285000Y-85538561D01*
X123285000Y-85538556D01*
X123288797Y-85500000D01*
X123285000Y-85461444D01*
X123285000Y-85178711D01*
X123303937Y-85159774D01*
X123417205Y-84990256D01*
X123495226Y-84801898D01*
X123535000Y-84601939D01*
X123535000Y-84398061D01*
X123495226Y-84198102D01*
X123417205Y-84009744D01*
X123303937Y-83840226D01*
X123159774Y-83696063D01*
X122990256Y-83582795D01*
X122801898Y-83504774D01*
X122601939Y-83465000D01*
X122512511Y-83465000D01*
X122535000Y-83351939D01*
X122535000Y-83148061D01*
X122495226Y-82948102D01*
X122417205Y-82759744D01*
X122303937Y-82590226D01*
X122159774Y-82446063D01*
X121990256Y-82332795D01*
X121801898Y-82254774D01*
X121601939Y-82215000D01*
X121398061Y-82215000D01*
X121198102Y-82254774D01*
X121009744Y-82332795D01*
X120840226Y-82446063D01*
X120696063Y-82590226D01*
X120582795Y-82759744D01*
X120504774Y-82948102D01*
X120465000Y-83148061D01*
X120465000Y-83351939D01*
X120504774Y-83551898D01*
X120582795Y-83740256D01*
X120696063Y-83909774D01*
X120715000Y-83928711D01*
X120715001Y-84924842D01*
X118174843Y-87465000D01*
X110825158Y-87465000D01*
X105832345Y-82472188D01*
X105807764Y-82442236D01*
X105688233Y-82344138D01*
X105551860Y-82271246D01*
X105403887Y-82226359D01*
X105288561Y-82215000D01*
X105288553Y-82215000D01*
X105250000Y-82211203D01*
X105211447Y-82215000D01*
X90735157Y-82215000D01*
X90197075Y-81676918D01*
X90217074Y-81576377D01*
X113563587Y-81576377D01*
X113600353Y-81776912D01*
X113675534Y-81966420D01*
X113688362Y-81990422D01*
X113609423Y-82173184D01*
X113566649Y-82372523D01*
X113563587Y-82576377D01*
X113600353Y-82776912D01*
X113675534Y-82966420D01*
X113688362Y-82990422D01*
X113609423Y-83173184D01*
X113566649Y-83372523D01*
X113563587Y-83576377D01*
X113600353Y-83776912D01*
X113675534Y-83966420D01*
X113688362Y-83990422D01*
X113609423Y-84173184D01*
X113566649Y-84372523D01*
X113563587Y-84576377D01*
X113600353Y-84776912D01*
X113675534Y-84966420D01*
X113688362Y-84990422D01*
X113609423Y-85173184D01*
X113566649Y-85372523D01*
X113563587Y-85576377D01*
X113600353Y-85776912D01*
X113675534Y-85966420D01*
X113690264Y-85993981D01*
X113893559Y-86016836D01*
X114403912Y-85506483D01*
X114482523Y-85523351D01*
X114564365Y-85524580D01*
X114563587Y-85576377D01*
X114583673Y-85685932D01*
X114073164Y-86196441D01*
X114096019Y-86399736D01*
X114283184Y-86480577D01*
X114482523Y-86523351D01*
X114686377Y-86526413D01*
X114886912Y-86489647D01*
X115076420Y-86414466D01*
X115100422Y-86401638D01*
X115283184Y-86480577D01*
X115482523Y-86523351D01*
X115686377Y-86526413D01*
X115886912Y-86489647D01*
X116076420Y-86414466D01*
X116100422Y-86401638D01*
X116283184Y-86480577D01*
X116482523Y-86523351D01*
X116686377Y-86526413D01*
X116886912Y-86489647D01*
X117076420Y-86414466D01*
X117100422Y-86401638D01*
X117283184Y-86480577D01*
X117482523Y-86523351D01*
X117686377Y-86526413D01*
X117886912Y-86489647D01*
X118076420Y-86414466D01*
X118100422Y-86401638D01*
X118283184Y-86480577D01*
X118482523Y-86523351D01*
X118686377Y-86526413D01*
X118886912Y-86489647D01*
X119076420Y-86414466D01*
X119103981Y-86399736D01*
X119126836Y-86196441D01*
X118616483Y-85686088D01*
X118633351Y-85607477D01*
X118634580Y-85525635D01*
X118686377Y-85526413D01*
X118795932Y-85506327D01*
X119306441Y-86016836D01*
X119509736Y-85993981D01*
X119590577Y-85806816D01*
X119633351Y-85607477D01*
X119636413Y-85403623D01*
X119599647Y-85203088D01*
X119524466Y-85013580D01*
X119511638Y-84989578D01*
X119590577Y-84806816D01*
X119633351Y-84607477D01*
X119636413Y-84403623D01*
X119599647Y-84203088D01*
X119524466Y-84013580D01*
X119511638Y-83989578D01*
X119590577Y-83806816D01*
X119633351Y-83607477D01*
X119636413Y-83403623D01*
X119599647Y-83203088D01*
X119524466Y-83013580D01*
X119511638Y-82989578D01*
X119590577Y-82806816D01*
X119633351Y-82607477D01*
X119636413Y-82403623D01*
X119599647Y-82203088D01*
X119524466Y-82013580D01*
X119511638Y-81989578D01*
X119590577Y-81806816D01*
X119633351Y-81607477D01*
X119636413Y-81403623D01*
X119599647Y-81203088D01*
X119524466Y-81013580D01*
X119509736Y-80986019D01*
X119306441Y-80963164D01*
X118796088Y-81473517D01*
X118717477Y-81456649D01*
X118635635Y-81455420D01*
X118636413Y-81403623D01*
X118616327Y-81294068D01*
X119126836Y-80783559D01*
X119103981Y-80580264D01*
X118916816Y-80499423D01*
X118717477Y-80456649D01*
X118513623Y-80453587D01*
X118313088Y-80490353D01*
X118123580Y-80565534D01*
X118099578Y-80578362D01*
X117916816Y-80499423D01*
X117717477Y-80456649D01*
X117513623Y-80453587D01*
X117313088Y-80490353D01*
X117123580Y-80565534D01*
X117099578Y-80578362D01*
X116916816Y-80499423D01*
X116717477Y-80456649D01*
X116513623Y-80453587D01*
X116313088Y-80490353D01*
X116123580Y-80565534D01*
X116099578Y-80578362D01*
X115916816Y-80499423D01*
X115717477Y-80456649D01*
X115513623Y-80453587D01*
X115313088Y-80490353D01*
X115123580Y-80565534D01*
X115099578Y-80578362D01*
X114916816Y-80499423D01*
X114717477Y-80456649D01*
X114513623Y-80453587D01*
X114313088Y-80490353D01*
X114123580Y-80565534D01*
X114096019Y-80580264D01*
X114073164Y-80783559D01*
X114583517Y-81293912D01*
X114566649Y-81372523D01*
X114565420Y-81454365D01*
X114513623Y-81453587D01*
X114404068Y-81473673D01*
X113893559Y-80963164D01*
X113690264Y-80986019D01*
X113609423Y-81173184D01*
X113566649Y-81372523D01*
X113563587Y-81576377D01*
X90217074Y-81576377D01*
X90235000Y-81486260D01*
X90235000Y-81193740D01*
X90177932Y-80906842D01*
X90065990Y-80636589D01*
X89903475Y-80393368D01*
X89771620Y-80261513D01*
X89844180Y-80239502D01*
X89954494Y-80180537D01*
X90051185Y-80101185D01*
X90130537Y-80004494D01*
X90189502Y-79894180D01*
X90225812Y-79774482D01*
X90238072Y-79650000D01*
X90235000Y-79085750D01*
X90076250Y-78927000D01*
X88877000Y-78927000D01*
X88877000Y-78947000D01*
X88623000Y-78947000D01*
X88623000Y-78927000D01*
X88603000Y-78927000D01*
X88603000Y-78673000D01*
X88623000Y-78673000D01*
X88623000Y-77473750D01*
X88877000Y-77473750D01*
X88877000Y-78673000D01*
X90076250Y-78673000D01*
X90235000Y-78514250D01*
X90238072Y-77950000D01*
X90225812Y-77825518D01*
X90189502Y-77705820D01*
X90130537Y-77595506D01*
X90051185Y-77498815D01*
X89954494Y-77419463D01*
X89844180Y-77360498D01*
X89724482Y-77324188D01*
X89600000Y-77311928D01*
X89035750Y-77315000D01*
X88877000Y-77473750D01*
X88623000Y-77473750D01*
X88464250Y-77315000D01*
X87900000Y-77311928D01*
X87775518Y-77324188D01*
X87660000Y-77359230D01*
X87660000Y-75700881D01*
X88478724Y-75700881D01*
X88838912Y-76190548D01*
X89502882Y-76550849D01*
X90224385Y-76774694D01*
X90975695Y-76853480D01*
X91727938Y-76784178D01*
X92452208Y-76569452D01*
X93120670Y-76217555D01*
X93161088Y-76190548D01*
X93227045Y-76100881D01*
X140478724Y-76100881D01*
X140838912Y-76590548D01*
X141502882Y-76950849D01*
X142224385Y-77174694D01*
X142975695Y-77253480D01*
X143727938Y-77184178D01*
X144452208Y-76969452D01*
X145120670Y-76617555D01*
X145161088Y-76590548D01*
X145521276Y-76100881D01*
X143000000Y-73579605D01*
X140478724Y-76100881D01*
X93227045Y-76100881D01*
X93521276Y-75700881D01*
X91000000Y-73179605D01*
X88478724Y-75700881D01*
X87660000Y-75700881D01*
X87660000Y-74888074D01*
X87782445Y-75120670D01*
X87809452Y-75161088D01*
X88299119Y-75521276D01*
X90820395Y-73000000D01*
X91179605Y-73000000D01*
X93700881Y-75521276D01*
X94190548Y-75161088D01*
X94550849Y-74497118D01*
X94774694Y-73775615D01*
X94816631Y-73375695D01*
X139146520Y-73375695D01*
X139215822Y-74127938D01*
X139430548Y-74852208D01*
X139782445Y-75520670D01*
X139809452Y-75561088D01*
X140299119Y-75921276D01*
X142820395Y-73400000D01*
X140299119Y-70878724D01*
X139809452Y-71238912D01*
X139449151Y-71902882D01*
X139225306Y-72624385D01*
X139146520Y-73375695D01*
X94816631Y-73375695D01*
X94853480Y-73024305D01*
X94784178Y-72272062D01*
X94569452Y-71547792D01*
X94217555Y-70879330D01*
X94190548Y-70838912D01*
X93700881Y-70478724D01*
X91179605Y-73000000D01*
X90820395Y-73000000D01*
X90806253Y-72985858D01*
X90985858Y-72806253D01*
X91000000Y-72820395D01*
X93521276Y-70299119D01*
X93161088Y-69809452D01*
X92885675Y-69660000D01*
X142123050Y-69660000D01*
X141547792Y-69830548D01*
G36*
X104987501Y-85097658D02*
G01*
X104840226Y-85196063D01*
X104696063Y-85340226D01*
X104582795Y-85509744D01*
X104504774Y-85698102D01*
X104465000Y-85898061D01*
X104465000Y-86101939D01*
X104504774Y-86301898D01*
X104572334Y-86465000D01*
X93038554Y-86465000D01*
X92999998Y-86461203D01*
X92961442Y-86465000D01*
X92961437Y-86465000D01*
X92921024Y-86468980D01*
X92846111Y-86476358D01*
X92698138Y-86521246D01*
X92561765Y-86594138D01*
X92442234Y-86692236D01*
X92417651Y-86722190D01*
X91924842Y-87214999D01*
X90004793Y-87214999D01*
X90065990Y-87123411D01*
X90177932Y-86853158D01*
X90235000Y-86566260D01*
X90235000Y-86273740D01*
X90177932Y-85986842D01*
X90065990Y-85716589D01*
X89903475Y-85473368D01*
X89696632Y-85266525D01*
X89522240Y-85150000D01*
X89696632Y-85033475D01*
X89903475Y-84826632D01*
X90011474Y-84665000D01*
X104554843Y-84665000D01*
X104987501Y-85097658D01*
G37*
X104987501Y-85097658D02*
X104840226Y-85196063D01*
X104696063Y-85340226D01*
X104582795Y-85509744D01*
X104504774Y-85698102D01*
X104465000Y-85898061D01*
X104465000Y-86101939D01*
X104504774Y-86301898D01*
X104572334Y-86465000D01*
X93038554Y-86465000D01*
X92999998Y-86461203D01*
X92961442Y-86465000D01*
X92961437Y-86465000D01*
X92921024Y-86468980D01*
X92846111Y-86476358D01*
X92698138Y-86521246D01*
X92561765Y-86594138D01*
X92442234Y-86692236D01*
X92417651Y-86722190D01*
X91924842Y-87214999D01*
X90004793Y-87214999D01*
X90065990Y-87123411D01*
X90177932Y-86853158D01*
X90235000Y-86566260D01*
X90235000Y-86273740D01*
X90177932Y-85986842D01*
X90065990Y-85716589D01*
X89903475Y-85473368D01*
X89696632Y-85266525D01*
X89522240Y-85150000D01*
X89696632Y-85033475D01*
X89903475Y-84826632D01*
X90011474Y-84665000D01*
X104554843Y-84665000D01*
X104987501Y-85097658D01*
%TD*%
M02*
