%TF.GenerationSoftware,KiCad,Pcbnew,(5.1.6)-1*%
%TF.CreationDate,2020-10-27T09:44:08+01:00*%
%TF.ProjectId,Beacon_Listener,42656163-6f6e-45f4-9c69-7374656e6572,rev?*%
%TF.SameCoordinates,Original*%
%TF.FileFunction,Paste,Top*%
%TF.FilePolarity,Positive*%
%FSLAX46Y46*%
G04 Gerber Fmt 4.6, Leading zero omitted, Abs format (unit mm)*
G04 Created by KiCad (PCBNEW (5.1.6)-1) date 2020-10-27 09:44:08*
%MOMM*%
%LPD*%
G01*
G04 APERTURE LIST*
%ADD10R,1.700000X2.000000*%
%ADD11R,2.000000X0.500000*%
%ADD12R,1.050000X0.650000*%
%ADD13R,0.650000X1.050000*%
%ADD14R,5.000000X5.000000*%
%ADD15O,3.000000X0.900000*%
%ADD16R,1.500000X2.000000*%
%ADD17R,3.800000X2.000000*%
G04 APERTURE END LIST*
D10*
%TO.C,J4*%
X88650000Y-105950000D03*
X94100000Y-105950000D03*
X88650000Y-97050000D03*
X94100000Y-97050000D03*
D11*
X94200000Y-103100000D03*
X94200000Y-102300000D03*
X94200000Y-101500000D03*
X94200000Y-100700000D03*
X94200000Y-99900000D03*
%TD*%
D12*
%TO.C,RESET*%
X105575000Y-72075000D03*
X101425000Y-72075000D03*
X105575000Y-69925000D03*
X101425000Y-69925000D03*
%TD*%
D13*
%TO.C,CONFIG*%
X146000000Y-78850000D03*
X146000000Y-83000000D03*
X143850000Y-78850000D03*
X143850000Y-83000000D03*
%TD*%
%TO.C,C7*%
G36*
G01*
X101450000Y-92700001D02*
X101450000Y-91799999D01*
G75*
G02*
X101699999Y-91550000I249999J0D01*
G01*
X102350001Y-91550000D01*
G75*
G02*
X102600000Y-91799999I0J-249999D01*
G01*
X102600000Y-92700001D01*
G75*
G02*
X102350001Y-92950000I-249999J0D01*
G01*
X101699999Y-92950000D01*
G75*
G02*
X101450000Y-92700001I0J249999D01*
G01*
G37*
G36*
G01*
X99400000Y-92700001D02*
X99400000Y-91799999D01*
G75*
G02*
X99649999Y-91550000I249999J0D01*
G01*
X100300001Y-91550000D01*
G75*
G02*
X100550000Y-91799999I0J-249999D01*
G01*
X100550000Y-92700001D01*
G75*
G02*
X100300001Y-92950000I-249999J0D01*
G01*
X99649999Y-92950000D01*
G75*
G02*
X99400000Y-92700001I0J249999D01*
G01*
G37*
%TD*%
%TO.C,C3*%
G36*
G01*
X93049999Y-82925000D02*
X93950001Y-82925000D01*
G75*
G02*
X94200000Y-83174999I0J-249999D01*
G01*
X94200000Y-83825001D01*
G75*
G02*
X93950001Y-84075000I-249999J0D01*
G01*
X93049999Y-84075000D01*
G75*
G02*
X92800000Y-83825001I0J249999D01*
G01*
X92800000Y-83174999D01*
G75*
G02*
X93049999Y-82925000I249999J0D01*
G01*
G37*
G36*
G01*
X93049999Y-80875000D02*
X93950001Y-80875000D01*
G75*
G02*
X94200000Y-81124999I0J-249999D01*
G01*
X94200000Y-81775001D01*
G75*
G02*
X93950001Y-82025000I-249999J0D01*
G01*
X93049999Y-82025000D01*
G75*
G02*
X92800000Y-81775001I0J249999D01*
G01*
X92800000Y-81124999D01*
G75*
G02*
X93049999Y-80875000I249999J0D01*
G01*
G37*
%TD*%
%TO.C,C2*%
G36*
G01*
X95549999Y-77925000D02*
X96450001Y-77925000D01*
G75*
G02*
X96700000Y-78174999I0J-249999D01*
G01*
X96700000Y-78825001D01*
G75*
G02*
X96450001Y-79075000I-249999J0D01*
G01*
X95549999Y-79075000D01*
G75*
G02*
X95300000Y-78825001I0J249999D01*
G01*
X95300000Y-78174999D01*
G75*
G02*
X95549999Y-77925000I249999J0D01*
G01*
G37*
G36*
G01*
X95549999Y-75875000D02*
X96450001Y-75875000D01*
G75*
G02*
X96700000Y-76124999I0J-249999D01*
G01*
X96700000Y-76775001D01*
G75*
G02*
X96450001Y-77025000I-249999J0D01*
G01*
X95549999Y-77025000D01*
G75*
G02*
X95300000Y-76775001I0J249999D01*
G01*
X95300000Y-76124999D01*
G75*
G02*
X95549999Y-75875000I249999J0D01*
G01*
G37*
%TD*%
%TO.C,D4*%
G36*
G01*
X109293750Y-104887500D02*
X110206250Y-104887500D01*
G75*
G02*
X110450000Y-105131250I0J-243750D01*
G01*
X110450000Y-105618750D01*
G75*
G02*
X110206250Y-105862500I-243750J0D01*
G01*
X109293750Y-105862500D01*
G75*
G02*
X109050000Y-105618750I0J243750D01*
G01*
X109050000Y-105131250D01*
G75*
G02*
X109293750Y-104887500I243750J0D01*
G01*
G37*
G36*
G01*
X109293750Y-103012500D02*
X110206250Y-103012500D01*
G75*
G02*
X110450000Y-103256250I0J-243750D01*
G01*
X110450000Y-103743750D01*
G75*
G02*
X110206250Y-103987500I-243750J0D01*
G01*
X109293750Y-103987500D01*
G75*
G02*
X109050000Y-103743750I0J243750D01*
G01*
X109050000Y-103256250D01*
G75*
G02*
X109293750Y-103012500I243750J0D01*
G01*
G37*
%TD*%
%TO.C,D3*%
G36*
G01*
X114293750Y-104762500D02*
X115206250Y-104762500D01*
G75*
G02*
X115450000Y-105006250I0J-243750D01*
G01*
X115450000Y-105493750D01*
G75*
G02*
X115206250Y-105737500I-243750J0D01*
G01*
X114293750Y-105737500D01*
G75*
G02*
X114050000Y-105493750I0J243750D01*
G01*
X114050000Y-105006250D01*
G75*
G02*
X114293750Y-104762500I243750J0D01*
G01*
G37*
G36*
G01*
X114293750Y-102887500D02*
X115206250Y-102887500D01*
G75*
G02*
X115450000Y-103131250I0J-243750D01*
G01*
X115450000Y-103618750D01*
G75*
G02*
X115206250Y-103862500I-243750J0D01*
G01*
X114293750Y-103862500D01*
G75*
G02*
X114050000Y-103618750I0J243750D01*
G01*
X114050000Y-103131250D01*
G75*
G02*
X114293750Y-102887500I243750J0D01*
G01*
G37*
%TD*%
%TO.C,D2*%
G36*
G01*
X124293750Y-104762500D02*
X125206250Y-104762500D01*
G75*
G02*
X125450000Y-105006250I0J-243750D01*
G01*
X125450000Y-105493750D01*
G75*
G02*
X125206250Y-105737500I-243750J0D01*
G01*
X124293750Y-105737500D01*
G75*
G02*
X124050000Y-105493750I0J243750D01*
G01*
X124050000Y-105006250D01*
G75*
G02*
X124293750Y-104762500I243750J0D01*
G01*
G37*
G36*
G01*
X124293750Y-102887500D02*
X125206250Y-102887500D01*
G75*
G02*
X125450000Y-103131250I0J-243750D01*
G01*
X125450000Y-103618750D01*
G75*
G02*
X125206250Y-103862500I-243750J0D01*
G01*
X124293750Y-103862500D01*
G75*
G02*
X124050000Y-103618750I0J243750D01*
G01*
X124050000Y-103131250D01*
G75*
G02*
X124293750Y-102887500I243750J0D01*
G01*
G37*
%TD*%
%TO.C,D1*%
G36*
G01*
X119293750Y-104762500D02*
X120206250Y-104762500D01*
G75*
G02*
X120450000Y-105006250I0J-243750D01*
G01*
X120450000Y-105493750D01*
G75*
G02*
X120206250Y-105737500I-243750J0D01*
G01*
X119293750Y-105737500D01*
G75*
G02*
X119050000Y-105493750I0J243750D01*
G01*
X119050000Y-105006250D01*
G75*
G02*
X119293750Y-104762500I243750J0D01*
G01*
G37*
G36*
G01*
X119293750Y-102887500D02*
X120206250Y-102887500D01*
G75*
G02*
X120450000Y-103131250I0J-243750D01*
G01*
X120450000Y-103618750D01*
G75*
G02*
X120206250Y-103862500I-243750J0D01*
G01*
X119293750Y-103862500D01*
G75*
G02*
X119050000Y-103618750I0J243750D01*
G01*
X119050000Y-103131250D01*
G75*
G02*
X119293750Y-102887500I243750J0D01*
G01*
G37*
%TD*%
D14*
%TO.C,U1*%
X116600000Y-83500000D03*
D15*
X108000000Y-76580000D03*
X108000000Y-77850000D03*
X108000000Y-79120000D03*
X108000000Y-80390000D03*
X108000000Y-81660000D03*
X108000000Y-82930000D03*
X108000000Y-84200000D03*
X108000000Y-85470000D03*
X108000000Y-86740000D03*
X108000000Y-88010000D03*
X108000000Y-89280000D03*
X108000000Y-90550000D03*
X108000000Y-91820000D03*
X108000000Y-93090000D03*
X108000000Y-94390000D03*
X108000000Y-95660000D03*
X108000000Y-96930000D03*
X108000000Y-98200000D03*
X108000000Y-99470000D03*
X126000000Y-99470000D03*
X126000000Y-98200000D03*
X126000000Y-96930000D03*
X126000000Y-95660000D03*
X126000000Y-94390000D03*
X126030000Y-93090000D03*
X126030000Y-91820000D03*
X126030000Y-90550000D03*
X126030000Y-89280000D03*
X126030000Y-88010000D03*
X126030000Y-86740000D03*
X126030000Y-85470000D03*
X126030000Y-84200000D03*
X126030000Y-82930000D03*
X126030000Y-81660000D03*
X126030000Y-80390000D03*
X126030000Y-79120000D03*
X126030000Y-77850000D03*
X126030000Y-76580000D03*
%TD*%
%TO.C,R6*%
G36*
G01*
X96475000Y-92700001D02*
X96475000Y-91799999D01*
G75*
G02*
X96724999Y-91550000I249999J0D01*
G01*
X97375001Y-91550000D01*
G75*
G02*
X97625000Y-91799999I0J-249999D01*
G01*
X97625000Y-92700001D01*
G75*
G02*
X97375001Y-92950000I-249999J0D01*
G01*
X96724999Y-92950000D01*
G75*
G02*
X96475000Y-92700001I0J249999D01*
G01*
G37*
G36*
G01*
X94425000Y-92700001D02*
X94425000Y-91799999D01*
G75*
G02*
X94674999Y-91550000I249999J0D01*
G01*
X95325001Y-91550000D01*
G75*
G02*
X95575000Y-91799999I0J-249999D01*
G01*
X95575000Y-92700001D01*
G75*
G02*
X95325001Y-92950000I-249999J0D01*
G01*
X94674999Y-92950000D01*
G75*
G02*
X94425000Y-92700001I0J249999D01*
G01*
G37*
%TD*%
%TO.C,C6*%
G36*
G01*
X101025000Y-97049999D02*
X101025000Y-97950001D01*
G75*
G02*
X100775001Y-98200000I-249999J0D01*
G01*
X100124999Y-98200000D01*
G75*
G02*
X99875000Y-97950001I0J249999D01*
G01*
X99875000Y-97049999D01*
G75*
G02*
X100124999Y-96800000I249999J0D01*
G01*
X100775001Y-96800000D01*
G75*
G02*
X101025000Y-97049999I0J-249999D01*
G01*
G37*
G36*
G01*
X103075000Y-97049999D02*
X103075000Y-97950001D01*
G75*
G02*
X102825001Y-98200000I-249999J0D01*
G01*
X102174999Y-98200000D01*
G75*
G02*
X101925000Y-97950001I0J249999D01*
G01*
X101925000Y-97049999D01*
G75*
G02*
X102174999Y-96800000I249999J0D01*
G01*
X102825001Y-96800000D01*
G75*
G02*
X103075000Y-97049999I0J-249999D01*
G01*
G37*
%TD*%
%TO.C,C5*%
G36*
G01*
X100950000Y-101200000D02*
X100950000Y-102300000D01*
G75*
G02*
X100700000Y-102550000I-250000J0D01*
G01*
X98600000Y-102550000D01*
G75*
G02*
X98350000Y-102300000I0J250000D01*
G01*
X98350000Y-101200000D01*
G75*
G02*
X98600000Y-100950000I250000J0D01*
G01*
X100700000Y-100950000D01*
G75*
G02*
X100950000Y-101200000I0J-250000D01*
G01*
G37*
G36*
G01*
X104550000Y-101200000D02*
X104550000Y-102300000D01*
G75*
G02*
X104300000Y-102550000I-250000J0D01*
G01*
X102200000Y-102550000D01*
G75*
G02*
X101950000Y-102300000I0J250000D01*
G01*
X101950000Y-101200000D01*
G75*
G02*
X102200000Y-100950000I250000J0D01*
G01*
X104300000Y-100950000D01*
G75*
G02*
X104550000Y-101200000I0J-250000D01*
G01*
G37*
%TD*%
D16*
%TO.C,U2*%
X100900000Y-81950000D03*
X96300000Y-81950000D03*
X98600000Y-81950000D03*
D17*
X98600000Y-88250000D03*
%TD*%
%TO.C,R5*%
G36*
G01*
X99950001Y-77025000D02*
X99049999Y-77025000D01*
G75*
G02*
X98800000Y-76775001I0J249999D01*
G01*
X98800000Y-76124999D01*
G75*
G02*
X99049999Y-75875000I249999J0D01*
G01*
X99950001Y-75875000D01*
G75*
G02*
X100200000Y-76124999I0J-249999D01*
G01*
X100200000Y-76775001D01*
G75*
G02*
X99950001Y-77025000I-249999J0D01*
G01*
G37*
G36*
G01*
X99950001Y-79075000D02*
X99049999Y-79075000D01*
G75*
G02*
X98800000Y-78825001I0J249999D01*
G01*
X98800000Y-78174999D01*
G75*
G02*
X99049999Y-77925000I249999J0D01*
G01*
X99950001Y-77925000D01*
G75*
G02*
X100200000Y-78174999I0J-249999D01*
G01*
X100200000Y-78825001D01*
G75*
G02*
X99950001Y-79075000I-249999J0D01*
G01*
G37*
%TD*%
%TO.C,R4*%
G36*
G01*
X133450001Y-96325000D02*
X132549999Y-96325000D01*
G75*
G02*
X132300000Y-96075001I0J249999D01*
G01*
X132300000Y-95424999D01*
G75*
G02*
X132549999Y-95175000I249999J0D01*
G01*
X133450001Y-95175000D01*
G75*
G02*
X133700000Y-95424999I0J-249999D01*
G01*
X133700000Y-96075001D01*
G75*
G02*
X133450001Y-96325000I-249999J0D01*
G01*
G37*
G36*
G01*
X133450001Y-98375000D02*
X132549999Y-98375000D01*
G75*
G02*
X132300000Y-98125001I0J249999D01*
G01*
X132300000Y-97474999D01*
G75*
G02*
X132549999Y-97225000I249999J0D01*
G01*
X133450001Y-97225000D01*
G75*
G02*
X133700000Y-97474999I0J-249999D01*
G01*
X133700000Y-98125001D01*
G75*
G02*
X133450001Y-98375000I-249999J0D01*
G01*
G37*
%TD*%
%TO.C,R3*%
G36*
G01*
X130700001Y-96300000D02*
X129799999Y-96300000D01*
G75*
G02*
X129550000Y-96050001I0J249999D01*
G01*
X129550000Y-95399999D01*
G75*
G02*
X129799999Y-95150000I249999J0D01*
G01*
X130700001Y-95150000D01*
G75*
G02*
X130950000Y-95399999I0J-249999D01*
G01*
X130950000Y-96050001D01*
G75*
G02*
X130700001Y-96300000I-249999J0D01*
G01*
G37*
G36*
G01*
X130700001Y-98350000D02*
X129799999Y-98350000D01*
G75*
G02*
X129550000Y-98100001I0J249999D01*
G01*
X129550000Y-97449999D01*
G75*
G02*
X129799999Y-97200000I249999J0D01*
G01*
X130700001Y-97200000D01*
G75*
G02*
X130950000Y-97449999I0J-249999D01*
G01*
X130950000Y-98100001D01*
G75*
G02*
X130700001Y-98350000I-249999J0D01*
G01*
G37*
%TD*%
%TO.C,R2*%
G36*
G01*
X138950001Y-96275000D02*
X138049999Y-96275000D01*
G75*
G02*
X137800000Y-96025001I0J249999D01*
G01*
X137800000Y-95374999D01*
G75*
G02*
X138049999Y-95125000I249999J0D01*
G01*
X138950001Y-95125000D01*
G75*
G02*
X139200000Y-95374999I0J-249999D01*
G01*
X139200000Y-96025001D01*
G75*
G02*
X138950001Y-96275000I-249999J0D01*
G01*
G37*
G36*
G01*
X138950001Y-98325000D02*
X138049999Y-98325000D01*
G75*
G02*
X137800000Y-98075001I0J249999D01*
G01*
X137800000Y-97424999D01*
G75*
G02*
X138049999Y-97175000I249999J0D01*
G01*
X138950001Y-97175000D01*
G75*
G02*
X139200000Y-97424999I0J-249999D01*
G01*
X139200000Y-98075001D01*
G75*
G02*
X138950001Y-98325000I-249999J0D01*
G01*
G37*
%TD*%
%TO.C,R1*%
G36*
G01*
X136200001Y-96300000D02*
X135299999Y-96300000D01*
G75*
G02*
X135050000Y-96050001I0J249999D01*
G01*
X135050000Y-95399999D01*
G75*
G02*
X135299999Y-95150000I249999J0D01*
G01*
X136200001Y-95150000D01*
G75*
G02*
X136450000Y-95399999I0J-249999D01*
G01*
X136450000Y-96050001D01*
G75*
G02*
X136200001Y-96300000I-249999J0D01*
G01*
G37*
G36*
G01*
X136200001Y-98350000D02*
X135299999Y-98350000D01*
G75*
G02*
X135050000Y-98100001I0J249999D01*
G01*
X135050000Y-97449999D01*
G75*
G02*
X135299999Y-97200000I249999J0D01*
G01*
X136200001Y-97200000D01*
G75*
G02*
X136450000Y-97449999I0J-249999D01*
G01*
X136450000Y-98100001D01*
G75*
G02*
X136200001Y-98350000I-249999J0D01*
G01*
G37*
%TD*%
%TO.C,C4*%
G36*
G01*
X103249999Y-85325000D02*
X104150001Y-85325000D01*
G75*
G02*
X104400000Y-85574999I0J-249999D01*
G01*
X104400000Y-86225001D01*
G75*
G02*
X104150001Y-86475000I-249999J0D01*
G01*
X103249999Y-86475000D01*
G75*
G02*
X103000000Y-86225001I0J249999D01*
G01*
X103000000Y-85574999D01*
G75*
G02*
X103249999Y-85325000I249999J0D01*
G01*
G37*
G36*
G01*
X103249999Y-83275000D02*
X104150001Y-83275000D01*
G75*
G02*
X104400000Y-83524999I0J-249999D01*
G01*
X104400000Y-84175001D01*
G75*
G02*
X104150001Y-84425000I-249999J0D01*
G01*
X103249999Y-84425000D01*
G75*
G02*
X103000000Y-84175001I0J249999D01*
G01*
X103000000Y-83524999D01*
G75*
G02*
X103249999Y-83275000I249999J0D01*
G01*
G37*
%TD*%
%TO.C,C1*%
G36*
G01*
X104950001Y-77050000D02*
X104049999Y-77050000D01*
G75*
G02*
X103800000Y-76800001I0J249999D01*
G01*
X103800000Y-76149999D01*
G75*
G02*
X104049999Y-75900000I249999J0D01*
G01*
X104950001Y-75900000D01*
G75*
G02*
X105200000Y-76149999I0J-249999D01*
G01*
X105200000Y-76800001D01*
G75*
G02*
X104950001Y-77050000I-249999J0D01*
G01*
G37*
G36*
G01*
X104950001Y-79100000D02*
X104049999Y-79100000D01*
G75*
G02*
X103800000Y-78850001I0J249999D01*
G01*
X103800000Y-78199999D01*
G75*
G02*
X104049999Y-77950000I249999J0D01*
G01*
X104950001Y-77950000D01*
G75*
G02*
X105200000Y-78199999I0J-249999D01*
G01*
X105200000Y-78850001D01*
G75*
G02*
X104950001Y-79100000I-249999J0D01*
G01*
G37*
%TD*%
M02*
