M48
; DRILL file {KiCad (5.1.6)-1} date 10/27/20 09:40:16
; FORMAT={-:-/ absolute / inch / decimal}
; #@! TF.CreationDate,2020-10-27T09:40:16+01:00
; #@! TF.GenerationSoftware,Kicad,Pcbnew,(5.1.6)-1
; #@! TF.FileFunction,Plated,1,2,PTH
FMAT,2
INCH
T1C0.0118
T2C0.0157
T3C0.0197
T4C0.0295
T5C0.0394
T6C0.0512
T7C0.1260
%
G90
G05
T1
X4.5118Y-3.2083
X4.5118Y-3.2476
X4.5118Y-3.287
X4.5118Y-3.3264
X4.5118Y-3.3657
X4.5512Y-3.2083
X4.5512Y-3.2476
X4.5512Y-3.287
X4.5512Y-3.3264
X4.5512Y-3.3657
X4.5906Y-3.2083
X4.5906Y-3.2476
X4.5906Y-3.287
X4.5906Y-3.3264
X4.5906Y-3.3657
X4.6299Y-3.2083
X4.6299Y-3.2476
X4.6299Y-3.287
X4.6299Y-3.3264
X4.6299Y-3.3657
X4.6693Y-3.2083
X4.6693Y-3.2476
X4.6693Y-3.287
X4.6693Y-3.3264
X4.6693Y-3.3657
T2
X3.5236Y-3.7598
X3.6024Y-4.0059
X3.6378Y-3.6614
X3.6614Y-3.7598
X3.6811Y-3.3661
X3.7008Y-3.0906
X3.7402Y-3.3661
X3.8346Y-4.3898
X3.9094Y-4.3898
X3.9173Y-4.1535
X3.9843Y-4.3661
X4.0551Y-3.1496
X4.1142Y-2.9331
X4.1339Y-3.4941
X4.1339Y-3.5531
X4.1339Y-3.622
X4.1535Y-3.3858
X4.1535Y-3.7992
X4.1535Y-4.2913
X4.2126Y-4.2913
X4.2421Y-4.0748
X4.2421Y-4.1535
X4.2717Y-4.2913
X4.3307Y-4.2913
X4.3898Y-4.2913
X4.439Y-4.065
X4.439Y-4.1535
X4.4488Y-4.2913
X4.5079Y-4.2913
X4.5669Y-4.2913
X4.6161Y-4.1535
X4.626Y-4.2913
X4.685Y-4.2913
X4.7441Y-4.2913
X4.7736Y-3.75
X4.7835Y-3.2776
X4.8031Y-4.2913
X4.8228Y-3.3268
X4.8228Y-4.0846
X4.8228Y-4.1437
X4.8327Y-3.7697
X4.8622Y-4.3307
X4.9016Y-4.3701
X4.9409Y-4.4094
X4.9803Y-4.4488
X5.0197Y-4.4882
X5.0591Y-3.6614
X5.0591Y-4.5276
X5.0984Y-4.0157
X5.0984Y-4.5669
X5.128Y-3.6713
X5.1378Y-4.6063
X5.1772Y-3.937
X5.1772Y-4.6457
X5.2165Y-4.685
X5.2461Y-3.9961
X5.2559Y-3.6811
X5.2559Y-4.7244
X5.2953Y-4.7638
X5.3346Y-4.8031
X5.374Y-4.8425
X5.3839Y-3.9075
X5.6594Y-3.3268
T3
X5.5354Y-4.9213
X5.5631Y-4.8544
X5.5631Y-4.9881
X5.6299Y-4.8268
X5.6299Y-5.0157
X5.6967Y-4.8544
X5.6967Y-4.9881
X5.7244Y-4.9213
X3.4882Y-2.874
X3.5159Y-2.8072
X3.5159Y-2.9408
X3.5827Y-2.7795
X3.5827Y-2.9685
X3.6495Y-2.8072
X3.6495Y-2.9408
X3.6772Y-2.874
X5.5354Y-2.8898
X5.5631Y-2.823
X5.5631Y-2.9566
X5.6299Y-2.7953
X5.6299Y-2.9843
X5.6967Y-2.823
X5.6967Y-2.9566
X5.7244Y-2.8898
T4
X5.6535Y-3.6161
X5.6535Y-3.6949
X5.6535Y-3.7736
X5.6535Y-4.0079
X5.6535Y-4.0866
X5.6535Y-4.1654
T5
X3.4925Y-4.3602
X3.5925Y-4.3602
X3.4941Y-3.1024
X3.4941Y-3.2024
X3.4941Y-3.3024
X3.4941Y-3.4024
X3.4941Y-3.5024
X3.4941Y-3.6024
X4.2323Y-4.5748
X4.2323Y-4.7717
X5.3898Y-4.3701
X5.3898Y-4.9764
T6
X3.5433Y-4.9213
X3.7402Y-4.9213
T7
X5.6299Y-4.9213
X3.5827Y-2.874
X5.6299Y-2.8898
T0
M30
