%TF.GenerationSoftware,KiCad,Pcbnew,(5.1.6)-1*%
%TF.CreationDate,2020-09-30T20:40:37+02:00*%
%TF.ProjectId,ESP_test,4553505f-7465-4737-942e-6b696361645f,rev?*%
%TF.SameCoordinates,Original*%
%TF.FileFunction,Copper,L1,Top*%
%TF.FilePolarity,Positive*%
%FSLAX46Y46*%
G04 Gerber Fmt 4.6, Leading zero omitted, Abs format (unit mm)*
G04 Created by KiCad (PCBNEW (5.1.6)-1) date 2020-09-30 20:40:37*
%MOMM*%
%LPD*%
G01*
G04 APERTURE LIST*
%TA.AperFunction,ComponentPad*%
%ADD10O,1.700000X1.700000*%
%TD*%
%TA.AperFunction,ComponentPad*%
%ADD11R,1.700000X1.700000*%
%TD*%
%TA.AperFunction,ComponentPad*%
%ADD12C,1.800000*%
%TD*%
%TA.AperFunction,ComponentPad*%
%ADD13R,1.800000X1.800000*%
%TD*%
%TA.AperFunction,SMDPad,CuDef*%
%ADD14R,1.500000X2.000000*%
%TD*%
%TA.AperFunction,SMDPad,CuDef*%
%ADD15R,3.800000X2.000000*%
%TD*%
%TA.AperFunction,ViaPad*%
%ADD16C,0.800000*%
%TD*%
%TA.AperFunction,Conductor*%
%ADD17C,0.500000*%
%TD*%
%TA.AperFunction,Conductor*%
%ADD18C,0.250000*%
%TD*%
%TA.AperFunction,Conductor*%
%ADD19C,0.254000*%
%TD*%
G04 APERTURE END LIST*
D10*
%TO.P,J1,6*%
%TO.N,GND*%
X139200000Y-86700000D03*
%TO.P,J1,5*%
%TO.N,TX*%
X139200000Y-84160000D03*
%TO.P,J1,4*%
%TO.N,RX*%
X139200000Y-81620000D03*
%TO.P,J1,3*%
%TO.N,EN*%
X139200000Y-79080000D03*
%TO.P,J1,2*%
%TO.N,GPIO0*%
X139200000Y-76540000D03*
D11*
%TO.P,J1,1*%
%TO.N,VCC*%
X139200000Y-74000000D03*
%TD*%
%TO.P,R5,2*%
%TO.N,EN*%
%TA.AperFunction,SMDPad,CuDef*%
G36*
G01*
X140949999Y-62675000D02*
X141850001Y-62675000D01*
G75*
G02*
X142100000Y-62924999I0J-249999D01*
G01*
X142100000Y-63575001D01*
G75*
G02*
X141850001Y-63825000I-249999J0D01*
G01*
X140949999Y-63825000D01*
G75*
G02*
X140700000Y-63575001I0J249999D01*
G01*
X140700000Y-62924999D01*
G75*
G02*
X140949999Y-62675000I249999J0D01*
G01*
G37*
%TD.AperFunction*%
%TO.P,R5,1*%
%TO.N,VCC*%
%TA.AperFunction,SMDPad,CuDef*%
G36*
G01*
X140949999Y-60625000D02*
X141850001Y-60625000D01*
G75*
G02*
X142100000Y-60874999I0J-249999D01*
G01*
X142100000Y-61525001D01*
G75*
G02*
X141850001Y-61775000I-249999J0D01*
G01*
X140949999Y-61775000D01*
G75*
G02*
X140700000Y-61525001I0J249999D01*
G01*
X140700000Y-60874999D01*
G75*
G02*
X140949999Y-60625000I249999J0D01*
G01*
G37*
%TD.AperFunction*%
%TD*%
D12*
%TO.P,D4,2*%
%TO.N,Net-(D4-Pad2)*%
X146500000Y-77040000D03*
D13*
%TO.P,D4,1*%
%TO.N,GND*%
X146500000Y-74500000D03*
%TD*%
D14*
%TO.P,U2,1*%
%TO.N,GND*%
X128100000Y-67550000D03*
%TO.P,U2,3*%
%TO.N,Net-(C3-Pad1)*%
X132700000Y-67550000D03*
%TO.P,U2,2*%
%TO.N,VCC*%
X130400000Y-67550000D03*
D15*
X130400000Y-61250000D03*
%TD*%
%TO.P,C4,2*%
%TO.N,GND*%
%TA.AperFunction,SMDPad,CuDef*%
G36*
G01*
X136349999Y-62675000D02*
X137250001Y-62675000D01*
G75*
G02*
X137500000Y-62924999I0J-249999D01*
G01*
X137500000Y-63575001D01*
G75*
G02*
X137250001Y-63825000I-249999J0D01*
G01*
X136349999Y-63825000D01*
G75*
G02*
X136100000Y-63575001I0J249999D01*
G01*
X136100000Y-62924999D01*
G75*
G02*
X136349999Y-62675000I249999J0D01*
G01*
G37*
%TD.AperFunction*%
%TO.P,C4,1*%
%TO.N,VCC*%
%TA.AperFunction,SMDPad,CuDef*%
G36*
G01*
X136349999Y-60625000D02*
X137250001Y-60625000D01*
G75*
G02*
X137500000Y-60874999I0J-249999D01*
G01*
X137500000Y-61525001D01*
G75*
G02*
X137250001Y-61775000I-249999J0D01*
G01*
X136349999Y-61775000D01*
G75*
G02*
X136100000Y-61525001I0J249999D01*
G01*
X136100000Y-60874999D01*
G75*
G02*
X136349999Y-60625000I249999J0D01*
G01*
G37*
%TD.AperFunction*%
%TD*%
%TO.P,C3,2*%
%TO.N,GND*%
%TA.AperFunction,SMDPad,CuDef*%
G36*
G01*
X136349999Y-66875000D02*
X137250001Y-66875000D01*
G75*
G02*
X137500000Y-67124999I0J-249999D01*
G01*
X137500000Y-67775001D01*
G75*
G02*
X137250001Y-68025000I-249999J0D01*
G01*
X136349999Y-68025000D01*
G75*
G02*
X136100000Y-67775001I0J249999D01*
G01*
X136100000Y-67124999D01*
G75*
G02*
X136349999Y-66875000I249999J0D01*
G01*
G37*
%TD.AperFunction*%
%TO.P,C3,1*%
%TO.N,Net-(C3-Pad1)*%
%TA.AperFunction,SMDPad,CuDef*%
G36*
G01*
X136349999Y-64825000D02*
X137250001Y-64825000D01*
G75*
G02*
X137500000Y-65074999I0J-249999D01*
G01*
X137500000Y-65725001D01*
G75*
G02*
X137250001Y-65975000I-249999J0D01*
G01*
X136349999Y-65975000D01*
G75*
G02*
X136100000Y-65725001I0J249999D01*
G01*
X136100000Y-65074999D01*
G75*
G02*
X136349999Y-64825000I249999J0D01*
G01*
G37*
%TD.AperFunction*%
%TD*%
%TO.P,C2,2*%
%TO.N,GND*%
%TA.AperFunction,SMDPad,CuDef*%
G36*
G01*
X140949999Y-67075000D02*
X141850001Y-67075000D01*
G75*
G02*
X142100000Y-67324999I0J-249999D01*
G01*
X142100000Y-67975001D01*
G75*
G02*
X141850001Y-68225000I-249999J0D01*
G01*
X140949999Y-68225000D01*
G75*
G02*
X140700000Y-67975001I0J249999D01*
G01*
X140700000Y-67324999D01*
G75*
G02*
X140949999Y-67075000I249999J0D01*
G01*
G37*
%TD.AperFunction*%
%TO.P,C2,1*%
%TO.N,EN*%
%TA.AperFunction,SMDPad,CuDef*%
G36*
G01*
X140949999Y-65025000D02*
X141850001Y-65025000D01*
G75*
G02*
X142100000Y-65274999I0J-249999D01*
G01*
X142100000Y-65925001D01*
G75*
G02*
X141850001Y-66175000I-249999J0D01*
G01*
X140949999Y-66175000D01*
G75*
G02*
X140700000Y-65925001I0J249999D01*
G01*
X140700000Y-65274999D01*
G75*
G02*
X140949999Y-65025000I249999J0D01*
G01*
G37*
%TD.AperFunction*%
%TD*%
D12*
%TO.P,D3,2*%
%TO.N,Net-(D3-Pad2)*%
X122500000Y-77040000D03*
D13*
%TO.P,D3,1*%
%TO.N,GND*%
X122500000Y-74500000D03*
%TD*%
D12*
%TO.P,D2,2*%
%TO.N,Net-(D2-Pad2)*%
X146900000Y-67500000D03*
D13*
%TO.P,D2,1*%
%TO.N,GND*%
X146900000Y-64960000D03*
%TD*%
D12*
%TO.P,D1,2*%
%TO.N,Net-(D1-Pad2)*%
X122500000Y-67200000D03*
D13*
%TO.P,D1,1*%
%TO.N,GND*%
X122500000Y-64660000D03*
%TD*%
D10*
%TO.P,J2,2*%
%TO.N,GND*%
X130660000Y-74000000D03*
D11*
%TO.P,J2,1*%
%TO.N,Net-(C3-Pad1)*%
X133200000Y-74000000D03*
%TD*%
%TO.P,R4,2*%
%TO.N,Net-(D4-Pad2)*%
%TA.AperFunction,SMDPad,CuDef*%
G36*
G01*
X146950001Y-80075000D02*
X146049999Y-80075000D01*
G75*
G02*
X145800000Y-79825001I0J249999D01*
G01*
X145800000Y-79174999D01*
G75*
G02*
X146049999Y-78925000I249999J0D01*
G01*
X146950001Y-78925000D01*
G75*
G02*
X147200000Y-79174999I0J-249999D01*
G01*
X147200000Y-79825001D01*
G75*
G02*
X146950001Y-80075000I-249999J0D01*
G01*
G37*
%TD.AperFunction*%
%TO.P,R4,1*%
%TO.N,LED4*%
%TA.AperFunction,SMDPad,CuDef*%
G36*
G01*
X146950001Y-82125000D02*
X146049999Y-82125000D01*
G75*
G02*
X145800000Y-81875001I0J249999D01*
G01*
X145800000Y-81224999D01*
G75*
G02*
X146049999Y-80975000I249999J0D01*
G01*
X146950001Y-80975000D01*
G75*
G02*
X147200000Y-81224999I0J-249999D01*
G01*
X147200000Y-81875001D01*
G75*
G02*
X146950001Y-82125000I-249999J0D01*
G01*
G37*
%TD.AperFunction*%
%TD*%
%TO.P,R3,2*%
%TO.N,Net-(D3-Pad2)*%
%TA.AperFunction,SMDPad,CuDef*%
G36*
G01*
X122950001Y-80050000D02*
X122049999Y-80050000D01*
G75*
G02*
X121800000Y-79800001I0J249999D01*
G01*
X121800000Y-79149999D01*
G75*
G02*
X122049999Y-78900000I249999J0D01*
G01*
X122950001Y-78900000D01*
G75*
G02*
X123200000Y-79149999I0J-249999D01*
G01*
X123200000Y-79800001D01*
G75*
G02*
X122950001Y-80050000I-249999J0D01*
G01*
G37*
%TD.AperFunction*%
%TO.P,R3,1*%
%TO.N,LED3*%
%TA.AperFunction,SMDPad,CuDef*%
G36*
G01*
X122950001Y-82100000D02*
X122049999Y-82100000D01*
G75*
G02*
X121800000Y-81850001I0J249999D01*
G01*
X121800000Y-81199999D01*
G75*
G02*
X122049999Y-80950000I249999J0D01*
G01*
X122950001Y-80950000D01*
G75*
G02*
X123200000Y-81199999I0J-249999D01*
G01*
X123200000Y-81850001D01*
G75*
G02*
X122950001Y-82100000I-249999J0D01*
G01*
G37*
%TD.AperFunction*%
%TD*%
%TO.P,R2,2*%
%TO.N,Net-(D2-Pad2)*%
%TA.AperFunction,SMDPad,CuDef*%
G36*
G01*
X146049999Y-71450000D02*
X146950001Y-71450000D01*
G75*
G02*
X147200000Y-71699999I0J-249999D01*
G01*
X147200000Y-72350001D01*
G75*
G02*
X146950001Y-72600000I-249999J0D01*
G01*
X146049999Y-72600000D01*
G75*
G02*
X145800000Y-72350001I0J249999D01*
G01*
X145800000Y-71699999D01*
G75*
G02*
X146049999Y-71450000I249999J0D01*
G01*
G37*
%TD.AperFunction*%
%TO.P,R2,1*%
%TO.N,LED2*%
%TA.AperFunction,SMDPad,CuDef*%
G36*
G01*
X146049999Y-69400000D02*
X146950001Y-69400000D01*
G75*
G02*
X147200000Y-69649999I0J-249999D01*
G01*
X147200000Y-70300001D01*
G75*
G02*
X146950001Y-70550000I-249999J0D01*
G01*
X146049999Y-70550000D01*
G75*
G02*
X145800000Y-70300001I0J249999D01*
G01*
X145800000Y-69649999D01*
G75*
G02*
X146049999Y-69400000I249999J0D01*
G01*
G37*
%TD.AperFunction*%
%TD*%
%TO.P,C1,2*%
%TO.N,GND*%
%TA.AperFunction,SMDPad,CuDef*%
G36*
G01*
X121949999Y-86825000D02*
X122850001Y-86825000D01*
G75*
G02*
X123100000Y-87074999I0J-249999D01*
G01*
X123100000Y-87725001D01*
G75*
G02*
X122850001Y-87975000I-249999J0D01*
G01*
X121949999Y-87975000D01*
G75*
G02*
X121700000Y-87725001I0J249999D01*
G01*
X121700000Y-87074999D01*
G75*
G02*
X121949999Y-86825000I249999J0D01*
G01*
G37*
%TD.AperFunction*%
%TO.P,C1,1*%
%TO.N,VCC*%
%TA.AperFunction,SMDPad,CuDef*%
G36*
G01*
X121949999Y-84775000D02*
X122850001Y-84775000D01*
G75*
G02*
X123100000Y-85024999I0J-249999D01*
G01*
X123100000Y-85675001D01*
G75*
G02*
X122850001Y-85925000I-249999J0D01*
G01*
X121949999Y-85925000D01*
G75*
G02*
X121700000Y-85675001I0J249999D01*
G01*
X121700000Y-85024999D01*
G75*
G02*
X121949999Y-84775000I249999J0D01*
G01*
G37*
%TD.AperFunction*%
%TD*%
%TO.P,R1,2*%
%TO.N,Net-(D1-Pad2)*%
%TA.AperFunction,SMDPad,CuDef*%
G36*
G01*
X122049999Y-70975000D02*
X122950001Y-70975000D01*
G75*
G02*
X123200000Y-71224999I0J-249999D01*
G01*
X123200000Y-71875001D01*
G75*
G02*
X122950001Y-72125000I-249999J0D01*
G01*
X122049999Y-72125000D01*
G75*
G02*
X121800000Y-71875001I0J249999D01*
G01*
X121800000Y-71224999D01*
G75*
G02*
X122049999Y-70975000I249999J0D01*
G01*
G37*
%TD.AperFunction*%
%TO.P,R1,1*%
%TO.N,LED*%
%TA.AperFunction,SMDPad,CuDef*%
G36*
G01*
X122049999Y-68925000D02*
X122950001Y-68925000D01*
G75*
G02*
X123200000Y-69174999I0J-249999D01*
G01*
X123200000Y-69825001D01*
G75*
G02*
X122950001Y-70075000I-249999J0D01*
G01*
X122049999Y-70075000D01*
G75*
G02*
X121800000Y-69825001I0J249999D01*
G01*
X121800000Y-69174999D01*
G75*
G02*
X122049999Y-68925000I249999J0D01*
G01*
G37*
%TD.AperFunction*%
%TD*%
D16*
%TO.N,GND*%
X123800000Y-87800000D03*
X135600000Y-77000000D03*
X138000000Y-66800000D03*
X140200000Y-66600000D03*
%TO.N,GPIO0*%
X145000000Y-69800000D03*
%TO.N,VCC*%
X124000000Y-86000000D03*
X129000000Y-83000000D03*
X129000000Y-86400000D03*
%TO.N,LED*%
X124000000Y-71000000D03*
%TO.N,LED2*%
X145200000Y-68400000D03*
%TO.N,LED3*%
X124200000Y-80400000D03*
%TO.N,LED4*%
X141200000Y-81200000D03*
%TD*%
D17*
%TO.N,GND*%
X122400000Y-87400000D02*
X123400000Y-87400000D01*
X123400000Y-87400000D02*
X123800000Y-87800000D01*
X137350000Y-67450000D02*
X138000000Y-66800000D01*
X136800000Y-67450000D02*
X137350000Y-67450000D01*
X141400000Y-67650000D02*
X141400000Y-67800000D01*
D18*
X140350000Y-66600000D02*
X141400000Y-67650000D01*
X140200000Y-66600000D02*
X140350000Y-66600000D01*
%TO.N,GPIO0*%
X145000000Y-69800000D02*
X145000000Y-73400000D01*
X141860000Y-76540000D02*
X139200000Y-76540000D01*
X145000000Y-73400000D02*
X141860000Y-76540000D01*
D17*
%TO.N,Net-(D1-Pad2)*%
X122500000Y-71550000D02*
X121550000Y-71550000D01*
X121550000Y-71550000D02*
X121000000Y-71000000D01*
X121540000Y-67540000D02*
X122500000Y-67540000D01*
X122500000Y-67540000D02*
X121460000Y-67540000D01*
X121500000Y-67500000D02*
X121540000Y-67540000D01*
X121460000Y-67540000D02*
X121500000Y-67500000D01*
X121000000Y-71000000D02*
X121000000Y-67800000D01*
X121200000Y-67800000D02*
X121460000Y-67540000D01*
X121000000Y-67800000D02*
X121200000Y-67800000D01*
%TO.N,VCC*%
X141350000Y-61250000D02*
X141400000Y-61200000D01*
X130400000Y-61250000D02*
X141350000Y-61250000D01*
X130400000Y-67550000D02*
X130400000Y-61250000D01*
X122400000Y-85350000D02*
X123350000Y-85350000D01*
X123350000Y-85350000D02*
X124000000Y-86000000D01*
X141400000Y-61200000D02*
X142200000Y-61200000D01*
X142200000Y-61200000D02*
X143600000Y-62600000D01*
X143600000Y-62600000D02*
X143600000Y-71200000D01*
X140800000Y-74000000D02*
X139200000Y-74000000D01*
X143600000Y-71200000D02*
X140800000Y-74000000D01*
D18*
X129000000Y-83000000D02*
X129000000Y-86400000D01*
%TO.N,LED*%
X124000000Y-71000000D02*
X122500000Y-69500000D01*
%TO.N,EN*%
X141400000Y-63250000D02*
X141400000Y-65600000D01*
X139200000Y-79080000D02*
X138320000Y-78200000D01*
X138320000Y-78200000D02*
X137800000Y-78200000D01*
X137800000Y-78200000D02*
X137400000Y-77800000D01*
X137400000Y-77800000D02*
X137400000Y-69600000D01*
X137400000Y-69600000D02*
X139400000Y-67600000D01*
X139400000Y-67600000D02*
X139400000Y-66000000D01*
X139800000Y-65600000D02*
X141400000Y-65600000D01*
X139400000Y-66000000D02*
X139800000Y-65600000D01*
D17*
%TO.N,Net-(D2-Pad2)*%
X147475000Y-72025000D02*
X146500000Y-72025000D01*
X148000000Y-71500000D02*
X147475000Y-72025000D01*
X146500000Y-67500000D02*
X148000000Y-69000000D01*
X148000000Y-69000000D02*
X148000000Y-71500000D01*
D18*
%TO.N,LED2*%
X146500000Y-69100000D02*
X146500000Y-69975000D01*
X146400000Y-69000000D02*
X146500000Y-69100000D01*
X145200000Y-68400000D02*
X145800000Y-69000000D01*
X145800000Y-69000000D02*
X146400000Y-69000000D01*
D17*
%TO.N,Net-(D3-Pad2)*%
X122500000Y-79475000D02*
X122500000Y-77040000D01*
%TO.N,Net-(D4-Pad2)*%
X146500000Y-77040000D02*
X146500000Y-79500000D01*
D18*
%TO.N,LED3*%
X124200000Y-80400000D02*
X124200000Y-81000000D01*
X123675000Y-81525000D02*
X122500000Y-81525000D01*
X124200000Y-81000000D02*
X123675000Y-81525000D01*
%TO.N,LED4*%
X146500000Y-81550000D02*
X141550000Y-81550000D01*
X141550000Y-81550000D02*
X141200000Y-81200000D01*
%TO.N,Net-(C3-Pad1)*%
X133200000Y-74000000D02*
X133200000Y-72200000D01*
X132700000Y-71700000D02*
X132700000Y-67550000D01*
X133200000Y-72200000D02*
X132700000Y-71700000D01*
X132700000Y-67550000D02*
X132700000Y-66300000D01*
X133600000Y-65400000D02*
X136800000Y-65400000D01*
X132700000Y-66300000D02*
X133600000Y-65400000D01*
%TD*%
D19*
%TO.N,GND*%
G36*
X128255820Y-59660498D02*
G01*
X128145506Y-59719463D01*
X128048815Y-59798815D01*
X127969463Y-59895506D01*
X127910498Y-60005820D01*
X127874188Y-60125518D01*
X127861928Y-60250000D01*
X127861928Y-62250000D01*
X127874188Y-62374482D01*
X127910498Y-62494180D01*
X127969463Y-62604494D01*
X128048815Y-62701185D01*
X128145506Y-62780537D01*
X128255820Y-62839502D01*
X128375518Y-62875812D01*
X128500000Y-62888072D01*
X129515001Y-62888072D01*
X129515000Y-65927379D01*
X129405820Y-65960498D01*
X129295506Y-66019463D01*
X129250000Y-66056809D01*
X129204494Y-66019463D01*
X129094180Y-65960498D01*
X128974482Y-65924188D01*
X128850000Y-65911928D01*
X128385750Y-65915000D01*
X128227000Y-66073750D01*
X128227000Y-67423000D01*
X128247000Y-67423000D01*
X128247000Y-67677000D01*
X128227000Y-67677000D01*
X128227000Y-69026250D01*
X128385750Y-69185000D01*
X128850000Y-69188072D01*
X128974482Y-69175812D01*
X129094180Y-69139502D01*
X129204494Y-69080537D01*
X129250000Y-69043191D01*
X129295506Y-69080537D01*
X129405820Y-69139502D01*
X129525518Y-69175812D01*
X129650000Y-69188072D01*
X131150000Y-69188072D01*
X131274482Y-69175812D01*
X131394180Y-69139502D01*
X131504494Y-69080537D01*
X131550000Y-69043191D01*
X131595506Y-69080537D01*
X131705820Y-69139502D01*
X131825518Y-69175812D01*
X131940001Y-69187087D01*
X131940000Y-71662677D01*
X131936324Y-71700000D01*
X131940000Y-71737322D01*
X131940000Y-71737332D01*
X131950997Y-71848985D01*
X131968824Y-71907753D01*
X131994454Y-71992246D01*
X132065026Y-72124276D01*
X132068753Y-72128817D01*
X132159999Y-72240001D01*
X132189003Y-72263804D01*
X132437127Y-72511928D01*
X132350000Y-72511928D01*
X132225518Y-72524188D01*
X132105820Y-72560498D01*
X131995506Y-72619463D01*
X131898815Y-72698815D01*
X131819463Y-72795506D01*
X131760498Y-72905820D01*
X131736034Y-72986466D01*
X131660269Y-72902412D01*
X131426920Y-72728359D01*
X131164099Y-72603175D01*
X131016890Y-72558524D01*
X130787000Y-72679845D01*
X130787000Y-73873000D01*
X130807000Y-73873000D01*
X130807000Y-74127000D01*
X130787000Y-74127000D01*
X130787000Y-75320155D01*
X131016890Y-75441476D01*
X131164099Y-75396825D01*
X131426920Y-75271641D01*
X131660269Y-75097588D01*
X131736034Y-75013534D01*
X131760498Y-75094180D01*
X131819463Y-75204494D01*
X131898815Y-75301185D01*
X131995506Y-75380537D01*
X132105820Y-75439502D01*
X132225518Y-75475812D01*
X132350000Y-75488072D01*
X134050000Y-75488072D01*
X134174482Y-75475812D01*
X134294180Y-75439502D01*
X134404494Y-75380537D01*
X134501185Y-75301185D01*
X134580537Y-75204494D01*
X134639502Y-75094180D01*
X134675812Y-74974482D01*
X134688072Y-74850000D01*
X134688072Y-73150000D01*
X134675812Y-73025518D01*
X134639502Y-72905820D01*
X134580537Y-72795506D01*
X134501185Y-72698815D01*
X134404494Y-72619463D01*
X134294180Y-72560498D01*
X134174482Y-72524188D01*
X134050000Y-72511928D01*
X133960000Y-72511928D01*
X133960000Y-72237325D01*
X133963676Y-72200000D01*
X133960000Y-72162675D01*
X133960000Y-72162667D01*
X133949003Y-72051014D01*
X133905546Y-71907753D01*
X133834974Y-71775724D01*
X133740001Y-71659999D01*
X133710997Y-71636196D01*
X133460000Y-71385199D01*
X133460000Y-69187087D01*
X133574482Y-69175812D01*
X133694180Y-69139502D01*
X133804494Y-69080537D01*
X133901185Y-69001185D01*
X133980537Y-68904494D01*
X134039502Y-68794180D01*
X134075812Y-68674482D01*
X134088072Y-68550000D01*
X134088072Y-68025000D01*
X135461928Y-68025000D01*
X135474188Y-68149482D01*
X135510498Y-68269180D01*
X135569463Y-68379494D01*
X135648815Y-68476185D01*
X135745506Y-68555537D01*
X135855820Y-68614502D01*
X135975518Y-68650812D01*
X136100000Y-68663072D01*
X136514250Y-68660000D01*
X136673000Y-68501250D01*
X136673000Y-67577000D01*
X135623750Y-67577000D01*
X135465000Y-67735750D01*
X135461928Y-68025000D01*
X134088072Y-68025000D01*
X134088072Y-66550000D01*
X134075812Y-66425518D01*
X134039502Y-66305820D01*
X133980537Y-66195506D01*
X133951398Y-66160000D01*
X135580386Y-66160000D01*
X135611595Y-66218387D01*
X135722038Y-66352962D01*
X135728594Y-66358342D01*
X135648815Y-66423815D01*
X135569463Y-66520506D01*
X135510498Y-66630820D01*
X135474188Y-66750518D01*
X135461928Y-66875000D01*
X135465000Y-67164250D01*
X135623750Y-67323000D01*
X136673000Y-67323000D01*
X136673000Y-67303000D01*
X136927000Y-67303000D01*
X136927000Y-67323000D01*
X137976250Y-67323000D01*
X138135000Y-67164250D01*
X138138072Y-66875000D01*
X138125812Y-66750518D01*
X138089502Y-66630820D01*
X138030537Y-66520506D01*
X137951185Y-66423815D01*
X137871406Y-66358342D01*
X137877962Y-66352962D01*
X137988405Y-66218387D01*
X138070472Y-66064851D01*
X138121008Y-65898255D01*
X138138072Y-65725001D01*
X138138072Y-65074999D01*
X138121008Y-64901745D01*
X138070472Y-64735149D01*
X137988405Y-64581613D01*
X137877962Y-64447038D01*
X137801187Y-64384031D01*
X137854494Y-64355537D01*
X137951185Y-64276185D01*
X138030537Y-64179494D01*
X138089502Y-64069180D01*
X138125812Y-63949482D01*
X138138072Y-63825000D01*
X138135000Y-63535750D01*
X137976250Y-63377000D01*
X136927000Y-63377000D01*
X136927000Y-63397000D01*
X136673000Y-63397000D01*
X136673000Y-63377000D01*
X135623750Y-63377000D01*
X135465000Y-63535750D01*
X135461928Y-63825000D01*
X135474188Y-63949482D01*
X135510498Y-64069180D01*
X135569463Y-64179494D01*
X135648815Y-64276185D01*
X135745506Y-64355537D01*
X135798813Y-64384031D01*
X135722038Y-64447038D01*
X135611595Y-64581613D01*
X135580386Y-64640000D01*
X133637322Y-64640000D01*
X133599999Y-64636324D01*
X133562676Y-64640000D01*
X133562667Y-64640000D01*
X133451014Y-64650997D01*
X133307753Y-64694454D01*
X133175724Y-64765026D01*
X133059999Y-64859999D01*
X133036201Y-64888997D01*
X132188998Y-65736201D01*
X132160000Y-65759999D01*
X132136202Y-65788997D01*
X132136201Y-65788998D01*
X132065026Y-65875724D01*
X132045674Y-65911928D01*
X131950000Y-65911928D01*
X131825518Y-65924188D01*
X131705820Y-65960498D01*
X131595506Y-66019463D01*
X131550000Y-66056809D01*
X131504494Y-66019463D01*
X131394180Y-65960498D01*
X131285000Y-65927379D01*
X131285000Y-62888072D01*
X132300000Y-62888072D01*
X132424482Y-62875812D01*
X132544180Y-62839502D01*
X132654494Y-62780537D01*
X132751185Y-62701185D01*
X132830537Y-62604494D01*
X132889502Y-62494180D01*
X132925812Y-62374482D01*
X132938072Y-62250000D01*
X132938072Y-62135000D01*
X135707297Y-62135000D01*
X135722038Y-62152962D01*
X135728594Y-62158342D01*
X135648815Y-62223815D01*
X135569463Y-62320506D01*
X135510498Y-62430820D01*
X135474188Y-62550518D01*
X135461928Y-62675000D01*
X135465000Y-62964250D01*
X135623750Y-63123000D01*
X136673000Y-63123000D01*
X136673000Y-63103000D01*
X136927000Y-63103000D01*
X136927000Y-63123000D01*
X137976250Y-63123000D01*
X138135000Y-62964250D01*
X138138072Y-62675000D01*
X138125812Y-62550518D01*
X138089502Y-62430820D01*
X138030537Y-62320506D01*
X137951185Y-62223815D01*
X137871406Y-62158342D01*
X137877962Y-62152962D01*
X137892703Y-62135000D01*
X140307297Y-62135000D01*
X140322038Y-62152962D01*
X140409816Y-62225000D01*
X140322038Y-62297038D01*
X140211595Y-62431613D01*
X140129528Y-62585149D01*
X140078992Y-62751745D01*
X140061928Y-62924999D01*
X140061928Y-63575001D01*
X140078992Y-63748255D01*
X140129528Y-63914851D01*
X140211595Y-64068387D01*
X140322038Y-64202962D01*
X140456613Y-64313405D01*
X140610149Y-64395472D01*
X140640000Y-64404527D01*
X140640001Y-64445473D01*
X140610149Y-64454528D01*
X140456613Y-64536595D01*
X140322038Y-64647038D01*
X140211595Y-64781613D01*
X140180386Y-64840000D01*
X139837322Y-64840000D01*
X139799999Y-64836324D01*
X139762676Y-64840000D01*
X139762667Y-64840000D01*
X139651014Y-64850997D01*
X139507753Y-64894454D01*
X139375724Y-64965026D01*
X139259999Y-65059999D01*
X139236200Y-65088998D01*
X138888998Y-65436201D01*
X138860000Y-65459999D01*
X138836202Y-65488997D01*
X138836201Y-65488998D01*
X138765026Y-65575724D01*
X138694454Y-65707754D01*
X138669810Y-65788998D01*
X138659109Y-65824277D01*
X138650998Y-65851015D01*
X138636324Y-66000000D01*
X138640001Y-66037332D01*
X138640000Y-67285198D01*
X138135572Y-67789626D01*
X138135000Y-67735750D01*
X137976250Y-67577000D01*
X136927000Y-67577000D01*
X136927000Y-68501250D01*
X137085750Y-68660000D01*
X137263878Y-68661321D01*
X136888998Y-69036201D01*
X136860000Y-69059999D01*
X136836202Y-69088997D01*
X136836201Y-69088998D01*
X136765026Y-69175724D01*
X136694454Y-69307754D01*
X136673836Y-69375725D01*
X136650998Y-69451014D01*
X136646360Y-69498102D01*
X136636324Y-69600000D01*
X136640001Y-69637332D01*
X136640000Y-77762678D01*
X136636324Y-77800000D01*
X136640000Y-77837322D01*
X136640000Y-77837332D01*
X136650997Y-77948985D01*
X136681947Y-78051014D01*
X136694454Y-78092246D01*
X136765026Y-78224276D01*
X136795927Y-78261928D01*
X136859999Y-78340001D01*
X136889002Y-78363803D01*
X137236200Y-78711002D01*
X137259999Y-78740001D01*
X137375724Y-78834974D01*
X137507753Y-78905546D01*
X137651014Y-78949003D01*
X137715000Y-78955305D01*
X137715000Y-79226260D01*
X137772068Y-79513158D01*
X137884010Y-79783411D01*
X138046525Y-80026632D01*
X138253368Y-80233475D01*
X138427760Y-80350000D01*
X138253368Y-80466525D01*
X138046525Y-80673368D01*
X137884010Y-80916589D01*
X137772068Y-81186842D01*
X137715000Y-81473740D01*
X137715000Y-81766260D01*
X137772068Y-82053158D01*
X137884010Y-82323411D01*
X138046525Y-82566632D01*
X138253368Y-82773475D01*
X138427760Y-82890000D01*
X138253368Y-83006525D01*
X138046525Y-83213368D01*
X137884010Y-83456589D01*
X137772068Y-83726842D01*
X137715000Y-84013740D01*
X137715000Y-84306260D01*
X137772068Y-84593158D01*
X137884010Y-84863411D01*
X138046525Y-85106632D01*
X138253368Y-85313475D01*
X138435534Y-85435195D01*
X138318645Y-85504822D01*
X138102412Y-85699731D01*
X137928359Y-85933080D01*
X137803175Y-86195901D01*
X137758524Y-86343110D01*
X137879845Y-86573000D01*
X139073000Y-86573000D01*
X139073000Y-86553000D01*
X139327000Y-86553000D01*
X139327000Y-86573000D01*
X140520155Y-86573000D01*
X140641476Y-86343110D01*
X140596825Y-86195901D01*
X140471641Y-85933080D01*
X140297588Y-85699731D01*
X140081355Y-85504822D01*
X139964466Y-85435195D01*
X140146632Y-85313475D01*
X140353475Y-85106632D01*
X140515990Y-84863411D01*
X140627932Y-84593158D01*
X140685000Y-84306260D01*
X140685000Y-84013740D01*
X140627932Y-83726842D01*
X140515990Y-83456589D01*
X140353475Y-83213368D01*
X140146632Y-83006525D01*
X139972240Y-82890000D01*
X140146632Y-82773475D01*
X140353475Y-82566632D01*
X140515990Y-82323411D01*
X140624888Y-82060506D01*
X140709744Y-82117205D01*
X140898102Y-82195226D01*
X141098061Y-82235000D01*
X141219315Y-82235000D01*
X141257753Y-82255546D01*
X141401014Y-82299003D01*
X141512667Y-82310000D01*
X141512675Y-82310000D01*
X141550000Y-82313676D01*
X141587325Y-82310000D01*
X145280386Y-82310000D01*
X145311595Y-82368387D01*
X145422038Y-82502962D01*
X145556613Y-82613405D01*
X145710149Y-82695472D01*
X145876745Y-82746008D01*
X146049999Y-82763072D01*
X146950001Y-82763072D01*
X147123255Y-82746008D01*
X147289851Y-82695472D01*
X147443387Y-82613405D01*
X147577962Y-82502962D01*
X147688405Y-82368387D01*
X147770472Y-82214851D01*
X147821008Y-82048255D01*
X147838072Y-81875001D01*
X147838072Y-81224999D01*
X147821008Y-81051745D01*
X147770472Y-80885149D01*
X147688405Y-80731613D01*
X147577962Y-80597038D01*
X147490184Y-80525000D01*
X147577962Y-80452962D01*
X147688405Y-80318387D01*
X147770472Y-80164851D01*
X147821008Y-79998255D01*
X147838072Y-79825001D01*
X147838072Y-79174999D01*
X147821008Y-79001745D01*
X147770472Y-78835149D01*
X147688405Y-78681613D01*
X147577962Y-78547038D01*
X147443387Y-78436595D01*
X147385000Y-78405386D01*
X147385000Y-78294790D01*
X147478505Y-78232312D01*
X147692312Y-78018505D01*
X147860299Y-77767095D01*
X147976011Y-77487743D01*
X148035000Y-77191184D01*
X148035000Y-76888816D01*
X147976011Y-76592257D01*
X147860299Y-76312905D01*
X147692312Y-76061495D01*
X147625873Y-75995056D01*
X147644180Y-75989502D01*
X147754494Y-75930537D01*
X147851185Y-75851185D01*
X147930537Y-75754494D01*
X147989502Y-75644180D01*
X148025812Y-75524482D01*
X148038072Y-75400000D01*
X148035000Y-74785750D01*
X147876250Y-74627000D01*
X146627000Y-74627000D01*
X146627000Y-74647000D01*
X146373000Y-74647000D01*
X146373000Y-74627000D01*
X146353000Y-74627000D01*
X146353000Y-74373000D01*
X146373000Y-74373000D01*
X146373000Y-74353000D01*
X146627000Y-74353000D01*
X146627000Y-74373000D01*
X147876250Y-74373000D01*
X148035000Y-74214250D01*
X148038072Y-73600000D01*
X148025812Y-73475518D01*
X147989502Y-73355820D01*
X147930537Y-73245506D01*
X147851185Y-73148815D01*
X147754494Y-73069463D01*
X147644180Y-73010498D01*
X147566887Y-72987051D01*
X147577962Y-72977962D01*
X147643873Y-72897650D01*
X147648490Y-72897195D01*
X147815313Y-72846589D01*
X147969059Y-72764411D01*
X148103817Y-72653817D01*
X148131534Y-72620044D01*
X148595044Y-72156534D01*
X148628817Y-72128817D01*
X148739411Y-71994059D01*
X148821589Y-71840313D01*
X148840000Y-71779620D01*
X148840001Y-86367711D01*
X148801853Y-86756776D01*
X148698238Y-87099964D01*
X148529939Y-87416489D01*
X148303365Y-87694296D01*
X148027146Y-87922805D01*
X147711803Y-88093310D01*
X147369344Y-88199319D01*
X146982288Y-88240000D01*
X123678373Y-88240000D01*
X123689502Y-88219180D01*
X123725812Y-88099482D01*
X123738072Y-87975000D01*
X123735000Y-87685750D01*
X123576250Y-87527000D01*
X122527000Y-87527000D01*
X122527000Y-87547000D01*
X122273000Y-87547000D01*
X122273000Y-87527000D01*
X121223750Y-87527000D01*
X121065000Y-87685750D01*
X121061964Y-87971653D01*
X120983511Y-87929939D01*
X120705704Y-87703365D01*
X120477195Y-87427146D01*
X120306690Y-87111803D01*
X120200681Y-86769344D01*
X120160000Y-86382288D01*
X120160000Y-85024999D01*
X121061928Y-85024999D01*
X121061928Y-85675001D01*
X121078992Y-85848255D01*
X121129528Y-86014851D01*
X121211595Y-86168387D01*
X121322038Y-86302962D01*
X121328594Y-86308342D01*
X121248815Y-86373815D01*
X121169463Y-86470506D01*
X121110498Y-86580820D01*
X121074188Y-86700518D01*
X121061928Y-86825000D01*
X121065000Y-87114250D01*
X121223750Y-87273000D01*
X122273000Y-87273000D01*
X122273000Y-87253000D01*
X122527000Y-87253000D01*
X122527000Y-87273000D01*
X123576250Y-87273000D01*
X123735000Y-87114250D01*
X123736184Y-87002801D01*
X123898061Y-87035000D01*
X124101939Y-87035000D01*
X124301898Y-86995226D01*
X124490256Y-86917205D01*
X124659774Y-86803937D01*
X124803937Y-86659774D01*
X124917205Y-86490256D01*
X124995226Y-86301898D01*
X125035000Y-86101939D01*
X125035000Y-85898061D01*
X124995226Y-85698102D01*
X124917205Y-85509744D01*
X124803937Y-85340226D01*
X124659774Y-85196063D01*
X124490256Y-85082795D01*
X124301898Y-85004774D01*
X124245043Y-84993465D01*
X124006534Y-84754956D01*
X123978817Y-84721183D01*
X123844059Y-84610589D01*
X123690313Y-84528411D01*
X123551126Y-84486188D01*
X123477962Y-84397038D01*
X123343387Y-84286595D01*
X123189851Y-84204528D01*
X123023255Y-84153992D01*
X122850001Y-84136928D01*
X121949999Y-84136928D01*
X121776745Y-84153992D01*
X121610149Y-84204528D01*
X121456613Y-84286595D01*
X121322038Y-84397038D01*
X121211595Y-84531613D01*
X121129528Y-84685149D01*
X121078992Y-84851745D01*
X121061928Y-85024999D01*
X120160000Y-85024999D01*
X120160000Y-82898061D01*
X127965000Y-82898061D01*
X127965000Y-83101939D01*
X128004774Y-83301898D01*
X128082795Y-83490256D01*
X128196063Y-83659774D01*
X128240000Y-83703711D01*
X128240001Y-85696288D01*
X128196063Y-85740226D01*
X128082795Y-85909744D01*
X128004774Y-86098102D01*
X127965000Y-86298061D01*
X127965000Y-86501939D01*
X128004774Y-86701898D01*
X128082795Y-86890256D01*
X128196063Y-87059774D01*
X128340226Y-87203937D01*
X128509744Y-87317205D01*
X128698102Y-87395226D01*
X128898061Y-87435000D01*
X129101939Y-87435000D01*
X129301898Y-87395226D01*
X129490256Y-87317205D01*
X129659774Y-87203937D01*
X129803937Y-87059774D01*
X129805864Y-87056890D01*
X137758524Y-87056890D01*
X137803175Y-87204099D01*
X137928359Y-87466920D01*
X138102412Y-87700269D01*
X138318645Y-87895178D01*
X138568748Y-88044157D01*
X138843109Y-88141481D01*
X139073000Y-88020814D01*
X139073000Y-86827000D01*
X139327000Y-86827000D01*
X139327000Y-88020814D01*
X139556891Y-88141481D01*
X139831252Y-88044157D01*
X140081355Y-87895178D01*
X140297588Y-87700269D01*
X140471641Y-87466920D01*
X140596825Y-87204099D01*
X140641476Y-87056890D01*
X140520155Y-86827000D01*
X139327000Y-86827000D01*
X139073000Y-86827000D01*
X137879845Y-86827000D01*
X137758524Y-87056890D01*
X129805864Y-87056890D01*
X129917205Y-86890256D01*
X129995226Y-86701898D01*
X130035000Y-86501939D01*
X130035000Y-86298061D01*
X129995226Y-86098102D01*
X129917205Y-85909744D01*
X129803937Y-85740226D01*
X129760000Y-85696289D01*
X129760000Y-83703711D01*
X129803937Y-83659774D01*
X129917205Y-83490256D01*
X129995226Y-83301898D01*
X130035000Y-83101939D01*
X130035000Y-82898061D01*
X129995226Y-82698102D01*
X129917205Y-82509744D01*
X129803937Y-82340226D01*
X129659774Y-82196063D01*
X129490256Y-82082795D01*
X129301898Y-82004774D01*
X129101939Y-81965000D01*
X128898061Y-81965000D01*
X128698102Y-82004774D01*
X128509744Y-82082795D01*
X128340226Y-82196063D01*
X128196063Y-82340226D01*
X128082795Y-82509744D01*
X128004774Y-82698102D01*
X127965000Y-82898061D01*
X120160000Y-82898061D01*
X120160000Y-75400000D01*
X120961928Y-75400000D01*
X120974188Y-75524482D01*
X121010498Y-75644180D01*
X121069463Y-75754494D01*
X121148815Y-75851185D01*
X121245506Y-75930537D01*
X121355820Y-75989502D01*
X121374127Y-75995056D01*
X121307688Y-76061495D01*
X121139701Y-76312905D01*
X121023989Y-76592257D01*
X120965000Y-76888816D01*
X120965000Y-77191184D01*
X121023989Y-77487743D01*
X121139701Y-77767095D01*
X121307688Y-78018505D01*
X121521495Y-78232312D01*
X121615000Y-78294790D01*
X121615000Y-78380386D01*
X121556613Y-78411595D01*
X121422038Y-78522038D01*
X121311595Y-78656613D01*
X121229528Y-78810149D01*
X121178992Y-78976745D01*
X121161928Y-79149999D01*
X121161928Y-79800001D01*
X121178992Y-79973255D01*
X121229528Y-80139851D01*
X121311595Y-80293387D01*
X121422038Y-80427962D01*
X121509816Y-80500000D01*
X121422038Y-80572038D01*
X121311595Y-80706613D01*
X121229528Y-80860149D01*
X121178992Y-81026745D01*
X121161928Y-81199999D01*
X121161928Y-81850001D01*
X121178992Y-82023255D01*
X121229528Y-82189851D01*
X121311595Y-82343387D01*
X121422038Y-82477962D01*
X121556613Y-82588405D01*
X121710149Y-82670472D01*
X121876745Y-82721008D01*
X122049999Y-82738072D01*
X122950001Y-82738072D01*
X123123255Y-82721008D01*
X123289851Y-82670472D01*
X123443387Y-82588405D01*
X123577962Y-82477962D01*
X123688405Y-82343387D01*
X123720018Y-82284243D01*
X123823986Y-82274003D01*
X123967247Y-82230546D01*
X124099276Y-82159974D01*
X124215001Y-82065001D01*
X124238803Y-82035998D01*
X124711002Y-81563800D01*
X124740001Y-81540001D01*
X124771271Y-81501898D01*
X124834974Y-81424277D01*
X124905546Y-81292247D01*
X124916009Y-81257753D01*
X124949003Y-81148986D01*
X124952748Y-81110963D01*
X125003937Y-81059774D01*
X125117205Y-80890256D01*
X125195226Y-80701898D01*
X125235000Y-80501939D01*
X125235000Y-80298061D01*
X125195226Y-80098102D01*
X125117205Y-79909744D01*
X125003937Y-79740226D01*
X124859774Y-79596063D01*
X124690256Y-79482795D01*
X124501898Y-79404774D01*
X124301939Y-79365000D01*
X124098061Y-79365000D01*
X123898102Y-79404774D01*
X123838072Y-79429639D01*
X123838072Y-79149999D01*
X123821008Y-78976745D01*
X123770472Y-78810149D01*
X123688405Y-78656613D01*
X123577962Y-78522038D01*
X123443387Y-78411595D01*
X123385000Y-78380386D01*
X123385000Y-78294790D01*
X123478505Y-78232312D01*
X123692312Y-78018505D01*
X123860299Y-77767095D01*
X123976011Y-77487743D01*
X124035000Y-77191184D01*
X124035000Y-76888816D01*
X123976011Y-76592257D01*
X123860299Y-76312905D01*
X123692312Y-76061495D01*
X123625873Y-75995056D01*
X123644180Y-75989502D01*
X123754494Y-75930537D01*
X123851185Y-75851185D01*
X123930537Y-75754494D01*
X123989502Y-75644180D01*
X124025812Y-75524482D01*
X124038072Y-75400000D01*
X124035000Y-74785750D01*
X123876250Y-74627000D01*
X122627000Y-74627000D01*
X122627000Y-74647000D01*
X122373000Y-74647000D01*
X122373000Y-74627000D01*
X121123750Y-74627000D01*
X120965000Y-74785750D01*
X120961928Y-75400000D01*
X120160000Y-75400000D01*
X120160000Y-73600000D01*
X120961928Y-73600000D01*
X120965000Y-74214250D01*
X121123750Y-74373000D01*
X122373000Y-74373000D01*
X122373000Y-73123750D01*
X122627000Y-73123750D01*
X122627000Y-74373000D01*
X123876250Y-74373000D01*
X123892359Y-74356891D01*
X129218519Y-74356891D01*
X129315843Y-74631252D01*
X129464822Y-74881355D01*
X129659731Y-75097588D01*
X129893080Y-75271641D01*
X130155901Y-75396825D01*
X130303110Y-75441476D01*
X130533000Y-75320155D01*
X130533000Y-74127000D01*
X129339186Y-74127000D01*
X129218519Y-74356891D01*
X123892359Y-74356891D01*
X124035000Y-74214250D01*
X124037856Y-73643109D01*
X129218519Y-73643109D01*
X129339186Y-73873000D01*
X130533000Y-73873000D01*
X130533000Y-72679845D01*
X130303110Y-72558524D01*
X130155901Y-72603175D01*
X129893080Y-72728359D01*
X129659731Y-72902412D01*
X129464822Y-73118645D01*
X129315843Y-73368748D01*
X129218519Y-73643109D01*
X124037856Y-73643109D01*
X124038072Y-73600000D01*
X124025812Y-73475518D01*
X123989502Y-73355820D01*
X123930537Y-73245506D01*
X123851185Y-73148815D01*
X123754494Y-73069463D01*
X123644180Y-73010498D01*
X123524482Y-72974188D01*
X123400000Y-72961928D01*
X122785750Y-72965000D01*
X122627000Y-73123750D01*
X122373000Y-73123750D01*
X122214250Y-72965000D01*
X121600000Y-72961928D01*
X121475518Y-72974188D01*
X121355820Y-73010498D01*
X121245506Y-73069463D01*
X121148815Y-73148815D01*
X121069463Y-73245506D01*
X121010498Y-73355820D01*
X120974188Y-73475518D01*
X120961928Y-73600000D01*
X120160000Y-73600000D01*
X120160000Y-71279620D01*
X120178411Y-71340312D01*
X120260589Y-71494058D01*
X120371183Y-71628817D01*
X120404956Y-71656534D01*
X120893466Y-72145044D01*
X120921183Y-72178817D01*
X121055941Y-72289411D01*
X121209687Y-72371589D01*
X121348874Y-72413812D01*
X121422038Y-72502962D01*
X121556613Y-72613405D01*
X121710149Y-72695472D01*
X121876745Y-72746008D01*
X122049999Y-72763072D01*
X122950001Y-72763072D01*
X123123255Y-72746008D01*
X123289851Y-72695472D01*
X123443387Y-72613405D01*
X123577962Y-72502962D01*
X123688405Y-72368387D01*
X123770472Y-72214851D01*
X123821008Y-72048255D01*
X123823769Y-72020223D01*
X123898061Y-72035000D01*
X124101939Y-72035000D01*
X124301898Y-71995226D01*
X124490256Y-71917205D01*
X124659774Y-71803937D01*
X124803937Y-71659774D01*
X124917205Y-71490256D01*
X124995226Y-71301898D01*
X125035000Y-71101939D01*
X125035000Y-70898061D01*
X124995226Y-70698102D01*
X124917205Y-70509744D01*
X124803937Y-70340226D01*
X124659774Y-70196063D01*
X124490256Y-70082795D01*
X124301898Y-70004774D01*
X124101939Y-69965000D01*
X124039802Y-69965000D01*
X123838072Y-69763270D01*
X123838072Y-69174999D01*
X123821008Y-69001745D01*
X123770472Y-68835149D01*
X123688405Y-68681613D01*
X123580393Y-68550000D01*
X126711928Y-68550000D01*
X126724188Y-68674482D01*
X126760498Y-68794180D01*
X126819463Y-68904494D01*
X126898815Y-69001185D01*
X126995506Y-69080537D01*
X127105820Y-69139502D01*
X127225518Y-69175812D01*
X127350000Y-69188072D01*
X127814250Y-69185000D01*
X127973000Y-69026250D01*
X127973000Y-67677000D01*
X126873750Y-67677000D01*
X126715000Y-67835750D01*
X126711928Y-68550000D01*
X123580393Y-68550000D01*
X123577962Y-68547038D01*
X123443387Y-68436595D01*
X123426078Y-68427343D01*
X123478505Y-68392312D01*
X123692312Y-68178505D01*
X123860299Y-67927095D01*
X123976011Y-67647743D01*
X124035000Y-67351184D01*
X124035000Y-67048816D01*
X123976011Y-66752257D01*
X123892233Y-66550000D01*
X126711928Y-66550000D01*
X126715000Y-67264250D01*
X126873750Y-67423000D01*
X127973000Y-67423000D01*
X127973000Y-66073750D01*
X127814250Y-65915000D01*
X127350000Y-65911928D01*
X127225518Y-65924188D01*
X127105820Y-65960498D01*
X126995506Y-66019463D01*
X126898815Y-66098815D01*
X126819463Y-66195506D01*
X126760498Y-66305820D01*
X126724188Y-66425518D01*
X126711928Y-66550000D01*
X123892233Y-66550000D01*
X123860299Y-66472905D01*
X123692312Y-66221495D01*
X123625873Y-66155056D01*
X123644180Y-66149502D01*
X123754494Y-66090537D01*
X123851185Y-66011185D01*
X123930537Y-65914494D01*
X123989502Y-65804180D01*
X124025812Y-65684482D01*
X124038072Y-65560000D01*
X124035000Y-64945750D01*
X123876250Y-64787000D01*
X122627000Y-64787000D01*
X122627000Y-64807000D01*
X122373000Y-64807000D01*
X122373000Y-64787000D01*
X121123750Y-64787000D01*
X120965000Y-64945750D01*
X120961928Y-65560000D01*
X120974188Y-65684482D01*
X121010498Y-65804180D01*
X121069463Y-65914494D01*
X121148815Y-66011185D01*
X121245506Y-66090537D01*
X121355820Y-66149502D01*
X121374127Y-66155056D01*
X121307688Y-66221495D01*
X121139701Y-66472905D01*
X121024688Y-66750569D01*
X121005942Y-66760589D01*
X120990935Y-66772905D01*
X120871183Y-66871183D01*
X120853153Y-66893152D01*
X120831183Y-66911183D01*
X120814569Y-66931427D01*
X120659687Y-66978411D01*
X120505941Y-67060589D01*
X120371183Y-67171183D01*
X120260589Y-67305941D01*
X120178411Y-67459687D01*
X120160000Y-67520379D01*
X120160000Y-63760000D01*
X120961928Y-63760000D01*
X120965000Y-64374250D01*
X121123750Y-64533000D01*
X122373000Y-64533000D01*
X122373000Y-63283750D01*
X122627000Y-63283750D01*
X122627000Y-64533000D01*
X123876250Y-64533000D01*
X124035000Y-64374250D01*
X124038072Y-63760000D01*
X124025812Y-63635518D01*
X123989502Y-63515820D01*
X123930537Y-63405506D01*
X123851185Y-63308815D01*
X123754494Y-63229463D01*
X123644180Y-63170498D01*
X123524482Y-63134188D01*
X123400000Y-63121928D01*
X122785750Y-63125000D01*
X122627000Y-63283750D01*
X122373000Y-63283750D01*
X122214250Y-63125000D01*
X121600000Y-63121928D01*
X121475518Y-63134188D01*
X121355820Y-63170498D01*
X121245506Y-63229463D01*
X121148815Y-63308815D01*
X121069463Y-63405506D01*
X121010498Y-63515820D01*
X120974188Y-63635518D01*
X120961928Y-63760000D01*
X120160000Y-63760000D01*
X120160000Y-61532279D01*
X120198147Y-61143225D01*
X120301763Y-60800033D01*
X120470062Y-60483511D01*
X120696637Y-60205701D01*
X120972856Y-59977194D01*
X121288197Y-59806690D01*
X121630656Y-59700681D01*
X122017712Y-59660000D01*
X128257462Y-59660000D01*
X128255820Y-59660498D01*
G37*
X128255820Y-59660498D02*
X128145506Y-59719463D01*
X128048815Y-59798815D01*
X127969463Y-59895506D01*
X127910498Y-60005820D01*
X127874188Y-60125518D01*
X127861928Y-60250000D01*
X127861928Y-62250000D01*
X127874188Y-62374482D01*
X127910498Y-62494180D01*
X127969463Y-62604494D01*
X128048815Y-62701185D01*
X128145506Y-62780537D01*
X128255820Y-62839502D01*
X128375518Y-62875812D01*
X128500000Y-62888072D01*
X129515001Y-62888072D01*
X129515000Y-65927379D01*
X129405820Y-65960498D01*
X129295506Y-66019463D01*
X129250000Y-66056809D01*
X129204494Y-66019463D01*
X129094180Y-65960498D01*
X128974482Y-65924188D01*
X128850000Y-65911928D01*
X128385750Y-65915000D01*
X128227000Y-66073750D01*
X128227000Y-67423000D01*
X128247000Y-67423000D01*
X128247000Y-67677000D01*
X128227000Y-67677000D01*
X128227000Y-69026250D01*
X128385750Y-69185000D01*
X128850000Y-69188072D01*
X128974482Y-69175812D01*
X129094180Y-69139502D01*
X129204494Y-69080537D01*
X129250000Y-69043191D01*
X129295506Y-69080537D01*
X129405820Y-69139502D01*
X129525518Y-69175812D01*
X129650000Y-69188072D01*
X131150000Y-69188072D01*
X131274482Y-69175812D01*
X131394180Y-69139502D01*
X131504494Y-69080537D01*
X131550000Y-69043191D01*
X131595506Y-69080537D01*
X131705820Y-69139502D01*
X131825518Y-69175812D01*
X131940001Y-69187087D01*
X131940000Y-71662677D01*
X131936324Y-71700000D01*
X131940000Y-71737322D01*
X131940000Y-71737332D01*
X131950997Y-71848985D01*
X131968824Y-71907753D01*
X131994454Y-71992246D01*
X132065026Y-72124276D01*
X132068753Y-72128817D01*
X132159999Y-72240001D01*
X132189003Y-72263804D01*
X132437127Y-72511928D01*
X132350000Y-72511928D01*
X132225518Y-72524188D01*
X132105820Y-72560498D01*
X131995506Y-72619463D01*
X131898815Y-72698815D01*
X131819463Y-72795506D01*
X131760498Y-72905820D01*
X131736034Y-72986466D01*
X131660269Y-72902412D01*
X131426920Y-72728359D01*
X131164099Y-72603175D01*
X131016890Y-72558524D01*
X130787000Y-72679845D01*
X130787000Y-73873000D01*
X130807000Y-73873000D01*
X130807000Y-74127000D01*
X130787000Y-74127000D01*
X130787000Y-75320155D01*
X131016890Y-75441476D01*
X131164099Y-75396825D01*
X131426920Y-75271641D01*
X131660269Y-75097588D01*
X131736034Y-75013534D01*
X131760498Y-75094180D01*
X131819463Y-75204494D01*
X131898815Y-75301185D01*
X131995506Y-75380537D01*
X132105820Y-75439502D01*
X132225518Y-75475812D01*
X132350000Y-75488072D01*
X134050000Y-75488072D01*
X134174482Y-75475812D01*
X134294180Y-75439502D01*
X134404494Y-75380537D01*
X134501185Y-75301185D01*
X134580537Y-75204494D01*
X134639502Y-75094180D01*
X134675812Y-74974482D01*
X134688072Y-74850000D01*
X134688072Y-73150000D01*
X134675812Y-73025518D01*
X134639502Y-72905820D01*
X134580537Y-72795506D01*
X134501185Y-72698815D01*
X134404494Y-72619463D01*
X134294180Y-72560498D01*
X134174482Y-72524188D01*
X134050000Y-72511928D01*
X133960000Y-72511928D01*
X133960000Y-72237325D01*
X133963676Y-72200000D01*
X133960000Y-72162675D01*
X133960000Y-72162667D01*
X133949003Y-72051014D01*
X133905546Y-71907753D01*
X133834974Y-71775724D01*
X133740001Y-71659999D01*
X133710997Y-71636196D01*
X133460000Y-71385199D01*
X133460000Y-69187087D01*
X133574482Y-69175812D01*
X133694180Y-69139502D01*
X133804494Y-69080537D01*
X133901185Y-69001185D01*
X133980537Y-68904494D01*
X134039502Y-68794180D01*
X134075812Y-68674482D01*
X134088072Y-68550000D01*
X134088072Y-68025000D01*
X135461928Y-68025000D01*
X135474188Y-68149482D01*
X135510498Y-68269180D01*
X135569463Y-68379494D01*
X135648815Y-68476185D01*
X135745506Y-68555537D01*
X135855820Y-68614502D01*
X135975518Y-68650812D01*
X136100000Y-68663072D01*
X136514250Y-68660000D01*
X136673000Y-68501250D01*
X136673000Y-67577000D01*
X135623750Y-67577000D01*
X135465000Y-67735750D01*
X135461928Y-68025000D01*
X134088072Y-68025000D01*
X134088072Y-66550000D01*
X134075812Y-66425518D01*
X134039502Y-66305820D01*
X133980537Y-66195506D01*
X133951398Y-66160000D01*
X135580386Y-66160000D01*
X135611595Y-66218387D01*
X135722038Y-66352962D01*
X135728594Y-66358342D01*
X135648815Y-66423815D01*
X135569463Y-66520506D01*
X135510498Y-66630820D01*
X135474188Y-66750518D01*
X135461928Y-66875000D01*
X135465000Y-67164250D01*
X135623750Y-67323000D01*
X136673000Y-67323000D01*
X136673000Y-67303000D01*
X136927000Y-67303000D01*
X136927000Y-67323000D01*
X137976250Y-67323000D01*
X138135000Y-67164250D01*
X138138072Y-66875000D01*
X138125812Y-66750518D01*
X138089502Y-66630820D01*
X138030537Y-66520506D01*
X137951185Y-66423815D01*
X137871406Y-66358342D01*
X137877962Y-66352962D01*
X137988405Y-66218387D01*
X138070472Y-66064851D01*
X138121008Y-65898255D01*
X138138072Y-65725001D01*
X138138072Y-65074999D01*
X138121008Y-64901745D01*
X138070472Y-64735149D01*
X137988405Y-64581613D01*
X137877962Y-64447038D01*
X137801187Y-64384031D01*
X137854494Y-64355537D01*
X137951185Y-64276185D01*
X138030537Y-64179494D01*
X138089502Y-64069180D01*
X138125812Y-63949482D01*
X138138072Y-63825000D01*
X138135000Y-63535750D01*
X137976250Y-63377000D01*
X136927000Y-63377000D01*
X136927000Y-63397000D01*
X136673000Y-63397000D01*
X136673000Y-63377000D01*
X135623750Y-63377000D01*
X135465000Y-63535750D01*
X135461928Y-63825000D01*
X135474188Y-63949482D01*
X135510498Y-64069180D01*
X135569463Y-64179494D01*
X135648815Y-64276185D01*
X135745506Y-64355537D01*
X135798813Y-64384031D01*
X135722038Y-64447038D01*
X135611595Y-64581613D01*
X135580386Y-64640000D01*
X133637322Y-64640000D01*
X133599999Y-64636324D01*
X133562676Y-64640000D01*
X133562667Y-64640000D01*
X133451014Y-64650997D01*
X133307753Y-64694454D01*
X133175724Y-64765026D01*
X133059999Y-64859999D01*
X133036201Y-64888997D01*
X132188998Y-65736201D01*
X132160000Y-65759999D01*
X132136202Y-65788997D01*
X132136201Y-65788998D01*
X132065026Y-65875724D01*
X132045674Y-65911928D01*
X131950000Y-65911928D01*
X131825518Y-65924188D01*
X131705820Y-65960498D01*
X131595506Y-66019463D01*
X131550000Y-66056809D01*
X131504494Y-66019463D01*
X131394180Y-65960498D01*
X131285000Y-65927379D01*
X131285000Y-62888072D01*
X132300000Y-62888072D01*
X132424482Y-62875812D01*
X132544180Y-62839502D01*
X132654494Y-62780537D01*
X132751185Y-62701185D01*
X132830537Y-62604494D01*
X132889502Y-62494180D01*
X132925812Y-62374482D01*
X132938072Y-62250000D01*
X132938072Y-62135000D01*
X135707297Y-62135000D01*
X135722038Y-62152962D01*
X135728594Y-62158342D01*
X135648815Y-62223815D01*
X135569463Y-62320506D01*
X135510498Y-62430820D01*
X135474188Y-62550518D01*
X135461928Y-62675000D01*
X135465000Y-62964250D01*
X135623750Y-63123000D01*
X136673000Y-63123000D01*
X136673000Y-63103000D01*
X136927000Y-63103000D01*
X136927000Y-63123000D01*
X137976250Y-63123000D01*
X138135000Y-62964250D01*
X138138072Y-62675000D01*
X138125812Y-62550518D01*
X138089502Y-62430820D01*
X138030537Y-62320506D01*
X137951185Y-62223815D01*
X137871406Y-62158342D01*
X137877962Y-62152962D01*
X137892703Y-62135000D01*
X140307297Y-62135000D01*
X140322038Y-62152962D01*
X140409816Y-62225000D01*
X140322038Y-62297038D01*
X140211595Y-62431613D01*
X140129528Y-62585149D01*
X140078992Y-62751745D01*
X140061928Y-62924999D01*
X140061928Y-63575001D01*
X140078992Y-63748255D01*
X140129528Y-63914851D01*
X140211595Y-64068387D01*
X140322038Y-64202962D01*
X140456613Y-64313405D01*
X140610149Y-64395472D01*
X140640000Y-64404527D01*
X140640001Y-64445473D01*
X140610149Y-64454528D01*
X140456613Y-64536595D01*
X140322038Y-64647038D01*
X140211595Y-64781613D01*
X140180386Y-64840000D01*
X139837322Y-64840000D01*
X139799999Y-64836324D01*
X139762676Y-64840000D01*
X139762667Y-64840000D01*
X139651014Y-64850997D01*
X139507753Y-64894454D01*
X139375724Y-64965026D01*
X139259999Y-65059999D01*
X139236200Y-65088998D01*
X138888998Y-65436201D01*
X138860000Y-65459999D01*
X138836202Y-65488997D01*
X138836201Y-65488998D01*
X138765026Y-65575724D01*
X138694454Y-65707754D01*
X138669810Y-65788998D01*
X138659109Y-65824277D01*
X138650998Y-65851015D01*
X138636324Y-66000000D01*
X138640001Y-66037332D01*
X138640000Y-67285198D01*
X138135572Y-67789626D01*
X138135000Y-67735750D01*
X137976250Y-67577000D01*
X136927000Y-67577000D01*
X136927000Y-68501250D01*
X137085750Y-68660000D01*
X137263878Y-68661321D01*
X136888998Y-69036201D01*
X136860000Y-69059999D01*
X136836202Y-69088997D01*
X136836201Y-69088998D01*
X136765026Y-69175724D01*
X136694454Y-69307754D01*
X136673836Y-69375725D01*
X136650998Y-69451014D01*
X136646360Y-69498102D01*
X136636324Y-69600000D01*
X136640001Y-69637332D01*
X136640000Y-77762678D01*
X136636324Y-77800000D01*
X136640000Y-77837322D01*
X136640000Y-77837332D01*
X136650997Y-77948985D01*
X136681947Y-78051014D01*
X136694454Y-78092246D01*
X136765026Y-78224276D01*
X136795927Y-78261928D01*
X136859999Y-78340001D01*
X136889002Y-78363803D01*
X137236200Y-78711002D01*
X137259999Y-78740001D01*
X137375724Y-78834974D01*
X137507753Y-78905546D01*
X137651014Y-78949003D01*
X137715000Y-78955305D01*
X137715000Y-79226260D01*
X137772068Y-79513158D01*
X137884010Y-79783411D01*
X138046525Y-80026632D01*
X138253368Y-80233475D01*
X138427760Y-80350000D01*
X138253368Y-80466525D01*
X138046525Y-80673368D01*
X137884010Y-80916589D01*
X137772068Y-81186842D01*
X137715000Y-81473740D01*
X137715000Y-81766260D01*
X137772068Y-82053158D01*
X137884010Y-82323411D01*
X138046525Y-82566632D01*
X138253368Y-82773475D01*
X138427760Y-82890000D01*
X138253368Y-83006525D01*
X138046525Y-83213368D01*
X137884010Y-83456589D01*
X137772068Y-83726842D01*
X137715000Y-84013740D01*
X137715000Y-84306260D01*
X137772068Y-84593158D01*
X137884010Y-84863411D01*
X138046525Y-85106632D01*
X138253368Y-85313475D01*
X138435534Y-85435195D01*
X138318645Y-85504822D01*
X138102412Y-85699731D01*
X137928359Y-85933080D01*
X137803175Y-86195901D01*
X137758524Y-86343110D01*
X137879845Y-86573000D01*
X139073000Y-86573000D01*
X139073000Y-86553000D01*
X139327000Y-86553000D01*
X139327000Y-86573000D01*
X140520155Y-86573000D01*
X140641476Y-86343110D01*
X140596825Y-86195901D01*
X140471641Y-85933080D01*
X140297588Y-85699731D01*
X140081355Y-85504822D01*
X139964466Y-85435195D01*
X140146632Y-85313475D01*
X140353475Y-85106632D01*
X140515990Y-84863411D01*
X140627932Y-84593158D01*
X140685000Y-84306260D01*
X140685000Y-84013740D01*
X140627932Y-83726842D01*
X140515990Y-83456589D01*
X140353475Y-83213368D01*
X140146632Y-83006525D01*
X139972240Y-82890000D01*
X140146632Y-82773475D01*
X140353475Y-82566632D01*
X140515990Y-82323411D01*
X140624888Y-82060506D01*
X140709744Y-82117205D01*
X140898102Y-82195226D01*
X141098061Y-82235000D01*
X141219315Y-82235000D01*
X141257753Y-82255546D01*
X141401014Y-82299003D01*
X141512667Y-82310000D01*
X141512675Y-82310000D01*
X141550000Y-82313676D01*
X141587325Y-82310000D01*
X145280386Y-82310000D01*
X145311595Y-82368387D01*
X145422038Y-82502962D01*
X145556613Y-82613405D01*
X145710149Y-82695472D01*
X145876745Y-82746008D01*
X146049999Y-82763072D01*
X146950001Y-82763072D01*
X147123255Y-82746008D01*
X147289851Y-82695472D01*
X147443387Y-82613405D01*
X147577962Y-82502962D01*
X147688405Y-82368387D01*
X147770472Y-82214851D01*
X147821008Y-82048255D01*
X147838072Y-81875001D01*
X147838072Y-81224999D01*
X147821008Y-81051745D01*
X147770472Y-80885149D01*
X147688405Y-80731613D01*
X147577962Y-80597038D01*
X147490184Y-80525000D01*
X147577962Y-80452962D01*
X147688405Y-80318387D01*
X147770472Y-80164851D01*
X147821008Y-79998255D01*
X147838072Y-79825001D01*
X147838072Y-79174999D01*
X147821008Y-79001745D01*
X147770472Y-78835149D01*
X147688405Y-78681613D01*
X147577962Y-78547038D01*
X147443387Y-78436595D01*
X147385000Y-78405386D01*
X147385000Y-78294790D01*
X147478505Y-78232312D01*
X147692312Y-78018505D01*
X147860299Y-77767095D01*
X147976011Y-77487743D01*
X148035000Y-77191184D01*
X148035000Y-76888816D01*
X147976011Y-76592257D01*
X147860299Y-76312905D01*
X147692312Y-76061495D01*
X147625873Y-75995056D01*
X147644180Y-75989502D01*
X147754494Y-75930537D01*
X147851185Y-75851185D01*
X147930537Y-75754494D01*
X147989502Y-75644180D01*
X148025812Y-75524482D01*
X148038072Y-75400000D01*
X148035000Y-74785750D01*
X147876250Y-74627000D01*
X146627000Y-74627000D01*
X146627000Y-74647000D01*
X146373000Y-74647000D01*
X146373000Y-74627000D01*
X146353000Y-74627000D01*
X146353000Y-74373000D01*
X146373000Y-74373000D01*
X146373000Y-74353000D01*
X146627000Y-74353000D01*
X146627000Y-74373000D01*
X147876250Y-74373000D01*
X148035000Y-74214250D01*
X148038072Y-73600000D01*
X148025812Y-73475518D01*
X147989502Y-73355820D01*
X147930537Y-73245506D01*
X147851185Y-73148815D01*
X147754494Y-73069463D01*
X147644180Y-73010498D01*
X147566887Y-72987051D01*
X147577962Y-72977962D01*
X147643873Y-72897650D01*
X147648490Y-72897195D01*
X147815313Y-72846589D01*
X147969059Y-72764411D01*
X148103817Y-72653817D01*
X148131534Y-72620044D01*
X148595044Y-72156534D01*
X148628817Y-72128817D01*
X148739411Y-71994059D01*
X148821589Y-71840313D01*
X148840000Y-71779620D01*
X148840001Y-86367711D01*
X148801853Y-86756776D01*
X148698238Y-87099964D01*
X148529939Y-87416489D01*
X148303365Y-87694296D01*
X148027146Y-87922805D01*
X147711803Y-88093310D01*
X147369344Y-88199319D01*
X146982288Y-88240000D01*
X123678373Y-88240000D01*
X123689502Y-88219180D01*
X123725812Y-88099482D01*
X123738072Y-87975000D01*
X123735000Y-87685750D01*
X123576250Y-87527000D01*
X122527000Y-87527000D01*
X122527000Y-87547000D01*
X122273000Y-87547000D01*
X122273000Y-87527000D01*
X121223750Y-87527000D01*
X121065000Y-87685750D01*
X121061964Y-87971653D01*
X120983511Y-87929939D01*
X120705704Y-87703365D01*
X120477195Y-87427146D01*
X120306690Y-87111803D01*
X120200681Y-86769344D01*
X120160000Y-86382288D01*
X120160000Y-85024999D01*
X121061928Y-85024999D01*
X121061928Y-85675001D01*
X121078992Y-85848255D01*
X121129528Y-86014851D01*
X121211595Y-86168387D01*
X121322038Y-86302962D01*
X121328594Y-86308342D01*
X121248815Y-86373815D01*
X121169463Y-86470506D01*
X121110498Y-86580820D01*
X121074188Y-86700518D01*
X121061928Y-86825000D01*
X121065000Y-87114250D01*
X121223750Y-87273000D01*
X122273000Y-87273000D01*
X122273000Y-87253000D01*
X122527000Y-87253000D01*
X122527000Y-87273000D01*
X123576250Y-87273000D01*
X123735000Y-87114250D01*
X123736184Y-87002801D01*
X123898061Y-87035000D01*
X124101939Y-87035000D01*
X124301898Y-86995226D01*
X124490256Y-86917205D01*
X124659774Y-86803937D01*
X124803937Y-86659774D01*
X124917205Y-86490256D01*
X124995226Y-86301898D01*
X125035000Y-86101939D01*
X125035000Y-85898061D01*
X124995226Y-85698102D01*
X124917205Y-85509744D01*
X124803937Y-85340226D01*
X124659774Y-85196063D01*
X124490256Y-85082795D01*
X124301898Y-85004774D01*
X124245043Y-84993465D01*
X124006534Y-84754956D01*
X123978817Y-84721183D01*
X123844059Y-84610589D01*
X123690313Y-84528411D01*
X123551126Y-84486188D01*
X123477962Y-84397038D01*
X123343387Y-84286595D01*
X123189851Y-84204528D01*
X123023255Y-84153992D01*
X122850001Y-84136928D01*
X121949999Y-84136928D01*
X121776745Y-84153992D01*
X121610149Y-84204528D01*
X121456613Y-84286595D01*
X121322038Y-84397038D01*
X121211595Y-84531613D01*
X121129528Y-84685149D01*
X121078992Y-84851745D01*
X121061928Y-85024999D01*
X120160000Y-85024999D01*
X120160000Y-82898061D01*
X127965000Y-82898061D01*
X127965000Y-83101939D01*
X128004774Y-83301898D01*
X128082795Y-83490256D01*
X128196063Y-83659774D01*
X128240000Y-83703711D01*
X128240001Y-85696288D01*
X128196063Y-85740226D01*
X128082795Y-85909744D01*
X128004774Y-86098102D01*
X127965000Y-86298061D01*
X127965000Y-86501939D01*
X128004774Y-86701898D01*
X128082795Y-86890256D01*
X128196063Y-87059774D01*
X128340226Y-87203937D01*
X128509744Y-87317205D01*
X128698102Y-87395226D01*
X128898061Y-87435000D01*
X129101939Y-87435000D01*
X129301898Y-87395226D01*
X129490256Y-87317205D01*
X129659774Y-87203937D01*
X129803937Y-87059774D01*
X129805864Y-87056890D01*
X137758524Y-87056890D01*
X137803175Y-87204099D01*
X137928359Y-87466920D01*
X138102412Y-87700269D01*
X138318645Y-87895178D01*
X138568748Y-88044157D01*
X138843109Y-88141481D01*
X139073000Y-88020814D01*
X139073000Y-86827000D01*
X139327000Y-86827000D01*
X139327000Y-88020814D01*
X139556891Y-88141481D01*
X139831252Y-88044157D01*
X140081355Y-87895178D01*
X140297588Y-87700269D01*
X140471641Y-87466920D01*
X140596825Y-87204099D01*
X140641476Y-87056890D01*
X140520155Y-86827000D01*
X139327000Y-86827000D01*
X139073000Y-86827000D01*
X137879845Y-86827000D01*
X137758524Y-87056890D01*
X129805864Y-87056890D01*
X129917205Y-86890256D01*
X129995226Y-86701898D01*
X130035000Y-86501939D01*
X130035000Y-86298061D01*
X129995226Y-86098102D01*
X129917205Y-85909744D01*
X129803937Y-85740226D01*
X129760000Y-85696289D01*
X129760000Y-83703711D01*
X129803937Y-83659774D01*
X129917205Y-83490256D01*
X129995226Y-83301898D01*
X130035000Y-83101939D01*
X130035000Y-82898061D01*
X129995226Y-82698102D01*
X129917205Y-82509744D01*
X129803937Y-82340226D01*
X129659774Y-82196063D01*
X129490256Y-82082795D01*
X129301898Y-82004774D01*
X129101939Y-81965000D01*
X128898061Y-81965000D01*
X128698102Y-82004774D01*
X128509744Y-82082795D01*
X128340226Y-82196063D01*
X128196063Y-82340226D01*
X128082795Y-82509744D01*
X128004774Y-82698102D01*
X127965000Y-82898061D01*
X120160000Y-82898061D01*
X120160000Y-75400000D01*
X120961928Y-75400000D01*
X120974188Y-75524482D01*
X121010498Y-75644180D01*
X121069463Y-75754494D01*
X121148815Y-75851185D01*
X121245506Y-75930537D01*
X121355820Y-75989502D01*
X121374127Y-75995056D01*
X121307688Y-76061495D01*
X121139701Y-76312905D01*
X121023989Y-76592257D01*
X120965000Y-76888816D01*
X120965000Y-77191184D01*
X121023989Y-77487743D01*
X121139701Y-77767095D01*
X121307688Y-78018505D01*
X121521495Y-78232312D01*
X121615000Y-78294790D01*
X121615000Y-78380386D01*
X121556613Y-78411595D01*
X121422038Y-78522038D01*
X121311595Y-78656613D01*
X121229528Y-78810149D01*
X121178992Y-78976745D01*
X121161928Y-79149999D01*
X121161928Y-79800001D01*
X121178992Y-79973255D01*
X121229528Y-80139851D01*
X121311595Y-80293387D01*
X121422038Y-80427962D01*
X121509816Y-80500000D01*
X121422038Y-80572038D01*
X121311595Y-80706613D01*
X121229528Y-80860149D01*
X121178992Y-81026745D01*
X121161928Y-81199999D01*
X121161928Y-81850001D01*
X121178992Y-82023255D01*
X121229528Y-82189851D01*
X121311595Y-82343387D01*
X121422038Y-82477962D01*
X121556613Y-82588405D01*
X121710149Y-82670472D01*
X121876745Y-82721008D01*
X122049999Y-82738072D01*
X122950001Y-82738072D01*
X123123255Y-82721008D01*
X123289851Y-82670472D01*
X123443387Y-82588405D01*
X123577962Y-82477962D01*
X123688405Y-82343387D01*
X123720018Y-82284243D01*
X123823986Y-82274003D01*
X123967247Y-82230546D01*
X124099276Y-82159974D01*
X124215001Y-82065001D01*
X124238803Y-82035998D01*
X124711002Y-81563800D01*
X124740001Y-81540001D01*
X124771271Y-81501898D01*
X124834974Y-81424277D01*
X124905546Y-81292247D01*
X124916009Y-81257753D01*
X124949003Y-81148986D01*
X124952748Y-81110963D01*
X125003937Y-81059774D01*
X125117205Y-80890256D01*
X125195226Y-80701898D01*
X125235000Y-80501939D01*
X125235000Y-80298061D01*
X125195226Y-80098102D01*
X125117205Y-79909744D01*
X125003937Y-79740226D01*
X124859774Y-79596063D01*
X124690256Y-79482795D01*
X124501898Y-79404774D01*
X124301939Y-79365000D01*
X124098061Y-79365000D01*
X123898102Y-79404774D01*
X123838072Y-79429639D01*
X123838072Y-79149999D01*
X123821008Y-78976745D01*
X123770472Y-78810149D01*
X123688405Y-78656613D01*
X123577962Y-78522038D01*
X123443387Y-78411595D01*
X123385000Y-78380386D01*
X123385000Y-78294790D01*
X123478505Y-78232312D01*
X123692312Y-78018505D01*
X123860299Y-77767095D01*
X123976011Y-77487743D01*
X124035000Y-77191184D01*
X124035000Y-76888816D01*
X123976011Y-76592257D01*
X123860299Y-76312905D01*
X123692312Y-76061495D01*
X123625873Y-75995056D01*
X123644180Y-75989502D01*
X123754494Y-75930537D01*
X123851185Y-75851185D01*
X123930537Y-75754494D01*
X123989502Y-75644180D01*
X124025812Y-75524482D01*
X124038072Y-75400000D01*
X124035000Y-74785750D01*
X123876250Y-74627000D01*
X122627000Y-74627000D01*
X122627000Y-74647000D01*
X122373000Y-74647000D01*
X122373000Y-74627000D01*
X121123750Y-74627000D01*
X120965000Y-74785750D01*
X120961928Y-75400000D01*
X120160000Y-75400000D01*
X120160000Y-73600000D01*
X120961928Y-73600000D01*
X120965000Y-74214250D01*
X121123750Y-74373000D01*
X122373000Y-74373000D01*
X122373000Y-73123750D01*
X122627000Y-73123750D01*
X122627000Y-74373000D01*
X123876250Y-74373000D01*
X123892359Y-74356891D01*
X129218519Y-74356891D01*
X129315843Y-74631252D01*
X129464822Y-74881355D01*
X129659731Y-75097588D01*
X129893080Y-75271641D01*
X130155901Y-75396825D01*
X130303110Y-75441476D01*
X130533000Y-75320155D01*
X130533000Y-74127000D01*
X129339186Y-74127000D01*
X129218519Y-74356891D01*
X123892359Y-74356891D01*
X124035000Y-74214250D01*
X124037856Y-73643109D01*
X129218519Y-73643109D01*
X129339186Y-73873000D01*
X130533000Y-73873000D01*
X130533000Y-72679845D01*
X130303110Y-72558524D01*
X130155901Y-72603175D01*
X129893080Y-72728359D01*
X129659731Y-72902412D01*
X129464822Y-73118645D01*
X129315843Y-73368748D01*
X129218519Y-73643109D01*
X124037856Y-73643109D01*
X124038072Y-73600000D01*
X124025812Y-73475518D01*
X123989502Y-73355820D01*
X123930537Y-73245506D01*
X123851185Y-73148815D01*
X123754494Y-73069463D01*
X123644180Y-73010498D01*
X123524482Y-72974188D01*
X123400000Y-72961928D01*
X122785750Y-72965000D01*
X122627000Y-73123750D01*
X122373000Y-73123750D01*
X122214250Y-72965000D01*
X121600000Y-72961928D01*
X121475518Y-72974188D01*
X121355820Y-73010498D01*
X121245506Y-73069463D01*
X121148815Y-73148815D01*
X121069463Y-73245506D01*
X121010498Y-73355820D01*
X120974188Y-73475518D01*
X120961928Y-73600000D01*
X120160000Y-73600000D01*
X120160000Y-71279620D01*
X120178411Y-71340312D01*
X120260589Y-71494058D01*
X120371183Y-71628817D01*
X120404956Y-71656534D01*
X120893466Y-72145044D01*
X120921183Y-72178817D01*
X121055941Y-72289411D01*
X121209687Y-72371589D01*
X121348874Y-72413812D01*
X121422038Y-72502962D01*
X121556613Y-72613405D01*
X121710149Y-72695472D01*
X121876745Y-72746008D01*
X122049999Y-72763072D01*
X122950001Y-72763072D01*
X123123255Y-72746008D01*
X123289851Y-72695472D01*
X123443387Y-72613405D01*
X123577962Y-72502962D01*
X123688405Y-72368387D01*
X123770472Y-72214851D01*
X123821008Y-72048255D01*
X123823769Y-72020223D01*
X123898061Y-72035000D01*
X124101939Y-72035000D01*
X124301898Y-71995226D01*
X124490256Y-71917205D01*
X124659774Y-71803937D01*
X124803937Y-71659774D01*
X124917205Y-71490256D01*
X124995226Y-71301898D01*
X125035000Y-71101939D01*
X125035000Y-70898061D01*
X124995226Y-70698102D01*
X124917205Y-70509744D01*
X124803937Y-70340226D01*
X124659774Y-70196063D01*
X124490256Y-70082795D01*
X124301898Y-70004774D01*
X124101939Y-69965000D01*
X124039802Y-69965000D01*
X123838072Y-69763270D01*
X123838072Y-69174999D01*
X123821008Y-69001745D01*
X123770472Y-68835149D01*
X123688405Y-68681613D01*
X123580393Y-68550000D01*
X126711928Y-68550000D01*
X126724188Y-68674482D01*
X126760498Y-68794180D01*
X126819463Y-68904494D01*
X126898815Y-69001185D01*
X126995506Y-69080537D01*
X127105820Y-69139502D01*
X127225518Y-69175812D01*
X127350000Y-69188072D01*
X127814250Y-69185000D01*
X127973000Y-69026250D01*
X127973000Y-67677000D01*
X126873750Y-67677000D01*
X126715000Y-67835750D01*
X126711928Y-68550000D01*
X123580393Y-68550000D01*
X123577962Y-68547038D01*
X123443387Y-68436595D01*
X123426078Y-68427343D01*
X123478505Y-68392312D01*
X123692312Y-68178505D01*
X123860299Y-67927095D01*
X123976011Y-67647743D01*
X124035000Y-67351184D01*
X124035000Y-67048816D01*
X123976011Y-66752257D01*
X123892233Y-66550000D01*
X126711928Y-66550000D01*
X126715000Y-67264250D01*
X126873750Y-67423000D01*
X127973000Y-67423000D01*
X127973000Y-66073750D01*
X127814250Y-65915000D01*
X127350000Y-65911928D01*
X127225518Y-65924188D01*
X127105820Y-65960498D01*
X126995506Y-66019463D01*
X126898815Y-66098815D01*
X126819463Y-66195506D01*
X126760498Y-66305820D01*
X126724188Y-66425518D01*
X126711928Y-66550000D01*
X123892233Y-66550000D01*
X123860299Y-66472905D01*
X123692312Y-66221495D01*
X123625873Y-66155056D01*
X123644180Y-66149502D01*
X123754494Y-66090537D01*
X123851185Y-66011185D01*
X123930537Y-65914494D01*
X123989502Y-65804180D01*
X124025812Y-65684482D01*
X124038072Y-65560000D01*
X124035000Y-64945750D01*
X123876250Y-64787000D01*
X122627000Y-64787000D01*
X122627000Y-64807000D01*
X122373000Y-64807000D01*
X122373000Y-64787000D01*
X121123750Y-64787000D01*
X120965000Y-64945750D01*
X120961928Y-65560000D01*
X120974188Y-65684482D01*
X121010498Y-65804180D01*
X121069463Y-65914494D01*
X121148815Y-66011185D01*
X121245506Y-66090537D01*
X121355820Y-66149502D01*
X121374127Y-66155056D01*
X121307688Y-66221495D01*
X121139701Y-66472905D01*
X121024688Y-66750569D01*
X121005942Y-66760589D01*
X120990935Y-66772905D01*
X120871183Y-66871183D01*
X120853153Y-66893152D01*
X120831183Y-66911183D01*
X120814569Y-66931427D01*
X120659687Y-66978411D01*
X120505941Y-67060589D01*
X120371183Y-67171183D01*
X120260589Y-67305941D01*
X120178411Y-67459687D01*
X120160000Y-67520379D01*
X120160000Y-63760000D01*
X120961928Y-63760000D01*
X120965000Y-64374250D01*
X121123750Y-64533000D01*
X122373000Y-64533000D01*
X122373000Y-63283750D01*
X122627000Y-63283750D01*
X122627000Y-64533000D01*
X123876250Y-64533000D01*
X124035000Y-64374250D01*
X124038072Y-63760000D01*
X124025812Y-63635518D01*
X123989502Y-63515820D01*
X123930537Y-63405506D01*
X123851185Y-63308815D01*
X123754494Y-63229463D01*
X123644180Y-63170498D01*
X123524482Y-63134188D01*
X123400000Y-63121928D01*
X122785750Y-63125000D01*
X122627000Y-63283750D01*
X122373000Y-63283750D01*
X122214250Y-63125000D01*
X121600000Y-63121928D01*
X121475518Y-63134188D01*
X121355820Y-63170498D01*
X121245506Y-63229463D01*
X121148815Y-63308815D01*
X121069463Y-63405506D01*
X121010498Y-63515820D01*
X120974188Y-63635518D01*
X120961928Y-63760000D01*
X120160000Y-63760000D01*
X120160000Y-61532279D01*
X120198147Y-61143225D01*
X120301763Y-60800033D01*
X120470062Y-60483511D01*
X120696637Y-60205701D01*
X120972856Y-59977194D01*
X121288197Y-59806690D01*
X121630656Y-59700681D01*
X122017712Y-59660000D01*
X128257462Y-59660000D01*
X128255820Y-59660498D01*
G36*
X141527000Y-67523000D02*
G01*
X141547000Y-67523000D01*
X141547000Y-67777000D01*
X141527000Y-67777000D01*
X141527000Y-68701250D01*
X141685750Y-68860000D01*
X142100000Y-68863072D01*
X142224482Y-68850812D01*
X142344180Y-68814502D01*
X142454494Y-68755537D01*
X142551185Y-68676185D01*
X142630537Y-68579494D01*
X142689502Y-68469180D01*
X142715001Y-68385122D01*
X142715001Y-70833420D01*
X140640223Y-72908198D01*
X140639502Y-72905820D01*
X140580537Y-72795506D01*
X140501185Y-72698815D01*
X140404494Y-72619463D01*
X140294180Y-72560498D01*
X140174482Y-72524188D01*
X140050000Y-72511928D01*
X138350000Y-72511928D01*
X138225518Y-72524188D01*
X138160000Y-72544063D01*
X138160000Y-69914801D01*
X139911004Y-68163798D01*
X139940001Y-68140001D01*
X140018739Y-68044059D01*
X140034974Y-68024277D01*
X140064649Y-67968759D01*
X140061928Y-68225000D01*
X140074188Y-68349482D01*
X140110498Y-68469180D01*
X140169463Y-68579494D01*
X140248815Y-68676185D01*
X140345506Y-68755537D01*
X140455820Y-68814502D01*
X140575518Y-68850812D01*
X140700000Y-68863072D01*
X141114250Y-68860000D01*
X141273000Y-68701250D01*
X141273000Y-67777000D01*
X141253000Y-67777000D01*
X141253000Y-67523000D01*
X141273000Y-67523000D01*
X141273000Y-67503000D01*
X141527000Y-67503000D01*
X141527000Y-67523000D01*
G37*
X141527000Y-67523000D02*
X141547000Y-67523000D01*
X141547000Y-67777000D01*
X141527000Y-67777000D01*
X141527000Y-68701250D01*
X141685750Y-68860000D01*
X142100000Y-68863072D01*
X142224482Y-68850812D01*
X142344180Y-68814502D01*
X142454494Y-68755537D01*
X142551185Y-68676185D01*
X142630537Y-68579494D01*
X142689502Y-68469180D01*
X142715001Y-68385122D01*
X142715001Y-70833420D01*
X140640223Y-72908198D01*
X140639502Y-72905820D01*
X140580537Y-72795506D01*
X140501185Y-72698815D01*
X140404494Y-72619463D01*
X140294180Y-72560498D01*
X140174482Y-72524188D01*
X140050000Y-72511928D01*
X138350000Y-72511928D01*
X138225518Y-72524188D01*
X138160000Y-72544063D01*
X138160000Y-69914801D01*
X139911004Y-68163798D01*
X139940001Y-68140001D01*
X140018739Y-68044059D01*
X140034974Y-68024277D01*
X140064649Y-67968759D01*
X140061928Y-68225000D01*
X140074188Y-68349482D01*
X140110498Y-68469180D01*
X140169463Y-68579494D01*
X140248815Y-68676185D01*
X140345506Y-68755537D01*
X140455820Y-68814502D01*
X140575518Y-68850812D01*
X140700000Y-68863072D01*
X141114250Y-68860000D01*
X141273000Y-68701250D01*
X141273000Y-67777000D01*
X141253000Y-67777000D01*
X141253000Y-67523000D01*
X141273000Y-67523000D01*
X141273000Y-67503000D01*
X141527000Y-67503000D01*
X141527000Y-67523000D01*
G36*
X138027753Y-59188356D02*
G01*
X138070209Y-59230517D01*
X138112054Y-59273247D01*
X138119154Y-59279121D01*
X138240148Y-59377801D01*
X138289983Y-59410911D01*
X138339329Y-59444699D01*
X138347435Y-59449082D01*
X138485293Y-59522382D01*
X138540564Y-59545163D01*
X138595581Y-59568744D01*
X138604380Y-59571467D01*
X138604386Y-59571469D01*
X138753854Y-59616595D01*
X138812519Y-59628211D01*
X138871043Y-59640651D01*
X138880208Y-59641614D01*
X139035594Y-59656850D01*
X139035598Y-59656850D01*
X139067581Y-59660000D01*
X147467721Y-59660000D01*
X147759659Y-59688625D01*
X148009429Y-59764035D01*
X148239792Y-59886522D01*
X148441980Y-60051422D01*
X148608286Y-60252450D01*
X148732378Y-60481954D01*
X148809531Y-60731195D01*
X148840000Y-61021089D01*
X148840000Y-68720380D01*
X148821589Y-68659687D01*
X148739411Y-68505941D01*
X148682500Y-68436595D01*
X148656532Y-68404953D01*
X148656530Y-68404951D01*
X148628817Y-68371183D01*
X148595050Y-68343471D01*
X148324260Y-68072681D01*
X148376011Y-67947743D01*
X148435000Y-67651184D01*
X148435000Y-67348816D01*
X148376011Y-67052257D01*
X148260299Y-66772905D01*
X148092312Y-66521495D01*
X148025873Y-66455056D01*
X148044180Y-66449502D01*
X148154494Y-66390537D01*
X148251185Y-66311185D01*
X148330537Y-66214494D01*
X148389502Y-66104180D01*
X148425812Y-65984482D01*
X148438072Y-65860000D01*
X148435000Y-65245750D01*
X148276250Y-65087000D01*
X147027000Y-65087000D01*
X147027000Y-65107000D01*
X146773000Y-65107000D01*
X146773000Y-65087000D01*
X145523750Y-65087000D01*
X145365000Y-65245750D01*
X145361928Y-65860000D01*
X145374188Y-65984482D01*
X145410498Y-66104180D01*
X145469463Y-66214494D01*
X145548815Y-66311185D01*
X145645506Y-66390537D01*
X145755820Y-66449502D01*
X145774127Y-66455056D01*
X145707688Y-66521495D01*
X145539701Y-66772905D01*
X145423989Y-67052257D01*
X145365000Y-67348816D01*
X145365000Y-67377544D01*
X145301939Y-67365000D01*
X145098061Y-67365000D01*
X144898102Y-67404774D01*
X144709744Y-67482795D01*
X144540226Y-67596063D01*
X144485000Y-67651289D01*
X144485000Y-64060000D01*
X145361928Y-64060000D01*
X145365000Y-64674250D01*
X145523750Y-64833000D01*
X146773000Y-64833000D01*
X146773000Y-63583750D01*
X147027000Y-63583750D01*
X147027000Y-64833000D01*
X148276250Y-64833000D01*
X148435000Y-64674250D01*
X148438072Y-64060000D01*
X148425812Y-63935518D01*
X148389502Y-63815820D01*
X148330537Y-63705506D01*
X148251185Y-63608815D01*
X148154494Y-63529463D01*
X148044180Y-63470498D01*
X147924482Y-63434188D01*
X147800000Y-63421928D01*
X147185750Y-63425000D01*
X147027000Y-63583750D01*
X146773000Y-63583750D01*
X146614250Y-63425000D01*
X146000000Y-63421928D01*
X145875518Y-63434188D01*
X145755820Y-63470498D01*
X145645506Y-63529463D01*
X145548815Y-63608815D01*
X145469463Y-63705506D01*
X145410498Y-63815820D01*
X145374188Y-63935518D01*
X145361928Y-64060000D01*
X144485000Y-64060000D01*
X144485000Y-62643469D01*
X144489281Y-62600000D01*
X144485000Y-62556531D01*
X144485000Y-62556523D01*
X144472698Y-62431613D01*
X144472195Y-62426509D01*
X144447612Y-62345472D01*
X144421589Y-62259687D01*
X144339411Y-62105941D01*
X144282773Y-62036928D01*
X144256532Y-62004953D01*
X144256530Y-62004951D01*
X144228817Y-61971183D01*
X144195050Y-61943471D01*
X142856534Y-60604956D01*
X142828817Y-60571183D01*
X142694059Y-60460589D01*
X142605244Y-60413117D01*
X142588405Y-60381613D01*
X142477962Y-60247038D01*
X142343387Y-60136595D01*
X142189851Y-60054528D01*
X142023255Y-60003992D01*
X141850001Y-59986928D01*
X140949999Y-59986928D01*
X140776745Y-60003992D01*
X140610149Y-60054528D01*
X140456613Y-60136595D01*
X140322038Y-60247038D01*
X140225229Y-60365000D01*
X137974771Y-60365000D01*
X137877962Y-60247038D01*
X137743387Y-60136595D01*
X137589851Y-60054528D01*
X137423255Y-60003992D01*
X137250001Y-59986928D01*
X136349999Y-59986928D01*
X136176745Y-60003992D01*
X136010149Y-60054528D01*
X135856613Y-60136595D01*
X135722038Y-60247038D01*
X135625229Y-60365000D01*
X132938072Y-60365000D01*
X132938072Y-60250000D01*
X132925812Y-60125518D01*
X132889502Y-60005820D01*
X132830537Y-59895506D01*
X132751185Y-59798815D01*
X132654494Y-59719463D01*
X132544180Y-59660498D01*
X132424482Y-59624188D01*
X132300000Y-59611928D01*
X130053672Y-59611928D01*
X130194893Y-59568213D01*
X130250036Y-59545033D01*
X130305501Y-59522624D01*
X130313638Y-59518297D01*
X130450575Y-59444255D01*
X130500132Y-59410828D01*
X130550222Y-59378051D01*
X130557363Y-59372227D01*
X130677312Y-59272997D01*
X130719470Y-59230544D01*
X130762203Y-59188697D01*
X130768071Y-59181602D01*
X130768076Y-59181597D01*
X130768080Y-59181592D01*
X130812604Y-59127000D01*
X137976996Y-59127000D01*
X138027753Y-59188356D01*
G37*
X138027753Y-59188356D02*
X138070209Y-59230517D01*
X138112054Y-59273247D01*
X138119154Y-59279121D01*
X138240148Y-59377801D01*
X138289983Y-59410911D01*
X138339329Y-59444699D01*
X138347435Y-59449082D01*
X138485293Y-59522382D01*
X138540564Y-59545163D01*
X138595581Y-59568744D01*
X138604380Y-59571467D01*
X138604386Y-59571469D01*
X138753854Y-59616595D01*
X138812519Y-59628211D01*
X138871043Y-59640651D01*
X138880208Y-59641614D01*
X139035594Y-59656850D01*
X139035598Y-59656850D01*
X139067581Y-59660000D01*
X147467721Y-59660000D01*
X147759659Y-59688625D01*
X148009429Y-59764035D01*
X148239792Y-59886522D01*
X148441980Y-60051422D01*
X148608286Y-60252450D01*
X148732378Y-60481954D01*
X148809531Y-60731195D01*
X148840000Y-61021089D01*
X148840000Y-68720380D01*
X148821589Y-68659687D01*
X148739411Y-68505941D01*
X148682500Y-68436595D01*
X148656532Y-68404953D01*
X148656530Y-68404951D01*
X148628817Y-68371183D01*
X148595050Y-68343471D01*
X148324260Y-68072681D01*
X148376011Y-67947743D01*
X148435000Y-67651184D01*
X148435000Y-67348816D01*
X148376011Y-67052257D01*
X148260299Y-66772905D01*
X148092312Y-66521495D01*
X148025873Y-66455056D01*
X148044180Y-66449502D01*
X148154494Y-66390537D01*
X148251185Y-66311185D01*
X148330537Y-66214494D01*
X148389502Y-66104180D01*
X148425812Y-65984482D01*
X148438072Y-65860000D01*
X148435000Y-65245750D01*
X148276250Y-65087000D01*
X147027000Y-65087000D01*
X147027000Y-65107000D01*
X146773000Y-65107000D01*
X146773000Y-65087000D01*
X145523750Y-65087000D01*
X145365000Y-65245750D01*
X145361928Y-65860000D01*
X145374188Y-65984482D01*
X145410498Y-66104180D01*
X145469463Y-66214494D01*
X145548815Y-66311185D01*
X145645506Y-66390537D01*
X145755820Y-66449502D01*
X145774127Y-66455056D01*
X145707688Y-66521495D01*
X145539701Y-66772905D01*
X145423989Y-67052257D01*
X145365000Y-67348816D01*
X145365000Y-67377544D01*
X145301939Y-67365000D01*
X145098061Y-67365000D01*
X144898102Y-67404774D01*
X144709744Y-67482795D01*
X144540226Y-67596063D01*
X144485000Y-67651289D01*
X144485000Y-64060000D01*
X145361928Y-64060000D01*
X145365000Y-64674250D01*
X145523750Y-64833000D01*
X146773000Y-64833000D01*
X146773000Y-63583750D01*
X147027000Y-63583750D01*
X147027000Y-64833000D01*
X148276250Y-64833000D01*
X148435000Y-64674250D01*
X148438072Y-64060000D01*
X148425812Y-63935518D01*
X148389502Y-63815820D01*
X148330537Y-63705506D01*
X148251185Y-63608815D01*
X148154494Y-63529463D01*
X148044180Y-63470498D01*
X147924482Y-63434188D01*
X147800000Y-63421928D01*
X147185750Y-63425000D01*
X147027000Y-63583750D01*
X146773000Y-63583750D01*
X146614250Y-63425000D01*
X146000000Y-63421928D01*
X145875518Y-63434188D01*
X145755820Y-63470498D01*
X145645506Y-63529463D01*
X145548815Y-63608815D01*
X145469463Y-63705506D01*
X145410498Y-63815820D01*
X145374188Y-63935518D01*
X145361928Y-64060000D01*
X144485000Y-64060000D01*
X144485000Y-62643469D01*
X144489281Y-62600000D01*
X144485000Y-62556531D01*
X144485000Y-62556523D01*
X144472698Y-62431613D01*
X144472195Y-62426509D01*
X144447612Y-62345472D01*
X144421589Y-62259687D01*
X144339411Y-62105941D01*
X144282773Y-62036928D01*
X144256532Y-62004953D01*
X144256530Y-62004951D01*
X144228817Y-61971183D01*
X144195050Y-61943471D01*
X142856534Y-60604956D01*
X142828817Y-60571183D01*
X142694059Y-60460589D01*
X142605244Y-60413117D01*
X142588405Y-60381613D01*
X142477962Y-60247038D01*
X142343387Y-60136595D01*
X142189851Y-60054528D01*
X142023255Y-60003992D01*
X141850001Y-59986928D01*
X140949999Y-59986928D01*
X140776745Y-60003992D01*
X140610149Y-60054528D01*
X140456613Y-60136595D01*
X140322038Y-60247038D01*
X140225229Y-60365000D01*
X137974771Y-60365000D01*
X137877962Y-60247038D01*
X137743387Y-60136595D01*
X137589851Y-60054528D01*
X137423255Y-60003992D01*
X137250001Y-59986928D01*
X136349999Y-59986928D01*
X136176745Y-60003992D01*
X136010149Y-60054528D01*
X135856613Y-60136595D01*
X135722038Y-60247038D01*
X135625229Y-60365000D01*
X132938072Y-60365000D01*
X132938072Y-60250000D01*
X132925812Y-60125518D01*
X132889502Y-60005820D01*
X132830537Y-59895506D01*
X132751185Y-59798815D01*
X132654494Y-59719463D01*
X132544180Y-59660498D01*
X132424482Y-59624188D01*
X132300000Y-59611928D01*
X130053672Y-59611928D01*
X130194893Y-59568213D01*
X130250036Y-59545033D01*
X130305501Y-59522624D01*
X130313638Y-59518297D01*
X130450575Y-59444255D01*
X130500132Y-59410828D01*
X130550222Y-59378051D01*
X130557363Y-59372227D01*
X130677312Y-59272997D01*
X130719470Y-59230544D01*
X130762203Y-59188697D01*
X130768071Y-59181602D01*
X130768076Y-59181597D01*
X130768080Y-59181592D01*
X130812604Y-59127000D01*
X137976996Y-59127000D01*
X138027753Y-59188356D01*
G36*
X140211595Y-66418387D02*
G01*
X140322038Y-66552962D01*
X140328594Y-66558342D01*
X140248815Y-66623815D01*
X140169463Y-66720506D01*
X140160000Y-66738210D01*
X140160000Y-66360000D01*
X140180386Y-66360000D01*
X140211595Y-66418387D01*
G37*
X140211595Y-66418387D02*
X140322038Y-66552962D01*
X140328594Y-66558342D01*
X140248815Y-66623815D01*
X140169463Y-66720506D01*
X140160000Y-66738210D01*
X140160000Y-66360000D01*
X140180386Y-66360000D01*
X140211595Y-66418387D01*
%TD*%
M02*
