M48
; DRILL file {KiCad (5.1.6)-1} date 09/30/20 20:40:33
; FORMAT={-:-/ absolute / inch / decimal}
; #@! TF.CreationDate,2020-09-30T20:40:33+02:00
; #@! TF.GenerationSoftware,Kicad,Pcbnew,(5.1.6)-1
; #@! TF.FileFunction,Plated,1,2,PTH
FMAT,2
INCH
T1C0.0157
T2C0.0354
T3C0.0394
%
G90
G05
T1
X4.874Y-3.4567
X4.8819Y-2.7953
X4.8819Y-3.3858
X4.8898Y-3.1654
X5.0787Y-3.2677
X5.0787Y-3.4016
X5.3386Y-3.0315
X5.4331Y-2.6299
X5.5197Y-2.622
X5.5591Y-3.1969
X5.7087Y-2.748
X5.7165Y-2.6929
T2
X4.8228Y-2.5457
X4.8228Y-2.6457
X5.7835Y-2.5575
X5.7835Y-2.6575
X5.7677Y-2.9331
X5.7677Y-3.0331
X4.8228Y-2.9331
X4.8228Y-3.0331
T3
X5.4803Y-2.9134
X5.4803Y-3.0134
X5.4803Y-3.1134
X5.4803Y-3.2134
X5.4803Y-3.3134
X5.4803Y-3.4134
X5.1441Y-2.9134
X5.2441Y-2.9134
T0
M30
