%TF.GenerationSoftware,KiCad,Pcbnew,(5.1.6)-1*%
%TF.CreationDate,2020-09-30T20:40:37+02:00*%
%TF.ProjectId,ESP_test,4553505f-7465-4737-942e-6b696361645f,rev?*%
%TF.SameCoordinates,Original*%
%TF.FileFunction,Paste,Top*%
%TF.FilePolarity,Positive*%
%FSLAX46Y46*%
G04 Gerber Fmt 4.6, Leading zero omitted, Abs format (unit mm)*
G04 Created by KiCad (PCBNEW (5.1.6)-1) date 2020-09-30 20:40:37*
%MOMM*%
%LPD*%
G01*
G04 APERTURE LIST*
%ADD10R,1.500000X2.000000*%
%ADD11R,3.800000X2.000000*%
G04 APERTURE END LIST*
%TO.C,R5*%
G36*
G01*
X140949999Y-62675000D02*
X141850001Y-62675000D01*
G75*
G02*
X142100000Y-62924999I0J-249999D01*
G01*
X142100000Y-63575001D01*
G75*
G02*
X141850001Y-63825000I-249999J0D01*
G01*
X140949999Y-63825000D01*
G75*
G02*
X140700000Y-63575001I0J249999D01*
G01*
X140700000Y-62924999D01*
G75*
G02*
X140949999Y-62675000I249999J0D01*
G01*
G37*
G36*
G01*
X140949999Y-60625000D02*
X141850001Y-60625000D01*
G75*
G02*
X142100000Y-60874999I0J-249999D01*
G01*
X142100000Y-61525001D01*
G75*
G02*
X141850001Y-61775000I-249999J0D01*
G01*
X140949999Y-61775000D01*
G75*
G02*
X140700000Y-61525001I0J249999D01*
G01*
X140700000Y-60874999D01*
G75*
G02*
X140949999Y-60625000I249999J0D01*
G01*
G37*
%TD*%
D10*
%TO.C,U2*%
X128100000Y-67550000D03*
X132700000Y-67550000D03*
X130400000Y-67550000D03*
D11*
X130400000Y-61250000D03*
%TD*%
%TO.C,C4*%
G36*
G01*
X136349999Y-62675000D02*
X137250001Y-62675000D01*
G75*
G02*
X137500000Y-62924999I0J-249999D01*
G01*
X137500000Y-63575001D01*
G75*
G02*
X137250001Y-63825000I-249999J0D01*
G01*
X136349999Y-63825000D01*
G75*
G02*
X136100000Y-63575001I0J249999D01*
G01*
X136100000Y-62924999D01*
G75*
G02*
X136349999Y-62675000I249999J0D01*
G01*
G37*
G36*
G01*
X136349999Y-60625000D02*
X137250001Y-60625000D01*
G75*
G02*
X137500000Y-60874999I0J-249999D01*
G01*
X137500000Y-61525001D01*
G75*
G02*
X137250001Y-61775000I-249999J0D01*
G01*
X136349999Y-61775000D01*
G75*
G02*
X136100000Y-61525001I0J249999D01*
G01*
X136100000Y-60874999D01*
G75*
G02*
X136349999Y-60625000I249999J0D01*
G01*
G37*
%TD*%
%TO.C,C3*%
G36*
G01*
X136349999Y-66875000D02*
X137250001Y-66875000D01*
G75*
G02*
X137500000Y-67124999I0J-249999D01*
G01*
X137500000Y-67775001D01*
G75*
G02*
X137250001Y-68025000I-249999J0D01*
G01*
X136349999Y-68025000D01*
G75*
G02*
X136100000Y-67775001I0J249999D01*
G01*
X136100000Y-67124999D01*
G75*
G02*
X136349999Y-66875000I249999J0D01*
G01*
G37*
G36*
G01*
X136349999Y-64825000D02*
X137250001Y-64825000D01*
G75*
G02*
X137500000Y-65074999I0J-249999D01*
G01*
X137500000Y-65725001D01*
G75*
G02*
X137250001Y-65975000I-249999J0D01*
G01*
X136349999Y-65975000D01*
G75*
G02*
X136100000Y-65725001I0J249999D01*
G01*
X136100000Y-65074999D01*
G75*
G02*
X136349999Y-64825000I249999J0D01*
G01*
G37*
%TD*%
%TO.C,C2*%
G36*
G01*
X140949999Y-67075000D02*
X141850001Y-67075000D01*
G75*
G02*
X142100000Y-67324999I0J-249999D01*
G01*
X142100000Y-67975001D01*
G75*
G02*
X141850001Y-68225000I-249999J0D01*
G01*
X140949999Y-68225000D01*
G75*
G02*
X140700000Y-67975001I0J249999D01*
G01*
X140700000Y-67324999D01*
G75*
G02*
X140949999Y-67075000I249999J0D01*
G01*
G37*
G36*
G01*
X140949999Y-65025000D02*
X141850001Y-65025000D01*
G75*
G02*
X142100000Y-65274999I0J-249999D01*
G01*
X142100000Y-65925001D01*
G75*
G02*
X141850001Y-66175000I-249999J0D01*
G01*
X140949999Y-66175000D01*
G75*
G02*
X140700000Y-65925001I0J249999D01*
G01*
X140700000Y-65274999D01*
G75*
G02*
X140949999Y-65025000I249999J0D01*
G01*
G37*
%TD*%
%TO.C,R4*%
G36*
G01*
X146950001Y-80075000D02*
X146049999Y-80075000D01*
G75*
G02*
X145800000Y-79825001I0J249999D01*
G01*
X145800000Y-79174999D01*
G75*
G02*
X146049999Y-78925000I249999J0D01*
G01*
X146950001Y-78925000D01*
G75*
G02*
X147200000Y-79174999I0J-249999D01*
G01*
X147200000Y-79825001D01*
G75*
G02*
X146950001Y-80075000I-249999J0D01*
G01*
G37*
G36*
G01*
X146950001Y-82125000D02*
X146049999Y-82125000D01*
G75*
G02*
X145800000Y-81875001I0J249999D01*
G01*
X145800000Y-81224999D01*
G75*
G02*
X146049999Y-80975000I249999J0D01*
G01*
X146950001Y-80975000D01*
G75*
G02*
X147200000Y-81224999I0J-249999D01*
G01*
X147200000Y-81875001D01*
G75*
G02*
X146950001Y-82125000I-249999J0D01*
G01*
G37*
%TD*%
%TO.C,R3*%
G36*
G01*
X122950001Y-80050000D02*
X122049999Y-80050000D01*
G75*
G02*
X121800000Y-79800001I0J249999D01*
G01*
X121800000Y-79149999D01*
G75*
G02*
X122049999Y-78900000I249999J0D01*
G01*
X122950001Y-78900000D01*
G75*
G02*
X123200000Y-79149999I0J-249999D01*
G01*
X123200000Y-79800001D01*
G75*
G02*
X122950001Y-80050000I-249999J0D01*
G01*
G37*
G36*
G01*
X122950001Y-82100000D02*
X122049999Y-82100000D01*
G75*
G02*
X121800000Y-81850001I0J249999D01*
G01*
X121800000Y-81199999D01*
G75*
G02*
X122049999Y-80950000I249999J0D01*
G01*
X122950001Y-80950000D01*
G75*
G02*
X123200000Y-81199999I0J-249999D01*
G01*
X123200000Y-81850001D01*
G75*
G02*
X122950001Y-82100000I-249999J0D01*
G01*
G37*
%TD*%
%TO.C,R2*%
G36*
G01*
X146049999Y-71450000D02*
X146950001Y-71450000D01*
G75*
G02*
X147200000Y-71699999I0J-249999D01*
G01*
X147200000Y-72350001D01*
G75*
G02*
X146950001Y-72600000I-249999J0D01*
G01*
X146049999Y-72600000D01*
G75*
G02*
X145800000Y-72350001I0J249999D01*
G01*
X145800000Y-71699999D01*
G75*
G02*
X146049999Y-71450000I249999J0D01*
G01*
G37*
G36*
G01*
X146049999Y-69400000D02*
X146950001Y-69400000D01*
G75*
G02*
X147200000Y-69649999I0J-249999D01*
G01*
X147200000Y-70300001D01*
G75*
G02*
X146950001Y-70550000I-249999J0D01*
G01*
X146049999Y-70550000D01*
G75*
G02*
X145800000Y-70300001I0J249999D01*
G01*
X145800000Y-69649999D01*
G75*
G02*
X146049999Y-69400000I249999J0D01*
G01*
G37*
%TD*%
%TO.C,C1*%
G36*
G01*
X121949999Y-86825000D02*
X122850001Y-86825000D01*
G75*
G02*
X123100000Y-87074999I0J-249999D01*
G01*
X123100000Y-87725001D01*
G75*
G02*
X122850001Y-87975000I-249999J0D01*
G01*
X121949999Y-87975000D01*
G75*
G02*
X121700000Y-87725001I0J249999D01*
G01*
X121700000Y-87074999D01*
G75*
G02*
X121949999Y-86825000I249999J0D01*
G01*
G37*
G36*
G01*
X121949999Y-84775000D02*
X122850001Y-84775000D01*
G75*
G02*
X123100000Y-85024999I0J-249999D01*
G01*
X123100000Y-85675001D01*
G75*
G02*
X122850001Y-85925000I-249999J0D01*
G01*
X121949999Y-85925000D01*
G75*
G02*
X121700000Y-85675001I0J249999D01*
G01*
X121700000Y-85024999D01*
G75*
G02*
X121949999Y-84775000I249999J0D01*
G01*
G37*
%TD*%
%TO.C,R1*%
G36*
G01*
X122049999Y-70975000D02*
X122950001Y-70975000D01*
G75*
G02*
X123200000Y-71224999I0J-249999D01*
G01*
X123200000Y-71875001D01*
G75*
G02*
X122950001Y-72125000I-249999J0D01*
G01*
X122049999Y-72125000D01*
G75*
G02*
X121800000Y-71875001I0J249999D01*
G01*
X121800000Y-71224999D01*
G75*
G02*
X122049999Y-70975000I249999J0D01*
G01*
G37*
G36*
G01*
X122049999Y-68925000D02*
X122950001Y-68925000D01*
G75*
G02*
X123200000Y-69174999I0J-249999D01*
G01*
X123200000Y-69825001D01*
G75*
G02*
X122950001Y-70075000I-249999J0D01*
G01*
X122049999Y-70075000D01*
G75*
G02*
X121800000Y-69825001I0J249999D01*
G01*
X121800000Y-69174999D01*
G75*
G02*
X122049999Y-68925000I249999J0D01*
G01*
G37*
%TD*%
M02*
