%TF.GenerationSoftware,KiCad,Pcbnew,(5.1.6)-1*%
%TF.CreationDate,2020-09-30T20:40:37+02:00*%
%TF.ProjectId,ESP_test,4553505f-7465-4737-942e-6b696361645f,rev?*%
%TF.SameCoordinates,Original*%
%TF.FileFunction,Legend,Bot*%
%TF.FilePolarity,Positive*%
%FSLAX46Y46*%
G04 Gerber Fmt 4.6, Leading zero omitted, Abs format (unit mm)*
G04 Created by KiCad (PCBNEW (5.1.6)-1) date 2020-09-30 20:40:37*
%MOMM*%
%LPD*%
G01*
G04 APERTURE LIST*
%ADD10C,0.200000*%
%ADD11C,0.175000*%
%ADD12C,0.300000*%
%ADD13C,0.120000*%
G04 APERTURE END LIST*
D10*
X129852380Y-76580952D02*
X130566666Y-76580952D01*
X130709523Y-76533333D01*
X130804761Y-76438095D01*
X130852380Y-76295238D01*
X130852380Y-76200000D01*
X130852380Y-77533333D02*
X130852380Y-77057142D01*
X129852380Y-77057142D01*
X130757142Y-78438095D02*
X130804761Y-78390476D01*
X130852380Y-78247619D01*
X130852380Y-78152380D01*
X130804761Y-78009523D01*
X130709523Y-77914285D01*
X130614285Y-77866666D01*
X130423809Y-77819047D01*
X130280952Y-77819047D01*
X130090476Y-77866666D01*
X129995238Y-77914285D01*
X129900000Y-78009523D01*
X129852380Y-78152380D01*
X129852380Y-78247619D01*
X129900000Y-78390476D01*
X129947619Y-78438095D01*
X129852380Y-79152380D02*
X130566666Y-79152380D01*
X130709523Y-79104761D01*
X130804761Y-79009523D01*
X130852380Y-78866666D01*
X130852380Y-78771428D01*
X130852380Y-80104761D02*
X130852380Y-79628571D01*
X129852380Y-79628571D01*
X130757142Y-81009523D02*
X130804761Y-80961904D01*
X130852380Y-80819047D01*
X130852380Y-80723809D01*
X130804761Y-80580952D01*
X130709523Y-80485714D01*
X130614285Y-80438095D01*
X130423809Y-80390476D01*
X130280952Y-80390476D01*
X130090476Y-80438095D01*
X129995238Y-80485714D01*
X129900000Y-80580952D01*
X129852380Y-80723809D01*
X129852380Y-80819047D01*
X129900000Y-80961904D01*
X129947619Y-81009523D01*
X129852380Y-81723809D02*
X130566666Y-81723809D01*
X130709523Y-81676190D01*
X130804761Y-81580952D01*
X130852380Y-81438095D01*
X130852380Y-81342857D01*
X130852380Y-82676190D02*
X130852380Y-82200000D01*
X129852380Y-82200000D01*
X130757142Y-83580952D02*
X130804761Y-83533333D01*
X130852380Y-83390476D01*
X130852380Y-83295238D01*
X130804761Y-83152380D01*
X130709523Y-83057142D01*
X130614285Y-83009523D01*
X130423809Y-82961904D01*
X130280952Y-82961904D01*
X130090476Y-83009523D01*
X129995238Y-83057142D01*
X129900000Y-83152380D01*
X129852380Y-83295238D01*
X129852380Y-83390476D01*
X129900000Y-83533333D01*
X129947619Y-83580952D01*
X129852380Y-84295238D02*
X130566666Y-84295238D01*
X130709523Y-84247619D01*
X130804761Y-84152380D01*
X130852380Y-84009523D01*
X130852380Y-83914285D01*
X130852380Y-85247619D02*
X130852380Y-84771428D01*
X129852380Y-84771428D01*
X130757142Y-86152380D02*
X130804761Y-86104761D01*
X130852380Y-85961904D01*
X130852380Y-85866666D01*
X130804761Y-85723809D01*
X130709523Y-85628571D01*
X130614285Y-85580952D01*
X130423809Y-85533333D01*
X130280952Y-85533333D01*
X130090476Y-85580952D01*
X129995238Y-85628571D01*
X129900000Y-85723809D01*
X129852380Y-85866666D01*
X129852380Y-85961904D01*
X129900000Y-86104761D01*
X129947619Y-86152380D01*
D11*
X132050000Y-80333333D02*
X132016666Y-80266666D01*
X132016666Y-80166666D01*
X132050000Y-80066666D01*
X132116666Y-80000000D01*
X132183333Y-79966666D01*
X132316666Y-79933333D01*
X132416666Y-79933333D01*
X132550000Y-79966666D01*
X132616666Y-80000000D01*
X132683333Y-80066666D01*
X132716666Y-80166666D01*
X132716666Y-80233333D01*
X132683333Y-80333333D01*
X132650000Y-80366666D01*
X132416666Y-80366666D01*
X132416666Y-80233333D01*
X132716666Y-80666666D02*
X132016666Y-80666666D01*
X132016666Y-80933333D01*
X132050000Y-81000000D01*
X132083333Y-81033333D01*
X132150000Y-81066666D01*
X132250000Y-81066666D01*
X132316666Y-81033333D01*
X132350000Y-81000000D01*
X132383333Y-80933333D01*
X132383333Y-80666666D01*
X132716666Y-81366666D02*
X132016666Y-81366666D01*
X132016666Y-81833333D02*
X132016666Y-81900000D01*
X132050000Y-81966666D01*
X132083333Y-82000000D01*
X132150000Y-82033333D01*
X132283333Y-82066666D01*
X132450000Y-82066666D01*
X132583333Y-82033333D01*
X132650000Y-82000000D01*
X132683333Y-81966666D01*
X132716666Y-81900000D01*
X132716666Y-81833333D01*
X132683333Y-81766666D01*
X132650000Y-81733333D01*
X132583333Y-81700000D01*
X132450000Y-81666666D01*
X132283333Y-81666666D01*
X132150000Y-81700000D01*
X132083333Y-81733333D01*
X132050000Y-81766666D01*
X132016666Y-81833333D01*
D12*
X134377053Y-62585714D02*
X133966339Y-62728571D01*
X133841339Y-62871428D01*
X133734196Y-63157142D01*
X133787767Y-63585714D01*
X133966339Y-63871428D01*
X134127053Y-64014285D01*
X134430625Y-64157142D01*
X135573482Y-64157142D01*
X135198482Y-61157142D01*
X134198482Y-61157142D01*
X133930625Y-61300000D01*
X133805625Y-61442857D01*
X133698482Y-61728571D01*
X133734196Y-62014285D01*
X133912767Y-62300000D01*
X134073482Y-62442857D01*
X134377053Y-62585714D01*
X135377053Y-62585714D01*
D13*
%TO.C,U1*%
X125780000Y-70395000D02*
X125780000Y-69615000D01*
X125780000Y-69615000D02*
X126780000Y-69615000D01*
X144020000Y-70395000D02*
X144020000Y-69615000D01*
X144020000Y-69615000D02*
X143020000Y-69615000D01*
X125780000Y-95360000D02*
X144020000Y-95360000D01*
X144020000Y-95360000D02*
X144020000Y-88940000D01*
X125780000Y-95360000D02*
X125780000Y-88940000D01*
X125780000Y-88940000D02*
X125400000Y-88940000D01*
%TD*%
M02*
