%TF.GenerationSoftware,KiCad,Pcbnew,(5.1.6)-1*%
%TF.CreationDate,2020-09-30T20:40:37+02:00*%
%TF.ProjectId,ESP_test,4553505f-7465-4737-942e-6b696361645f,rev?*%
%TF.SameCoordinates,Original*%
%TF.FileFunction,Soldermask,Bot*%
%TF.FilePolarity,Negative*%
%FSLAX46Y46*%
G04 Gerber Fmt 4.6, Leading zero omitted, Abs format (unit mm)*
G04 Created by KiCad (PCBNEW (5.1.6)-1) date 2020-09-30 20:40:37*
%MOMM*%
%LPD*%
G01*
G04 APERTURE LIST*
%ADD10C,2.800000*%
%ADD11O,1.800000X1.800000*%
%ADD12R,1.800000X1.800000*%
%ADD13C,1.900000*%
%ADD14R,1.900000X1.900000*%
%ADD15R,2.100000X1.000000*%
%ADD16R,1.000000X2.100000*%
%ADD17R,5.100000X5.100000*%
G04 APERTURE END LIST*
D10*
%TO.C,H1*%
X134400000Y-56800000D03*
%TD*%
D11*
%TO.C,J1*%
X139200000Y-86700000D03*
X139200000Y-84160000D03*
X139200000Y-81620000D03*
X139200000Y-79080000D03*
X139200000Y-76540000D03*
D12*
X139200000Y-74000000D03*
%TD*%
D13*
%TO.C,D4*%
X146500000Y-77040000D03*
D14*
X146500000Y-74500000D03*
%TD*%
D15*
%TO.C,U1*%
X143400000Y-87750000D03*
X143400000Y-86480000D03*
X143400000Y-85210000D03*
X143400000Y-83940000D03*
X143400000Y-82670000D03*
X143400000Y-81400000D03*
X143400000Y-80130000D03*
X143400000Y-78860000D03*
X143400000Y-77590000D03*
X143400000Y-76320000D03*
X143400000Y-75050000D03*
X143400000Y-73780000D03*
X143400000Y-72510000D03*
X143400000Y-71240000D03*
D16*
X140615000Y-70240000D03*
X139345000Y-70240000D03*
X138075000Y-70240000D03*
X136805000Y-70240000D03*
X135535000Y-70240000D03*
X134265000Y-70240000D03*
X132995000Y-70240000D03*
X131725000Y-70240000D03*
X130455000Y-70240000D03*
X129185000Y-70240000D03*
D15*
X126400000Y-71240000D03*
X126400000Y-72510000D03*
X126400000Y-73780000D03*
X126400000Y-75050000D03*
X126400000Y-76320000D03*
X126400000Y-77590000D03*
X126400000Y-78860000D03*
X126400000Y-80130000D03*
X126400000Y-81400000D03*
X126400000Y-82670000D03*
X126400000Y-83940000D03*
X126400000Y-85210000D03*
X126400000Y-86480000D03*
X126400000Y-87750000D03*
D17*
X133900000Y-80250000D03*
%TD*%
D13*
%TO.C,D3*%
X122500000Y-77040000D03*
D14*
X122500000Y-74500000D03*
%TD*%
D13*
%TO.C,D2*%
X146900000Y-67500000D03*
D14*
X146900000Y-64960000D03*
%TD*%
D13*
%TO.C,D1*%
X122500000Y-67200000D03*
D14*
X122500000Y-64660000D03*
%TD*%
D11*
%TO.C,J2*%
X130660000Y-74000000D03*
D12*
X133200000Y-74000000D03*
%TD*%
M02*
