%TF.GenerationSoftware,KiCad,Pcbnew,(5.1.6)-1*%
%TF.CreationDate,2020-10-27T09:44:08+01:00*%
%TF.ProjectId,Beacon_Listener,42656163-6f6e-45f4-9c69-7374656e6572,rev?*%
%TF.SameCoordinates,Original*%
%TF.FileFunction,Soldermask,Bot*%
%TF.FilePolarity,Negative*%
%FSLAX46Y46*%
G04 Gerber Fmt 4.6, Leading zero omitted, Abs format (unit mm)*
G04 Created by KiCad (PCBNEW (5.1.6)-1) date 2020-10-27 09:44:08*
%MOMM*%
%LPD*%
G01*
G04 APERTURE LIST*
%ADD10C,1.100000*%
%ADD11C,2.400000*%
%ADD12R,2.400000X2.100000*%
%ADD13O,1.800000X1.800000*%
%ADD14R,1.800000X1.800000*%
%ADD15O,1.850000X1.300000*%
%ADD16C,0.900000*%
%ADD17C,6.500000*%
%ADD18C,2.600000*%
%ADD19R,2.600000X2.600000*%
G04 APERTURE END LIST*
D10*
%TO.C,J4*%
X91500000Y-103700000D03*
X91500000Y-99300000D03*
%TD*%
D11*
%TO.C,PS1*%
X136900000Y-126400000D03*
X107500000Y-121200000D03*
D12*
X107500000Y-116200000D03*
D11*
X136900000Y-111000000D03*
%TD*%
D13*
%TO.C,J1*%
X88750000Y-91500000D03*
X88750000Y-88960000D03*
X88750000Y-86420000D03*
X88750000Y-83880000D03*
X88750000Y-81340000D03*
D14*
X88750000Y-78800000D03*
%TD*%
D15*
%TO.C,I2C*%
X143600000Y-91850000D03*
X143600000Y-93850000D03*
G36*
G01*
X144254168Y-96500000D02*
X142945832Y-96500000D01*
G75*
G02*
X142675000Y-96229168I0J270832D01*
G01*
X142675000Y-95470832D01*
G75*
G02*
X142945832Y-95200000I270832J0D01*
G01*
X144254168Y-95200000D01*
G75*
G02*
X144525000Y-95470832I0J-270832D01*
G01*
X144525000Y-96229168D01*
G75*
G02*
X144254168Y-96500000I-270832J0D01*
G01*
G37*
%TD*%
%TO.C,UART*%
X143600000Y-101800000D03*
X143600000Y-103800000D03*
G36*
G01*
X144254168Y-106450000D02*
X142945832Y-106450000D01*
G75*
G02*
X142675000Y-106179168I0J270832D01*
G01*
X142675000Y-105420832D01*
G75*
G02*
X142945832Y-105150000I270832J0D01*
G01*
X144254168Y-105150000D01*
G75*
G02*
X144525000Y-105420832I0J-270832D01*
G01*
X144525000Y-106179168D01*
G75*
G02*
X144254168Y-106450000I-270832J0D01*
G01*
G37*
%TD*%
D16*
%TO.C,U1*%
X114600000Y-81490000D03*
X114600000Y-82490000D03*
X114600000Y-83490000D03*
X114600000Y-84490000D03*
X114600000Y-85490000D03*
X115600000Y-85490000D03*
X115600000Y-84490000D03*
X115600000Y-83490000D03*
X115600000Y-82490000D03*
X115600000Y-81490000D03*
X117600000Y-81490000D03*
X117600000Y-82490000D03*
X117600000Y-83490000D03*
X117600000Y-84490000D03*
X117600000Y-85490000D03*
X116600000Y-85490000D03*
X116600000Y-84490000D03*
X116600000Y-83490000D03*
X116600000Y-82490000D03*
X116600000Y-81490000D03*
X118600000Y-85490000D03*
X118600000Y-84490000D03*
X118600000Y-83490000D03*
X118600000Y-82490000D03*
X118600000Y-81490000D03*
%TD*%
%TO.C,H4*%
X92697056Y-71302944D03*
X91000000Y-70600000D03*
X89302944Y-71302944D03*
X88600000Y-73000000D03*
X89302944Y-74697056D03*
X91000000Y-75400000D03*
X92697056Y-74697056D03*
X93400000Y-73000000D03*
D17*
X91000000Y-73000000D03*
%TD*%
D16*
%TO.C,H3*%
X144697056Y-71702944D03*
X143000000Y-71000000D03*
X141302944Y-71702944D03*
X140600000Y-73400000D03*
X141302944Y-75097056D03*
X143000000Y-75800000D03*
X144697056Y-75097056D03*
X145400000Y-73400000D03*
D17*
X143000000Y-73400000D03*
%TD*%
D16*
%TO.C,H2*%
X144697056Y-123302944D03*
X143000000Y-122600000D03*
X141302944Y-123302944D03*
X140600000Y-125000000D03*
X141302944Y-126697056D03*
X143000000Y-127400000D03*
X144697056Y-126697056D03*
X145400000Y-125000000D03*
D17*
X143000000Y-125000000D03*
%TD*%
D13*
%TO.C,J3*%
X91250000Y-110750000D03*
D14*
X88710000Y-110750000D03*
%TD*%
D18*
%TO.C,J2*%
X95000000Y-125000000D03*
D19*
X90000000Y-125000000D03*
%TD*%
M02*
