%TF.GenerationSoftware,KiCad,Pcbnew,(5.1.6)-1*%
%TF.CreationDate,2020-10-27T09:44:08+01:00*%
%TF.ProjectId,Beacon_Listener,42656163-6f6e-45f4-9c69-7374656e6572,rev?*%
%TF.SameCoordinates,Original*%
%TF.FileFunction,Soldermask,Top*%
%TF.FilePolarity,Negative*%
%FSLAX46Y46*%
G04 Gerber Fmt 4.6, Leading zero omitted, Abs format (unit mm)*
G04 Created by KiCad (PCBNEW (5.1.6)-1) date 2020-10-27 09:44:08*
%MOMM*%
%LPD*%
G01*
G04 APERTURE LIST*
%ADD10C,1.100000*%
%ADD11R,1.800000X2.100000*%
%ADD12R,2.100000X0.600000*%
%ADD13R,1.150000X0.750000*%
%ADD14R,0.750000X1.150000*%
%ADD15C,2.400000*%
%ADD16R,2.400000X2.100000*%
%ADD17O,1.800000X1.800000*%
%ADD18R,1.800000X1.800000*%
%ADD19O,1.850000X1.300000*%
%ADD20C,0.900000*%
%ADD21R,5.100000X5.100000*%
%ADD22O,3.100000X1.000000*%
%ADD23C,6.500000*%
%ADD24C,2.600000*%
%ADD25R,2.600000X2.600000*%
%ADD26R,1.600000X2.100000*%
%ADD27R,3.900000X2.100000*%
G04 APERTURE END LIST*
D10*
%TO.C,J4*%
X91500000Y-103700000D03*
X91500000Y-99300000D03*
D11*
X88650000Y-105950000D03*
X94100000Y-105950000D03*
X88650000Y-97050000D03*
X94100000Y-97050000D03*
D12*
X94200000Y-103100000D03*
X94200000Y-102300000D03*
X94200000Y-101500000D03*
X94200000Y-100700000D03*
X94200000Y-99900000D03*
%TD*%
D13*
%TO.C,RESET*%
X105575000Y-72075000D03*
X101425000Y-72075000D03*
X105575000Y-69925000D03*
X101425000Y-69925000D03*
%TD*%
D14*
%TO.C,CONFIG*%
X146000000Y-78850000D03*
X146000000Y-83000000D03*
X143850000Y-78850000D03*
X143850000Y-83000000D03*
%TD*%
%TO.C,C7*%
G36*
G01*
X101400000Y-92728262D02*
X101400000Y-91771738D01*
G75*
G02*
X101671738Y-91500000I271738J0D01*
G01*
X102378262Y-91500000D01*
G75*
G02*
X102650000Y-91771738I0J-271738D01*
G01*
X102650000Y-92728262D01*
G75*
G02*
X102378262Y-93000000I-271738J0D01*
G01*
X101671738Y-93000000D01*
G75*
G02*
X101400000Y-92728262I0J271738D01*
G01*
G37*
G36*
G01*
X99350000Y-92728262D02*
X99350000Y-91771738D01*
G75*
G02*
X99621738Y-91500000I271738J0D01*
G01*
X100328262Y-91500000D01*
G75*
G02*
X100600000Y-91771738I0J-271738D01*
G01*
X100600000Y-92728262D01*
G75*
G02*
X100328262Y-93000000I-271738J0D01*
G01*
X99621738Y-93000000D01*
G75*
G02*
X99350000Y-92728262I0J271738D01*
G01*
G37*
%TD*%
D15*
%TO.C,PS1*%
X136900000Y-126400000D03*
X107500000Y-121200000D03*
D16*
X107500000Y-116200000D03*
D15*
X136900000Y-111000000D03*
%TD*%
%TO.C,C3*%
G36*
G01*
X93021738Y-82875000D02*
X93978262Y-82875000D01*
G75*
G02*
X94250000Y-83146738I0J-271738D01*
G01*
X94250000Y-83853262D01*
G75*
G02*
X93978262Y-84125000I-271738J0D01*
G01*
X93021738Y-84125000D01*
G75*
G02*
X92750000Y-83853262I0J271738D01*
G01*
X92750000Y-83146738D01*
G75*
G02*
X93021738Y-82875000I271738J0D01*
G01*
G37*
G36*
G01*
X93021738Y-80825000D02*
X93978262Y-80825000D01*
G75*
G02*
X94250000Y-81096738I0J-271738D01*
G01*
X94250000Y-81803262D01*
G75*
G02*
X93978262Y-82075000I-271738J0D01*
G01*
X93021738Y-82075000D01*
G75*
G02*
X92750000Y-81803262I0J271738D01*
G01*
X92750000Y-81096738D01*
G75*
G02*
X93021738Y-80825000I271738J0D01*
G01*
G37*
%TD*%
%TO.C,C2*%
G36*
G01*
X95521738Y-77875000D02*
X96478262Y-77875000D01*
G75*
G02*
X96750000Y-78146738I0J-271738D01*
G01*
X96750000Y-78853262D01*
G75*
G02*
X96478262Y-79125000I-271738J0D01*
G01*
X95521738Y-79125000D01*
G75*
G02*
X95250000Y-78853262I0J271738D01*
G01*
X95250000Y-78146738D01*
G75*
G02*
X95521738Y-77875000I271738J0D01*
G01*
G37*
G36*
G01*
X95521738Y-75825000D02*
X96478262Y-75825000D01*
G75*
G02*
X96750000Y-76096738I0J-271738D01*
G01*
X96750000Y-76803262D01*
G75*
G02*
X96478262Y-77075000I-271738J0D01*
G01*
X95521738Y-77075000D01*
G75*
G02*
X95250000Y-76803262I0J271738D01*
G01*
X95250000Y-76096738D01*
G75*
G02*
X95521738Y-75825000I271738J0D01*
G01*
G37*
%TD*%
D17*
%TO.C,J1*%
X88750000Y-91500000D03*
X88750000Y-88960000D03*
X88750000Y-86420000D03*
X88750000Y-83880000D03*
X88750000Y-81340000D03*
D18*
X88750000Y-78800000D03*
%TD*%
D19*
%TO.C,I2C*%
X143600000Y-91850000D03*
X143600000Y-93850000D03*
G36*
G01*
X144254168Y-96500000D02*
X142945832Y-96500000D01*
G75*
G02*
X142675000Y-96229168I0J270832D01*
G01*
X142675000Y-95470832D01*
G75*
G02*
X142945832Y-95200000I270832J0D01*
G01*
X144254168Y-95200000D01*
G75*
G02*
X144525000Y-95470832I0J-270832D01*
G01*
X144525000Y-96229168D01*
G75*
G02*
X144254168Y-96500000I-270832J0D01*
G01*
G37*
%TD*%
%TO.C,UART*%
X143600000Y-101800000D03*
X143600000Y-103800000D03*
G36*
G01*
X144254168Y-106450000D02*
X142945832Y-106450000D01*
G75*
G02*
X142675000Y-106179168I0J270832D01*
G01*
X142675000Y-105420832D01*
G75*
G02*
X142945832Y-105150000I270832J0D01*
G01*
X144254168Y-105150000D01*
G75*
G02*
X144525000Y-105420832I0J-270832D01*
G01*
X144525000Y-106179168D01*
G75*
G02*
X144254168Y-106450000I-270832J0D01*
G01*
G37*
%TD*%
%TO.C,D4*%
G36*
G01*
X109268750Y-104837500D02*
X110231250Y-104837500D01*
G75*
G02*
X110500000Y-105106250I0J-268750D01*
G01*
X110500000Y-105643750D01*
G75*
G02*
X110231250Y-105912500I-268750J0D01*
G01*
X109268750Y-105912500D01*
G75*
G02*
X109000000Y-105643750I0J268750D01*
G01*
X109000000Y-105106250D01*
G75*
G02*
X109268750Y-104837500I268750J0D01*
G01*
G37*
G36*
G01*
X109268750Y-102962500D02*
X110231250Y-102962500D01*
G75*
G02*
X110500000Y-103231250I0J-268750D01*
G01*
X110500000Y-103768750D01*
G75*
G02*
X110231250Y-104037500I-268750J0D01*
G01*
X109268750Y-104037500D01*
G75*
G02*
X109000000Y-103768750I0J268750D01*
G01*
X109000000Y-103231250D01*
G75*
G02*
X109268750Y-102962500I268750J0D01*
G01*
G37*
%TD*%
%TO.C,D3*%
G36*
G01*
X114268750Y-104712500D02*
X115231250Y-104712500D01*
G75*
G02*
X115500000Y-104981250I0J-268750D01*
G01*
X115500000Y-105518750D01*
G75*
G02*
X115231250Y-105787500I-268750J0D01*
G01*
X114268750Y-105787500D01*
G75*
G02*
X114000000Y-105518750I0J268750D01*
G01*
X114000000Y-104981250D01*
G75*
G02*
X114268750Y-104712500I268750J0D01*
G01*
G37*
G36*
G01*
X114268750Y-102837500D02*
X115231250Y-102837500D01*
G75*
G02*
X115500000Y-103106250I0J-268750D01*
G01*
X115500000Y-103643750D01*
G75*
G02*
X115231250Y-103912500I-268750J0D01*
G01*
X114268750Y-103912500D01*
G75*
G02*
X114000000Y-103643750I0J268750D01*
G01*
X114000000Y-103106250D01*
G75*
G02*
X114268750Y-102837500I268750J0D01*
G01*
G37*
%TD*%
%TO.C,D2*%
G36*
G01*
X124268750Y-104712500D02*
X125231250Y-104712500D01*
G75*
G02*
X125500000Y-104981250I0J-268750D01*
G01*
X125500000Y-105518750D01*
G75*
G02*
X125231250Y-105787500I-268750J0D01*
G01*
X124268750Y-105787500D01*
G75*
G02*
X124000000Y-105518750I0J268750D01*
G01*
X124000000Y-104981250D01*
G75*
G02*
X124268750Y-104712500I268750J0D01*
G01*
G37*
G36*
G01*
X124268750Y-102837500D02*
X125231250Y-102837500D01*
G75*
G02*
X125500000Y-103106250I0J-268750D01*
G01*
X125500000Y-103643750D01*
G75*
G02*
X125231250Y-103912500I-268750J0D01*
G01*
X124268750Y-103912500D01*
G75*
G02*
X124000000Y-103643750I0J268750D01*
G01*
X124000000Y-103106250D01*
G75*
G02*
X124268750Y-102837500I268750J0D01*
G01*
G37*
%TD*%
%TO.C,D1*%
G36*
G01*
X119268750Y-104712500D02*
X120231250Y-104712500D01*
G75*
G02*
X120500000Y-104981250I0J-268750D01*
G01*
X120500000Y-105518750D01*
G75*
G02*
X120231250Y-105787500I-268750J0D01*
G01*
X119268750Y-105787500D01*
G75*
G02*
X119000000Y-105518750I0J268750D01*
G01*
X119000000Y-104981250D01*
G75*
G02*
X119268750Y-104712500I268750J0D01*
G01*
G37*
G36*
G01*
X119268750Y-102837500D02*
X120231250Y-102837500D01*
G75*
G02*
X120500000Y-103106250I0J-268750D01*
G01*
X120500000Y-103643750D01*
G75*
G02*
X120231250Y-103912500I-268750J0D01*
G01*
X119268750Y-103912500D01*
G75*
G02*
X119000000Y-103643750I0J268750D01*
G01*
X119000000Y-103106250D01*
G75*
G02*
X119268750Y-102837500I268750J0D01*
G01*
G37*
%TD*%
D20*
%TO.C,U1*%
X114600000Y-81490000D03*
D21*
X116600000Y-83500000D03*
D22*
X108000000Y-76580000D03*
X108000000Y-77850000D03*
X108000000Y-79120000D03*
X108000000Y-80390000D03*
X108000000Y-81660000D03*
X108000000Y-82930000D03*
X108000000Y-84200000D03*
X108000000Y-85470000D03*
X108000000Y-86740000D03*
X108000000Y-88010000D03*
X108000000Y-89280000D03*
X108000000Y-90550000D03*
X108000000Y-91820000D03*
X108000000Y-93090000D03*
X108000000Y-94390000D03*
X108000000Y-95660000D03*
X108000000Y-96930000D03*
X108000000Y-98200000D03*
X108000000Y-99470000D03*
X126000000Y-99470000D03*
X126000000Y-98200000D03*
X126000000Y-96930000D03*
X126000000Y-95660000D03*
X126000000Y-94390000D03*
X126030000Y-93090000D03*
X126030000Y-91820000D03*
X126030000Y-90550000D03*
X126030000Y-89280000D03*
X126030000Y-88010000D03*
X126030000Y-86740000D03*
X126030000Y-85470000D03*
X126030000Y-84200000D03*
X126030000Y-82930000D03*
X126030000Y-81660000D03*
X126030000Y-80390000D03*
X126030000Y-79120000D03*
X126030000Y-77850000D03*
X126030000Y-76580000D03*
D20*
X114600000Y-82490000D03*
X114600000Y-83490000D03*
X114600000Y-84490000D03*
X114600000Y-85490000D03*
X115600000Y-85490000D03*
X115600000Y-84490000D03*
X115600000Y-83490000D03*
X115600000Y-82490000D03*
X115600000Y-81490000D03*
X117600000Y-81490000D03*
X117600000Y-82490000D03*
X117600000Y-83490000D03*
X117600000Y-84490000D03*
X117600000Y-85490000D03*
X116600000Y-85490000D03*
X116600000Y-84490000D03*
X116600000Y-83490000D03*
X116600000Y-82490000D03*
X116600000Y-81490000D03*
X118600000Y-85490000D03*
X118600000Y-84490000D03*
X118600000Y-83490000D03*
X118600000Y-82490000D03*
X118600000Y-81490000D03*
%TD*%
%TO.C,H4*%
X92697056Y-71302944D03*
X91000000Y-70600000D03*
X89302944Y-71302944D03*
X88600000Y-73000000D03*
X89302944Y-74697056D03*
X91000000Y-75400000D03*
X92697056Y-74697056D03*
X93400000Y-73000000D03*
D23*
X91000000Y-73000000D03*
%TD*%
D20*
%TO.C,H3*%
X144697056Y-71702944D03*
X143000000Y-71000000D03*
X141302944Y-71702944D03*
X140600000Y-73400000D03*
X141302944Y-75097056D03*
X143000000Y-75800000D03*
X144697056Y-75097056D03*
X145400000Y-73400000D03*
D23*
X143000000Y-73400000D03*
%TD*%
D20*
%TO.C,H2*%
X144697056Y-123302944D03*
X143000000Y-122600000D03*
X141302944Y-123302944D03*
X140600000Y-125000000D03*
X141302944Y-126697056D03*
X143000000Y-127400000D03*
X144697056Y-126697056D03*
X145400000Y-125000000D03*
D23*
X143000000Y-125000000D03*
%TD*%
%TO.C,R6*%
G36*
G01*
X96425000Y-92728262D02*
X96425000Y-91771738D01*
G75*
G02*
X96696738Y-91500000I271738J0D01*
G01*
X97403262Y-91500000D01*
G75*
G02*
X97675000Y-91771738I0J-271738D01*
G01*
X97675000Y-92728262D01*
G75*
G02*
X97403262Y-93000000I-271738J0D01*
G01*
X96696738Y-93000000D01*
G75*
G02*
X96425000Y-92728262I0J271738D01*
G01*
G37*
G36*
G01*
X94375000Y-92728262D02*
X94375000Y-91771738D01*
G75*
G02*
X94646738Y-91500000I271738J0D01*
G01*
X95353262Y-91500000D01*
G75*
G02*
X95625000Y-91771738I0J-271738D01*
G01*
X95625000Y-92728262D01*
G75*
G02*
X95353262Y-93000000I-271738J0D01*
G01*
X94646738Y-93000000D01*
G75*
G02*
X94375000Y-92728262I0J271738D01*
G01*
G37*
%TD*%
D17*
%TO.C,J3*%
X91250000Y-110750000D03*
D18*
X88710000Y-110750000D03*
%TD*%
D24*
%TO.C,J2*%
X95000000Y-125000000D03*
D25*
X90000000Y-125000000D03*
%TD*%
%TO.C,C6*%
G36*
G01*
X101075000Y-97021738D02*
X101075000Y-97978262D01*
G75*
G02*
X100803262Y-98250000I-271738J0D01*
G01*
X100096738Y-98250000D01*
G75*
G02*
X99825000Y-97978262I0J271738D01*
G01*
X99825000Y-97021738D01*
G75*
G02*
X100096738Y-96750000I271738J0D01*
G01*
X100803262Y-96750000D01*
G75*
G02*
X101075000Y-97021738I0J-271738D01*
G01*
G37*
G36*
G01*
X103125000Y-97021738D02*
X103125000Y-97978262D01*
G75*
G02*
X102853262Y-98250000I-271738J0D01*
G01*
X102146738Y-98250000D01*
G75*
G02*
X101875000Y-97978262I0J271738D01*
G01*
X101875000Y-97021738D01*
G75*
G02*
X102146738Y-96750000I271738J0D01*
G01*
X102853262Y-96750000D01*
G75*
G02*
X103125000Y-97021738I0J-271738D01*
G01*
G37*
%TD*%
%TO.C,C5*%
G36*
G01*
X101000000Y-101165625D02*
X101000000Y-102334375D01*
G75*
G02*
X100734375Y-102600000I-265625J0D01*
G01*
X98565625Y-102600000D01*
G75*
G02*
X98300000Y-102334375I0J265625D01*
G01*
X98300000Y-101165625D01*
G75*
G02*
X98565625Y-100900000I265625J0D01*
G01*
X100734375Y-100900000D01*
G75*
G02*
X101000000Y-101165625I0J-265625D01*
G01*
G37*
G36*
G01*
X104600000Y-101165625D02*
X104600000Y-102334375D01*
G75*
G02*
X104334375Y-102600000I-265625J0D01*
G01*
X102165625Y-102600000D01*
G75*
G02*
X101900000Y-102334375I0J265625D01*
G01*
X101900000Y-101165625D01*
G75*
G02*
X102165625Y-100900000I265625J0D01*
G01*
X104334375Y-100900000D01*
G75*
G02*
X104600000Y-101165625I0J-265625D01*
G01*
G37*
%TD*%
D26*
%TO.C,U2*%
X100900000Y-81950000D03*
X96300000Y-81950000D03*
X98600000Y-81950000D03*
D27*
X98600000Y-88250000D03*
%TD*%
%TO.C,R5*%
G36*
G01*
X99978262Y-77075000D02*
X99021738Y-77075000D01*
G75*
G02*
X98750000Y-76803262I0J271738D01*
G01*
X98750000Y-76096738D01*
G75*
G02*
X99021738Y-75825000I271738J0D01*
G01*
X99978262Y-75825000D01*
G75*
G02*
X100250000Y-76096738I0J-271738D01*
G01*
X100250000Y-76803262D01*
G75*
G02*
X99978262Y-77075000I-271738J0D01*
G01*
G37*
G36*
G01*
X99978262Y-79125000D02*
X99021738Y-79125000D01*
G75*
G02*
X98750000Y-78853262I0J271738D01*
G01*
X98750000Y-78146738D01*
G75*
G02*
X99021738Y-77875000I271738J0D01*
G01*
X99978262Y-77875000D01*
G75*
G02*
X100250000Y-78146738I0J-271738D01*
G01*
X100250000Y-78853262D01*
G75*
G02*
X99978262Y-79125000I-271738J0D01*
G01*
G37*
%TD*%
%TO.C,R4*%
G36*
G01*
X133478262Y-96375000D02*
X132521738Y-96375000D01*
G75*
G02*
X132250000Y-96103262I0J271738D01*
G01*
X132250000Y-95396738D01*
G75*
G02*
X132521738Y-95125000I271738J0D01*
G01*
X133478262Y-95125000D01*
G75*
G02*
X133750000Y-95396738I0J-271738D01*
G01*
X133750000Y-96103262D01*
G75*
G02*
X133478262Y-96375000I-271738J0D01*
G01*
G37*
G36*
G01*
X133478262Y-98425000D02*
X132521738Y-98425000D01*
G75*
G02*
X132250000Y-98153262I0J271738D01*
G01*
X132250000Y-97446738D01*
G75*
G02*
X132521738Y-97175000I271738J0D01*
G01*
X133478262Y-97175000D01*
G75*
G02*
X133750000Y-97446738I0J-271738D01*
G01*
X133750000Y-98153262D01*
G75*
G02*
X133478262Y-98425000I-271738J0D01*
G01*
G37*
%TD*%
%TO.C,R3*%
G36*
G01*
X130728262Y-96350000D02*
X129771738Y-96350000D01*
G75*
G02*
X129500000Y-96078262I0J271738D01*
G01*
X129500000Y-95371738D01*
G75*
G02*
X129771738Y-95100000I271738J0D01*
G01*
X130728262Y-95100000D01*
G75*
G02*
X131000000Y-95371738I0J-271738D01*
G01*
X131000000Y-96078262D01*
G75*
G02*
X130728262Y-96350000I-271738J0D01*
G01*
G37*
G36*
G01*
X130728262Y-98400000D02*
X129771738Y-98400000D01*
G75*
G02*
X129500000Y-98128262I0J271738D01*
G01*
X129500000Y-97421738D01*
G75*
G02*
X129771738Y-97150000I271738J0D01*
G01*
X130728262Y-97150000D01*
G75*
G02*
X131000000Y-97421738I0J-271738D01*
G01*
X131000000Y-98128262D01*
G75*
G02*
X130728262Y-98400000I-271738J0D01*
G01*
G37*
%TD*%
%TO.C,R2*%
G36*
G01*
X138978262Y-96325000D02*
X138021738Y-96325000D01*
G75*
G02*
X137750000Y-96053262I0J271738D01*
G01*
X137750000Y-95346738D01*
G75*
G02*
X138021738Y-95075000I271738J0D01*
G01*
X138978262Y-95075000D01*
G75*
G02*
X139250000Y-95346738I0J-271738D01*
G01*
X139250000Y-96053262D01*
G75*
G02*
X138978262Y-96325000I-271738J0D01*
G01*
G37*
G36*
G01*
X138978262Y-98375000D02*
X138021738Y-98375000D01*
G75*
G02*
X137750000Y-98103262I0J271738D01*
G01*
X137750000Y-97396738D01*
G75*
G02*
X138021738Y-97125000I271738J0D01*
G01*
X138978262Y-97125000D01*
G75*
G02*
X139250000Y-97396738I0J-271738D01*
G01*
X139250000Y-98103262D01*
G75*
G02*
X138978262Y-98375000I-271738J0D01*
G01*
G37*
%TD*%
%TO.C,R1*%
G36*
G01*
X136228262Y-96350000D02*
X135271738Y-96350000D01*
G75*
G02*
X135000000Y-96078262I0J271738D01*
G01*
X135000000Y-95371738D01*
G75*
G02*
X135271738Y-95100000I271738J0D01*
G01*
X136228262Y-95100000D01*
G75*
G02*
X136500000Y-95371738I0J-271738D01*
G01*
X136500000Y-96078262D01*
G75*
G02*
X136228262Y-96350000I-271738J0D01*
G01*
G37*
G36*
G01*
X136228262Y-98400000D02*
X135271738Y-98400000D01*
G75*
G02*
X135000000Y-98128262I0J271738D01*
G01*
X135000000Y-97421738D01*
G75*
G02*
X135271738Y-97150000I271738J0D01*
G01*
X136228262Y-97150000D01*
G75*
G02*
X136500000Y-97421738I0J-271738D01*
G01*
X136500000Y-98128262D01*
G75*
G02*
X136228262Y-98400000I-271738J0D01*
G01*
G37*
%TD*%
%TO.C,C4*%
G36*
G01*
X103221738Y-85275000D02*
X104178262Y-85275000D01*
G75*
G02*
X104450000Y-85546738I0J-271738D01*
G01*
X104450000Y-86253262D01*
G75*
G02*
X104178262Y-86525000I-271738J0D01*
G01*
X103221738Y-86525000D01*
G75*
G02*
X102950000Y-86253262I0J271738D01*
G01*
X102950000Y-85546738D01*
G75*
G02*
X103221738Y-85275000I271738J0D01*
G01*
G37*
G36*
G01*
X103221738Y-83225000D02*
X104178262Y-83225000D01*
G75*
G02*
X104450000Y-83496738I0J-271738D01*
G01*
X104450000Y-84203262D01*
G75*
G02*
X104178262Y-84475000I-271738J0D01*
G01*
X103221738Y-84475000D01*
G75*
G02*
X102950000Y-84203262I0J271738D01*
G01*
X102950000Y-83496738D01*
G75*
G02*
X103221738Y-83225000I271738J0D01*
G01*
G37*
%TD*%
%TO.C,C1*%
G36*
G01*
X104978262Y-77100000D02*
X104021738Y-77100000D01*
G75*
G02*
X103750000Y-76828262I0J271738D01*
G01*
X103750000Y-76121738D01*
G75*
G02*
X104021738Y-75850000I271738J0D01*
G01*
X104978262Y-75850000D01*
G75*
G02*
X105250000Y-76121738I0J-271738D01*
G01*
X105250000Y-76828262D01*
G75*
G02*
X104978262Y-77100000I-271738J0D01*
G01*
G37*
G36*
G01*
X104978262Y-79150000D02*
X104021738Y-79150000D01*
G75*
G02*
X103750000Y-78878262I0J271738D01*
G01*
X103750000Y-78171738D01*
G75*
G02*
X104021738Y-77900000I271738J0D01*
G01*
X104978262Y-77900000D01*
G75*
G02*
X105250000Y-78171738I0J-271738D01*
G01*
X105250000Y-78878262D01*
G75*
G02*
X104978262Y-79150000I-271738J0D01*
G01*
G37*
%TD*%
M02*
