%TF.GenerationSoftware,KiCad,Pcbnew,(5.1.6)-1*%
%TF.CreationDate,2020-10-27T09:44:08+01:00*%
%TF.ProjectId,Beacon_Listener,42656163-6f6e-45f4-9c69-7374656e6572,rev?*%
%TF.SameCoordinates,Original*%
%TF.FileFunction,Copper,L1,Top*%
%TF.FilePolarity,Positive*%
%FSLAX46Y46*%
G04 Gerber Fmt 4.6, Leading zero omitted, Abs format (unit mm)*
G04 Created by KiCad (PCBNEW (5.1.6)-1) date 2020-10-27 09:44:08*
%MOMM*%
%LPD*%
G01*
G04 APERTURE LIST*
%TA.AperFunction,SMDPad,CuDef*%
%ADD10R,1.700000X2.000000*%
%TD*%
%TA.AperFunction,SMDPad,CuDef*%
%ADD11R,2.000000X0.500000*%
%TD*%
%TA.AperFunction,SMDPad,CuDef*%
%ADD12R,1.050000X0.650000*%
%TD*%
%TA.AperFunction,SMDPad,CuDef*%
%ADD13R,0.650000X1.050000*%
%TD*%
%TA.AperFunction,ComponentPad*%
%ADD14C,2.300000*%
%TD*%
%TA.AperFunction,ComponentPad*%
%ADD15R,2.300000X2.000000*%
%TD*%
%TA.AperFunction,ComponentPad*%
%ADD16O,1.700000X1.700000*%
%TD*%
%TA.AperFunction,ComponentPad*%
%ADD17R,1.700000X1.700000*%
%TD*%
%TA.AperFunction,ComponentPad*%
%ADD18O,1.750000X1.200000*%
%TD*%
%TA.AperFunction,ComponentPad*%
%ADD19C,0.800000*%
%TD*%
%TA.AperFunction,SMDPad,CuDef*%
%ADD20R,5.000000X5.000000*%
%TD*%
%TA.AperFunction,SMDPad,CuDef*%
%ADD21O,3.000000X0.900000*%
%TD*%
%TA.AperFunction,ComponentPad*%
%ADD22C,6.400000*%
%TD*%
%TA.AperFunction,ComponentPad*%
%ADD23C,2.500000*%
%TD*%
%TA.AperFunction,ComponentPad*%
%ADD24R,2.500000X2.500000*%
%TD*%
%TA.AperFunction,SMDPad,CuDef*%
%ADD25R,1.500000X2.000000*%
%TD*%
%TA.AperFunction,SMDPad,CuDef*%
%ADD26R,3.800000X2.000000*%
%TD*%
%TA.AperFunction,ViaPad*%
%ADD27C,0.800000*%
%TD*%
%TA.AperFunction,Conductor*%
%ADD28C,0.300000*%
%TD*%
%TA.AperFunction,Conductor*%
%ADD29C,0.500000*%
%TD*%
%TA.AperFunction,Conductor*%
%ADD30C,0.250000*%
%TD*%
%TA.AperFunction,Conductor*%
%ADD31C,0.750000*%
%TD*%
%TA.AperFunction,Conductor*%
%ADD32C,0.254000*%
%TD*%
G04 APERTURE END LIST*
D10*
%TO.P,J4,6*%
%TO.N,Net-(J4-Pad6)*%
X88650000Y-105950000D03*
X94100000Y-105950000D03*
X88650000Y-97050000D03*
X94100000Y-97050000D03*
D11*
%TO.P,J4,5*%
%TO.N,GND*%
X94200000Y-103100000D03*
%TO.P,J4,4*%
%TO.N,N/C*%
X94200000Y-102300000D03*
%TO.P,J4,3*%
X94200000Y-101500000D03*
%TO.P,J4,2*%
X94200000Y-100700000D03*
%TO.P,J4,1*%
%TO.N,+5V*%
X94200000Y-99900000D03*
%TD*%
D12*
%TO.P,RESET,2*%
%TO.N,GND*%
X105575000Y-72075000D03*
X101425000Y-72075000D03*
%TO.P,RESET,1*%
%TO.N,EN*%
X105575000Y-69925000D03*
X101425000Y-69925000D03*
%TD*%
D13*
%TO.P,CONFIG,2*%
%TO.N,GND*%
X146000000Y-78850000D03*
X146000000Y-83000000D03*
%TO.P,CONFIG,1*%
%TO.N,ConfigButton*%
X143850000Y-78850000D03*
X143850000Y-83000000D03*
%TD*%
%TO.P,C7,2*%
%TO.N,GND*%
%TA.AperFunction,SMDPad,CuDef*%
G36*
G01*
X101450000Y-92700001D02*
X101450000Y-91799999D01*
G75*
G02*
X101699999Y-91550000I249999J0D01*
G01*
X102350001Y-91550000D01*
G75*
G02*
X102600000Y-91799999I0J-249999D01*
G01*
X102600000Y-92700001D01*
G75*
G02*
X102350001Y-92950000I-249999J0D01*
G01*
X101699999Y-92950000D01*
G75*
G02*
X101450000Y-92700001I0J249999D01*
G01*
G37*
%TD.AperFunction*%
%TO.P,C7,1*%
%TO.N,ConfigButton*%
%TA.AperFunction,SMDPad,CuDef*%
G36*
G01*
X99400000Y-92700001D02*
X99400000Y-91799999D01*
G75*
G02*
X99649999Y-91550000I249999J0D01*
G01*
X100300001Y-91550000D01*
G75*
G02*
X100550000Y-91799999I0J-249999D01*
G01*
X100550000Y-92700001D01*
G75*
G02*
X100300001Y-92950000I-249999J0D01*
G01*
X99649999Y-92950000D01*
G75*
G02*
X99400000Y-92700001I0J249999D01*
G01*
G37*
%TD.AperFunction*%
%TD*%
D14*
%TO.P,PS1,4*%
%TO.N,MainInput*%
X136900000Y-126400000D03*
%TO.P,PS1,2*%
%TO.N,GNDPWR*%
X107500000Y-121200000D03*
D15*
%TO.P,PS1,1*%
%TO.N,AC*%
X107500000Y-116200000D03*
D14*
%TO.P,PS1,3*%
%TO.N,GND*%
X136900000Y-111000000D03*
%TD*%
%TO.P,C3,2*%
%TO.N,GND*%
%TA.AperFunction,SMDPad,CuDef*%
G36*
G01*
X93049999Y-82925000D02*
X93950001Y-82925000D01*
G75*
G02*
X94200000Y-83174999I0J-249999D01*
G01*
X94200000Y-83825001D01*
G75*
G02*
X93950001Y-84075000I-249999J0D01*
G01*
X93049999Y-84075000D01*
G75*
G02*
X92800000Y-83825001I0J249999D01*
G01*
X92800000Y-83174999D01*
G75*
G02*
X93049999Y-82925000I249999J0D01*
G01*
G37*
%TD.AperFunction*%
%TO.P,C3,1*%
%TO.N,+5V*%
%TA.AperFunction,SMDPad,CuDef*%
G36*
G01*
X93049999Y-80875000D02*
X93950001Y-80875000D01*
G75*
G02*
X94200000Y-81124999I0J-249999D01*
G01*
X94200000Y-81775001D01*
G75*
G02*
X93950001Y-82025000I-249999J0D01*
G01*
X93049999Y-82025000D01*
G75*
G02*
X92800000Y-81775001I0J249999D01*
G01*
X92800000Y-81124999D01*
G75*
G02*
X93049999Y-80875000I249999J0D01*
G01*
G37*
%TD.AperFunction*%
%TD*%
%TO.P,C2,2*%
%TO.N,GND*%
%TA.AperFunction,SMDPad,CuDef*%
G36*
G01*
X95549999Y-77925000D02*
X96450001Y-77925000D01*
G75*
G02*
X96700000Y-78174999I0J-249999D01*
G01*
X96700000Y-78825001D01*
G75*
G02*
X96450001Y-79075000I-249999J0D01*
G01*
X95549999Y-79075000D01*
G75*
G02*
X95300000Y-78825001I0J249999D01*
G01*
X95300000Y-78174999D01*
G75*
G02*
X95549999Y-77925000I249999J0D01*
G01*
G37*
%TD.AperFunction*%
%TO.P,C2,1*%
%TO.N,EN*%
%TA.AperFunction,SMDPad,CuDef*%
G36*
G01*
X95549999Y-75875000D02*
X96450001Y-75875000D01*
G75*
G02*
X96700000Y-76124999I0J-249999D01*
G01*
X96700000Y-76775001D01*
G75*
G02*
X96450001Y-77025000I-249999J0D01*
G01*
X95549999Y-77025000D01*
G75*
G02*
X95300000Y-76775001I0J249999D01*
G01*
X95300000Y-76124999D01*
G75*
G02*
X95549999Y-75875000I249999J0D01*
G01*
G37*
%TD.AperFunction*%
%TD*%
D16*
%TO.P,J1,6*%
%TO.N,+5V*%
X88750000Y-91500000D03*
%TO.P,J1,5*%
%TO.N,GPIO0*%
X88750000Y-88960000D03*
%TO.P,J1,4*%
%TO.N,EN*%
X88750000Y-86420000D03*
%TO.P,J1,3*%
%TO.N,RX*%
X88750000Y-83880000D03*
%TO.P,J1,2*%
%TO.N,TX*%
X88750000Y-81340000D03*
D17*
%TO.P,J1,1*%
%TO.N,GND*%
X88750000Y-78800000D03*
%TD*%
D18*
%TO.P,I2C,3*%
%TO.N,SCL*%
X143600000Y-91850000D03*
%TO.P,I2C,2*%
%TO.N,SDA*%
X143600000Y-93850000D03*
%TO.P,I2C,1*%
%TO.N,GND*%
%TA.AperFunction,ComponentPad*%
G36*
G01*
X144225001Y-96450000D02*
X142974999Y-96450000D01*
G75*
G02*
X142725000Y-96200001I0J249999D01*
G01*
X142725000Y-95499999D01*
G75*
G02*
X142974999Y-95250000I249999J0D01*
G01*
X144225001Y-95250000D01*
G75*
G02*
X144475000Y-95499999I0J-249999D01*
G01*
X144475000Y-96200001D01*
G75*
G02*
X144225001Y-96450000I-249999J0D01*
G01*
G37*
%TD.AperFunction*%
%TD*%
%TO.P,UART,3*%
%TO.N,RX_UART2*%
X143600000Y-101800000D03*
%TO.P,UART,2*%
%TO.N,TX_UART2*%
X143600000Y-103800000D03*
%TO.P,UART,1*%
%TO.N,GND*%
%TA.AperFunction,ComponentPad*%
G36*
G01*
X144225001Y-106400000D02*
X142974999Y-106400000D01*
G75*
G02*
X142725000Y-106150001I0J249999D01*
G01*
X142725000Y-105449999D01*
G75*
G02*
X142974999Y-105200000I249999J0D01*
G01*
X144225001Y-105200000D01*
G75*
G02*
X144475000Y-105449999I0J-249999D01*
G01*
X144475000Y-106150001D01*
G75*
G02*
X144225001Y-106400000I-249999J0D01*
G01*
G37*
%TD.AperFunction*%
%TD*%
%TO.P,D4,2*%
%TO.N,Net-(D4-Pad2)*%
%TA.AperFunction,SMDPad,CuDef*%
G36*
G01*
X109293750Y-104887500D02*
X110206250Y-104887500D01*
G75*
G02*
X110450000Y-105131250I0J-243750D01*
G01*
X110450000Y-105618750D01*
G75*
G02*
X110206250Y-105862500I-243750J0D01*
G01*
X109293750Y-105862500D01*
G75*
G02*
X109050000Y-105618750I0J243750D01*
G01*
X109050000Y-105131250D01*
G75*
G02*
X109293750Y-104887500I243750J0D01*
G01*
G37*
%TD.AperFunction*%
%TO.P,D4,1*%
%TO.N,GND*%
%TA.AperFunction,SMDPad,CuDef*%
G36*
G01*
X109293750Y-103012500D02*
X110206250Y-103012500D01*
G75*
G02*
X110450000Y-103256250I0J-243750D01*
G01*
X110450000Y-103743750D01*
G75*
G02*
X110206250Y-103987500I-243750J0D01*
G01*
X109293750Y-103987500D01*
G75*
G02*
X109050000Y-103743750I0J243750D01*
G01*
X109050000Y-103256250D01*
G75*
G02*
X109293750Y-103012500I243750J0D01*
G01*
G37*
%TD.AperFunction*%
%TD*%
%TO.P,D3,2*%
%TO.N,Net-(D3-Pad2)*%
%TA.AperFunction,SMDPad,CuDef*%
G36*
G01*
X114293750Y-104762500D02*
X115206250Y-104762500D01*
G75*
G02*
X115450000Y-105006250I0J-243750D01*
G01*
X115450000Y-105493750D01*
G75*
G02*
X115206250Y-105737500I-243750J0D01*
G01*
X114293750Y-105737500D01*
G75*
G02*
X114050000Y-105493750I0J243750D01*
G01*
X114050000Y-105006250D01*
G75*
G02*
X114293750Y-104762500I243750J0D01*
G01*
G37*
%TD.AperFunction*%
%TO.P,D3,1*%
%TO.N,GND*%
%TA.AperFunction,SMDPad,CuDef*%
G36*
G01*
X114293750Y-102887500D02*
X115206250Y-102887500D01*
G75*
G02*
X115450000Y-103131250I0J-243750D01*
G01*
X115450000Y-103618750D01*
G75*
G02*
X115206250Y-103862500I-243750J0D01*
G01*
X114293750Y-103862500D01*
G75*
G02*
X114050000Y-103618750I0J243750D01*
G01*
X114050000Y-103131250D01*
G75*
G02*
X114293750Y-102887500I243750J0D01*
G01*
G37*
%TD.AperFunction*%
%TD*%
%TO.P,D2,2*%
%TO.N,Net-(D2-Pad2)*%
%TA.AperFunction,SMDPad,CuDef*%
G36*
G01*
X124293750Y-104762500D02*
X125206250Y-104762500D01*
G75*
G02*
X125450000Y-105006250I0J-243750D01*
G01*
X125450000Y-105493750D01*
G75*
G02*
X125206250Y-105737500I-243750J0D01*
G01*
X124293750Y-105737500D01*
G75*
G02*
X124050000Y-105493750I0J243750D01*
G01*
X124050000Y-105006250D01*
G75*
G02*
X124293750Y-104762500I243750J0D01*
G01*
G37*
%TD.AperFunction*%
%TO.P,D2,1*%
%TO.N,GND*%
%TA.AperFunction,SMDPad,CuDef*%
G36*
G01*
X124293750Y-102887500D02*
X125206250Y-102887500D01*
G75*
G02*
X125450000Y-103131250I0J-243750D01*
G01*
X125450000Y-103618750D01*
G75*
G02*
X125206250Y-103862500I-243750J0D01*
G01*
X124293750Y-103862500D01*
G75*
G02*
X124050000Y-103618750I0J243750D01*
G01*
X124050000Y-103131250D01*
G75*
G02*
X124293750Y-102887500I243750J0D01*
G01*
G37*
%TD.AperFunction*%
%TD*%
%TO.P,D1,2*%
%TO.N,Net-(D1-Pad2)*%
%TA.AperFunction,SMDPad,CuDef*%
G36*
G01*
X119293750Y-104762500D02*
X120206250Y-104762500D01*
G75*
G02*
X120450000Y-105006250I0J-243750D01*
G01*
X120450000Y-105493750D01*
G75*
G02*
X120206250Y-105737500I-243750J0D01*
G01*
X119293750Y-105737500D01*
G75*
G02*
X119050000Y-105493750I0J243750D01*
G01*
X119050000Y-105006250D01*
G75*
G02*
X119293750Y-104762500I243750J0D01*
G01*
G37*
%TD.AperFunction*%
%TO.P,D1,1*%
%TO.N,GND*%
%TA.AperFunction,SMDPad,CuDef*%
G36*
G01*
X119293750Y-102887500D02*
X120206250Y-102887500D01*
G75*
G02*
X120450000Y-103131250I0J-243750D01*
G01*
X120450000Y-103618750D01*
G75*
G02*
X120206250Y-103862500I-243750J0D01*
G01*
X119293750Y-103862500D01*
G75*
G02*
X119050000Y-103618750I0J243750D01*
G01*
X119050000Y-103131250D01*
G75*
G02*
X119293750Y-102887500I243750J0D01*
G01*
G37*
%TD.AperFunction*%
%TD*%
D19*
%TO.P,U1,39*%
%TO.N,GND*%
X114600000Y-81490000D03*
D20*
X116600000Y-83500000D03*
D21*
%TO.P,U1,1*%
X108000000Y-76580000D03*
%TO.P,U1,2*%
%TO.N,+3V3*%
X108000000Y-77850000D03*
%TO.P,U1,3*%
%TO.N,EN*%
X108000000Y-79120000D03*
%TO.P,U1,4*%
%TO.N,N/C*%
X108000000Y-80390000D03*
%TO.P,U1,5*%
X108000000Y-81660000D03*
%TO.P,U1,6*%
X108000000Y-82930000D03*
%TO.P,U1,7*%
X108000000Y-84200000D03*
%TO.P,U1,8*%
X108000000Y-85470000D03*
%TO.P,U1,9*%
X108000000Y-86740000D03*
%TO.P,U1,10*%
%TO.N,LED4*%
X108000000Y-88010000D03*
%TO.P,U1,11*%
%TO.N,LED2*%
X108000000Y-89280000D03*
%TO.P,U1,12*%
%TO.N,LED3*%
X108000000Y-90550000D03*
%TO.P,U1,13*%
%TO.N,N/C*%
X108000000Y-91820000D03*
%TO.P,U1,14*%
X108000000Y-93090000D03*
%TO.P,U1,15*%
%TO.N,GND*%
X108000000Y-94390000D03*
%TO.P,U1,16*%
%TO.N,LED*%
X108000000Y-95660000D03*
%TO.P,U1,17*%
%TO.N,N/C*%
X108000000Y-96930000D03*
%TO.P,U1,18*%
X108000000Y-98200000D03*
%TO.P,U1,19*%
X108000000Y-99470000D03*
%TO.P,U1,20*%
X126000000Y-99470000D03*
%TO.P,U1,21*%
X126000000Y-98200000D03*
%TO.P,U1,22*%
X126000000Y-96930000D03*
%TO.P,U1,23*%
X126000000Y-95660000D03*
%TO.P,U1,24*%
X126000000Y-94390000D03*
%TO.P,U1,25*%
%TO.N,GPIO0*%
X126030000Y-93090000D03*
%TO.P,U1,26*%
%TO.N,ConfigButton*%
X126030000Y-91820000D03*
%TO.P,U1,27*%
%TO.N,RX_UART2*%
X126030000Y-90550000D03*
%TO.P,U1,28*%
%TO.N,TX_UART2*%
X126030000Y-89280000D03*
%TO.P,U1,29*%
%TO.N,N/C*%
X126030000Y-88010000D03*
%TO.P,U1,30*%
X126030000Y-86740000D03*
%TO.P,U1,31*%
X126030000Y-85470000D03*
%TO.P,U1,32*%
X126030000Y-84200000D03*
%TO.P,U1,33*%
%TO.N,SDA*%
X126030000Y-82930000D03*
%TO.P,U1,34*%
%TO.N,RX*%
X126030000Y-81660000D03*
%TO.P,U1,35*%
%TO.N,TX*%
X126030000Y-80390000D03*
%TO.P,U1,36*%
%TO.N,SCL*%
X126030000Y-79120000D03*
%TO.P,U1,37*%
%TO.N,N/C*%
X126030000Y-77850000D03*
%TO.P,U1,38*%
%TO.N,GND*%
X126030000Y-76580000D03*
D19*
%TO.P,U1,39*%
X114600000Y-82490000D03*
X114600000Y-83490000D03*
X114600000Y-84490000D03*
X114600000Y-85490000D03*
X115600000Y-85490000D03*
X115600000Y-84490000D03*
X115600000Y-83490000D03*
X115600000Y-82490000D03*
X115600000Y-81490000D03*
X117600000Y-81490000D03*
X117600000Y-82490000D03*
X117600000Y-83490000D03*
X117600000Y-84490000D03*
X117600000Y-85490000D03*
X116600000Y-85490000D03*
X116600000Y-84490000D03*
X116600000Y-83490000D03*
X116600000Y-82490000D03*
X116600000Y-81490000D03*
X118600000Y-85490000D03*
X118600000Y-84490000D03*
X118600000Y-83490000D03*
X118600000Y-82490000D03*
X118600000Y-81490000D03*
%TD*%
%TO.P,H4,1*%
%TO.N,GND*%
X92697056Y-71302944D03*
X91000000Y-70600000D03*
X89302944Y-71302944D03*
X88600000Y-73000000D03*
X89302944Y-74697056D03*
X91000000Y-75400000D03*
X92697056Y-74697056D03*
X93400000Y-73000000D03*
D22*
X91000000Y-73000000D03*
%TD*%
D19*
%TO.P,H3,1*%
%TO.N,GND*%
X144697056Y-71702944D03*
X143000000Y-71000000D03*
X141302944Y-71702944D03*
X140600000Y-73400000D03*
X141302944Y-75097056D03*
X143000000Y-75800000D03*
X144697056Y-75097056D03*
X145400000Y-73400000D03*
D22*
X143000000Y-73400000D03*
%TD*%
D19*
%TO.P,H2,1*%
%TO.N,GND*%
X144697056Y-123302944D03*
X143000000Y-122600000D03*
X141302944Y-123302944D03*
X140600000Y-125000000D03*
X141302944Y-126697056D03*
X143000000Y-127400000D03*
X144697056Y-126697056D03*
X145400000Y-125000000D03*
D22*
X143000000Y-125000000D03*
%TD*%
%TO.P,R6,2*%
%TO.N,ConfigButton*%
%TA.AperFunction,SMDPad,CuDef*%
G36*
G01*
X96475000Y-92700001D02*
X96475000Y-91799999D01*
G75*
G02*
X96724999Y-91550000I249999J0D01*
G01*
X97375001Y-91550000D01*
G75*
G02*
X97625000Y-91799999I0J-249999D01*
G01*
X97625000Y-92700001D01*
G75*
G02*
X97375001Y-92950000I-249999J0D01*
G01*
X96724999Y-92950000D01*
G75*
G02*
X96475000Y-92700001I0J249999D01*
G01*
G37*
%TD.AperFunction*%
%TO.P,R6,1*%
%TO.N,+3V3*%
%TA.AperFunction,SMDPad,CuDef*%
G36*
G01*
X94425000Y-92700001D02*
X94425000Y-91799999D01*
G75*
G02*
X94674999Y-91550000I249999J0D01*
G01*
X95325001Y-91550000D01*
G75*
G02*
X95575000Y-91799999I0J-249999D01*
G01*
X95575000Y-92700001D01*
G75*
G02*
X95325001Y-92950000I-249999J0D01*
G01*
X94674999Y-92950000D01*
G75*
G02*
X94425000Y-92700001I0J249999D01*
G01*
G37*
%TD.AperFunction*%
%TD*%
D16*
%TO.P,J3,2*%
%TO.N,+3V3*%
X91250000Y-110750000D03*
D17*
%TO.P,J3,1*%
%TO.N,MainInput*%
X88710000Y-110750000D03*
%TD*%
D23*
%TO.P,J2,2*%
%TO.N,GNDPWR*%
X95000000Y-125000000D03*
D24*
%TO.P,J2,1*%
%TO.N,AC*%
X90000000Y-125000000D03*
%TD*%
%TO.P,C6,2*%
%TO.N,GND*%
%TA.AperFunction,SMDPad,CuDef*%
G36*
G01*
X101025000Y-97049999D02*
X101025000Y-97950001D01*
G75*
G02*
X100775001Y-98200000I-249999J0D01*
G01*
X100124999Y-98200000D01*
G75*
G02*
X99875000Y-97950001I0J249999D01*
G01*
X99875000Y-97049999D01*
G75*
G02*
X100124999Y-96800000I249999J0D01*
G01*
X100775001Y-96800000D01*
G75*
G02*
X101025000Y-97049999I0J-249999D01*
G01*
G37*
%TD.AperFunction*%
%TO.P,C6,1*%
%TO.N,MainInput*%
%TA.AperFunction,SMDPad,CuDef*%
G36*
G01*
X103075000Y-97049999D02*
X103075000Y-97950001D01*
G75*
G02*
X102825001Y-98200000I-249999J0D01*
G01*
X102174999Y-98200000D01*
G75*
G02*
X101925000Y-97950001I0J249999D01*
G01*
X101925000Y-97049999D01*
G75*
G02*
X102174999Y-96800000I249999J0D01*
G01*
X102825001Y-96800000D01*
G75*
G02*
X103075000Y-97049999I0J-249999D01*
G01*
G37*
%TD.AperFunction*%
%TD*%
%TO.P,C5,2*%
%TO.N,GND*%
%TA.AperFunction,SMDPad,CuDef*%
G36*
G01*
X100950000Y-101200000D02*
X100950000Y-102300000D01*
G75*
G02*
X100700000Y-102550000I-250000J0D01*
G01*
X98600000Y-102550000D01*
G75*
G02*
X98350000Y-102300000I0J250000D01*
G01*
X98350000Y-101200000D01*
G75*
G02*
X98600000Y-100950000I250000J0D01*
G01*
X100700000Y-100950000D01*
G75*
G02*
X100950000Y-101200000I0J-250000D01*
G01*
G37*
%TD.AperFunction*%
%TO.P,C5,1*%
%TO.N,MainInput*%
%TA.AperFunction,SMDPad,CuDef*%
G36*
G01*
X104550000Y-101200000D02*
X104550000Y-102300000D01*
G75*
G02*
X104300000Y-102550000I-250000J0D01*
G01*
X102200000Y-102550000D01*
G75*
G02*
X101950000Y-102300000I0J250000D01*
G01*
X101950000Y-101200000D01*
G75*
G02*
X102200000Y-100950000I250000J0D01*
G01*
X104300000Y-100950000D01*
G75*
G02*
X104550000Y-101200000I0J-250000D01*
G01*
G37*
%TD.AperFunction*%
%TD*%
D25*
%TO.P,U2,1*%
%TO.N,GND*%
X100900000Y-81950000D03*
%TO.P,U2,3*%
%TO.N,+5V*%
X96300000Y-81950000D03*
%TO.P,U2,2*%
%TO.N,+3V3*%
X98600000Y-81950000D03*
D26*
X98600000Y-88250000D03*
%TD*%
%TO.P,R5,2*%
%TO.N,EN*%
%TA.AperFunction,SMDPad,CuDef*%
G36*
G01*
X99950001Y-77025000D02*
X99049999Y-77025000D01*
G75*
G02*
X98800000Y-76775001I0J249999D01*
G01*
X98800000Y-76124999D01*
G75*
G02*
X99049999Y-75875000I249999J0D01*
G01*
X99950001Y-75875000D01*
G75*
G02*
X100200000Y-76124999I0J-249999D01*
G01*
X100200000Y-76775001D01*
G75*
G02*
X99950001Y-77025000I-249999J0D01*
G01*
G37*
%TD.AperFunction*%
%TO.P,R5,1*%
%TO.N,+3V3*%
%TA.AperFunction,SMDPad,CuDef*%
G36*
G01*
X99950001Y-79075000D02*
X99049999Y-79075000D01*
G75*
G02*
X98800000Y-78825001I0J249999D01*
G01*
X98800000Y-78174999D01*
G75*
G02*
X99049999Y-77925000I249999J0D01*
G01*
X99950001Y-77925000D01*
G75*
G02*
X100200000Y-78174999I0J-249999D01*
G01*
X100200000Y-78825001D01*
G75*
G02*
X99950001Y-79075000I-249999J0D01*
G01*
G37*
%TD.AperFunction*%
%TD*%
%TO.P,R4,2*%
%TO.N,Net-(D4-Pad2)*%
%TA.AperFunction,SMDPad,CuDef*%
G36*
G01*
X133450001Y-96325000D02*
X132549999Y-96325000D01*
G75*
G02*
X132300000Y-96075001I0J249999D01*
G01*
X132300000Y-95424999D01*
G75*
G02*
X132549999Y-95175000I249999J0D01*
G01*
X133450001Y-95175000D01*
G75*
G02*
X133700000Y-95424999I0J-249999D01*
G01*
X133700000Y-96075001D01*
G75*
G02*
X133450001Y-96325000I-249999J0D01*
G01*
G37*
%TD.AperFunction*%
%TO.P,R4,1*%
%TO.N,LED4*%
%TA.AperFunction,SMDPad,CuDef*%
G36*
G01*
X133450001Y-98375000D02*
X132549999Y-98375000D01*
G75*
G02*
X132300000Y-98125001I0J249999D01*
G01*
X132300000Y-97474999D01*
G75*
G02*
X132549999Y-97225000I249999J0D01*
G01*
X133450001Y-97225000D01*
G75*
G02*
X133700000Y-97474999I0J-249999D01*
G01*
X133700000Y-98125001D01*
G75*
G02*
X133450001Y-98375000I-249999J0D01*
G01*
G37*
%TD.AperFunction*%
%TD*%
%TO.P,R3,2*%
%TO.N,Net-(D3-Pad2)*%
%TA.AperFunction,SMDPad,CuDef*%
G36*
G01*
X130700001Y-96300000D02*
X129799999Y-96300000D01*
G75*
G02*
X129550000Y-96050001I0J249999D01*
G01*
X129550000Y-95399999D01*
G75*
G02*
X129799999Y-95150000I249999J0D01*
G01*
X130700001Y-95150000D01*
G75*
G02*
X130950000Y-95399999I0J-249999D01*
G01*
X130950000Y-96050001D01*
G75*
G02*
X130700001Y-96300000I-249999J0D01*
G01*
G37*
%TD.AperFunction*%
%TO.P,R3,1*%
%TO.N,LED3*%
%TA.AperFunction,SMDPad,CuDef*%
G36*
G01*
X130700001Y-98350000D02*
X129799999Y-98350000D01*
G75*
G02*
X129550000Y-98100001I0J249999D01*
G01*
X129550000Y-97449999D01*
G75*
G02*
X129799999Y-97200000I249999J0D01*
G01*
X130700001Y-97200000D01*
G75*
G02*
X130950000Y-97449999I0J-249999D01*
G01*
X130950000Y-98100001D01*
G75*
G02*
X130700001Y-98350000I-249999J0D01*
G01*
G37*
%TD.AperFunction*%
%TD*%
%TO.P,R2,2*%
%TO.N,Net-(D2-Pad2)*%
%TA.AperFunction,SMDPad,CuDef*%
G36*
G01*
X138950001Y-96275000D02*
X138049999Y-96275000D01*
G75*
G02*
X137800000Y-96025001I0J249999D01*
G01*
X137800000Y-95374999D01*
G75*
G02*
X138049999Y-95125000I249999J0D01*
G01*
X138950001Y-95125000D01*
G75*
G02*
X139200000Y-95374999I0J-249999D01*
G01*
X139200000Y-96025001D01*
G75*
G02*
X138950001Y-96275000I-249999J0D01*
G01*
G37*
%TD.AperFunction*%
%TO.P,R2,1*%
%TO.N,LED2*%
%TA.AperFunction,SMDPad,CuDef*%
G36*
G01*
X138950001Y-98325000D02*
X138049999Y-98325000D01*
G75*
G02*
X137800000Y-98075001I0J249999D01*
G01*
X137800000Y-97424999D01*
G75*
G02*
X138049999Y-97175000I249999J0D01*
G01*
X138950001Y-97175000D01*
G75*
G02*
X139200000Y-97424999I0J-249999D01*
G01*
X139200000Y-98075001D01*
G75*
G02*
X138950001Y-98325000I-249999J0D01*
G01*
G37*
%TD.AperFunction*%
%TD*%
%TO.P,R1,2*%
%TO.N,Net-(D1-Pad2)*%
%TA.AperFunction,SMDPad,CuDef*%
G36*
G01*
X136200001Y-96300000D02*
X135299999Y-96300000D01*
G75*
G02*
X135050000Y-96050001I0J249999D01*
G01*
X135050000Y-95399999D01*
G75*
G02*
X135299999Y-95150000I249999J0D01*
G01*
X136200001Y-95150000D01*
G75*
G02*
X136450000Y-95399999I0J-249999D01*
G01*
X136450000Y-96050001D01*
G75*
G02*
X136200001Y-96300000I-249999J0D01*
G01*
G37*
%TD.AperFunction*%
%TO.P,R1,1*%
%TO.N,LED*%
%TA.AperFunction,SMDPad,CuDef*%
G36*
G01*
X136200001Y-98350000D02*
X135299999Y-98350000D01*
G75*
G02*
X135050000Y-98100001I0J249999D01*
G01*
X135050000Y-97449999D01*
G75*
G02*
X135299999Y-97200000I249999J0D01*
G01*
X136200001Y-97200000D01*
G75*
G02*
X136450000Y-97449999I0J-249999D01*
G01*
X136450000Y-98100001D01*
G75*
G02*
X136200001Y-98350000I-249999J0D01*
G01*
G37*
%TD.AperFunction*%
%TD*%
%TO.P,C4,2*%
%TO.N,GND*%
%TA.AperFunction,SMDPad,CuDef*%
G36*
G01*
X103249999Y-85325000D02*
X104150001Y-85325000D01*
G75*
G02*
X104400000Y-85574999I0J-249999D01*
G01*
X104400000Y-86225001D01*
G75*
G02*
X104150001Y-86475000I-249999J0D01*
G01*
X103249999Y-86475000D01*
G75*
G02*
X103000000Y-86225001I0J249999D01*
G01*
X103000000Y-85574999D01*
G75*
G02*
X103249999Y-85325000I249999J0D01*
G01*
G37*
%TD.AperFunction*%
%TO.P,C4,1*%
%TO.N,+3V3*%
%TA.AperFunction,SMDPad,CuDef*%
G36*
G01*
X103249999Y-83275000D02*
X104150001Y-83275000D01*
G75*
G02*
X104400000Y-83524999I0J-249999D01*
G01*
X104400000Y-84175001D01*
G75*
G02*
X104150001Y-84425000I-249999J0D01*
G01*
X103249999Y-84425000D01*
G75*
G02*
X103000000Y-84175001I0J249999D01*
G01*
X103000000Y-83524999D01*
G75*
G02*
X103249999Y-83275000I249999J0D01*
G01*
G37*
%TD.AperFunction*%
%TD*%
%TO.P,C1,2*%
%TO.N,GND*%
%TA.AperFunction,SMDPad,CuDef*%
G36*
G01*
X104950001Y-77050000D02*
X104049999Y-77050000D01*
G75*
G02*
X103800000Y-76800001I0J249999D01*
G01*
X103800000Y-76149999D01*
G75*
G02*
X104049999Y-75900000I249999J0D01*
G01*
X104950001Y-75900000D01*
G75*
G02*
X105200000Y-76149999I0J-249999D01*
G01*
X105200000Y-76800001D01*
G75*
G02*
X104950001Y-77050000I-249999J0D01*
G01*
G37*
%TD.AperFunction*%
%TO.P,C1,1*%
%TO.N,+3V3*%
%TA.AperFunction,SMDPad,CuDef*%
G36*
G01*
X104950001Y-79100000D02*
X104049999Y-79100000D01*
G75*
G02*
X103800000Y-78850001I0J249999D01*
G01*
X103800000Y-78199999D01*
G75*
G02*
X104049999Y-77950000I249999J0D01*
G01*
X104950001Y-77950000D01*
G75*
G02*
X105200000Y-78199999I0J-249999D01*
G01*
X105200000Y-78850001D01*
G75*
G02*
X104950001Y-79100000I-249999J0D01*
G01*
G37*
%TD.AperFunction*%
%TD*%
D27*
%TO.N,GND*%
X99500000Y-105500000D03*
X91500000Y-101750000D03*
X112750000Y-103250000D03*
X107750000Y-103500000D03*
X107750000Y-105500000D03*
X112750000Y-105500000D03*
X117250000Y-105500000D03*
X122500000Y-105250000D03*
X122500000Y-103750000D03*
X92400000Y-93000000D03*
X97400000Y-111500000D03*
X99300000Y-111500000D03*
X101200000Y-110900000D03*
X105500000Y-109000000D03*
X107000000Y-109000000D03*
X108500000Y-109000000D03*
X110000000Y-109000000D03*
X113000000Y-109000000D03*
X111500000Y-109000000D03*
X116000000Y-109000000D03*
X117500000Y-109000000D03*
X114500000Y-109000000D03*
X120500000Y-109000000D03*
X122000000Y-109000000D03*
X119000000Y-109000000D03*
X94000000Y-78500000D03*
X103000000Y-80000000D03*
X104500000Y-74500000D03*
X93500000Y-85500000D03*
X95000000Y-85500000D03*
X123500000Y-110000000D03*
X124500000Y-111000000D03*
X125500000Y-112000000D03*
X126500000Y-113000000D03*
X127500000Y-114000000D03*
X128500000Y-115000000D03*
X129500000Y-116000000D03*
X130500000Y-117000000D03*
X131500000Y-118000000D03*
X132500000Y-119000000D03*
X133500000Y-120000000D03*
X134500000Y-121000000D03*
X135500000Y-122000000D03*
X136500000Y-123000000D03*
%TO.N,TX*%
X121500000Y-83250000D03*
%TO.N,RX*%
X122500000Y-84500000D03*
%TO.N,GPIO0*%
X122750000Y-95750000D03*
%TO.N,LED*%
X105500000Y-96500000D03*
X136750000Y-99250000D03*
%TO.N,LED2*%
X105000000Y-90250000D03*
X133250000Y-101500000D03*
%TO.N,LED3*%
X105000000Y-92000000D03*
X129500000Y-102000000D03*
%TO.N,LED4*%
X105000000Y-88750000D03*
X131500000Y-100000000D03*
%TO.N,ConfigButton*%
X105500000Y-86000000D03*
X121250000Y-95250000D03*
X128500000Y-93000000D03*
X143750000Y-84500000D03*
%TO.N,Net-(J4-Pad6)*%
X89500000Y-95500000D03*
X93000000Y-95500000D03*
%TO.N,RX_UART2*%
X130250000Y-93250000D03*
%TO.N,TX_UART2*%
X133500000Y-93500000D03*
%TD*%
D28*
%TO.N,GND*%
X92850000Y-103100000D02*
X94200000Y-103100000D01*
X91500000Y-101750000D02*
X92850000Y-103100000D01*
X119750000Y-103375000D02*
X120375000Y-104000000D01*
X122250000Y-104000000D02*
X122500000Y-103750000D01*
X120375000Y-104000000D02*
X122250000Y-104000000D01*
X124750000Y-103375000D02*
X124625000Y-103375000D01*
X124250000Y-103750000D02*
X122500000Y-103750000D01*
X124625000Y-103375000D02*
X124250000Y-103750000D01*
X114750000Y-103375000D02*
X114375000Y-103375000D01*
X114375000Y-103375000D02*
X114000000Y-103750000D01*
X113250000Y-103750000D02*
X112750000Y-103250000D01*
X114000000Y-103750000D02*
X113250000Y-103750000D01*
X109750000Y-103500000D02*
X107750000Y-103500000D01*
D29*
%TO.N,EN*%
X96000000Y-76450000D02*
X99500000Y-76450000D01*
D28*
X101425000Y-69925000D02*
X101500000Y-70000000D01*
X103575000Y-69925000D02*
X103575000Y-72425000D01*
X103575000Y-69925000D02*
X105575000Y-69925000D01*
X101425000Y-69925000D02*
X103575000Y-69925000D01*
X103575000Y-72425000D02*
X102000000Y-74000000D01*
X102000000Y-74000000D02*
X102000000Y-75000000D01*
X100550000Y-76450000D02*
X99500000Y-76450000D01*
X102000000Y-75000000D02*
X100550000Y-76450000D01*
X88750000Y-86420000D02*
X89580000Y-86420000D01*
X89580000Y-86420000D02*
X90500000Y-85500000D01*
X90500000Y-85500000D02*
X90500000Y-80000000D01*
X94050000Y-76450000D02*
X96000000Y-76450000D01*
X90500000Y-80000000D02*
X94050000Y-76450000D01*
X107175000Y-69925000D02*
X105575000Y-69925000D01*
X108000000Y-79120000D02*
X109880000Y-79120000D01*
X111000000Y-73750000D02*
X107175000Y-69925000D01*
X111000000Y-78000000D02*
X111000000Y-73750000D01*
X109880000Y-79120000D02*
X111000000Y-78000000D01*
%TO.N,Net-(D1-Pad2)*%
X120750000Y-105250000D02*
X119750000Y-105250000D01*
X134750000Y-106250000D02*
X121750000Y-106250000D01*
X121750000Y-106250000D02*
X120750000Y-105250000D01*
X135750000Y-93750000D02*
X136750000Y-92750000D01*
X139500000Y-92750000D02*
X141000000Y-94250000D01*
X135750000Y-95725000D02*
X135750000Y-93750000D01*
X136750000Y-92750000D02*
X139500000Y-92750000D01*
X141000000Y-100000000D02*
X134750000Y-106250000D01*
X141000000Y-94250000D02*
X141000000Y-100000000D01*
%TO.N,Net-(D2-Pad2)*%
X138500000Y-95700000D02*
X138500000Y-95000000D01*
X138500000Y-95000000D02*
X139500000Y-94000000D01*
X139500000Y-94000000D02*
X139750000Y-94000000D01*
X139750000Y-94000000D02*
X140250000Y-94500000D01*
X134457120Y-105250000D02*
X139707120Y-100000000D01*
X124750000Y-105250000D02*
X134457120Y-105250000D01*
X139707120Y-100000000D02*
X139750000Y-100000000D01*
X140250000Y-99500000D02*
X140250000Y-94500000D01*
X139750000Y-100000000D02*
X140250000Y-99500000D01*
%TO.N,Net-(D3-Pad2)*%
X129199990Y-96775010D02*
X129199990Y-100050010D01*
X130250000Y-95725000D02*
X129199990Y-96775010D01*
X129199990Y-100050010D02*
X127250000Y-102000000D01*
X127250000Y-102000000D02*
X118500000Y-102000000D01*
X118500000Y-102000000D02*
X116750000Y-103750000D01*
X116750000Y-103750000D02*
X116750000Y-104500000D01*
X116000000Y-105250000D02*
X114750000Y-105250000D01*
X116750000Y-104500000D02*
X116000000Y-105250000D01*
%TO.N,Net-(D4-Pad2)*%
X133000000Y-95750000D02*
X133000000Y-95500000D01*
X133000000Y-95500000D02*
X132250000Y-94750000D01*
X129601454Y-94750000D02*
X128500000Y-95851454D01*
X132250000Y-94750000D02*
X129601454Y-94750000D01*
X128500000Y-95851454D02*
X128500000Y-99750000D01*
X128500000Y-99750000D02*
X127000000Y-101250000D01*
X127000000Y-101250000D02*
X113000000Y-101250000D01*
X113000000Y-101250000D02*
X111750000Y-102500000D01*
X111750000Y-103375000D02*
X109750000Y-105375000D01*
X111750000Y-102500000D02*
X111750000Y-103375000D01*
D30*
%TO.N,TX*%
X124860000Y-80390000D02*
X126030000Y-80390000D01*
D28*
X126030000Y-80390000D02*
X123860000Y-80390000D01*
X123860000Y-80390000D02*
X121500000Y-82750000D01*
X121500000Y-82750000D02*
X121500000Y-83250000D01*
D30*
%TO.N,RX*%
X125153971Y-81660000D02*
X126030000Y-81660000D01*
D28*
X122500000Y-84500000D02*
X123000000Y-84000000D01*
X124230000Y-81660000D02*
X126030000Y-81660000D01*
X123000000Y-82890000D02*
X124230000Y-81660000D01*
X123000000Y-84000000D02*
X123000000Y-82890000D01*
D30*
%TO.N,GPIO0*%
X124280000Y-93090000D02*
X126030000Y-93090000D01*
D28*
X122750000Y-95750000D02*
X122750000Y-93750000D01*
X123410000Y-93090000D02*
X126030000Y-93090000D01*
X122750000Y-93750000D02*
X123410000Y-93090000D01*
%TO.N,LED*%
X108000000Y-95660000D02*
X106340000Y-95660000D01*
X106340000Y-95660000D02*
X105500000Y-96500000D01*
X136750000Y-98775000D02*
X135750000Y-97775000D01*
X136750000Y-99250000D02*
X136750000Y-98775000D01*
%TO.N,LED2*%
X108000000Y-89280000D02*
X105970000Y-89280000D01*
X105970000Y-89280000D02*
X105000000Y-90250000D01*
X133250000Y-101500000D02*
X137500000Y-101500000D01*
X138500000Y-100500000D02*
X138500000Y-97750000D01*
X137500000Y-101500000D02*
X138500000Y-100500000D01*
%TO.N,LED3*%
X108000000Y-90550000D02*
X106450000Y-90550000D01*
X106450000Y-90550000D02*
X105000000Y-92000000D01*
X129500000Y-102000000D02*
X130250000Y-101250000D01*
X130250000Y-101250000D02*
X130250000Y-97775000D01*
%TO.N,LED4*%
X108000000Y-88010000D02*
X105740000Y-88010000D01*
X105740000Y-88010000D02*
X105000000Y-88750000D01*
X133000000Y-97800000D02*
X133000000Y-98500000D01*
X133000000Y-98500000D02*
X131500000Y-100000000D01*
D31*
%TO.N,+5V*%
X94225001Y-99874999D02*
X94200000Y-99874999D01*
X95800000Y-81450000D02*
X96300000Y-81950000D01*
X93500000Y-81450000D02*
X95800000Y-81450000D01*
X93500000Y-81450000D02*
X92050000Y-81450000D01*
X92050000Y-81450000D02*
X91500000Y-82000000D01*
X91500000Y-82000000D02*
X91500000Y-90500000D01*
X90500000Y-91500000D02*
X88750000Y-91500000D01*
X91500000Y-90500000D02*
X90500000Y-91500000D01*
D29*
X93800000Y-99500000D02*
X94200000Y-99900000D01*
X93000000Y-99500000D02*
X93800000Y-99500000D01*
X88750000Y-92750000D02*
X90500000Y-94500000D01*
X90500000Y-94500000D02*
X90500000Y-96500000D01*
X88750000Y-91500000D02*
X88750000Y-92750000D01*
X90500000Y-96500000D02*
X93000000Y-99000000D01*
X93000000Y-99000000D02*
X93000000Y-99500000D01*
%TO.N,+3V3*%
X98600000Y-88250000D02*
X98500000Y-88250000D01*
D31*
X98600000Y-88250000D02*
X97250000Y-88250000D01*
X95000000Y-90500000D02*
X95000000Y-92250000D01*
X97250000Y-88250000D02*
X95000000Y-90500000D01*
X95000000Y-92250000D02*
X95000000Y-93000000D01*
X95000000Y-93000000D02*
X97000000Y-95000000D01*
X97000000Y-95000000D02*
X97000000Y-109500000D01*
X95750000Y-110750000D02*
X91250000Y-110750000D01*
X97000000Y-109500000D02*
X95750000Y-110750000D01*
X98600000Y-81950000D02*
X98600000Y-88250000D01*
X98600000Y-79400000D02*
X99500000Y-78500000D01*
X98600000Y-81950000D02*
X98600000Y-79400000D01*
X104475000Y-78500000D02*
X104500000Y-78525000D01*
X99500000Y-78500000D02*
X104475000Y-78500000D01*
X103700000Y-83850000D02*
X103700000Y-83800000D01*
X104500000Y-83000000D02*
X104500000Y-78525000D01*
X103700000Y-83800000D02*
X104500000Y-83000000D01*
D29*
X104500000Y-78525000D02*
X104975000Y-78525000D01*
X105650000Y-77850000D02*
X108000000Y-77850000D01*
X104975000Y-78525000D02*
X105650000Y-77850000D01*
D31*
%TO.N,MainInput*%
X103250000Y-110750000D02*
X103250000Y-101750000D01*
X101000000Y-113000000D02*
X103250000Y-110750000D01*
X90000000Y-113000000D02*
X101000000Y-113000000D01*
X88710000Y-110750000D02*
X88710000Y-111710000D01*
X88710000Y-111710000D02*
X90000000Y-113000000D01*
D29*
X102500000Y-97500000D02*
X102750000Y-97500000D01*
X103250000Y-98000000D02*
X103250000Y-101750000D01*
X102750000Y-97500000D02*
X103250000Y-98000000D01*
D31*
X121250000Y-110750000D02*
X136900000Y-126400000D01*
X103250000Y-110750000D02*
X121250000Y-110750000D01*
D29*
%TO.N,ConfigButton*%
X97200000Y-91750000D02*
X97450000Y-92000000D01*
X97050000Y-92250000D02*
X99975000Y-92250000D01*
D28*
X99975000Y-92250000D02*
X99975000Y-91275000D01*
X99975000Y-91275000D02*
X102000000Y-89250000D01*
X102000000Y-89250000D02*
X102250000Y-89250000D01*
X102250000Y-89250000D02*
X105500000Y-86000000D01*
X121250000Y-95250000D02*
X121250000Y-93500000D01*
X122930000Y-91820000D02*
X126030000Y-91820000D01*
X121250000Y-93500000D02*
X122930000Y-91820000D01*
X143850000Y-83000000D02*
X143850000Y-78850000D01*
X126030000Y-91820000D02*
X127320000Y-91820000D01*
X127320000Y-91820000D02*
X128500000Y-93000000D01*
X143750000Y-83100000D02*
X143850000Y-83000000D01*
X143750000Y-84500000D02*
X143750000Y-83100000D01*
D29*
%TO.N,Net-(J4-Pad6)*%
X88650000Y-97050000D02*
X88650000Y-105950000D01*
X94100000Y-105950000D02*
X88650000Y-105950000D01*
D30*
X88650000Y-97050000D02*
X88650000Y-96350000D01*
X88650000Y-96350000D02*
X89500000Y-95500000D01*
X94100000Y-96600000D02*
X94100000Y-97050000D01*
X93000000Y-95500000D02*
X94100000Y-96600000D01*
D28*
%TO.N,RX_UART2*%
X126030000Y-90550000D02*
X127550000Y-90550000D01*
X127550000Y-90550000D02*
X130250000Y-93250000D01*
%TO.N,TX_UART2*%
X126030000Y-89280000D02*
X127720000Y-89280000D01*
X127720000Y-89280000D02*
X131940000Y-93500000D01*
X131940000Y-93500000D02*
X133500000Y-93500000D01*
%TO.N,SCL*%
X143600000Y-91850000D02*
X143100000Y-91850000D01*
X143100000Y-91850000D02*
X141750000Y-90500000D01*
X141750000Y-90500000D02*
X133250000Y-90500000D01*
X133250000Y-90500000D02*
X129750000Y-87000000D01*
X129750000Y-87000000D02*
X129750000Y-83750000D01*
X129750000Y-83750000D02*
X128500000Y-82500000D01*
X127830000Y-79120000D02*
X126030000Y-79120000D01*
X128500000Y-79790000D02*
X127830000Y-79120000D01*
X128500000Y-82500000D02*
X128500000Y-79790000D01*
%TO.N,SDA*%
X127830000Y-82930000D02*
X129000000Y-84100000D01*
X126030000Y-82930000D02*
X127830000Y-82930000D01*
X129000000Y-84100000D02*
X129000000Y-87250000D01*
X129000000Y-87250000D02*
X133250000Y-91500000D01*
X141250000Y-91500000D02*
X143600000Y-93850000D01*
X133250000Y-91500000D02*
X141250000Y-91500000D01*
%TD*%
D32*
%TO.N,GND*%
G36*
X141547792Y-69830548D02*
G01*
X140879330Y-70182445D01*
X140838912Y-70209452D01*
X140478724Y-70699119D01*
X143000000Y-73220395D01*
X143014143Y-73206253D01*
X143193748Y-73385858D01*
X143179605Y-73400000D01*
X145700881Y-75921276D01*
X146190548Y-75561088D01*
X146340000Y-75285675D01*
X146340000Y-77688405D01*
X146325000Y-77686928D01*
X146285750Y-77690000D01*
X146127000Y-77848750D01*
X146127000Y-78723000D01*
X146147000Y-78723000D01*
X146147000Y-78977000D01*
X146127000Y-78977000D01*
X146127000Y-79851250D01*
X146285750Y-80010000D01*
X146325000Y-80013072D01*
X146340000Y-80011595D01*
X146340000Y-81838405D01*
X146325000Y-81836928D01*
X146285750Y-81840000D01*
X146127000Y-81998750D01*
X146127000Y-82873000D01*
X146147000Y-82873000D01*
X146147000Y-83127000D01*
X146127000Y-83127000D01*
X146127000Y-84001250D01*
X146285750Y-84160000D01*
X146325000Y-84163072D01*
X146340000Y-84161595D01*
X146340001Y-123111928D01*
X146217555Y-122879330D01*
X146190548Y-122838912D01*
X145700881Y-122478724D01*
X143179605Y-125000000D01*
X143193748Y-125014143D01*
X143014143Y-125193748D01*
X143000000Y-125179605D01*
X140478724Y-127700881D01*
X140838912Y-128190548D01*
X141114325Y-128340000D01*
X111127000Y-128340000D01*
X111127000Y-114000000D01*
X111124560Y-113975224D01*
X111117333Y-113951399D01*
X111105597Y-113929443D01*
X111089803Y-113910197D01*
X111070557Y-113894403D01*
X111048601Y-113882667D01*
X111024776Y-113875440D01*
X111000000Y-113873000D01*
X101509298Y-113873000D01*
X101563840Y-113843847D01*
X101717633Y-113717633D01*
X101749261Y-113679094D01*
X103668356Y-111760000D01*
X120831645Y-111760000D01*
X135145003Y-126073358D01*
X135115000Y-126224193D01*
X135115000Y-126575807D01*
X135183596Y-126920665D01*
X135318153Y-127245515D01*
X135513500Y-127537871D01*
X135762129Y-127786500D01*
X136054485Y-127981847D01*
X136379335Y-128116404D01*
X136724193Y-128185000D01*
X137075807Y-128185000D01*
X137420665Y-128116404D01*
X137745515Y-127981847D01*
X138037871Y-127786500D01*
X138286500Y-127537871D01*
X138481847Y-127245515D01*
X138616404Y-126920665D01*
X138685000Y-126575807D01*
X138685000Y-126224193D01*
X138616404Y-125879335D01*
X138481847Y-125554485D01*
X138286500Y-125262129D01*
X138037871Y-125013500D01*
X137981293Y-124975695D01*
X139146520Y-124975695D01*
X139215822Y-125727938D01*
X139430548Y-126452208D01*
X139782445Y-127120670D01*
X139809452Y-127161088D01*
X140299119Y-127521276D01*
X142820395Y-125000000D01*
X140299119Y-122478724D01*
X139809452Y-122838912D01*
X139449151Y-123502882D01*
X139225306Y-124224385D01*
X139146520Y-124975695D01*
X137981293Y-124975695D01*
X137745515Y-124818153D01*
X137420665Y-124683596D01*
X137075807Y-124615000D01*
X136724193Y-124615000D01*
X136573358Y-124645003D01*
X134227474Y-122299119D01*
X140478724Y-122299119D01*
X143000000Y-124820395D01*
X145521276Y-122299119D01*
X145161088Y-121809452D01*
X144497118Y-121449151D01*
X143775615Y-121225306D01*
X143024305Y-121146520D01*
X142272062Y-121215822D01*
X141547792Y-121430548D01*
X140879330Y-121782445D01*
X140838912Y-121809452D01*
X140478724Y-122299119D01*
X134227474Y-122299119D01*
X124170704Y-112242349D01*
X135837256Y-112242349D01*
X135951118Y-112522090D01*
X136266296Y-112677961D01*
X136605826Y-112769349D01*
X136956661Y-112792741D01*
X137305319Y-112747240D01*
X137638400Y-112634594D01*
X137848882Y-112522090D01*
X137962744Y-112242349D01*
X136900000Y-111179605D01*
X135837256Y-112242349D01*
X124170704Y-112242349D01*
X122985016Y-111056661D01*
X135107259Y-111056661D01*
X135152760Y-111405319D01*
X135265406Y-111738400D01*
X135377910Y-111948882D01*
X135657651Y-112062744D01*
X136720395Y-111000000D01*
X137079605Y-111000000D01*
X138142349Y-112062744D01*
X138422090Y-111948882D01*
X138577961Y-111633704D01*
X138669349Y-111294174D01*
X138692741Y-110943339D01*
X138647240Y-110594681D01*
X138534594Y-110261600D01*
X138422090Y-110051118D01*
X138142349Y-109937256D01*
X137079605Y-111000000D01*
X136720395Y-111000000D01*
X135657651Y-109937256D01*
X135377910Y-110051118D01*
X135222039Y-110366296D01*
X135130651Y-110705826D01*
X135107259Y-111056661D01*
X122985016Y-111056661D01*
X121999261Y-110070906D01*
X121967633Y-110032367D01*
X121813840Y-109906153D01*
X121638380Y-109812368D01*
X121458003Y-109757651D01*
X135837256Y-109757651D01*
X136900000Y-110820395D01*
X137962744Y-109757651D01*
X137848882Y-109477910D01*
X137533704Y-109322039D01*
X137194174Y-109230651D01*
X136843339Y-109207259D01*
X136494681Y-109252760D01*
X136161600Y-109365406D01*
X135951118Y-109477910D01*
X135837256Y-109757651D01*
X121458003Y-109757651D01*
X121447994Y-109754615D01*
X121299608Y-109740000D01*
X121250000Y-109735114D01*
X121200392Y-109740000D01*
X104260000Y-109740000D01*
X104260000Y-103987500D01*
X108411928Y-103987500D01*
X108424188Y-104111982D01*
X108460498Y-104231680D01*
X108519463Y-104341994D01*
X108598815Y-104438685D01*
X108676564Y-104502492D01*
X108670208Y-104507708D01*
X108560542Y-104641336D01*
X108479053Y-104793791D01*
X108428872Y-104959215D01*
X108411928Y-105131250D01*
X108411928Y-105618750D01*
X108428872Y-105790785D01*
X108479053Y-105956209D01*
X108560542Y-106108664D01*
X108670208Y-106242292D01*
X108803836Y-106351958D01*
X108956291Y-106433447D01*
X109121715Y-106483628D01*
X109293750Y-106500572D01*
X110206250Y-106500572D01*
X110378285Y-106483628D01*
X110543709Y-106433447D01*
X110696164Y-106351958D01*
X110829792Y-106242292D01*
X110939458Y-106108664D01*
X111020947Y-105956209D01*
X111071128Y-105790785D01*
X111088072Y-105618750D01*
X111088072Y-105147085D01*
X112277816Y-103957342D01*
X112307764Y-103932764D01*
X112405862Y-103813233D01*
X112478754Y-103676860D01*
X112523641Y-103528887D01*
X112535000Y-103413561D01*
X112535000Y-103413554D01*
X112538797Y-103375001D01*
X112535000Y-103336448D01*
X112535000Y-102887500D01*
X113411928Y-102887500D01*
X113415000Y-103089250D01*
X113573750Y-103248000D01*
X114623000Y-103248000D01*
X114623000Y-102411250D01*
X114464250Y-102252500D01*
X114050000Y-102249428D01*
X113925518Y-102261688D01*
X113805820Y-102297998D01*
X113695506Y-102356963D01*
X113598815Y-102436315D01*
X113519463Y-102533006D01*
X113460498Y-102643320D01*
X113424188Y-102763018D01*
X113411928Y-102887500D01*
X112535000Y-102887500D01*
X112535000Y-102825157D01*
X113325158Y-102035000D01*
X117354843Y-102035000D01*
X116222190Y-103167653D01*
X116192236Y-103192236D01*
X116094138Y-103311768D01*
X116085000Y-103328864D01*
X116085000Y-103247998D01*
X115926252Y-103247998D01*
X116085000Y-103089250D01*
X116088072Y-102887500D01*
X116075812Y-102763018D01*
X116039502Y-102643320D01*
X115980537Y-102533006D01*
X115901185Y-102436315D01*
X115804494Y-102356963D01*
X115694180Y-102297998D01*
X115574482Y-102261688D01*
X115450000Y-102249428D01*
X115035750Y-102252500D01*
X114877000Y-102411250D01*
X114877000Y-103248000D01*
X114897000Y-103248000D01*
X114897000Y-103502000D01*
X114877000Y-103502000D01*
X114877000Y-103522000D01*
X114623000Y-103522000D01*
X114623000Y-103502000D01*
X113573750Y-103502000D01*
X113415000Y-103660750D01*
X113411928Y-103862500D01*
X113424188Y-103986982D01*
X113460498Y-104106680D01*
X113519463Y-104216994D01*
X113598815Y-104313685D01*
X113676564Y-104377492D01*
X113670208Y-104382708D01*
X113560542Y-104516336D01*
X113479053Y-104668791D01*
X113428872Y-104834215D01*
X113411928Y-105006250D01*
X113411928Y-105493750D01*
X113428872Y-105665785D01*
X113479053Y-105831209D01*
X113560542Y-105983664D01*
X113670208Y-106117292D01*
X113803836Y-106226958D01*
X113956291Y-106308447D01*
X114121715Y-106358628D01*
X114293750Y-106375572D01*
X115206250Y-106375572D01*
X115378285Y-106358628D01*
X115543709Y-106308447D01*
X115696164Y-106226958D01*
X115829792Y-106117292D01*
X115897328Y-106035000D01*
X115961447Y-106035000D01*
X116000000Y-106038797D01*
X116038553Y-106035000D01*
X116038561Y-106035000D01*
X116153887Y-106023641D01*
X116301860Y-105978754D01*
X116438233Y-105905862D01*
X116557764Y-105807764D01*
X116582347Y-105777811D01*
X117277815Y-105082343D01*
X117307764Y-105057764D01*
X117405862Y-104938233D01*
X117478754Y-104801860D01*
X117494845Y-104748815D01*
X117523641Y-104653888D01*
X117527637Y-104613312D01*
X117535000Y-104538561D01*
X117535000Y-104538554D01*
X117538797Y-104500001D01*
X117535000Y-104461448D01*
X117535000Y-104075157D01*
X118467954Y-103142204D01*
X118573750Y-103248000D01*
X119623000Y-103248000D01*
X119623000Y-103228000D01*
X119877000Y-103228000D01*
X119877000Y-103248000D01*
X120926250Y-103248000D01*
X121085000Y-103089250D01*
X121088072Y-102887500D01*
X121077977Y-102785000D01*
X123422023Y-102785000D01*
X123411928Y-102887500D01*
X123415000Y-103089250D01*
X123573750Y-103248000D01*
X124623000Y-103248000D01*
X124623000Y-103228000D01*
X124877000Y-103228000D01*
X124877000Y-103248000D01*
X125926250Y-103248000D01*
X126085000Y-103089250D01*
X126088072Y-102887500D01*
X126077977Y-102785000D01*
X127211447Y-102785000D01*
X127250000Y-102788797D01*
X127288553Y-102785000D01*
X127288561Y-102785000D01*
X127403887Y-102773641D01*
X127551860Y-102728754D01*
X127688233Y-102655862D01*
X127807764Y-102557764D01*
X127832347Y-102527810D01*
X128465721Y-101894436D01*
X128465000Y-101898061D01*
X128465000Y-102101939D01*
X128504774Y-102301898D01*
X128582795Y-102490256D01*
X128696063Y-102659774D01*
X128840226Y-102803937D01*
X129009744Y-102917205D01*
X129198102Y-102995226D01*
X129398061Y-103035000D01*
X129601939Y-103035000D01*
X129801898Y-102995226D01*
X129990256Y-102917205D01*
X130159774Y-102803937D01*
X130303937Y-102659774D01*
X130417205Y-102490256D01*
X130495226Y-102301898D01*
X130535000Y-102101939D01*
X130535000Y-102075158D01*
X130777816Y-101832341D01*
X130807764Y-101807764D01*
X130905862Y-101688233D01*
X130978754Y-101551860D01*
X130982503Y-101539502D01*
X131023641Y-101403888D01*
X131031401Y-101325099D01*
X131035000Y-101288561D01*
X131035000Y-101288554D01*
X131038797Y-101250001D01*
X131035000Y-101211448D01*
X131035000Y-100927666D01*
X131198102Y-100995226D01*
X131398061Y-101035000D01*
X131601939Y-101035000D01*
X131801898Y-100995226D01*
X131990256Y-100917205D01*
X132159774Y-100803937D01*
X132303937Y-100659774D01*
X132417205Y-100490256D01*
X132495226Y-100301898D01*
X132535000Y-100101939D01*
X132535000Y-100075157D01*
X133527816Y-99082342D01*
X133557764Y-99057764D01*
X133587734Y-99021247D01*
X133607144Y-98997595D01*
X133623255Y-98996008D01*
X133789851Y-98945472D01*
X133943387Y-98863405D01*
X134077962Y-98752962D01*
X134188405Y-98618387D01*
X134270472Y-98464851D01*
X134321008Y-98298255D01*
X134338072Y-98125001D01*
X134338072Y-97474999D01*
X134321008Y-97301745D01*
X134270472Y-97135149D01*
X134188405Y-96981613D01*
X134077962Y-96847038D01*
X133990184Y-96775000D01*
X134077962Y-96702962D01*
X134188405Y-96568387D01*
X134270472Y-96414851D01*
X134321008Y-96248255D01*
X134338072Y-96075001D01*
X134338072Y-95424999D01*
X134321008Y-95251745D01*
X134270472Y-95085149D01*
X134188405Y-94931613D01*
X134077962Y-94797038D01*
X133943387Y-94686595D01*
X133789851Y-94604528D01*
X133623255Y-94553992D01*
X133450001Y-94536928D01*
X133147085Y-94536928D01*
X133039821Y-94429663D01*
X133198102Y-94495226D01*
X133398061Y-94535000D01*
X133601939Y-94535000D01*
X133801898Y-94495226D01*
X133990256Y-94417205D01*
X134159774Y-94303937D01*
X134303937Y-94159774D01*
X134417205Y-93990256D01*
X134495226Y-93801898D01*
X134535000Y-93601939D01*
X134535000Y-93398061D01*
X134495226Y-93198102D01*
X134417205Y-93009744D01*
X134303937Y-92840226D01*
X134159774Y-92696063D01*
X133990256Y-92582795D01*
X133801898Y-92504774D01*
X133601939Y-92465000D01*
X133398061Y-92465000D01*
X133198102Y-92504774D01*
X133009744Y-92582795D01*
X132840226Y-92696063D01*
X132821289Y-92715000D01*
X132265158Y-92715000D01*
X128302347Y-88752190D01*
X128277764Y-88722236D01*
X128158233Y-88624138D01*
X128021860Y-88551246D01*
X128021090Y-88551013D01*
X128087259Y-88427220D01*
X128149300Y-88222697D01*
X128170249Y-88010000D01*
X128149300Y-87797303D01*
X128087259Y-87592780D01*
X127986509Y-87404290D01*
X127962471Y-87375000D01*
X127986509Y-87345710D01*
X128087259Y-87157220D01*
X128149300Y-86952697D01*
X128170249Y-86740000D01*
X128149300Y-86527303D01*
X128087259Y-86322780D01*
X127986509Y-86134290D01*
X127962471Y-86105000D01*
X127986509Y-86075710D01*
X128087259Y-85887220D01*
X128149300Y-85682697D01*
X128170249Y-85470000D01*
X128149300Y-85257303D01*
X128087259Y-85052780D01*
X127986509Y-84864290D01*
X127962471Y-84835000D01*
X127986509Y-84805710D01*
X128087259Y-84617220D01*
X128149300Y-84412697D01*
X128154074Y-84364231D01*
X128215000Y-84425157D01*
X128215001Y-87211437D01*
X128211203Y-87250000D01*
X128226359Y-87403886D01*
X128271246Y-87551859D01*
X128281887Y-87571767D01*
X128344139Y-87688233D01*
X128377394Y-87728754D01*
X128417655Y-87777812D01*
X128417659Y-87777816D01*
X128442237Y-87807764D01*
X128472185Y-87832342D01*
X132667653Y-92027810D01*
X132692236Y-92057764D01*
X132811767Y-92155862D01*
X132922408Y-92215000D01*
X132948140Y-92228754D01*
X133096113Y-92273642D01*
X133171026Y-92281020D01*
X133211439Y-92285000D01*
X133211444Y-92285000D01*
X133250000Y-92288797D01*
X133288556Y-92285000D01*
X136104843Y-92285000D01*
X135222185Y-93167658D01*
X135192237Y-93192236D01*
X135167659Y-93222184D01*
X135167655Y-93222188D01*
X135134690Y-93262356D01*
X135094139Y-93311767D01*
X135056467Y-93382247D01*
X135021246Y-93448141D01*
X134976359Y-93596114D01*
X134961203Y-93750000D01*
X134965001Y-93788562D01*
X134965001Y-94578056D01*
X134960149Y-94579528D01*
X134806613Y-94661595D01*
X134672038Y-94772038D01*
X134561595Y-94906613D01*
X134479528Y-95060149D01*
X134428992Y-95226745D01*
X134411928Y-95399999D01*
X134411928Y-96050001D01*
X134428992Y-96223255D01*
X134479528Y-96389851D01*
X134561595Y-96543387D01*
X134672038Y-96677962D01*
X134759816Y-96750000D01*
X134672038Y-96822038D01*
X134561595Y-96956613D01*
X134479528Y-97110149D01*
X134428992Y-97276745D01*
X134411928Y-97449999D01*
X134411928Y-98100001D01*
X134428992Y-98273255D01*
X134479528Y-98439851D01*
X134561595Y-98593387D01*
X134672038Y-98727962D01*
X134806613Y-98838405D01*
X134960149Y-98920472D01*
X135126745Y-98971008D01*
X135299999Y-98988072D01*
X135746824Y-98988072D01*
X135715000Y-99148061D01*
X135715000Y-99351939D01*
X135754774Y-99551898D01*
X135832795Y-99740256D01*
X135946063Y-99909774D01*
X136090226Y-100053937D01*
X136259744Y-100167205D01*
X136448102Y-100245226D01*
X136648061Y-100285000D01*
X136851939Y-100285000D01*
X137051898Y-100245226D01*
X137240256Y-100167205D01*
X137409774Y-100053937D01*
X137553937Y-99909774D01*
X137667205Y-99740256D01*
X137715000Y-99624869D01*
X137715000Y-100174843D01*
X137174843Y-100715000D01*
X133928711Y-100715000D01*
X133909774Y-100696063D01*
X133740256Y-100582795D01*
X133551898Y-100504774D01*
X133351939Y-100465000D01*
X133148061Y-100465000D01*
X132948102Y-100504774D01*
X132759744Y-100582795D01*
X132590226Y-100696063D01*
X132446063Y-100840226D01*
X132332795Y-101009744D01*
X132254774Y-101198102D01*
X132215000Y-101398061D01*
X132215000Y-101601939D01*
X132254774Y-101801898D01*
X132332795Y-101990256D01*
X132446063Y-102159774D01*
X132590226Y-102303937D01*
X132759744Y-102417205D01*
X132948102Y-102495226D01*
X133148061Y-102535000D01*
X133351939Y-102535000D01*
X133551898Y-102495226D01*
X133740256Y-102417205D01*
X133909774Y-102303937D01*
X133928711Y-102285000D01*
X136311963Y-102285000D01*
X134131963Y-104465000D01*
X125897328Y-104465000D01*
X125829792Y-104382708D01*
X125823436Y-104377492D01*
X125901185Y-104313685D01*
X125980537Y-104216994D01*
X126039502Y-104106680D01*
X126075812Y-103986982D01*
X126088072Y-103862500D01*
X126085000Y-103660750D01*
X125926250Y-103502000D01*
X124877000Y-103502000D01*
X124877000Y-103522000D01*
X124623000Y-103522000D01*
X124623000Y-103502000D01*
X123573750Y-103502000D01*
X123415000Y-103660750D01*
X123411928Y-103862500D01*
X123424188Y-103986982D01*
X123460498Y-104106680D01*
X123519463Y-104216994D01*
X123598815Y-104313685D01*
X123676564Y-104377492D01*
X123670208Y-104382708D01*
X123560542Y-104516336D01*
X123479053Y-104668791D01*
X123428872Y-104834215D01*
X123411928Y-105006250D01*
X123411928Y-105465000D01*
X122075157Y-105465000D01*
X121332345Y-104722188D01*
X121307764Y-104692236D01*
X121188233Y-104594138D01*
X121051860Y-104521246D01*
X120907565Y-104477475D01*
X120829792Y-104382708D01*
X120823436Y-104377492D01*
X120901185Y-104313685D01*
X120980537Y-104216994D01*
X121039502Y-104106680D01*
X121075812Y-103986982D01*
X121088072Y-103862500D01*
X121085000Y-103660750D01*
X120926250Y-103502000D01*
X119877000Y-103502000D01*
X119877000Y-103522000D01*
X119623000Y-103522000D01*
X119623000Y-103502000D01*
X118573750Y-103502000D01*
X118415000Y-103660750D01*
X118411928Y-103862500D01*
X118424188Y-103986982D01*
X118460498Y-104106680D01*
X118519463Y-104216994D01*
X118598815Y-104313685D01*
X118676564Y-104377492D01*
X118670208Y-104382708D01*
X118560542Y-104516336D01*
X118479053Y-104668791D01*
X118428872Y-104834215D01*
X118411928Y-105006250D01*
X118411928Y-105493750D01*
X118428872Y-105665785D01*
X118479053Y-105831209D01*
X118560542Y-105983664D01*
X118670208Y-106117292D01*
X118803836Y-106226958D01*
X118956291Y-106308447D01*
X119121715Y-106358628D01*
X119293750Y-106375572D01*
X120206250Y-106375572D01*
X120378285Y-106358628D01*
X120543709Y-106308447D01*
X120644445Y-106254602D01*
X121167653Y-106777810D01*
X121192236Y-106807764D01*
X121311767Y-106905862D01*
X121448140Y-106978754D01*
X121596113Y-107023642D01*
X121671026Y-107031020D01*
X121711439Y-107035000D01*
X121711444Y-107035000D01*
X121750000Y-107038797D01*
X121788556Y-107035000D01*
X134711447Y-107035000D01*
X134750000Y-107038797D01*
X134788553Y-107035000D01*
X134788561Y-107035000D01*
X134903887Y-107023641D01*
X135051860Y-106978754D01*
X135188233Y-106905862D01*
X135307764Y-106807764D01*
X135332347Y-106777810D01*
X135710157Y-106400000D01*
X142086928Y-106400000D01*
X142099188Y-106524482D01*
X142135498Y-106644180D01*
X142194463Y-106754494D01*
X142273815Y-106851185D01*
X142370506Y-106930537D01*
X142480820Y-106989502D01*
X142600518Y-107025812D01*
X142725000Y-107038072D01*
X143314250Y-107035000D01*
X143473000Y-106876250D01*
X143473000Y-105927000D01*
X143727000Y-105927000D01*
X143727000Y-106876250D01*
X143885750Y-107035000D01*
X144475000Y-107038072D01*
X144599482Y-107025812D01*
X144719180Y-106989502D01*
X144829494Y-106930537D01*
X144926185Y-106851185D01*
X145005537Y-106754494D01*
X145064502Y-106644180D01*
X145100812Y-106524482D01*
X145113072Y-106400000D01*
X145110000Y-106085750D01*
X144951250Y-105927000D01*
X143727000Y-105927000D01*
X143473000Y-105927000D01*
X142248750Y-105927000D01*
X142090000Y-106085750D01*
X142086928Y-106400000D01*
X135710157Y-106400000D01*
X140310157Y-101800000D01*
X142084025Y-101800000D01*
X142107870Y-102042102D01*
X142178489Y-102274901D01*
X142293167Y-102489449D01*
X142447498Y-102677502D01*
X142596762Y-102800000D01*
X142447498Y-102922498D01*
X142293167Y-103110551D01*
X142178489Y-103325099D01*
X142107870Y-103557898D01*
X142084025Y-103800000D01*
X142107870Y-104042102D01*
X142178489Y-104274901D01*
X142293167Y-104489449D01*
X142419436Y-104643309D01*
X142370506Y-104669463D01*
X142273815Y-104748815D01*
X142194463Y-104845506D01*
X142135498Y-104955820D01*
X142099188Y-105075518D01*
X142086928Y-105200000D01*
X142090000Y-105514250D01*
X142248750Y-105673000D01*
X143473000Y-105673000D01*
X143473000Y-105653000D01*
X143727000Y-105653000D01*
X143727000Y-105673000D01*
X144951250Y-105673000D01*
X145110000Y-105514250D01*
X145113072Y-105200000D01*
X145100812Y-105075518D01*
X145064502Y-104955820D01*
X145005537Y-104845506D01*
X144926185Y-104748815D01*
X144829494Y-104669463D01*
X144780564Y-104643309D01*
X144906833Y-104489449D01*
X145021511Y-104274901D01*
X145092130Y-104042102D01*
X145115975Y-103800000D01*
X145092130Y-103557898D01*
X145021511Y-103325099D01*
X144906833Y-103110551D01*
X144752502Y-102922498D01*
X144603238Y-102800000D01*
X144752502Y-102677502D01*
X144906833Y-102489449D01*
X145021511Y-102274901D01*
X145092130Y-102042102D01*
X145115975Y-101800000D01*
X145092130Y-101557898D01*
X145021511Y-101325099D01*
X144906833Y-101110551D01*
X144752502Y-100922498D01*
X144564449Y-100768167D01*
X144349901Y-100653489D01*
X144117102Y-100582870D01*
X143935665Y-100565000D01*
X143264335Y-100565000D01*
X143082898Y-100582870D01*
X142850099Y-100653489D01*
X142635551Y-100768167D01*
X142447498Y-100922498D01*
X142293167Y-101110551D01*
X142178489Y-101325099D01*
X142107870Y-101557898D01*
X142084025Y-101800000D01*
X140310157Y-101800000D01*
X141527812Y-100582345D01*
X141557764Y-100557764D01*
X141655862Y-100438233D01*
X141728754Y-100301860D01*
X141732716Y-100288798D01*
X141773642Y-100153887D01*
X141782714Y-100061768D01*
X141785000Y-100038561D01*
X141785000Y-100038556D01*
X141788797Y-100000000D01*
X141785000Y-99961444D01*
X141785000Y-96450000D01*
X142086928Y-96450000D01*
X142099188Y-96574482D01*
X142135498Y-96694180D01*
X142194463Y-96804494D01*
X142273815Y-96901185D01*
X142370506Y-96980537D01*
X142480820Y-97039502D01*
X142600518Y-97075812D01*
X142725000Y-97088072D01*
X143314250Y-97085000D01*
X143473000Y-96926250D01*
X143473000Y-95977000D01*
X143727000Y-95977000D01*
X143727000Y-96926250D01*
X143885750Y-97085000D01*
X144475000Y-97088072D01*
X144599482Y-97075812D01*
X144719180Y-97039502D01*
X144829494Y-96980537D01*
X144926185Y-96901185D01*
X145005537Y-96804494D01*
X145064502Y-96694180D01*
X145100812Y-96574482D01*
X145113072Y-96450000D01*
X145110000Y-96135750D01*
X144951250Y-95977000D01*
X143727000Y-95977000D01*
X143473000Y-95977000D01*
X142248750Y-95977000D01*
X142090000Y-96135750D01*
X142086928Y-96450000D01*
X141785000Y-96450000D01*
X141785000Y-94288552D01*
X141788797Y-94249999D01*
X141785000Y-94211446D01*
X141785000Y-94211439D01*
X141773641Y-94096113D01*
X141773607Y-94095999D01*
X141756254Y-94038797D01*
X141728754Y-93948140D01*
X141655862Y-93811767D01*
X141587734Y-93728754D01*
X141582345Y-93722187D01*
X141582342Y-93722184D01*
X141557764Y-93692236D01*
X141527817Y-93667659D01*
X140145157Y-92285000D01*
X140924843Y-92285000D01*
X142140424Y-93500581D01*
X142107870Y-93607898D01*
X142084025Y-93850000D01*
X142107870Y-94092102D01*
X142178489Y-94324901D01*
X142293167Y-94539449D01*
X142419436Y-94693309D01*
X142370506Y-94719463D01*
X142273815Y-94798815D01*
X142194463Y-94895506D01*
X142135498Y-95005820D01*
X142099188Y-95125518D01*
X142086928Y-95250000D01*
X142090000Y-95564250D01*
X142248750Y-95723000D01*
X143473000Y-95723000D01*
X143473000Y-95703000D01*
X143727000Y-95703000D01*
X143727000Y-95723000D01*
X144951250Y-95723000D01*
X145110000Y-95564250D01*
X145113072Y-95250000D01*
X145100812Y-95125518D01*
X145064502Y-95005820D01*
X145005537Y-94895506D01*
X144926185Y-94798815D01*
X144829494Y-94719463D01*
X144780564Y-94693309D01*
X144906833Y-94539449D01*
X145021511Y-94324901D01*
X145092130Y-94092102D01*
X145115975Y-93850000D01*
X145092130Y-93607898D01*
X145021511Y-93375099D01*
X144906833Y-93160551D01*
X144752502Y-92972498D01*
X144603238Y-92850000D01*
X144752502Y-92727502D01*
X144906833Y-92539449D01*
X145021511Y-92324901D01*
X145092130Y-92092102D01*
X145115975Y-91850000D01*
X145092130Y-91607898D01*
X145021511Y-91375099D01*
X144906833Y-91160551D01*
X144752502Y-90972498D01*
X144564449Y-90818167D01*
X144349901Y-90703489D01*
X144117102Y-90632870D01*
X143935665Y-90615000D01*
X143264335Y-90615000D01*
X143082898Y-90632870D01*
X143013944Y-90653787D01*
X142332347Y-89972190D01*
X142307764Y-89942236D01*
X142188233Y-89844138D01*
X142051860Y-89771246D01*
X141903887Y-89726359D01*
X141788561Y-89715000D01*
X141788553Y-89715000D01*
X141750000Y-89711203D01*
X141711447Y-89715000D01*
X133575158Y-89715000D01*
X130535000Y-86674843D01*
X130535000Y-84398061D01*
X142715000Y-84398061D01*
X142715000Y-84601939D01*
X142754774Y-84801898D01*
X142832795Y-84990256D01*
X142946063Y-85159774D01*
X143090226Y-85303937D01*
X143259744Y-85417205D01*
X143448102Y-85495226D01*
X143648061Y-85535000D01*
X143851939Y-85535000D01*
X144051898Y-85495226D01*
X144240256Y-85417205D01*
X144409774Y-85303937D01*
X144553937Y-85159774D01*
X144667205Y-84990256D01*
X144745226Y-84801898D01*
X144785000Y-84601939D01*
X144785000Y-84398061D01*
X144745226Y-84198102D01*
X144667205Y-84009744D01*
X144636436Y-83963694D01*
X144705537Y-83879494D01*
X144764502Y-83769180D01*
X144800812Y-83649482D01*
X144813072Y-83525000D01*
X145036928Y-83525000D01*
X145049188Y-83649482D01*
X145085498Y-83769180D01*
X145144463Y-83879494D01*
X145223815Y-83976185D01*
X145320506Y-84055537D01*
X145430820Y-84114502D01*
X145550518Y-84150812D01*
X145675000Y-84163072D01*
X145714250Y-84160000D01*
X145873000Y-84001250D01*
X145873000Y-83127000D01*
X145198750Y-83127000D01*
X145040000Y-83285750D01*
X145036928Y-83525000D01*
X144813072Y-83525000D01*
X144813072Y-82475000D01*
X145036928Y-82475000D01*
X145040000Y-82714250D01*
X145198750Y-82873000D01*
X145873000Y-82873000D01*
X145873000Y-81998750D01*
X145714250Y-81840000D01*
X145675000Y-81836928D01*
X145550518Y-81849188D01*
X145430820Y-81885498D01*
X145320506Y-81944463D01*
X145223815Y-82023815D01*
X145144463Y-82120506D01*
X145085498Y-82230820D01*
X145049188Y-82350518D01*
X145036928Y-82475000D01*
X144813072Y-82475000D01*
X144800812Y-82350518D01*
X144764502Y-82230820D01*
X144705537Y-82120506D01*
X144635000Y-82034556D01*
X144635000Y-79815444D01*
X144705537Y-79729494D01*
X144764502Y-79619180D01*
X144800812Y-79499482D01*
X144813072Y-79375000D01*
X145036928Y-79375000D01*
X145049188Y-79499482D01*
X145085498Y-79619180D01*
X145144463Y-79729494D01*
X145223815Y-79826185D01*
X145320506Y-79905537D01*
X145430820Y-79964502D01*
X145550518Y-80000812D01*
X145675000Y-80013072D01*
X145714250Y-80010000D01*
X145873000Y-79851250D01*
X145873000Y-78977000D01*
X145198750Y-78977000D01*
X145040000Y-79135750D01*
X145036928Y-79375000D01*
X144813072Y-79375000D01*
X144813072Y-78325000D01*
X145036928Y-78325000D01*
X145040000Y-78564250D01*
X145198750Y-78723000D01*
X145873000Y-78723000D01*
X145873000Y-77848750D01*
X145714250Y-77690000D01*
X145675000Y-77686928D01*
X145550518Y-77699188D01*
X145430820Y-77735498D01*
X145320506Y-77794463D01*
X145223815Y-77873815D01*
X145144463Y-77970506D01*
X145085498Y-78080820D01*
X145049188Y-78200518D01*
X145036928Y-78325000D01*
X144813072Y-78325000D01*
X144800812Y-78200518D01*
X144764502Y-78080820D01*
X144705537Y-77970506D01*
X144626185Y-77873815D01*
X144529494Y-77794463D01*
X144419180Y-77735498D01*
X144299482Y-77699188D01*
X144175000Y-77686928D01*
X143525000Y-77686928D01*
X143400518Y-77699188D01*
X143280820Y-77735498D01*
X143170506Y-77794463D01*
X143073815Y-77873815D01*
X142994463Y-77970506D01*
X142935498Y-78080820D01*
X142899188Y-78200518D01*
X142886928Y-78325000D01*
X142886928Y-79375000D01*
X142899188Y-79499482D01*
X142935498Y-79619180D01*
X142994463Y-79729494D01*
X143065001Y-79815445D01*
X143065000Y-82034556D01*
X142994463Y-82120506D01*
X142935498Y-82230820D01*
X142899188Y-82350518D01*
X142886928Y-82475000D01*
X142886928Y-83525000D01*
X142899188Y-83649482D01*
X142935498Y-83769180D01*
X142963926Y-83822363D01*
X142946063Y-83840226D01*
X142832795Y-84009744D01*
X142754774Y-84198102D01*
X142715000Y-84398061D01*
X130535000Y-84398061D01*
X130535000Y-83788555D01*
X130538797Y-83750000D01*
X130535000Y-83711444D01*
X130535000Y-83711439D01*
X130528898Y-83649482D01*
X130523642Y-83596113D01*
X130478754Y-83448140D01*
X130467054Y-83426250D01*
X130405862Y-83311767D01*
X130340283Y-83231860D01*
X130332345Y-83222187D01*
X130332342Y-83222184D01*
X130307764Y-83192236D01*
X130277815Y-83167658D01*
X129285000Y-82174843D01*
X129285000Y-79828552D01*
X129288797Y-79789999D01*
X129285000Y-79751446D01*
X129285000Y-79751439D01*
X129273641Y-79636113D01*
X129268505Y-79619180D01*
X129228754Y-79488140D01*
X129223314Y-79477962D01*
X129155862Y-79351767D01*
X129057764Y-79232236D01*
X129027815Y-79207657D01*
X128412345Y-78592188D01*
X128387764Y-78562236D01*
X128268233Y-78464138D01*
X128131860Y-78391246D01*
X128036438Y-78362300D01*
X128087259Y-78267220D01*
X128149300Y-78062697D01*
X128170249Y-77850000D01*
X128149300Y-77637303D01*
X128087259Y-77432780D01*
X127986509Y-77244290D01*
X127963463Y-77216208D01*
X128052702Y-77077197D01*
X128124408Y-76874001D01*
X127997502Y-76707000D01*
X126157000Y-76707000D01*
X126157000Y-76727000D01*
X125903000Y-76727000D01*
X125903000Y-76707000D01*
X124062498Y-76707000D01*
X123935592Y-76874001D01*
X124007298Y-77077197D01*
X124096537Y-77216208D01*
X124073491Y-77244290D01*
X123972741Y-77432780D01*
X123910700Y-77637303D01*
X123889751Y-77850000D01*
X123910700Y-78062697D01*
X123972741Y-78267220D01*
X124073491Y-78455710D01*
X124097529Y-78485000D01*
X124073491Y-78514290D01*
X123972741Y-78702780D01*
X123910700Y-78907303D01*
X123889751Y-79120000D01*
X123910700Y-79332697D01*
X123972741Y-79537220D01*
X124008970Y-79605000D01*
X123898552Y-79605000D01*
X123859999Y-79601203D01*
X123821446Y-79605000D01*
X123821439Y-79605000D01*
X123706113Y-79616359D01*
X123558140Y-79661246D01*
X123421767Y-79734138D01*
X123370928Y-79775861D01*
X123332187Y-79807655D01*
X123332184Y-79807658D01*
X123302236Y-79832236D01*
X123277658Y-79862184D01*
X120972190Y-82167653D01*
X120942236Y-82192236D01*
X120844138Y-82311768D01*
X120771246Y-82448141D01*
X120742115Y-82544174D01*
X120696063Y-82590226D01*
X120582795Y-82759744D01*
X120504774Y-82948102D01*
X120465000Y-83148061D01*
X120465000Y-83351939D01*
X120504774Y-83551898D01*
X120582795Y-83740256D01*
X120696063Y-83909774D01*
X120840226Y-84053937D01*
X121009744Y-84167205D01*
X121198102Y-84245226D01*
X121398061Y-84285000D01*
X121487489Y-84285000D01*
X121465000Y-84398061D01*
X121465000Y-84601939D01*
X121504774Y-84801898D01*
X121582795Y-84990256D01*
X121696063Y-85159774D01*
X121840226Y-85303937D01*
X122009744Y-85417205D01*
X122198102Y-85495226D01*
X122398061Y-85535000D01*
X122601939Y-85535000D01*
X122801898Y-85495226D01*
X122990256Y-85417205D01*
X123159774Y-85303937D01*
X123303937Y-85159774D01*
X123417205Y-84990256D01*
X123495226Y-84801898D01*
X123535000Y-84601939D01*
X123535000Y-84576446D01*
X123557764Y-84557764D01*
X123655862Y-84438233D01*
X123728754Y-84301860D01*
X123728754Y-84301859D01*
X123773642Y-84153887D01*
X123782714Y-84061768D01*
X123785000Y-84038561D01*
X123785000Y-84038556D01*
X123788797Y-84000000D01*
X123785000Y-83961444D01*
X123785000Y-83215157D01*
X123905926Y-83094231D01*
X123910700Y-83142697D01*
X123972741Y-83347220D01*
X124073491Y-83535710D01*
X124097529Y-83565000D01*
X124073491Y-83594290D01*
X123972741Y-83782780D01*
X123910700Y-83987303D01*
X123889751Y-84200000D01*
X123910700Y-84412697D01*
X123972741Y-84617220D01*
X124073491Y-84805710D01*
X124097529Y-84835000D01*
X124073491Y-84864290D01*
X123972741Y-85052780D01*
X123910700Y-85257303D01*
X123889751Y-85470000D01*
X123910700Y-85682697D01*
X123972741Y-85887220D01*
X124073491Y-86075710D01*
X124097529Y-86105000D01*
X124073491Y-86134290D01*
X123972741Y-86322780D01*
X123910700Y-86527303D01*
X123889751Y-86740000D01*
X123910700Y-86952697D01*
X123972741Y-87157220D01*
X124073491Y-87345710D01*
X124097529Y-87375000D01*
X124073491Y-87404290D01*
X123972741Y-87592780D01*
X123910700Y-87797303D01*
X123889751Y-88010000D01*
X123910700Y-88222697D01*
X123972741Y-88427220D01*
X124073491Y-88615710D01*
X124097529Y-88645000D01*
X124073491Y-88674290D01*
X123972741Y-88862780D01*
X123910700Y-89067303D01*
X123889751Y-89280000D01*
X123910700Y-89492697D01*
X123972741Y-89697220D01*
X124073491Y-89885710D01*
X124097529Y-89915000D01*
X124073491Y-89944290D01*
X123972741Y-90132780D01*
X123910700Y-90337303D01*
X123889751Y-90550000D01*
X123910700Y-90762697D01*
X123972741Y-90967220D01*
X124008970Y-91035000D01*
X122968556Y-91035000D01*
X122930000Y-91031203D01*
X122891444Y-91035000D01*
X122891439Y-91035000D01*
X122852889Y-91038797D01*
X122776113Y-91046358D01*
X122655999Y-91082795D01*
X122628140Y-91091246D01*
X122491767Y-91164138D01*
X122372236Y-91262236D01*
X122347653Y-91292190D01*
X120722185Y-92917658D01*
X120692237Y-92942236D01*
X120667659Y-92972184D01*
X120667655Y-92972188D01*
X120636834Y-93009744D01*
X120594139Y-93061767D01*
X120578881Y-93090313D01*
X120521246Y-93198141D01*
X120476359Y-93346114D01*
X120461203Y-93500000D01*
X120465001Y-93538562D01*
X120465000Y-94571289D01*
X120446063Y-94590226D01*
X120332795Y-94759744D01*
X120254774Y-94948102D01*
X120215000Y-95148061D01*
X120215000Y-95351939D01*
X120254774Y-95551898D01*
X120332795Y-95740256D01*
X120446063Y-95909774D01*
X120590226Y-96053937D01*
X120759744Y-96167205D01*
X120948102Y-96245226D01*
X121148061Y-96285000D01*
X121351939Y-96285000D01*
X121551898Y-96245226D01*
X121740256Y-96167205D01*
X121789035Y-96134612D01*
X121832795Y-96240256D01*
X121946063Y-96409774D01*
X122090226Y-96553937D01*
X122259744Y-96667205D01*
X122448102Y-96745226D01*
X122648061Y-96785000D01*
X122851939Y-96785000D01*
X123051898Y-96745226D01*
X123240256Y-96667205D01*
X123409774Y-96553937D01*
X123553937Y-96409774D01*
X123667205Y-96240256D01*
X123745226Y-96051898D01*
X123785000Y-95851939D01*
X123785000Y-95648061D01*
X123745226Y-95448102D01*
X123667205Y-95259744D01*
X123553937Y-95090226D01*
X123535000Y-95071289D01*
X123535000Y-94075157D01*
X123735158Y-93875000D01*
X123995005Y-93875000D01*
X123942741Y-93972780D01*
X123880700Y-94177303D01*
X123859751Y-94390000D01*
X123880700Y-94602697D01*
X123942741Y-94807220D01*
X124043491Y-94995710D01*
X124067529Y-95025000D01*
X124043491Y-95054290D01*
X123942741Y-95242780D01*
X123880700Y-95447303D01*
X123859751Y-95660000D01*
X123880700Y-95872697D01*
X123942741Y-96077220D01*
X124043491Y-96265710D01*
X124067529Y-96295000D01*
X124043491Y-96324290D01*
X123942741Y-96512780D01*
X123880700Y-96717303D01*
X123859751Y-96930000D01*
X123880700Y-97142697D01*
X123942741Y-97347220D01*
X124043491Y-97535710D01*
X124067529Y-97565000D01*
X124043491Y-97594290D01*
X123942741Y-97782780D01*
X123880700Y-97987303D01*
X123859751Y-98200000D01*
X123880700Y-98412697D01*
X123942741Y-98617220D01*
X124043491Y-98805710D01*
X124067529Y-98835000D01*
X124043491Y-98864290D01*
X123942741Y-99052780D01*
X123880700Y-99257303D01*
X123859751Y-99470000D01*
X123880700Y-99682697D01*
X123942741Y-99887220D01*
X124043491Y-100075710D01*
X124179078Y-100240922D01*
X124344290Y-100376509D01*
X124509845Y-100465000D01*
X113038555Y-100465000D01*
X113000000Y-100461203D01*
X112961444Y-100465000D01*
X112961439Y-100465000D01*
X112921026Y-100468980D01*
X112846113Y-100476358D01*
X112698140Y-100521246D01*
X112561767Y-100594138D01*
X112525152Y-100624188D01*
X112472187Y-100667655D01*
X112472184Y-100667658D01*
X112442236Y-100692236D01*
X112417658Y-100722185D01*
X111222190Y-101917653D01*
X111192236Y-101942236D01*
X111094138Y-102061768D01*
X111021246Y-102198141D01*
X110976359Y-102346114D01*
X110965000Y-102461440D01*
X110965000Y-102461447D01*
X110961203Y-102500000D01*
X110965000Y-102538553D01*
X110965000Y-102639074D01*
X110901185Y-102561315D01*
X110804494Y-102481963D01*
X110694180Y-102422998D01*
X110574482Y-102386688D01*
X110450000Y-102374428D01*
X110035750Y-102377500D01*
X109877000Y-102536250D01*
X109877000Y-103373000D01*
X109897000Y-103373000D01*
X109897000Y-103627000D01*
X109877000Y-103627000D01*
X109877000Y-103647000D01*
X109623000Y-103647000D01*
X109623000Y-103627000D01*
X108573750Y-103627000D01*
X108415000Y-103785750D01*
X108411928Y-103987500D01*
X104260000Y-103987500D01*
X104260000Y-103188072D01*
X104300000Y-103188072D01*
X104473254Y-103171008D01*
X104639850Y-103120472D01*
X104793386Y-103038405D01*
X104824951Y-103012500D01*
X108411928Y-103012500D01*
X108415000Y-103214250D01*
X108573750Y-103373000D01*
X109623000Y-103373000D01*
X109623000Y-102536250D01*
X109464250Y-102377500D01*
X109050000Y-102374428D01*
X108925518Y-102386688D01*
X108805820Y-102422998D01*
X108695506Y-102481963D01*
X108598815Y-102561315D01*
X108519463Y-102658006D01*
X108460498Y-102768320D01*
X108424188Y-102888018D01*
X108411928Y-103012500D01*
X104824951Y-103012500D01*
X104927962Y-102927962D01*
X105038405Y-102793386D01*
X105120472Y-102639850D01*
X105171008Y-102473254D01*
X105188072Y-102300000D01*
X105188072Y-101200000D01*
X105171008Y-101026746D01*
X105120472Y-100860150D01*
X105038405Y-100706614D01*
X104927962Y-100572038D01*
X104793386Y-100461595D01*
X104639850Y-100379528D01*
X104473254Y-100328992D01*
X104300000Y-100311928D01*
X104135000Y-100311928D01*
X104135000Y-98043469D01*
X104139281Y-98000000D01*
X104135000Y-97956531D01*
X104135000Y-97956523D01*
X104122195Y-97826510D01*
X104071589Y-97659687D01*
X103989411Y-97505941D01*
X103878817Y-97371183D01*
X103845045Y-97343467D01*
X103713072Y-97211494D01*
X103713072Y-97049999D01*
X103696008Y-96876745D01*
X103645472Y-96710149D01*
X103563405Y-96556613D01*
X103452962Y-96422038D01*
X103423746Y-96398061D01*
X104465000Y-96398061D01*
X104465000Y-96601939D01*
X104504774Y-96801898D01*
X104582795Y-96990256D01*
X104696063Y-97159774D01*
X104840226Y-97303937D01*
X105009744Y-97417205D01*
X105198102Y-97495226D01*
X105398061Y-97535000D01*
X105601939Y-97535000D01*
X105801898Y-97495226D01*
X105981981Y-97420633D01*
X106043491Y-97535710D01*
X106067529Y-97565000D01*
X106043491Y-97594290D01*
X105942741Y-97782780D01*
X105880700Y-97987303D01*
X105859751Y-98200000D01*
X105880700Y-98412697D01*
X105942741Y-98617220D01*
X106043491Y-98805710D01*
X106067529Y-98835000D01*
X106043491Y-98864290D01*
X105942741Y-99052780D01*
X105880700Y-99257303D01*
X105859751Y-99470000D01*
X105880700Y-99682697D01*
X105942741Y-99887220D01*
X106043491Y-100075710D01*
X106179078Y-100240922D01*
X106344290Y-100376509D01*
X106532780Y-100477259D01*
X106737303Y-100539300D01*
X106896706Y-100555000D01*
X109103294Y-100555000D01*
X109262697Y-100539300D01*
X109467220Y-100477259D01*
X109655710Y-100376509D01*
X109820922Y-100240922D01*
X109956509Y-100075710D01*
X110057259Y-99887220D01*
X110119300Y-99682697D01*
X110140249Y-99470000D01*
X110119300Y-99257303D01*
X110057259Y-99052780D01*
X109956509Y-98864290D01*
X109932471Y-98835000D01*
X109956509Y-98805710D01*
X110057259Y-98617220D01*
X110119300Y-98412697D01*
X110140249Y-98200000D01*
X110119300Y-97987303D01*
X110057259Y-97782780D01*
X109956509Y-97594290D01*
X109932471Y-97565000D01*
X109956509Y-97535710D01*
X110057259Y-97347220D01*
X110119300Y-97142697D01*
X110140249Y-96930000D01*
X110119300Y-96717303D01*
X110057259Y-96512780D01*
X109956509Y-96324290D01*
X109932471Y-96295000D01*
X109956509Y-96265710D01*
X110057259Y-96077220D01*
X110119300Y-95872697D01*
X110140249Y-95660000D01*
X110119300Y-95447303D01*
X110057259Y-95242780D01*
X109956509Y-95054290D01*
X109933463Y-95026208D01*
X110022702Y-94887197D01*
X110094408Y-94684001D01*
X109967502Y-94517000D01*
X108127000Y-94517000D01*
X108127000Y-94537000D01*
X107873000Y-94537000D01*
X107873000Y-94517000D01*
X106032498Y-94517000D01*
X105905592Y-94684001D01*
X105977298Y-94887197D01*
X106013895Y-94944205D01*
X105901767Y-95004138D01*
X105863981Y-95035149D01*
X105812187Y-95077655D01*
X105812184Y-95077658D01*
X105782236Y-95102236D01*
X105757657Y-95132185D01*
X105424842Y-95465000D01*
X105398061Y-95465000D01*
X105198102Y-95504774D01*
X105009744Y-95582795D01*
X104840226Y-95696063D01*
X104696063Y-95840226D01*
X104582795Y-96009744D01*
X104504774Y-96198102D01*
X104465000Y-96398061D01*
X103423746Y-96398061D01*
X103318387Y-96311595D01*
X103164851Y-96229528D01*
X102998255Y-96178992D01*
X102825001Y-96161928D01*
X102174999Y-96161928D01*
X102001745Y-96178992D01*
X101835149Y-96229528D01*
X101681613Y-96311595D01*
X101547038Y-96422038D01*
X101541658Y-96428594D01*
X101476185Y-96348815D01*
X101379494Y-96269463D01*
X101269180Y-96210498D01*
X101149482Y-96174188D01*
X101025000Y-96161928D01*
X100735750Y-96165000D01*
X100577000Y-96323750D01*
X100577000Y-97373000D01*
X100597000Y-97373000D01*
X100597000Y-97627000D01*
X100577000Y-97627000D01*
X100577000Y-98676250D01*
X100735750Y-98835000D01*
X101025000Y-98838072D01*
X101149482Y-98825812D01*
X101269180Y-98789502D01*
X101379494Y-98730537D01*
X101476185Y-98651185D01*
X101541658Y-98571406D01*
X101547038Y-98577962D01*
X101681613Y-98688405D01*
X101835149Y-98770472D01*
X102001745Y-98821008D01*
X102174999Y-98838072D01*
X102365000Y-98838072D01*
X102365001Y-100311928D01*
X102200000Y-100311928D01*
X102026746Y-100328992D01*
X101860150Y-100379528D01*
X101706614Y-100461595D01*
X101572038Y-100572038D01*
X101509031Y-100648813D01*
X101480537Y-100595506D01*
X101401185Y-100498815D01*
X101304494Y-100419463D01*
X101194180Y-100360498D01*
X101074482Y-100324188D01*
X100950000Y-100311928D01*
X99935750Y-100315000D01*
X99777000Y-100473750D01*
X99777000Y-101623000D01*
X99797000Y-101623000D01*
X99797000Y-101877000D01*
X99777000Y-101877000D01*
X99777000Y-103026250D01*
X99935750Y-103185000D01*
X100950000Y-103188072D01*
X101074482Y-103175812D01*
X101194180Y-103139502D01*
X101304494Y-103080537D01*
X101401185Y-103001185D01*
X101480537Y-102904494D01*
X101509031Y-102851187D01*
X101572038Y-102927962D01*
X101706614Y-103038405D01*
X101860150Y-103120472D01*
X102026746Y-103171008D01*
X102200000Y-103188072D01*
X102240001Y-103188072D01*
X102240000Y-110331644D01*
X100581645Y-111990000D01*
X92067138Y-111990000D01*
X92196632Y-111903475D01*
X92340107Y-111760000D01*
X95700392Y-111760000D01*
X95750000Y-111764886D01*
X95947994Y-111745385D01*
X96016902Y-111724482D01*
X96138380Y-111687632D01*
X96313840Y-111593847D01*
X96467633Y-111467633D01*
X96499261Y-111429094D01*
X97679099Y-110249257D01*
X97717633Y-110217633D01*
X97843847Y-110063840D01*
X97937632Y-109888380D01*
X97963420Y-109803368D01*
X97995385Y-109697995D01*
X98014886Y-109500000D01*
X98010000Y-109450392D01*
X98010000Y-103088284D01*
X98105820Y-103139502D01*
X98225518Y-103175812D01*
X98350000Y-103188072D01*
X99364250Y-103185000D01*
X99523000Y-103026250D01*
X99523000Y-101877000D01*
X99503000Y-101877000D01*
X99503000Y-101623000D01*
X99523000Y-101623000D01*
X99523000Y-100473750D01*
X99364250Y-100315000D01*
X98350000Y-100311928D01*
X98225518Y-100324188D01*
X98105820Y-100360498D01*
X98010000Y-100411716D01*
X98010000Y-98200000D01*
X99236928Y-98200000D01*
X99249188Y-98324482D01*
X99285498Y-98444180D01*
X99344463Y-98554494D01*
X99423815Y-98651185D01*
X99520506Y-98730537D01*
X99630820Y-98789502D01*
X99750518Y-98825812D01*
X99875000Y-98838072D01*
X100164250Y-98835000D01*
X100323000Y-98676250D01*
X100323000Y-97627000D01*
X99398750Y-97627000D01*
X99240000Y-97785750D01*
X99236928Y-98200000D01*
X98010000Y-98200000D01*
X98010000Y-96800000D01*
X99236928Y-96800000D01*
X99240000Y-97214250D01*
X99398750Y-97373000D01*
X100323000Y-97373000D01*
X100323000Y-96323750D01*
X100164250Y-96165000D01*
X99875000Y-96161928D01*
X99750518Y-96174188D01*
X99630820Y-96210498D01*
X99520506Y-96269463D01*
X99423815Y-96348815D01*
X99344463Y-96445506D01*
X99285498Y-96555820D01*
X99249188Y-96675518D01*
X99236928Y-96800000D01*
X98010000Y-96800000D01*
X98010000Y-95049604D01*
X98014886Y-94999999D01*
X98009774Y-94948102D01*
X97995385Y-94802006D01*
X97937632Y-94611620D01*
X97843847Y-94436160D01*
X97717633Y-94282367D01*
X97679094Y-94250739D01*
X97016427Y-93588072D01*
X97375001Y-93588072D01*
X97548255Y-93571008D01*
X97714851Y-93520472D01*
X97868387Y-93438405D01*
X98002962Y-93327962D01*
X98113405Y-93193387D01*
X98144614Y-93135000D01*
X98880386Y-93135000D01*
X98911595Y-93193387D01*
X99022038Y-93327962D01*
X99156613Y-93438405D01*
X99310149Y-93520472D01*
X99476745Y-93571008D01*
X99649999Y-93588072D01*
X100300001Y-93588072D01*
X100473255Y-93571008D01*
X100639851Y-93520472D01*
X100793387Y-93438405D01*
X100927962Y-93327962D01*
X100933342Y-93321406D01*
X100998815Y-93401185D01*
X101095506Y-93480537D01*
X101205820Y-93539502D01*
X101325518Y-93575812D01*
X101450000Y-93588072D01*
X101739250Y-93585000D01*
X101898000Y-93426250D01*
X101898000Y-92377000D01*
X102152000Y-92377000D01*
X102152000Y-93426250D01*
X102310750Y-93585000D01*
X102600000Y-93588072D01*
X102724482Y-93575812D01*
X102844180Y-93539502D01*
X102954494Y-93480537D01*
X103051185Y-93401185D01*
X103130537Y-93304494D01*
X103189502Y-93194180D01*
X103225812Y-93074482D01*
X103238072Y-92950000D01*
X103235000Y-92535750D01*
X103076250Y-92377000D01*
X102152000Y-92377000D01*
X101898000Y-92377000D01*
X101878000Y-92377000D01*
X101878000Y-92123000D01*
X101898000Y-92123000D01*
X101898000Y-91073750D01*
X102152000Y-91073750D01*
X102152000Y-92123000D01*
X103076250Y-92123000D01*
X103235000Y-91964250D01*
X103238072Y-91550000D01*
X103225812Y-91425518D01*
X103189502Y-91305820D01*
X103130537Y-91195506D01*
X103051185Y-91098815D01*
X102954494Y-91019463D01*
X102844180Y-90960498D01*
X102724482Y-90924188D01*
X102600000Y-90911928D01*
X102310750Y-90915000D01*
X102152000Y-91073750D01*
X101898000Y-91073750D01*
X101739250Y-90915000D01*
X101450000Y-90911928D01*
X101448036Y-90912121D01*
X102329156Y-90031002D01*
X102403887Y-90023641D01*
X102551860Y-89978754D01*
X102688233Y-89905862D01*
X102807764Y-89807764D01*
X102832347Y-89777810D01*
X103965721Y-88644436D01*
X103965000Y-88648061D01*
X103965000Y-88851939D01*
X104004774Y-89051898D01*
X104082795Y-89240256D01*
X104196063Y-89409774D01*
X104286289Y-89500000D01*
X104196063Y-89590226D01*
X104082795Y-89759744D01*
X104004774Y-89948102D01*
X103965000Y-90148061D01*
X103965000Y-90351939D01*
X104004774Y-90551898D01*
X104082795Y-90740256D01*
X104196063Y-90909774D01*
X104340226Y-91053937D01*
X104446580Y-91125000D01*
X104340226Y-91196063D01*
X104196063Y-91340226D01*
X104082795Y-91509744D01*
X104004774Y-91698102D01*
X103965000Y-91898061D01*
X103965000Y-92101939D01*
X104004774Y-92301898D01*
X104082795Y-92490256D01*
X104196063Y-92659774D01*
X104340226Y-92803937D01*
X104509744Y-92917205D01*
X104698102Y-92995226D01*
X104898061Y-93035000D01*
X105101939Y-93035000D01*
X105301898Y-92995226D01*
X105490256Y-92917205D01*
X105659774Y-92803937D01*
X105803937Y-92659774D01*
X105917205Y-92490256D01*
X105987405Y-92320780D01*
X106043491Y-92425710D01*
X106067529Y-92455000D01*
X106043491Y-92484290D01*
X105942741Y-92672780D01*
X105880700Y-92877303D01*
X105859751Y-93090000D01*
X105880700Y-93302697D01*
X105942741Y-93507220D01*
X106043491Y-93695710D01*
X106077343Y-93736959D01*
X105977298Y-93892803D01*
X105905592Y-94095999D01*
X106032498Y-94263000D01*
X107873000Y-94263000D01*
X107873000Y-94243000D01*
X108127000Y-94243000D01*
X108127000Y-94263000D01*
X109967502Y-94263000D01*
X110094408Y-94095999D01*
X110022702Y-93892803D01*
X109922657Y-93736959D01*
X109956509Y-93695710D01*
X110057259Y-93507220D01*
X110119300Y-93302697D01*
X110140249Y-93090000D01*
X110119300Y-92877303D01*
X110057259Y-92672780D01*
X109956509Y-92484290D01*
X109932471Y-92455000D01*
X109956509Y-92425710D01*
X110057259Y-92237220D01*
X110119300Y-92032697D01*
X110140249Y-91820000D01*
X110119300Y-91607303D01*
X110057259Y-91402780D01*
X109956509Y-91214290D01*
X109932471Y-91185000D01*
X109956509Y-91155710D01*
X110057259Y-90967220D01*
X110119300Y-90762697D01*
X110140249Y-90550000D01*
X110119300Y-90337303D01*
X110057259Y-90132780D01*
X109956509Y-89944290D01*
X109932471Y-89915000D01*
X109956509Y-89885710D01*
X110057259Y-89697220D01*
X110119300Y-89492697D01*
X110140249Y-89280000D01*
X110119300Y-89067303D01*
X110057259Y-88862780D01*
X109956509Y-88674290D01*
X109932471Y-88645000D01*
X109956509Y-88615710D01*
X110057259Y-88427220D01*
X110119300Y-88222697D01*
X110140249Y-88010000D01*
X110119300Y-87797303D01*
X110057259Y-87592780D01*
X109956509Y-87404290D01*
X109932471Y-87375000D01*
X109956509Y-87345710D01*
X110057259Y-87157220D01*
X110119300Y-86952697D01*
X110140249Y-86740000D01*
X110119300Y-86527303D01*
X110057259Y-86322780D01*
X109956509Y-86134290D01*
X109932471Y-86105000D01*
X109956509Y-86075710D01*
X110057259Y-85887220D01*
X110119300Y-85682697D01*
X110140249Y-85470000D01*
X110119300Y-85257303D01*
X110057259Y-85052780D01*
X109956509Y-84864290D01*
X109932471Y-84835000D01*
X109956509Y-84805710D01*
X110057259Y-84617220D01*
X110119300Y-84412697D01*
X110140249Y-84200000D01*
X110119300Y-83987303D01*
X110057259Y-83782780D01*
X109956509Y-83594290D01*
X109932471Y-83565000D01*
X109956509Y-83535710D01*
X110057259Y-83347220D01*
X110119300Y-83142697D01*
X110140249Y-82930000D01*
X110119300Y-82717303D01*
X110057259Y-82512780D01*
X109956509Y-82324290D01*
X109932471Y-82295000D01*
X109956509Y-82265710D01*
X110057259Y-82077220D01*
X110119300Y-81872697D01*
X110140249Y-81660000D01*
X110119300Y-81447303D01*
X110057259Y-81242780D01*
X109956509Y-81054290D01*
X109932471Y-81025000D01*
X109952988Y-81000000D01*
X113461928Y-81000000D01*
X113465000Y-83214250D01*
X113576653Y-83325903D01*
X113566649Y-83372523D01*
X113563587Y-83576377D01*
X113580752Y-83669998D01*
X113465000Y-83785750D01*
X113461928Y-86000000D01*
X113474188Y-86124482D01*
X113510498Y-86244180D01*
X113569463Y-86354494D01*
X113648815Y-86451185D01*
X113745506Y-86530537D01*
X113855820Y-86589502D01*
X113975518Y-86625812D01*
X114100000Y-86638072D01*
X116314250Y-86635000D01*
X116435903Y-86513347D01*
X116482523Y-86523351D01*
X116686377Y-86526413D01*
X116763097Y-86512347D01*
X116885750Y-86635000D01*
X119100000Y-86638072D01*
X119224482Y-86625812D01*
X119344180Y-86589502D01*
X119454494Y-86530537D01*
X119551185Y-86451185D01*
X119630537Y-86354494D01*
X119689502Y-86244180D01*
X119725812Y-86124482D01*
X119738072Y-86000000D01*
X119735000Y-83785750D01*
X119619814Y-83670564D01*
X119633351Y-83607477D01*
X119636413Y-83403623D01*
X119622347Y-83326903D01*
X119735000Y-83214250D01*
X119738072Y-81000000D01*
X119725812Y-80875518D01*
X119689502Y-80755820D01*
X119630537Y-80645506D01*
X119551185Y-80548815D01*
X119454494Y-80469463D01*
X119344180Y-80410498D01*
X119224482Y-80374188D01*
X119100000Y-80361928D01*
X116885750Y-80365000D01*
X116780564Y-80470186D01*
X116717477Y-80456649D01*
X116513623Y-80453587D01*
X116420002Y-80470752D01*
X116314250Y-80365000D01*
X114100000Y-80361928D01*
X113975518Y-80374188D01*
X113855820Y-80410498D01*
X113745506Y-80469463D01*
X113648815Y-80548815D01*
X113569463Y-80645506D01*
X113510498Y-80755820D01*
X113474188Y-80875518D01*
X113461928Y-81000000D01*
X109952988Y-81000000D01*
X109956509Y-80995710D01*
X110057259Y-80807220D01*
X110119300Y-80602697D01*
X110140249Y-80390000D01*
X110119300Y-80177303D01*
X110057259Y-79972780D01*
X110015905Y-79895412D01*
X110033887Y-79893641D01*
X110181860Y-79848754D01*
X110318233Y-79775862D01*
X110437764Y-79677764D01*
X110462347Y-79647810D01*
X111527817Y-78582341D01*
X111557764Y-78557764D01*
X111584654Y-78525000D01*
X111634601Y-78464139D01*
X111655862Y-78438233D01*
X111728754Y-78301860D01*
X111755330Y-78214250D01*
X111773641Y-78153888D01*
X111776856Y-78121246D01*
X111785000Y-78038561D01*
X111785000Y-78038554D01*
X111788797Y-78000001D01*
X111785000Y-77961448D01*
X111785000Y-76285999D01*
X123935592Y-76285999D01*
X124062498Y-76453000D01*
X125903000Y-76453000D01*
X125903000Y-75495000D01*
X126157000Y-75495000D01*
X126157000Y-76453000D01*
X127997502Y-76453000D01*
X128124408Y-76285999D01*
X128059082Y-76100881D01*
X140478724Y-76100881D01*
X140838912Y-76590548D01*
X141502882Y-76950849D01*
X142224385Y-77174694D01*
X142975695Y-77253480D01*
X143727938Y-77184178D01*
X144452208Y-76969452D01*
X145120670Y-76617555D01*
X145161088Y-76590548D01*
X145521276Y-76100881D01*
X143000000Y-73579605D01*
X140478724Y-76100881D01*
X128059082Y-76100881D01*
X128052702Y-76082803D01*
X127937014Y-75902592D01*
X127788391Y-75748413D01*
X127612545Y-75626191D01*
X127416233Y-75540624D01*
X127207000Y-75495000D01*
X126157000Y-75495000D01*
X125903000Y-75495000D01*
X124853000Y-75495000D01*
X124643767Y-75540624D01*
X124447455Y-75626191D01*
X124271609Y-75748413D01*
X124122986Y-75902592D01*
X124007298Y-76082803D01*
X123935592Y-76285999D01*
X111785000Y-76285999D01*
X111785000Y-73788556D01*
X111788797Y-73750000D01*
X111785000Y-73711444D01*
X111785000Y-73711439D01*
X111781020Y-73671026D01*
X111773642Y-73596113D01*
X111728754Y-73448140D01*
X111699161Y-73392775D01*
X111690032Y-73375695D01*
X139146520Y-73375695D01*
X139215822Y-74127938D01*
X139430548Y-74852208D01*
X139782445Y-75520670D01*
X139809452Y-75561088D01*
X140299119Y-75921276D01*
X142820395Y-73400000D01*
X140299119Y-70878724D01*
X139809452Y-71238912D01*
X139449151Y-71902882D01*
X139225306Y-72624385D01*
X139146520Y-73375695D01*
X111690032Y-73375695D01*
X111655862Y-73311767D01*
X111557764Y-73192236D01*
X111527810Y-73167653D01*
X108020157Y-69660000D01*
X142123050Y-69660000D01*
X141547792Y-69830548D01*
G37*
X141547792Y-69830548D02*
X140879330Y-70182445D01*
X140838912Y-70209452D01*
X140478724Y-70699119D01*
X143000000Y-73220395D01*
X143014143Y-73206253D01*
X143193748Y-73385858D01*
X143179605Y-73400000D01*
X145700881Y-75921276D01*
X146190548Y-75561088D01*
X146340000Y-75285675D01*
X146340000Y-77688405D01*
X146325000Y-77686928D01*
X146285750Y-77690000D01*
X146127000Y-77848750D01*
X146127000Y-78723000D01*
X146147000Y-78723000D01*
X146147000Y-78977000D01*
X146127000Y-78977000D01*
X146127000Y-79851250D01*
X146285750Y-80010000D01*
X146325000Y-80013072D01*
X146340000Y-80011595D01*
X146340000Y-81838405D01*
X146325000Y-81836928D01*
X146285750Y-81840000D01*
X146127000Y-81998750D01*
X146127000Y-82873000D01*
X146147000Y-82873000D01*
X146147000Y-83127000D01*
X146127000Y-83127000D01*
X146127000Y-84001250D01*
X146285750Y-84160000D01*
X146325000Y-84163072D01*
X146340000Y-84161595D01*
X146340001Y-123111928D01*
X146217555Y-122879330D01*
X146190548Y-122838912D01*
X145700881Y-122478724D01*
X143179605Y-125000000D01*
X143193748Y-125014143D01*
X143014143Y-125193748D01*
X143000000Y-125179605D01*
X140478724Y-127700881D01*
X140838912Y-128190548D01*
X141114325Y-128340000D01*
X111127000Y-128340000D01*
X111127000Y-114000000D01*
X111124560Y-113975224D01*
X111117333Y-113951399D01*
X111105597Y-113929443D01*
X111089803Y-113910197D01*
X111070557Y-113894403D01*
X111048601Y-113882667D01*
X111024776Y-113875440D01*
X111000000Y-113873000D01*
X101509298Y-113873000D01*
X101563840Y-113843847D01*
X101717633Y-113717633D01*
X101749261Y-113679094D01*
X103668356Y-111760000D01*
X120831645Y-111760000D01*
X135145003Y-126073358D01*
X135115000Y-126224193D01*
X135115000Y-126575807D01*
X135183596Y-126920665D01*
X135318153Y-127245515D01*
X135513500Y-127537871D01*
X135762129Y-127786500D01*
X136054485Y-127981847D01*
X136379335Y-128116404D01*
X136724193Y-128185000D01*
X137075807Y-128185000D01*
X137420665Y-128116404D01*
X137745515Y-127981847D01*
X138037871Y-127786500D01*
X138286500Y-127537871D01*
X138481847Y-127245515D01*
X138616404Y-126920665D01*
X138685000Y-126575807D01*
X138685000Y-126224193D01*
X138616404Y-125879335D01*
X138481847Y-125554485D01*
X138286500Y-125262129D01*
X138037871Y-125013500D01*
X137981293Y-124975695D01*
X139146520Y-124975695D01*
X139215822Y-125727938D01*
X139430548Y-126452208D01*
X139782445Y-127120670D01*
X139809452Y-127161088D01*
X140299119Y-127521276D01*
X142820395Y-125000000D01*
X140299119Y-122478724D01*
X139809452Y-122838912D01*
X139449151Y-123502882D01*
X139225306Y-124224385D01*
X139146520Y-124975695D01*
X137981293Y-124975695D01*
X137745515Y-124818153D01*
X137420665Y-124683596D01*
X137075807Y-124615000D01*
X136724193Y-124615000D01*
X136573358Y-124645003D01*
X134227474Y-122299119D01*
X140478724Y-122299119D01*
X143000000Y-124820395D01*
X145521276Y-122299119D01*
X145161088Y-121809452D01*
X144497118Y-121449151D01*
X143775615Y-121225306D01*
X143024305Y-121146520D01*
X142272062Y-121215822D01*
X141547792Y-121430548D01*
X140879330Y-121782445D01*
X140838912Y-121809452D01*
X140478724Y-122299119D01*
X134227474Y-122299119D01*
X124170704Y-112242349D01*
X135837256Y-112242349D01*
X135951118Y-112522090D01*
X136266296Y-112677961D01*
X136605826Y-112769349D01*
X136956661Y-112792741D01*
X137305319Y-112747240D01*
X137638400Y-112634594D01*
X137848882Y-112522090D01*
X137962744Y-112242349D01*
X136900000Y-111179605D01*
X135837256Y-112242349D01*
X124170704Y-112242349D01*
X122985016Y-111056661D01*
X135107259Y-111056661D01*
X135152760Y-111405319D01*
X135265406Y-111738400D01*
X135377910Y-111948882D01*
X135657651Y-112062744D01*
X136720395Y-111000000D01*
X137079605Y-111000000D01*
X138142349Y-112062744D01*
X138422090Y-111948882D01*
X138577961Y-111633704D01*
X138669349Y-111294174D01*
X138692741Y-110943339D01*
X138647240Y-110594681D01*
X138534594Y-110261600D01*
X138422090Y-110051118D01*
X138142349Y-109937256D01*
X137079605Y-111000000D01*
X136720395Y-111000000D01*
X135657651Y-109937256D01*
X135377910Y-110051118D01*
X135222039Y-110366296D01*
X135130651Y-110705826D01*
X135107259Y-111056661D01*
X122985016Y-111056661D01*
X121999261Y-110070906D01*
X121967633Y-110032367D01*
X121813840Y-109906153D01*
X121638380Y-109812368D01*
X121458003Y-109757651D01*
X135837256Y-109757651D01*
X136900000Y-110820395D01*
X137962744Y-109757651D01*
X137848882Y-109477910D01*
X137533704Y-109322039D01*
X137194174Y-109230651D01*
X136843339Y-109207259D01*
X136494681Y-109252760D01*
X136161600Y-109365406D01*
X135951118Y-109477910D01*
X135837256Y-109757651D01*
X121458003Y-109757651D01*
X121447994Y-109754615D01*
X121299608Y-109740000D01*
X121250000Y-109735114D01*
X121200392Y-109740000D01*
X104260000Y-109740000D01*
X104260000Y-103987500D01*
X108411928Y-103987500D01*
X108424188Y-104111982D01*
X108460498Y-104231680D01*
X108519463Y-104341994D01*
X108598815Y-104438685D01*
X108676564Y-104502492D01*
X108670208Y-104507708D01*
X108560542Y-104641336D01*
X108479053Y-104793791D01*
X108428872Y-104959215D01*
X108411928Y-105131250D01*
X108411928Y-105618750D01*
X108428872Y-105790785D01*
X108479053Y-105956209D01*
X108560542Y-106108664D01*
X108670208Y-106242292D01*
X108803836Y-106351958D01*
X108956291Y-106433447D01*
X109121715Y-106483628D01*
X109293750Y-106500572D01*
X110206250Y-106500572D01*
X110378285Y-106483628D01*
X110543709Y-106433447D01*
X110696164Y-106351958D01*
X110829792Y-106242292D01*
X110939458Y-106108664D01*
X111020947Y-105956209D01*
X111071128Y-105790785D01*
X111088072Y-105618750D01*
X111088072Y-105147085D01*
X112277816Y-103957342D01*
X112307764Y-103932764D01*
X112405862Y-103813233D01*
X112478754Y-103676860D01*
X112523641Y-103528887D01*
X112535000Y-103413561D01*
X112535000Y-103413554D01*
X112538797Y-103375001D01*
X112535000Y-103336448D01*
X112535000Y-102887500D01*
X113411928Y-102887500D01*
X113415000Y-103089250D01*
X113573750Y-103248000D01*
X114623000Y-103248000D01*
X114623000Y-102411250D01*
X114464250Y-102252500D01*
X114050000Y-102249428D01*
X113925518Y-102261688D01*
X113805820Y-102297998D01*
X113695506Y-102356963D01*
X113598815Y-102436315D01*
X113519463Y-102533006D01*
X113460498Y-102643320D01*
X113424188Y-102763018D01*
X113411928Y-102887500D01*
X112535000Y-102887500D01*
X112535000Y-102825157D01*
X113325158Y-102035000D01*
X117354843Y-102035000D01*
X116222190Y-103167653D01*
X116192236Y-103192236D01*
X116094138Y-103311768D01*
X116085000Y-103328864D01*
X116085000Y-103247998D01*
X115926252Y-103247998D01*
X116085000Y-103089250D01*
X116088072Y-102887500D01*
X116075812Y-102763018D01*
X116039502Y-102643320D01*
X115980537Y-102533006D01*
X115901185Y-102436315D01*
X115804494Y-102356963D01*
X115694180Y-102297998D01*
X115574482Y-102261688D01*
X115450000Y-102249428D01*
X115035750Y-102252500D01*
X114877000Y-102411250D01*
X114877000Y-103248000D01*
X114897000Y-103248000D01*
X114897000Y-103502000D01*
X114877000Y-103502000D01*
X114877000Y-103522000D01*
X114623000Y-103522000D01*
X114623000Y-103502000D01*
X113573750Y-103502000D01*
X113415000Y-103660750D01*
X113411928Y-103862500D01*
X113424188Y-103986982D01*
X113460498Y-104106680D01*
X113519463Y-104216994D01*
X113598815Y-104313685D01*
X113676564Y-104377492D01*
X113670208Y-104382708D01*
X113560542Y-104516336D01*
X113479053Y-104668791D01*
X113428872Y-104834215D01*
X113411928Y-105006250D01*
X113411928Y-105493750D01*
X113428872Y-105665785D01*
X113479053Y-105831209D01*
X113560542Y-105983664D01*
X113670208Y-106117292D01*
X113803836Y-106226958D01*
X113956291Y-106308447D01*
X114121715Y-106358628D01*
X114293750Y-106375572D01*
X115206250Y-106375572D01*
X115378285Y-106358628D01*
X115543709Y-106308447D01*
X115696164Y-106226958D01*
X115829792Y-106117292D01*
X115897328Y-106035000D01*
X115961447Y-106035000D01*
X116000000Y-106038797D01*
X116038553Y-106035000D01*
X116038561Y-106035000D01*
X116153887Y-106023641D01*
X116301860Y-105978754D01*
X116438233Y-105905862D01*
X116557764Y-105807764D01*
X116582347Y-105777811D01*
X117277815Y-105082343D01*
X117307764Y-105057764D01*
X117405862Y-104938233D01*
X117478754Y-104801860D01*
X117494845Y-104748815D01*
X117523641Y-104653888D01*
X117527637Y-104613312D01*
X117535000Y-104538561D01*
X117535000Y-104538554D01*
X117538797Y-104500001D01*
X117535000Y-104461448D01*
X117535000Y-104075157D01*
X118467954Y-103142204D01*
X118573750Y-103248000D01*
X119623000Y-103248000D01*
X119623000Y-103228000D01*
X119877000Y-103228000D01*
X119877000Y-103248000D01*
X120926250Y-103248000D01*
X121085000Y-103089250D01*
X121088072Y-102887500D01*
X121077977Y-102785000D01*
X123422023Y-102785000D01*
X123411928Y-102887500D01*
X123415000Y-103089250D01*
X123573750Y-103248000D01*
X124623000Y-103248000D01*
X124623000Y-103228000D01*
X124877000Y-103228000D01*
X124877000Y-103248000D01*
X125926250Y-103248000D01*
X126085000Y-103089250D01*
X126088072Y-102887500D01*
X126077977Y-102785000D01*
X127211447Y-102785000D01*
X127250000Y-102788797D01*
X127288553Y-102785000D01*
X127288561Y-102785000D01*
X127403887Y-102773641D01*
X127551860Y-102728754D01*
X127688233Y-102655862D01*
X127807764Y-102557764D01*
X127832347Y-102527810D01*
X128465721Y-101894436D01*
X128465000Y-101898061D01*
X128465000Y-102101939D01*
X128504774Y-102301898D01*
X128582795Y-102490256D01*
X128696063Y-102659774D01*
X128840226Y-102803937D01*
X129009744Y-102917205D01*
X129198102Y-102995226D01*
X129398061Y-103035000D01*
X129601939Y-103035000D01*
X129801898Y-102995226D01*
X129990256Y-102917205D01*
X130159774Y-102803937D01*
X130303937Y-102659774D01*
X130417205Y-102490256D01*
X130495226Y-102301898D01*
X130535000Y-102101939D01*
X130535000Y-102075158D01*
X130777816Y-101832341D01*
X130807764Y-101807764D01*
X130905862Y-101688233D01*
X130978754Y-101551860D01*
X130982503Y-101539502D01*
X131023641Y-101403888D01*
X131031401Y-101325099D01*
X131035000Y-101288561D01*
X131035000Y-101288554D01*
X131038797Y-101250001D01*
X131035000Y-101211448D01*
X131035000Y-100927666D01*
X131198102Y-100995226D01*
X131398061Y-101035000D01*
X131601939Y-101035000D01*
X131801898Y-100995226D01*
X131990256Y-100917205D01*
X132159774Y-100803937D01*
X132303937Y-100659774D01*
X132417205Y-100490256D01*
X132495226Y-100301898D01*
X132535000Y-100101939D01*
X132535000Y-100075157D01*
X133527816Y-99082342D01*
X133557764Y-99057764D01*
X133587734Y-99021247D01*
X133607144Y-98997595D01*
X133623255Y-98996008D01*
X133789851Y-98945472D01*
X133943387Y-98863405D01*
X134077962Y-98752962D01*
X134188405Y-98618387D01*
X134270472Y-98464851D01*
X134321008Y-98298255D01*
X134338072Y-98125001D01*
X134338072Y-97474999D01*
X134321008Y-97301745D01*
X134270472Y-97135149D01*
X134188405Y-96981613D01*
X134077962Y-96847038D01*
X133990184Y-96775000D01*
X134077962Y-96702962D01*
X134188405Y-96568387D01*
X134270472Y-96414851D01*
X134321008Y-96248255D01*
X134338072Y-96075001D01*
X134338072Y-95424999D01*
X134321008Y-95251745D01*
X134270472Y-95085149D01*
X134188405Y-94931613D01*
X134077962Y-94797038D01*
X133943387Y-94686595D01*
X133789851Y-94604528D01*
X133623255Y-94553992D01*
X133450001Y-94536928D01*
X133147085Y-94536928D01*
X133039821Y-94429663D01*
X133198102Y-94495226D01*
X133398061Y-94535000D01*
X133601939Y-94535000D01*
X133801898Y-94495226D01*
X133990256Y-94417205D01*
X134159774Y-94303937D01*
X134303937Y-94159774D01*
X134417205Y-93990256D01*
X134495226Y-93801898D01*
X134535000Y-93601939D01*
X134535000Y-93398061D01*
X134495226Y-93198102D01*
X134417205Y-93009744D01*
X134303937Y-92840226D01*
X134159774Y-92696063D01*
X133990256Y-92582795D01*
X133801898Y-92504774D01*
X133601939Y-92465000D01*
X133398061Y-92465000D01*
X133198102Y-92504774D01*
X133009744Y-92582795D01*
X132840226Y-92696063D01*
X132821289Y-92715000D01*
X132265158Y-92715000D01*
X128302347Y-88752190D01*
X128277764Y-88722236D01*
X128158233Y-88624138D01*
X128021860Y-88551246D01*
X128021090Y-88551013D01*
X128087259Y-88427220D01*
X128149300Y-88222697D01*
X128170249Y-88010000D01*
X128149300Y-87797303D01*
X128087259Y-87592780D01*
X127986509Y-87404290D01*
X127962471Y-87375000D01*
X127986509Y-87345710D01*
X128087259Y-87157220D01*
X128149300Y-86952697D01*
X128170249Y-86740000D01*
X128149300Y-86527303D01*
X128087259Y-86322780D01*
X127986509Y-86134290D01*
X127962471Y-86105000D01*
X127986509Y-86075710D01*
X128087259Y-85887220D01*
X128149300Y-85682697D01*
X128170249Y-85470000D01*
X128149300Y-85257303D01*
X128087259Y-85052780D01*
X127986509Y-84864290D01*
X127962471Y-84835000D01*
X127986509Y-84805710D01*
X128087259Y-84617220D01*
X128149300Y-84412697D01*
X128154074Y-84364231D01*
X128215000Y-84425157D01*
X128215001Y-87211437D01*
X128211203Y-87250000D01*
X128226359Y-87403886D01*
X128271246Y-87551859D01*
X128281887Y-87571767D01*
X128344139Y-87688233D01*
X128377394Y-87728754D01*
X128417655Y-87777812D01*
X128417659Y-87777816D01*
X128442237Y-87807764D01*
X128472185Y-87832342D01*
X132667653Y-92027810D01*
X132692236Y-92057764D01*
X132811767Y-92155862D01*
X132922408Y-92215000D01*
X132948140Y-92228754D01*
X133096113Y-92273642D01*
X133171026Y-92281020D01*
X133211439Y-92285000D01*
X133211444Y-92285000D01*
X133250000Y-92288797D01*
X133288556Y-92285000D01*
X136104843Y-92285000D01*
X135222185Y-93167658D01*
X135192237Y-93192236D01*
X135167659Y-93222184D01*
X135167655Y-93222188D01*
X135134690Y-93262356D01*
X135094139Y-93311767D01*
X135056467Y-93382247D01*
X135021246Y-93448141D01*
X134976359Y-93596114D01*
X134961203Y-93750000D01*
X134965001Y-93788562D01*
X134965001Y-94578056D01*
X134960149Y-94579528D01*
X134806613Y-94661595D01*
X134672038Y-94772038D01*
X134561595Y-94906613D01*
X134479528Y-95060149D01*
X134428992Y-95226745D01*
X134411928Y-95399999D01*
X134411928Y-96050001D01*
X134428992Y-96223255D01*
X134479528Y-96389851D01*
X134561595Y-96543387D01*
X134672038Y-96677962D01*
X134759816Y-96750000D01*
X134672038Y-96822038D01*
X134561595Y-96956613D01*
X134479528Y-97110149D01*
X134428992Y-97276745D01*
X134411928Y-97449999D01*
X134411928Y-98100001D01*
X134428992Y-98273255D01*
X134479528Y-98439851D01*
X134561595Y-98593387D01*
X134672038Y-98727962D01*
X134806613Y-98838405D01*
X134960149Y-98920472D01*
X135126745Y-98971008D01*
X135299999Y-98988072D01*
X135746824Y-98988072D01*
X135715000Y-99148061D01*
X135715000Y-99351939D01*
X135754774Y-99551898D01*
X135832795Y-99740256D01*
X135946063Y-99909774D01*
X136090226Y-100053937D01*
X136259744Y-100167205D01*
X136448102Y-100245226D01*
X136648061Y-100285000D01*
X136851939Y-100285000D01*
X137051898Y-100245226D01*
X137240256Y-100167205D01*
X137409774Y-100053937D01*
X137553937Y-99909774D01*
X137667205Y-99740256D01*
X137715000Y-99624869D01*
X137715000Y-100174843D01*
X137174843Y-100715000D01*
X133928711Y-100715000D01*
X133909774Y-100696063D01*
X133740256Y-100582795D01*
X133551898Y-100504774D01*
X133351939Y-100465000D01*
X133148061Y-100465000D01*
X132948102Y-100504774D01*
X132759744Y-100582795D01*
X132590226Y-100696063D01*
X132446063Y-100840226D01*
X132332795Y-101009744D01*
X132254774Y-101198102D01*
X132215000Y-101398061D01*
X132215000Y-101601939D01*
X132254774Y-101801898D01*
X132332795Y-101990256D01*
X132446063Y-102159774D01*
X132590226Y-102303937D01*
X132759744Y-102417205D01*
X132948102Y-102495226D01*
X133148061Y-102535000D01*
X133351939Y-102535000D01*
X133551898Y-102495226D01*
X133740256Y-102417205D01*
X133909774Y-102303937D01*
X133928711Y-102285000D01*
X136311963Y-102285000D01*
X134131963Y-104465000D01*
X125897328Y-104465000D01*
X125829792Y-104382708D01*
X125823436Y-104377492D01*
X125901185Y-104313685D01*
X125980537Y-104216994D01*
X126039502Y-104106680D01*
X126075812Y-103986982D01*
X126088072Y-103862500D01*
X126085000Y-103660750D01*
X125926250Y-103502000D01*
X124877000Y-103502000D01*
X124877000Y-103522000D01*
X124623000Y-103522000D01*
X124623000Y-103502000D01*
X123573750Y-103502000D01*
X123415000Y-103660750D01*
X123411928Y-103862500D01*
X123424188Y-103986982D01*
X123460498Y-104106680D01*
X123519463Y-104216994D01*
X123598815Y-104313685D01*
X123676564Y-104377492D01*
X123670208Y-104382708D01*
X123560542Y-104516336D01*
X123479053Y-104668791D01*
X123428872Y-104834215D01*
X123411928Y-105006250D01*
X123411928Y-105465000D01*
X122075157Y-105465000D01*
X121332345Y-104722188D01*
X121307764Y-104692236D01*
X121188233Y-104594138D01*
X121051860Y-104521246D01*
X120907565Y-104477475D01*
X120829792Y-104382708D01*
X120823436Y-104377492D01*
X120901185Y-104313685D01*
X120980537Y-104216994D01*
X121039502Y-104106680D01*
X121075812Y-103986982D01*
X121088072Y-103862500D01*
X121085000Y-103660750D01*
X120926250Y-103502000D01*
X119877000Y-103502000D01*
X119877000Y-103522000D01*
X119623000Y-103522000D01*
X119623000Y-103502000D01*
X118573750Y-103502000D01*
X118415000Y-103660750D01*
X118411928Y-103862500D01*
X118424188Y-103986982D01*
X118460498Y-104106680D01*
X118519463Y-104216994D01*
X118598815Y-104313685D01*
X118676564Y-104377492D01*
X118670208Y-104382708D01*
X118560542Y-104516336D01*
X118479053Y-104668791D01*
X118428872Y-104834215D01*
X118411928Y-105006250D01*
X118411928Y-105493750D01*
X118428872Y-105665785D01*
X118479053Y-105831209D01*
X118560542Y-105983664D01*
X118670208Y-106117292D01*
X118803836Y-106226958D01*
X118956291Y-106308447D01*
X119121715Y-106358628D01*
X119293750Y-106375572D01*
X120206250Y-106375572D01*
X120378285Y-106358628D01*
X120543709Y-106308447D01*
X120644445Y-106254602D01*
X121167653Y-106777810D01*
X121192236Y-106807764D01*
X121311767Y-106905862D01*
X121448140Y-106978754D01*
X121596113Y-107023642D01*
X121671026Y-107031020D01*
X121711439Y-107035000D01*
X121711444Y-107035000D01*
X121750000Y-107038797D01*
X121788556Y-107035000D01*
X134711447Y-107035000D01*
X134750000Y-107038797D01*
X134788553Y-107035000D01*
X134788561Y-107035000D01*
X134903887Y-107023641D01*
X135051860Y-106978754D01*
X135188233Y-106905862D01*
X135307764Y-106807764D01*
X135332347Y-106777810D01*
X135710157Y-106400000D01*
X142086928Y-106400000D01*
X142099188Y-106524482D01*
X142135498Y-106644180D01*
X142194463Y-106754494D01*
X142273815Y-106851185D01*
X142370506Y-106930537D01*
X142480820Y-106989502D01*
X142600518Y-107025812D01*
X142725000Y-107038072D01*
X143314250Y-107035000D01*
X143473000Y-106876250D01*
X143473000Y-105927000D01*
X143727000Y-105927000D01*
X143727000Y-106876250D01*
X143885750Y-107035000D01*
X144475000Y-107038072D01*
X144599482Y-107025812D01*
X144719180Y-106989502D01*
X144829494Y-106930537D01*
X144926185Y-106851185D01*
X145005537Y-106754494D01*
X145064502Y-106644180D01*
X145100812Y-106524482D01*
X145113072Y-106400000D01*
X145110000Y-106085750D01*
X144951250Y-105927000D01*
X143727000Y-105927000D01*
X143473000Y-105927000D01*
X142248750Y-105927000D01*
X142090000Y-106085750D01*
X142086928Y-106400000D01*
X135710157Y-106400000D01*
X140310157Y-101800000D01*
X142084025Y-101800000D01*
X142107870Y-102042102D01*
X142178489Y-102274901D01*
X142293167Y-102489449D01*
X142447498Y-102677502D01*
X142596762Y-102800000D01*
X142447498Y-102922498D01*
X142293167Y-103110551D01*
X142178489Y-103325099D01*
X142107870Y-103557898D01*
X142084025Y-103800000D01*
X142107870Y-104042102D01*
X142178489Y-104274901D01*
X142293167Y-104489449D01*
X142419436Y-104643309D01*
X142370506Y-104669463D01*
X142273815Y-104748815D01*
X142194463Y-104845506D01*
X142135498Y-104955820D01*
X142099188Y-105075518D01*
X142086928Y-105200000D01*
X142090000Y-105514250D01*
X142248750Y-105673000D01*
X143473000Y-105673000D01*
X143473000Y-105653000D01*
X143727000Y-105653000D01*
X143727000Y-105673000D01*
X144951250Y-105673000D01*
X145110000Y-105514250D01*
X145113072Y-105200000D01*
X145100812Y-105075518D01*
X145064502Y-104955820D01*
X145005537Y-104845506D01*
X144926185Y-104748815D01*
X144829494Y-104669463D01*
X144780564Y-104643309D01*
X144906833Y-104489449D01*
X145021511Y-104274901D01*
X145092130Y-104042102D01*
X145115975Y-103800000D01*
X145092130Y-103557898D01*
X145021511Y-103325099D01*
X144906833Y-103110551D01*
X144752502Y-102922498D01*
X144603238Y-102800000D01*
X144752502Y-102677502D01*
X144906833Y-102489449D01*
X145021511Y-102274901D01*
X145092130Y-102042102D01*
X145115975Y-101800000D01*
X145092130Y-101557898D01*
X145021511Y-101325099D01*
X144906833Y-101110551D01*
X144752502Y-100922498D01*
X144564449Y-100768167D01*
X144349901Y-100653489D01*
X144117102Y-100582870D01*
X143935665Y-100565000D01*
X143264335Y-100565000D01*
X143082898Y-100582870D01*
X142850099Y-100653489D01*
X142635551Y-100768167D01*
X142447498Y-100922498D01*
X142293167Y-101110551D01*
X142178489Y-101325099D01*
X142107870Y-101557898D01*
X142084025Y-101800000D01*
X140310157Y-101800000D01*
X141527812Y-100582345D01*
X141557764Y-100557764D01*
X141655862Y-100438233D01*
X141728754Y-100301860D01*
X141732716Y-100288798D01*
X141773642Y-100153887D01*
X141782714Y-100061768D01*
X141785000Y-100038561D01*
X141785000Y-100038556D01*
X141788797Y-100000000D01*
X141785000Y-99961444D01*
X141785000Y-96450000D01*
X142086928Y-96450000D01*
X142099188Y-96574482D01*
X142135498Y-96694180D01*
X142194463Y-96804494D01*
X142273815Y-96901185D01*
X142370506Y-96980537D01*
X142480820Y-97039502D01*
X142600518Y-97075812D01*
X142725000Y-97088072D01*
X143314250Y-97085000D01*
X143473000Y-96926250D01*
X143473000Y-95977000D01*
X143727000Y-95977000D01*
X143727000Y-96926250D01*
X143885750Y-97085000D01*
X144475000Y-97088072D01*
X144599482Y-97075812D01*
X144719180Y-97039502D01*
X144829494Y-96980537D01*
X144926185Y-96901185D01*
X145005537Y-96804494D01*
X145064502Y-96694180D01*
X145100812Y-96574482D01*
X145113072Y-96450000D01*
X145110000Y-96135750D01*
X144951250Y-95977000D01*
X143727000Y-95977000D01*
X143473000Y-95977000D01*
X142248750Y-95977000D01*
X142090000Y-96135750D01*
X142086928Y-96450000D01*
X141785000Y-96450000D01*
X141785000Y-94288552D01*
X141788797Y-94249999D01*
X141785000Y-94211446D01*
X141785000Y-94211439D01*
X141773641Y-94096113D01*
X141773607Y-94095999D01*
X141756254Y-94038797D01*
X141728754Y-93948140D01*
X141655862Y-93811767D01*
X141587734Y-93728754D01*
X141582345Y-93722187D01*
X141582342Y-93722184D01*
X141557764Y-93692236D01*
X141527817Y-93667659D01*
X140145157Y-92285000D01*
X140924843Y-92285000D01*
X142140424Y-93500581D01*
X142107870Y-93607898D01*
X142084025Y-93850000D01*
X142107870Y-94092102D01*
X142178489Y-94324901D01*
X142293167Y-94539449D01*
X142419436Y-94693309D01*
X142370506Y-94719463D01*
X142273815Y-94798815D01*
X142194463Y-94895506D01*
X142135498Y-95005820D01*
X142099188Y-95125518D01*
X142086928Y-95250000D01*
X142090000Y-95564250D01*
X142248750Y-95723000D01*
X143473000Y-95723000D01*
X143473000Y-95703000D01*
X143727000Y-95703000D01*
X143727000Y-95723000D01*
X144951250Y-95723000D01*
X145110000Y-95564250D01*
X145113072Y-95250000D01*
X145100812Y-95125518D01*
X145064502Y-95005820D01*
X145005537Y-94895506D01*
X144926185Y-94798815D01*
X144829494Y-94719463D01*
X144780564Y-94693309D01*
X144906833Y-94539449D01*
X145021511Y-94324901D01*
X145092130Y-94092102D01*
X145115975Y-93850000D01*
X145092130Y-93607898D01*
X145021511Y-93375099D01*
X144906833Y-93160551D01*
X144752502Y-92972498D01*
X144603238Y-92850000D01*
X144752502Y-92727502D01*
X144906833Y-92539449D01*
X145021511Y-92324901D01*
X145092130Y-92092102D01*
X145115975Y-91850000D01*
X145092130Y-91607898D01*
X145021511Y-91375099D01*
X144906833Y-91160551D01*
X144752502Y-90972498D01*
X144564449Y-90818167D01*
X144349901Y-90703489D01*
X144117102Y-90632870D01*
X143935665Y-90615000D01*
X143264335Y-90615000D01*
X143082898Y-90632870D01*
X143013944Y-90653787D01*
X142332347Y-89972190D01*
X142307764Y-89942236D01*
X142188233Y-89844138D01*
X142051860Y-89771246D01*
X141903887Y-89726359D01*
X141788561Y-89715000D01*
X141788553Y-89715000D01*
X141750000Y-89711203D01*
X141711447Y-89715000D01*
X133575158Y-89715000D01*
X130535000Y-86674843D01*
X130535000Y-84398061D01*
X142715000Y-84398061D01*
X142715000Y-84601939D01*
X142754774Y-84801898D01*
X142832795Y-84990256D01*
X142946063Y-85159774D01*
X143090226Y-85303937D01*
X143259744Y-85417205D01*
X143448102Y-85495226D01*
X143648061Y-85535000D01*
X143851939Y-85535000D01*
X144051898Y-85495226D01*
X144240256Y-85417205D01*
X144409774Y-85303937D01*
X144553937Y-85159774D01*
X144667205Y-84990256D01*
X144745226Y-84801898D01*
X144785000Y-84601939D01*
X144785000Y-84398061D01*
X144745226Y-84198102D01*
X144667205Y-84009744D01*
X144636436Y-83963694D01*
X144705537Y-83879494D01*
X144764502Y-83769180D01*
X144800812Y-83649482D01*
X144813072Y-83525000D01*
X145036928Y-83525000D01*
X145049188Y-83649482D01*
X145085498Y-83769180D01*
X145144463Y-83879494D01*
X145223815Y-83976185D01*
X145320506Y-84055537D01*
X145430820Y-84114502D01*
X145550518Y-84150812D01*
X145675000Y-84163072D01*
X145714250Y-84160000D01*
X145873000Y-84001250D01*
X145873000Y-83127000D01*
X145198750Y-83127000D01*
X145040000Y-83285750D01*
X145036928Y-83525000D01*
X144813072Y-83525000D01*
X144813072Y-82475000D01*
X145036928Y-82475000D01*
X145040000Y-82714250D01*
X145198750Y-82873000D01*
X145873000Y-82873000D01*
X145873000Y-81998750D01*
X145714250Y-81840000D01*
X145675000Y-81836928D01*
X145550518Y-81849188D01*
X145430820Y-81885498D01*
X145320506Y-81944463D01*
X145223815Y-82023815D01*
X145144463Y-82120506D01*
X145085498Y-82230820D01*
X145049188Y-82350518D01*
X145036928Y-82475000D01*
X144813072Y-82475000D01*
X144800812Y-82350518D01*
X144764502Y-82230820D01*
X144705537Y-82120506D01*
X144635000Y-82034556D01*
X144635000Y-79815444D01*
X144705537Y-79729494D01*
X144764502Y-79619180D01*
X144800812Y-79499482D01*
X144813072Y-79375000D01*
X145036928Y-79375000D01*
X145049188Y-79499482D01*
X145085498Y-79619180D01*
X145144463Y-79729494D01*
X145223815Y-79826185D01*
X145320506Y-79905537D01*
X145430820Y-79964502D01*
X145550518Y-80000812D01*
X145675000Y-80013072D01*
X145714250Y-80010000D01*
X145873000Y-79851250D01*
X145873000Y-78977000D01*
X145198750Y-78977000D01*
X145040000Y-79135750D01*
X145036928Y-79375000D01*
X144813072Y-79375000D01*
X144813072Y-78325000D01*
X145036928Y-78325000D01*
X145040000Y-78564250D01*
X145198750Y-78723000D01*
X145873000Y-78723000D01*
X145873000Y-77848750D01*
X145714250Y-77690000D01*
X145675000Y-77686928D01*
X145550518Y-77699188D01*
X145430820Y-77735498D01*
X145320506Y-77794463D01*
X145223815Y-77873815D01*
X145144463Y-77970506D01*
X145085498Y-78080820D01*
X145049188Y-78200518D01*
X145036928Y-78325000D01*
X144813072Y-78325000D01*
X144800812Y-78200518D01*
X144764502Y-78080820D01*
X144705537Y-77970506D01*
X144626185Y-77873815D01*
X144529494Y-77794463D01*
X144419180Y-77735498D01*
X144299482Y-77699188D01*
X144175000Y-77686928D01*
X143525000Y-77686928D01*
X143400518Y-77699188D01*
X143280820Y-77735498D01*
X143170506Y-77794463D01*
X143073815Y-77873815D01*
X142994463Y-77970506D01*
X142935498Y-78080820D01*
X142899188Y-78200518D01*
X142886928Y-78325000D01*
X142886928Y-79375000D01*
X142899188Y-79499482D01*
X142935498Y-79619180D01*
X142994463Y-79729494D01*
X143065001Y-79815445D01*
X143065000Y-82034556D01*
X142994463Y-82120506D01*
X142935498Y-82230820D01*
X142899188Y-82350518D01*
X142886928Y-82475000D01*
X142886928Y-83525000D01*
X142899188Y-83649482D01*
X142935498Y-83769180D01*
X142963926Y-83822363D01*
X142946063Y-83840226D01*
X142832795Y-84009744D01*
X142754774Y-84198102D01*
X142715000Y-84398061D01*
X130535000Y-84398061D01*
X130535000Y-83788555D01*
X130538797Y-83750000D01*
X130535000Y-83711444D01*
X130535000Y-83711439D01*
X130528898Y-83649482D01*
X130523642Y-83596113D01*
X130478754Y-83448140D01*
X130467054Y-83426250D01*
X130405862Y-83311767D01*
X130340283Y-83231860D01*
X130332345Y-83222187D01*
X130332342Y-83222184D01*
X130307764Y-83192236D01*
X130277815Y-83167658D01*
X129285000Y-82174843D01*
X129285000Y-79828552D01*
X129288797Y-79789999D01*
X129285000Y-79751446D01*
X129285000Y-79751439D01*
X129273641Y-79636113D01*
X129268505Y-79619180D01*
X129228754Y-79488140D01*
X129223314Y-79477962D01*
X129155862Y-79351767D01*
X129057764Y-79232236D01*
X129027815Y-79207657D01*
X128412345Y-78592188D01*
X128387764Y-78562236D01*
X128268233Y-78464138D01*
X128131860Y-78391246D01*
X128036438Y-78362300D01*
X128087259Y-78267220D01*
X128149300Y-78062697D01*
X128170249Y-77850000D01*
X128149300Y-77637303D01*
X128087259Y-77432780D01*
X127986509Y-77244290D01*
X127963463Y-77216208D01*
X128052702Y-77077197D01*
X128124408Y-76874001D01*
X127997502Y-76707000D01*
X126157000Y-76707000D01*
X126157000Y-76727000D01*
X125903000Y-76727000D01*
X125903000Y-76707000D01*
X124062498Y-76707000D01*
X123935592Y-76874001D01*
X124007298Y-77077197D01*
X124096537Y-77216208D01*
X124073491Y-77244290D01*
X123972741Y-77432780D01*
X123910700Y-77637303D01*
X123889751Y-77850000D01*
X123910700Y-78062697D01*
X123972741Y-78267220D01*
X124073491Y-78455710D01*
X124097529Y-78485000D01*
X124073491Y-78514290D01*
X123972741Y-78702780D01*
X123910700Y-78907303D01*
X123889751Y-79120000D01*
X123910700Y-79332697D01*
X123972741Y-79537220D01*
X124008970Y-79605000D01*
X123898552Y-79605000D01*
X123859999Y-79601203D01*
X123821446Y-79605000D01*
X123821439Y-79605000D01*
X123706113Y-79616359D01*
X123558140Y-79661246D01*
X123421767Y-79734138D01*
X123370928Y-79775861D01*
X123332187Y-79807655D01*
X123332184Y-79807658D01*
X123302236Y-79832236D01*
X123277658Y-79862184D01*
X120972190Y-82167653D01*
X120942236Y-82192236D01*
X120844138Y-82311768D01*
X120771246Y-82448141D01*
X120742115Y-82544174D01*
X120696063Y-82590226D01*
X120582795Y-82759744D01*
X120504774Y-82948102D01*
X120465000Y-83148061D01*
X120465000Y-83351939D01*
X120504774Y-83551898D01*
X120582795Y-83740256D01*
X120696063Y-83909774D01*
X120840226Y-84053937D01*
X121009744Y-84167205D01*
X121198102Y-84245226D01*
X121398061Y-84285000D01*
X121487489Y-84285000D01*
X121465000Y-84398061D01*
X121465000Y-84601939D01*
X121504774Y-84801898D01*
X121582795Y-84990256D01*
X121696063Y-85159774D01*
X121840226Y-85303937D01*
X122009744Y-85417205D01*
X122198102Y-85495226D01*
X122398061Y-85535000D01*
X122601939Y-85535000D01*
X122801898Y-85495226D01*
X122990256Y-85417205D01*
X123159774Y-85303937D01*
X123303937Y-85159774D01*
X123417205Y-84990256D01*
X123495226Y-84801898D01*
X123535000Y-84601939D01*
X123535000Y-84576446D01*
X123557764Y-84557764D01*
X123655862Y-84438233D01*
X123728754Y-84301860D01*
X123728754Y-84301859D01*
X123773642Y-84153887D01*
X123782714Y-84061768D01*
X123785000Y-84038561D01*
X123785000Y-84038556D01*
X123788797Y-84000000D01*
X123785000Y-83961444D01*
X123785000Y-83215157D01*
X123905926Y-83094231D01*
X123910700Y-83142697D01*
X123972741Y-83347220D01*
X124073491Y-83535710D01*
X124097529Y-83565000D01*
X124073491Y-83594290D01*
X123972741Y-83782780D01*
X123910700Y-83987303D01*
X123889751Y-84200000D01*
X123910700Y-84412697D01*
X123972741Y-84617220D01*
X124073491Y-84805710D01*
X124097529Y-84835000D01*
X124073491Y-84864290D01*
X123972741Y-85052780D01*
X123910700Y-85257303D01*
X123889751Y-85470000D01*
X123910700Y-85682697D01*
X123972741Y-85887220D01*
X124073491Y-86075710D01*
X124097529Y-86105000D01*
X124073491Y-86134290D01*
X123972741Y-86322780D01*
X123910700Y-86527303D01*
X123889751Y-86740000D01*
X123910700Y-86952697D01*
X123972741Y-87157220D01*
X124073491Y-87345710D01*
X124097529Y-87375000D01*
X124073491Y-87404290D01*
X123972741Y-87592780D01*
X123910700Y-87797303D01*
X123889751Y-88010000D01*
X123910700Y-88222697D01*
X123972741Y-88427220D01*
X124073491Y-88615710D01*
X124097529Y-88645000D01*
X124073491Y-88674290D01*
X123972741Y-88862780D01*
X123910700Y-89067303D01*
X123889751Y-89280000D01*
X123910700Y-89492697D01*
X123972741Y-89697220D01*
X124073491Y-89885710D01*
X124097529Y-89915000D01*
X124073491Y-89944290D01*
X123972741Y-90132780D01*
X123910700Y-90337303D01*
X123889751Y-90550000D01*
X123910700Y-90762697D01*
X123972741Y-90967220D01*
X124008970Y-91035000D01*
X122968556Y-91035000D01*
X122930000Y-91031203D01*
X122891444Y-91035000D01*
X122891439Y-91035000D01*
X122852889Y-91038797D01*
X122776113Y-91046358D01*
X122655999Y-91082795D01*
X122628140Y-91091246D01*
X122491767Y-91164138D01*
X122372236Y-91262236D01*
X122347653Y-91292190D01*
X120722185Y-92917658D01*
X120692237Y-92942236D01*
X120667659Y-92972184D01*
X120667655Y-92972188D01*
X120636834Y-93009744D01*
X120594139Y-93061767D01*
X120578881Y-93090313D01*
X120521246Y-93198141D01*
X120476359Y-93346114D01*
X120461203Y-93500000D01*
X120465001Y-93538562D01*
X120465000Y-94571289D01*
X120446063Y-94590226D01*
X120332795Y-94759744D01*
X120254774Y-94948102D01*
X120215000Y-95148061D01*
X120215000Y-95351939D01*
X120254774Y-95551898D01*
X120332795Y-95740256D01*
X120446063Y-95909774D01*
X120590226Y-96053937D01*
X120759744Y-96167205D01*
X120948102Y-96245226D01*
X121148061Y-96285000D01*
X121351939Y-96285000D01*
X121551898Y-96245226D01*
X121740256Y-96167205D01*
X121789035Y-96134612D01*
X121832795Y-96240256D01*
X121946063Y-96409774D01*
X122090226Y-96553937D01*
X122259744Y-96667205D01*
X122448102Y-96745226D01*
X122648061Y-96785000D01*
X122851939Y-96785000D01*
X123051898Y-96745226D01*
X123240256Y-96667205D01*
X123409774Y-96553937D01*
X123553937Y-96409774D01*
X123667205Y-96240256D01*
X123745226Y-96051898D01*
X123785000Y-95851939D01*
X123785000Y-95648061D01*
X123745226Y-95448102D01*
X123667205Y-95259744D01*
X123553937Y-95090226D01*
X123535000Y-95071289D01*
X123535000Y-94075157D01*
X123735158Y-93875000D01*
X123995005Y-93875000D01*
X123942741Y-93972780D01*
X123880700Y-94177303D01*
X123859751Y-94390000D01*
X123880700Y-94602697D01*
X123942741Y-94807220D01*
X124043491Y-94995710D01*
X124067529Y-95025000D01*
X124043491Y-95054290D01*
X123942741Y-95242780D01*
X123880700Y-95447303D01*
X123859751Y-95660000D01*
X123880700Y-95872697D01*
X123942741Y-96077220D01*
X124043491Y-96265710D01*
X124067529Y-96295000D01*
X124043491Y-96324290D01*
X123942741Y-96512780D01*
X123880700Y-96717303D01*
X123859751Y-96930000D01*
X123880700Y-97142697D01*
X123942741Y-97347220D01*
X124043491Y-97535710D01*
X124067529Y-97565000D01*
X124043491Y-97594290D01*
X123942741Y-97782780D01*
X123880700Y-97987303D01*
X123859751Y-98200000D01*
X123880700Y-98412697D01*
X123942741Y-98617220D01*
X124043491Y-98805710D01*
X124067529Y-98835000D01*
X124043491Y-98864290D01*
X123942741Y-99052780D01*
X123880700Y-99257303D01*
X123859751Y-99470000D01*
X123880700Y-99682697D01*
X123942741Y-99887220D01*
X124043491Y-100075710D01*
X124179078Y-100240922D01*
X124344290Y-100376509D01*
X124509845Y-100465000D01*
X113038555Y-100465000D01*
X113000000Y-100461203D01*
X112961444Y-100465000D01*
X112961439Y-100465000D01*
X112921026Y-100468980D01*
X112846113Y-100476358D01*
X112698140Y-100521246D01*
X112561767Y-100594138D01*
X112525152Y-100624188D01*
X112472187Y-100667655D01*
X112472184Y-100667658D01*
X112442236Y-100692236D01*
X112417658Y-100722185D01*
X111222190Y-101917653D01*
X111192236Y-101942236D01*
X111094138Y-102061768D01*
X111021246Y-102198141D01*
X110976359Y-102346114D01*
X110965000Y-102461440D01*
X110965000Y-102461447D01*
X110961203Y-102500000D01*
X110965000Y-102538553D01*
X110965000Y-102639074D01*
X110901185Y-102561315D01*
X110804494Y-102481963D01*
X110694180Y-102422998D01*
X110574482Y-102386688D01*
X110450000Y-102374428D01*
X110035750Y-102377500D01*
X109877000Y-102536250D01*
X109877000Y-103373000D01*
X109897000Y-103373000D01*
X109897000Y-103627000D01*
X109877000Y-103627000D01*
X109877000Y-103647000D01*
X109623000Y-103647000D01*
X109623000Y-103627000D01*
X108573750Y-103627000D01*
X108415000Y-103785750D01*
X108411928Y-103987500D01*
X104260000Y-103987500D01*
X104260000Y-103188072D01*
X104300000Y-103188072D01*
X104473254Y-103171008D01*
X104639850Y-103120472D01*
X104793386Y-103038405D01*
X104824951Y-103012500D01*
X108411928Y-103012500D01*
X108415000Y-103214250D01*
X108573750Y-103373000D01*
X109623000Y-103373000D01*
X109623000Y-102536250D01*
X109464250Y-102377500D01*
X109050000Y-102374428D01*
X108925518Y-102386688D01*
X108805820Y-102422998D01*
X108695506Y-102481963D01*
X108598815Y-102561315D01*
X108519463Y-102658006D01*
X108460498Y-102768320D01*
X108424188Y-102888018D01*
X108411928Y-103012500D01*
X104824951Y-103012500D01*
X104927962Y-102927962D01*
X105038405Y-102793386D01*
X105120472Y-102639850D01*
X105171008Y-102473254D01*
X105188072Y-102300000D01*
X105188072Y-101200000D01*
X105171008Y-101026746D01*
X105120472Y-100860150D01*
X105038405Y-100706614D01*
X104927962Y-100572038D01*
X104793386Y-100461595D01*
X104639850Y-100379528D01*
X104473254Y-100328992D01*
X104300000Y-100311928D01*
X104135000Y-100311928D01*
X104135000Y-98043469D01*
X104139281Y-98000000D01*
X104135000Y-97956531D01*
X104135000Y-97956523D01*
X104122195Y-97826510D01*
X104071589Y-97659687D01*
X103989411Y-97505941D01*
X103878817Y-97371183D01*
X103845045Y-97343467D01*
X103713072Y-97211494D01*
X103713072Y-97049999D01*
X103696008Y-96876745D01*
X103645472Y-96710149D01*
X103563405Y-96556613D01*
X103452962Y-96422038D01*
X103423746Y-96398061D01*
X104465000Y-96398061D01*
X104465000Y-96601939D01*
X104504774Y-96801898D01*
X104582795Y-96990256D01*
X104696063Y-97159774D01*
X104840226Y-97303937D01*
X105009744Y-97417205D01*
X105198102Y-97495226D01*
X105398061Y-97535000D01*
X105601939Y-97535000D01*
X105801898Y-97495226D01*
X105981981Y-97420633D01*
X106043491Y-97535710D01*
X106067529Y-97565000D01*
X106043491Y-97594290D01*
X105942741Y-97782780D01*
X105880700Y-97987303D01*
X105859751Y-98200000D01*
X105880700Y-98412697D01*
X105942741Y-98617220D01*
X106043491Y-98805710D01*
X106067529Y-98835000D01*
X106043491Y-98864290D01*
X105942741Y-99052780D01*
X105880700Y-99257303D01*
X105859751Y-99470000D01*
X105880700Y-99682697D01*
X105942741Y-99887220D01*
X106043491Y-100075710D01*
X106179078Y-100240922D01*
X106344290Y-100376509D01*
X106532780Y-100477259D01*
X106737303Y-100539300D01*
X106896706Y-100555000D01*
X109103294Y-100555000D01*
X109262697Y-100539300D01*
X109467220Y-100477259D01*
X109655710Y-100376509D01*
X109820922Y-100240922D01*
X109956509Y-100075710D01*
X110057259Y-99887220D01*
X110119300Y-99682697D01*
X110140249Y-99470000D01*
X110119300Y-99257303D01*
X110057259Y-99052780D01*
X109956509Y-98864290D01*
X109932471Y-98835000D01*
X109956509Y-98805710D01*
X110057259Y-98617220D01*
X110119300Y-98412697D01*
X110140249Y-98200000D01*
X110119300Y-97987303D01*
X110057259Y-97782780D01*
X109956509Y-97594290D01*
X109932471Y-97565000D01*
X109956509Y-97535710D01*
X110057259Y-97347220D01*
X110119300Y-97142697D01*
X110140249Y-96930000D01*
X110119300Y-96717303D01*
X110057259Y-96512780D01*
X109956509Y-96324290D01*
X109932471Y-96295000D01*
X109956509Y-96265710D01*
X110057259Y-96077220D01*
X110119300Y-95872697D01*
X110140249Y-95660000D01*
X110119300Y-95447303D01*
X110057259Y-95242780D01*
X109956509Y-95054290D01*
X109933463Y-95026208D01*
X110022702Y-94887197D01*
X110094408Y-94684001D01*
X109967502Y-94517000D01*
X108127000Y-94517000D01*
X108127000Y-94537000D01*
X107873000Y-94537000D01*
X107873000Y-94517000D01*
X106032498Y-94517000D01*
X105905592Y-94684001D01*
X105977298Y-94887197D01*
X106013895Y-94944205D01*
X105901767Y-95004138D01*
X105863981Y-95035149D01*
X105812187Y-95077655D01*
X105812184Y-95077658D01*
X105782236Y-95102236D01*
X105757657Y-95132185D01*
X105424842Y-95465000D01*
X105398061Y-95465000D01*
X105198102Y-95504774D01*
X105009744Y-95582795D01*
X104840226Y-95696063D01*
X104696063Y-95840226D01*
X104582795Y-96009744D01*
X104504774Y-96198102D01*
X104465000Y-96398061D01*
X103423746Y-96398061D01*
X103318387Y-96311595D01*
X103164851Y-96229528D01*
X102998255Y-96178992D01*
X102825001Y-96161928D01*
X102174999Y-96161928D01*
X102001745Y-96178992D01*
X101835149Y-96229528D01*
X101681613Y-96311595D01*
X101547038Y-96422038D01*
X101541658Y-96428594D01*
X101476185Y-96348815D01*
X101379494Y-96269463D01*
X101269180Y-96210498D01*
X101149482Y-96174188D01*
X101025000Y-96161928D01*
X100735750Y-96165000D01*
X100577000Y-96323750D01*
X100577000Y-97373000D01*
X100597000Y-97373000D01*
X100597000Y-97627000D01*
X100577000Y-97627000D01*
X100577000Y-98676250D01*
X100735750Y-98835000D01*
X101025000Y-98838072D01*
X101149482Y-98825812D01*
X101269180Y-98789502D01*
X101379494Y-98730537D01*
X101476185Y-98651185D01*
X101541658Y-98571406D01*
X101547038Y-98577962D01*
X101681613Y-98688405D01*
X101835149Y-98770472D01*
X102001745Y-98821008D01*
X102174999Y-98838072D01*
X102365000Y-98838072D01*
X102365001Y-100311928D01*
X102200000Y-100311928D01*
X102026746Y-100328992D01*
X101860150Y-100379528D01*
X101706614Y-100461595D01*
X101572038Y-100572038D01*
X101509031Y-100648813D01*
X101480537Y-100595506D01*
X101401185Y-100498815D01*
X101304494Y-100419463D01*
X101194180Y-100360498D01*
X101074482Y-100324188D01*
X100950000Y-100311928D01*
X99935750Y-100315000D01*
X99777000Y-100473750D01*
X99777000Y-101623000D01*
X99797000Y-101623000D01*
X99797000Y-101877000D01*
X99777000Y-101877000D01*
X99777000Y-103026250D01*
X99935750Y-103185000D01*
X100950000Y-103188072D01*
X101074482Y-103175812D01*
X101194180Y-103139502D01*
X101304494Y-103080537D01*
X101401185Y-103001185D01*
X101480537Y-102904494D01*
X101509031Y-102851187D01*
X101572038Y-102927962D01*
X101706614Y-103038405D01*
X101860150Y-103120472D01*
X102026746Y-103171008D01*
X102200000Y-103188072D01*
X102240001Y-103188072D01*
X102240000Y-110331644D01*
X100581645Y-111990000D01*
X92067138Y-111990000D01*
X92196632Y-111903475D01*
X92340107Y-111760000D01*
X95700392Y-111760000D01*
X95750000Y-111764886D01*
X95947994Y-111745385D01*
X96016902Y-111724482D01*
X96138380Y-111687632D01*
X96313840Y-111593847D01*
X96467633Y-111467633D01*
X96499261Y-111429094D01*
X97679099Y-110249257D01*
X97717633Y-110217633D01*
X97843847Y-110063840D01*
X97937632Y-109888380D01*
X97963420Y-109803368D01*
X97995385Y-109697995D01*
X98014886Y-109500000D01*
X98010000Y-109450392D01*
X98010000Y-103088284D01*
X98105820Y-103139502D01*
X98225518Y-103175812D01*
X98350000Y-103188072D01*
X99364250Y-103185000D01*
X99523000Y-103026250D01*
X99523000Y-101877000D01*
X99503000Y-101877000D01*
X99503000Y-101623000D01*
X99523000Y-101623000D01*
X99523000Y-100473750D01*
X99364250Y-100315000D01*
X98350000Y-100311928D01*
X98225518Y-100324188D01*
X98105820Y-100360498D01*
X98010000Y-100411716D01*
X98010000Y-98200000D01*
X99236928Y-98200000D01*
X99249188Y-98324482D01*
X99285498Y-98444180D01*
X99344463Y-98554494D01*
X99423815Y-98651185D01*
X99520506Y-98730537D01*
X99630820Y-98789502D01*
X99750518Y-98825812D01*
X99875000Y-98838072D01*
X100164250Y-98835000D01*
X100323000Y-98676250D01*
X100323000Y-97627000D01*
X99398750Y-97627000D01*
X99240000Y-97785750D01*
X99236928Y-98200000D01*
X98010000Y-98200000D01*
X98010000Y-96800000D01*
X99236928Y-96800000D01*
X99240000Y-97214250D01*
X99398750Y-97373000D01*
X100323000Y-97373000D01*
X100323000Y-96323750D01*
X100164250Y-96165000D01*
X99875000Y-96161928D01*
X99750518Y-96174188D01*
X99630820Y-96210498D01*
X99520506Y-96269463D01*
X99423815Y-96348815D01*
X99344463Y-96445506D01*
X99285498Y-96555820D01*
X99249188Y-96675518D01*
X99236928Y-96800000D01*
X98010000Y-96800000D01*
X98010000Y-95049604D01*
X98014886Y-94999999D01*
X98009774Y-94948102D01*
X97995385Y-94802006D01*
X97937632Y-94611620D01*
X97843847Y-94436160D01*
X97717633Y-94282367D01*
X97679094Y-94250739D01*
X97016427Y-93588072D01*
X97375001Y-93588072D01*
X97548255Y-93571008D01*
X97714851Y-93520472D01*
X97868387Y-93438405D01*
X98002962Y-93327962D01*
X98113405Y-93193387D01*
X98144614Y-93135000D01*
X98880386Y-93135000D01*
X98911595Y-93193387D01*
X99022038Y-93327962D01*
X99156613Y-93438405D01*
X99310149Y-93520472D01*
X99476745Y-93571008D01*
X99649999Y-93588072D01*
X100300001Y-93588072D01*
X100473255Y-93571008D01*
X100639851Y-93520472D01*
X100793387Y-93438405D01*
X100927962Y-93327962D01*
X100933342Y-93321406D01*
X100998815Y-93401185D01*
X101095506Y-93480537D01*
X101205820Y-93539502D01*
X101325518Y-93575812D01*
X101450000Y-93588072D01*
X101739250Y-93585000D01*
X101898000Y-93426250D01*
X101898000Y-92377000D01*
X102152000Y-92377000D01*
X102152000Y-93426250D01*
X102310750Y-93585000D01*
X102600000Y-93588072D01*
X102724482Y-93575812D01*
X102844180Y-93539502D01*
X102954494Y-93480537D01*
X103051185Y-93401185D01*
X103130537Y-93304494D01*
X103189502Y-93194180D01*
X103225812Y-93074482D01*
X103238072Y-92950000D01*
X103235000Y-92535750D01*
X103076250Y-92377000D01*
X102152000Y-92377000D01*
X101898000Y-92377000D01*
X101878000Y-92377000D01*
X101878000Y-92123000D01*
X101898000Y-92123000D01*
X101898000Y-91073750D01*
X102152000Y-91073750D01*
X102152000Y-92123000D01*
X103076250Y-92123000D01*
X103235000Y-91964250D01*
X103238072Y-91550000D01*
X103225812Y-91425518D01*
X103189502Y-91305820D01*
X103130537Y-91195506D01*
X103051185Y-91098815D01*
X102954494Y-91019463D01*
X102844180Y-90960498D01*
X102724482Y-90924188D01*
X102600000Y-90911928D01*
X102310750Y-90915000D01*
X102152000Y-91073750D01*
X101898000Y-91073750D01*
X101739250Y-90915000D01*
X101450000Y-90911928D01*
X101448036Y-90912121D01*
X102329156Y-90031002D01*
X102403887Y-90023641D01*
X102551860Y-89978754D01*
X102688233Y-89905862D01*
X102807764Y-89807764D01*
X102832347Y-89777810D01*
X103965721Y-88644436D01*
X103965000Y-88648061D01*
X103965000Y-88851939D01*
X104004774Y-89051898D01*
X104082795Y-89240256D01*
X104196063Y-89409774D01*
X104286289Y-89500000D01*
X104196063Y-89590226D01*
X104082795Y-89759744D01*
X104004774Y-89948102D01*
X103965000Y-90148061D01*
X103965000Y-90351939D01*
X104004774Y-90551898D01*
X104082795Y-90740256D01*
X104196063Y-90909774D01*
X104340226Y-91053937D01*
X104446580Y-91125000D01*
X104340226Y-91196063D01*
X104196063Y-91340226D01*
X104082795Y-91509744D01*
X104004774Y-91698102D01*
X103965000Y-91898061D01*
X103965000Y-92101939D01*
X104004774Y-92301898D01*
X104082795Y-92490256D01*
X104196063Y-92659774D01*
X104340226Y-92803937D01*
X104509744Y-92917205D01*
X104698102Y-92995226D01*
X104898061Y-93035000D01*
X105101939Y-93035000D01*
X105301898Y-92995226D01*
X105490256Y-92917205D01*
X105659774Y-92803937D01*
X105803937Y-92659774D01*
X105917205Y-92490256D01*
X105987405Y-92320780D01*
X106043491Y-92425710D01*
X106067529Y-92455000D01*
X106043491Y-92484290D01*
X105942741Y-92672780D01*
X105880700Y-92877303D01*
X105859751Y-93090000D01*
X105880700Y-93302697D01*
X105942741Y-93507220D01*
X106043491Y-93695710D01*
X106077343Y-93736959D01*
X105977298Y-93892803D01*
X105905592Y-94095999D01*
X106032498Y-94263000D01*
X107873000Y-94263000D01*
X107873000Y-94243000D01*
X108127000Y-94243000D01*
X108127000Y-94263000D01*
X109967502Y-94263000D01*
X110094408Y-94095999D01*
X110022702Y-93892803D01*
X109922657Y-93736959D01*
X109956509Y-93695710D01*
X110057259Y-93507220D01*
X110119300Y-93302697D01*
X110140249Y-93090000D01*
X110119300Y-92877303D01*
X110057259Y-92672780D01*
X109956509Y-92484290D01*
X109932471Y-92455000D01*
X109956509Y-92425710D01*
X110057259Y-92237220D01*
X110119300Y-92032697D01*
X110140249Y-91820000D01*
X110119300Y-91607303D01*
X110057259Y-91402780D01*
X109956509Y-91214290D01*
X109932471Y-91185000D01*
X109956509Y-91155710D01*
X110057259Y-90967220D01*
X110119300Y-90762697D01*
X110140249Y-90550000D01*
X110119300Y-90337303D01*
X110057259Y-90132780D01*
X109956509Y-89944290D01*
X109932471Y-89915000D01*
X109956509Y-89885710D01*
X110057259Y-89697220D01*
X110119300Y-89492697D01*
X110140249Y-89280000D01*
X110119300Y-89067303D01*
X110057259Y-88862780D01*
X109956509Y-88674290D01*
X109932471Y-88645000D01*
X109956509Y-88615710D01*
X110057259Y-88427220D01*
X110119300Y-88222697D01*
X110140249Y-88010000D01*
X110119300Y-87797303D01*
X110057259Y-87592780D01*
X109956509Y-87404290D01*
X109932471Y-87375000D01*
X109956509Y-87345710D01*
X110057259Y-87157220D01*
X110119300Y-86952697D01*
X110140249Y-86740000D01*
X110119300Y-86527303D01*
X110057259Y-86322780D01*
X109956509Y-86134290D01*
X109932471Y-86105000D01*
X109956509Y-86075710D01*
X110057259Y-85887220D01*
X110119300Y-85682697D01*
X110140249Y-85470000D01*
X110119300Y-85257303D01*
X110057259Y-85052780D01*
X109956509Y-84864290D01*
X109932471Y-84835000D01*
X109956509Y-84805710D01*
X110057259Y-84617220D01*
X110119300Y-84412697D01*
X110140249Y-84200000D01*
X110119300Y-83987303D01*
X110057259Y-83782780D01*
X109956509Y-83594290D01*
X109932471Y-83565000D01*
X109956509Y-83535710D01*
X110057259Y-83347220D01*
X110119300Y-83142697D01*
X110140249Y-82930000D01*
X110119300Y-82717303D01*
X110057259Y-82512780D01*
X109956509Y-82324290D01*
X109932471Y-82295000D01*
X109956509Y-82265710D01*
X110057259Y-82077220D01*
X110119300Y-81872697D01*
X110140249Y-81660000D01*
X110119300Y-81447303D01*
X110057259Y-81242780D01*
X109956509Y-81054290D01*
X109932471Y-81025000D01*
X109952988Y-81000000D01*
X113461928Y-81000000D01*
X113465000Y-83214250D01*
X113576653Y-83325903D01*
X113566649Y-83372523D01*
X113563587Y-83576377D01*
X113580752Y-83669998D01*
X113465000Y-83785750D01*
X113461928Y-86000000D01*
X113474188Y-86124482D01*
X113510498Y-86244180D01*
X113569463Y-86354494D01*
X113648815Y-86451185D01*
X113745506Y-86530537D01*
X113855820Y-86589502D01*
X113975518Y-86625812D01*
X114100000Y-86638072D01*
X116314250Y-86635000D01*
X116435903Y-86513347D01*
X116482523Y-86523351D01*
X116686377Y-86526413D01*
X116763097Y-86512347D01*
X116885750Y-86635000D01*
X119100000Y-86638072D01*
X119224482Y-86625812D01*
X119344180Y-86589502D01*
X119454494Y-86530537D01*
X119551185Y-86451185D01*
X119630537Y-86354494D01*
X119689502Y-86244180D01*
X119725812Y-86124482D01*
X119738072Y-86000000D01*
X119735000Y-83785750D01*
X119619814Y-83670564D01*
X119633351Y-83607477D01*
X119636413Y-83403623D01*
X119622347Y-83326903D01*
X119735000Y-83214250D01*
X119738072Y-81000000D01*
X119725812Y-80875518D01*
X119689502Y-80755820D01*
X119630537Y-80645506D01*
X119551185Y-80548815D01*
X119454494Y-80469463D01*
X119344180Y-80410498D01*
X119224482Y-80374188D01*
X119100000Y-80361928D01*
X116885750Y-80365000D01*
X116780564Y-80470186D01*
X116717477Y-80456649D01*
X116513623Y-80453587D01*
X116420002Y-80470752D01*
X116314250Y-80365000D01*
X114100000Y-80361928D01*
X113975518Y-80374188D01*
X113855820Y-80410498D01*
X113745506Y-80469463D01*
X113648815Y-80548815D01*
X113569463Y-80645506D01*
X113510498Y-80755820D01*
X113474188Y-80875518D01*
X113461928Y-81000000D01*
X109952988Y-81000000D01*
X109956509Y-80995710D01*
X110057259Y-80807220D01*
X110119300Y-80602697D01*
X110140249Y-80390000D01*
X110119300Y-80177303D01*
X110057259Y-79972780D01*
X110015905Y-79895412D01*
X110033887Y-79893641D01*
X110181860Y-79848754D01*
X110318233Y-79775862D01*
X110437764Y-79677764D01*
X110462347Y-79647810D01*
X111527817Y-78582341D01*
X111557764Y-78557764D01*
X111584654Y-78525000D01*
X111634601Y-78464139D01*
X111655862Y-78438233D01*
X111728754Y-78301860D01*
X111755330Y-78214250D01*
X111773641Y-78153888D01*
X111776856Y-78121246D01*
X111785000Y-78038561D01*
X111785000Y-78038554D01*
X111788797Y-78000001D01*
X111785000Y-77961448D01*
X111785000Y-76285999D01*
X123935592Y-76285999D01*
X124062498Y-76453000D01*
X125903000Y-76453000D01*
X125903000Y-75495000D01*
X126157000Y-75495000D01*
X126157000Y-76453000D01*
X127997502Y-76453000D01*
X128124408Y-76285999D01*
X128059082Y-76100881D01*
X140478724Y-76100881D01*
X140838912Y-76590548D01*
X141502882Y-76950849D01*
X142224385Y-77174694D01*
X142975695Y-77253480D01*
X143727938Y-77184178D01*
X144452208Y-76969452D01*
X145120670Y-76617555D01*
X145161088Y-76590548D01*
X145521276Y-76100881D01*
X143000000Y-73579605D01*
X140478724Y-76100881D01*
X128059082Y-76100881D01*
X128052702Y-76082803D01*
X127937014Y-75902592D01*
X127788391Y-75748413D01*
X127612545Y-75626191D01*
X127416233Y-75540624D01*
X127207000Y-75495000D01*
X126157000Y-75495000D01*
X125903000Y-75495000D01*
X124853000Y-75495000D01*
X124643767Y-75540624D01*
X124447455Y-75626191D01*
X124271609Y-75748413D01*
X124122986Y-75902592D01*
X124007298Y-76082803D01*
X123935592Y-76285999D01*
X111785000Y-76285999D01*
X111785000Y-73788556D01*
X111788797Y-73750000D01*
X111785000Y-73711444D01*
X111785000Y-73711439D01*
X111781020Y-73671026D01*
X111773642Y-73596113D01*
X111728754Y-73448140D01*
X111699161Y-73392775D01*
X111690032Y-73375695D01*
X139146520Y-73375695D01*
X139215822Y-74127938D01*
X139430548Y-74852208D01*
X139782445Y-75520670D01*
X139809452Y-75561088D01*
X140299119Y-75921276D01*
X142820395Y-73400000D01*
X140299119Y-70878724D01*
X139809452Y-71238912D01*
X139449151Y-71902882D01*
X139225306Y-72624385D01*
X139146520Y-73375695D01*
X111690032Y-73375695D01*
X111655862Y-73311767D01*
X111557764Y-73192236D01*
X111527810Y-73167653D01*
X108020157Y-69660000D01*
X142123050Y-69660000D01*
X141547792Y-69830548D01*
G36*
X94911928Y-82950000D02*
G01*
X94924188Y-83074482D01*
X94960498Y-83194180D01*
X95019463Y-83304494D01*
X95098815Y-83401185D01*
X95195506Y-83480537D01*
X95305820Y-83539502D01*
X95425518Y-83575812D01*
X95550000Y-83588072D01*
X97050000Y-83588072D01*
X97174482Y-83575812D01*
X97294180Y-83539502D01*
X97404494Y-83480537D01*
X97450000Y-83443191D01*
X97495506Y-83480537D01*
X97590000Y-83531046D01*
X97590001Y-86611928D01*
X96700000Y-86611928D01*
X96575518Y-86624188D01*
X96455820Y-86660498D01*
X96345506Y-86719463D01*
X96248815Y-86798815D01*
X96169463Y-86895506D01*
X96110498Y-87005820D01*
X96074188Y-87125518D01*
X96061928Y-87250000D01*
X96061928Y-88009716D01*
X94320906Y-89750739D01*
X94282367Y-89782367D01*
X94156153Y-89936160D01*
X94070657Y-90096114D01*
X94062368Y-90111621D01*
X94004615Y-90302006D01*
X93985114Y-90500000D01*
X93990000Y-90549608D01*
X93990000Y-91241538D01*
X93936595Y-91306613D01*
X93854528Y-91460149D01*
X93803992Y-91626745D01*
X93786928Y-91799999D01*
X93786928Y-92700001D01*
X93803992Y-92873255D01*
X93854528Y-93039851D01*
X93936595Y-93193387D01*
X94042283Y-93322168D01*
X94062368Y-93388379D01*
X94156154Y-93563840D01*
X94250180Y-93678411D01*
X94282368Y-93717633D01*
X94320901Y-93749256D01*
X95990000Y-95418355D01*
X95990001Y-109081643D01*
X95331645Y-109740000D01*
X92340107Y-109740000D01*
X92196632Y-109596525D01*
X91953411Y-109434010D01*
X91683158Y-109322068D01*
X91396260Y-109265000D01*
X91103740Y-109265000D01*
X90816842Y-109322068D01*
X90546589Y-109434010D01*
X90303368Y-109596525D01*
X90171513Y-109728380D01*
X90149502Y-109655820D01*
X90090537Y-109545506D01*
X90011185Y-109448815D01*
X89914494Y-109369463D01*
X89804180Y-109310498D01*
X89684482Y-109274188D01*
X89560000Y-109261928D01*
X87860000Y-109261928D01*
X87735518Y-109274188D01*
X87660000Y-109297096D01*
X87660000Y-107571105D01*
X87675518Y-107575812D01*
X87800000Y-107588072D01*
X89500000Y-107588072D01*
X89624482Y-107575812D01*
X89744180Y-107539502D01*
X89854494Y-107480537D01*
X89951185Y-107401185D01*
X90030537Y-107304494D01*
X90089502Y-107194180D01*
X90125812Y-107074482D01*
X90138072Y-106950000D01*
X90138072Y-106835000D01*
X92611928Y-106835000D01*
X92611928Y-106950000D01*
X92624188Y-107074482D01*
X92660498Y-107194180D01*
X92719463Y-107304494D01*
X92798815Y-107401185D01*
X92895506Y-107480537D01*
X93005820Y-107539502D01*
X93125518Y-107575812D01*
X93250000Y-107588072D01*
X94950000Y-107588072D01*
X95074482Y-107575812D01*
X95194180Y-107539502D01*
X95304494Y-107480537D01*
X95401185Y-107401185D01*
X95480537Y-107304494D01*
X95539502Y-107194180D01*
X95575812Y-107074482D01*
X95588072Y-106950000D01*
X95588072Y-104950000D01*
X95575812Y-104825518D01*
X95539502Y-104705820D01*
X95480537Y-104595506D01*
X95401185Y-104498815D01*
X95304494Y-104419463D01*
X95194180Y-104360498D01*
X95074482Y-104324188D01*
X94950000Y-104311928D01*
X93250000Y-104311928D01*
X93125518Y-104324188D01*
X93005820Y-104360498D01*
X92895506Y-104419463D01*
X92798815Y-104498815D01*
X92719463Y-104595506D01*
X92660498Y-104705820D01*
X92624188Y-104825518D01*
X92611928Y-104950000D01*
X92611928Y-105065000D01*
X90138072Y-105065000D01*
X90138072Y-104950000D01*
X90125812Y-104825518D01*
X90089502Y-104705820D01*
X90030537Y-104595506D01*
X89951185Y-104498815D01*
X89854494Y-104419463D01*
X89744180Y-104360498D01*
X89624482Y-104324188D01*
X89535000Y-104315375D01*
X89535000Y-103588212D01*
X90365000Y-103588212D01*
X90365000Y-103811788D01*
X90408617Y-104031067D01*
X90494176Y-104237624D01*
X90618388Y-104423520D01*
X90776480Y-104581612D01*
X90962376Y-104705824D01*
X91168933Y-104791383D01*
X91388212Y-104835000D01*
X91611788Y-104835000D01*
X91831067Y-104791383D01*
X92037624Y-104705824D01*
X92223520Y-104581612D01*
X92381612Y-104423520D01*
X92505824Y-104237624D01*
X92591383Y-104031067D01*
X92635000Y-103811788D01*
X92635000Y-103640379D01*
X92673772Y-103710860D01*
X92754284Y-103806588D01*
X92851924Y-103884770D01*
X92962941Y-103942401D01*
X93083067Y-103977266D01*
X93207688Y-103988026D01*
X93914250Y-103985000D01*
X94073000Y-103826250D01*
X94073000Y-103223000D01*
X94327000Y-103223000D01*
X94327000Y-103826250D01*
X94485750Y-103985000D01*
X95192312Y-103988026D01*
X95316933Y-103977266D01*
X95437059Y-103942401D01*
X95548076Y-103884770D01*
X95645716Y-103806588D01*
X95726228Y-103710860D01*
X95786517Y-103601264D01*
X95824266Y-103482013D01*
X95835000Y-103381750D01*
X95676250Y-103223000D01*
X94327000Y-103223000D01*
X94073000Y-103223000D01*
X92723750Y-103223000D01*
X92587410Y-103359340D01*
X92505824Y-103162376D01*
X92381612Y-102976480D01*
X92223520Y-102818388D01*
X92037624Y-102694176D01*
X91831067Y-102608617D01*
X91611788Y-102565000D01*
X91388212Y-102565000D01*
X91168933Y-102608617D01*
X90962376Y-102694176D01*
X90776480Y-102818388D01*
X90618388Y-102976480D01*
X90494176Y-103162376D01*
X90408617Y-103368933D01*
X90365000Y-103588212D01*
X89535000Y-103588212D01*
X89535000Y-98684625D01*
X89624482Y-98675812D01*
X89744180Y-98639502D01*
X89854494Y-98580537D01*
X89951185Y-98501185D01*
X90030537Y-98404494D01*
X90089502Y-98294180D01*
X90125812Y-98174482D01*
X90138072Y-98050000D01*
X90138072Y-97389650D01*
X91019101Y-98270680D01*
X90962376Y-98294176D01*
X90776480Y-98418388D01*
X90618388Y-98576480D01*
X90494176Y-98762376D01*
X90408617Y-98968933D01*
X90365000Y-99188212D01*
X90365000Y-99411788D01*
X90408617Y-99631067D01*
X90494176Y-99837624D01*
X90618388Y-100023520D01*
X90776480Y-100181612D01*
X90962376Y-100305824D01*
X91168933Y-100391383D01*
X91388212Y-100435000D01*
X91611788Y-100435000D01*
X91831067Y-100391383D01*
X92037624Y-100305824D01*
X92223520Y-100181612D01*
X92328421Y-100076711D01*
X92371183Y-100128817D01*
X92505941Y-100239411D01*
X92574698Y-100276162D01*
X92581929Y-100300000D01*
X92574188Y-100325518D01*
X92561928Y-100450000D01*
X92561928Y-100950000D01*
X92574188Y-101074482D01*
X92581929Y-101100000D01*
X92574188Y-101125518D01*
X92561928Y-101250000D01*
X92561928Y-101750000D01*
X92574188Y-101874482D01*
X92581929Y-101900000D01*
X92574188Y-101925518D01*
X92561928Y-102050000D01*
X92561928Y-102550000D01*
X92574188Y-102674482D01*
X92581684Y-102699192D01*
X92575734Y-102717987D01*
X92565000Y-102818250D01*
X92723750Y-102977000D01*
X92728967Y-102977000D01*
X92748815Y-103001185D01*
X92845506Y-103080537D01*
X92955820Y-103139502D01*
X93075518Y-103175812D01*
X93200000Y-103188072D01*
X95200000Y-103188072D01*
X95324482Y-103175812D01*
X95444180Y-103139502D01*
X95554494Y-103080537D01*
X95651185Y-103001185D01*
X95671033Y-102977000D01*
X95676250Y-102977000D01*
X95835000Y-102818250D01*
X95824266Y-102717987D01*
X95818316Y-102699192D01*
X95825812Y-102674482D01*
X95838072Y-102550000D01*
X95838072Y-102050000D01*
X95825812Y-101925518D01*
X95818071Y-101900000D01*
X95825812Y-101874482D01*
X95838072Y-101750000D01*
X95838072Y-101250000D01*
X95825812Y-101125518D01*
X95818071Y-101100000D01*
X95825812Y-101074482D01*
X95838072Y-100950000D01*
X95838072Y-100450000D01*
X95825812Y-100325518D01*
X95818071Y-100300000D01*
X95825812Y-100274482D01*
X95838072Y-100150000D01*
X95838072Y-99650000D01*
X95825812Y-99525518D01*
X95789502Y-99405820D01*
X95730537Y-99295506D01*
X95651185Y-99198815D01*
X95554494Y-99119463D01*
X95444180Y-99060498D01*
X95324482Y-99024188D01*
X95200000Y-99011928D01*
X94752875Y-99011928D01*
X94613381Y-98937367D01*
X94439960Y-98884760D01*
X94428817Y-98871183D01*
X94294059Y-98760589D01*
X94158388Y-98688072D01*
X94950000Y-98688072D01*
X95074482Y-98675812D01*
X95194180Y-98639502D01*
X95304494Y-98580537D01*
X95401185Y-98501185D01*
X95480537Y-98404494D01*
X95539502Y-98294180D01*
X95575812Y-98174482D01*
X95588072Y-98050000D01*
X95588072Y-96050000D01*
X95575812Y-95925518D01*
X95539502Y-95805820D01*
X95480537Y-95695506D01*
X95401185Y-95598815D01*
X95304494Y-95519463D01*
X95194180Y-95460498D01*
X95074482Y-95424188D01*
X94950000Y-95411928D01*
X94035000Y-95411928D01*
X94035000Y-95398061D01*
X93995226Y-95198102D01*
X93917205Y-95009744D01*
X93803937Y-94840226D01*
X93659774Y-94696063D01*
X93490256Y-94582795D01*
X93301898Y-94504774D01*
X93101939Y-94465000D01*
X92898061Y-94465000D01*
X92698102Y-94504774D01*
X92509744Y-94582795D01*
X92340226Y-94696063D01*
X92196063Y-94840226D01*
X92082795Y-95009744D01*
X92004774Y-95198102D01*
X91965000Y-95398061D01*
X91965000Y-95601939D01*
X92004774Y-95801898D01*
X92082795Y-95990256D01*
X92196063Y-96159774D01*
X92340226Y-96303937D01*
X92509744Y-96417205D01*
X92611928Y-96459531D01*
X92611928Y-97360349D01*
X91385000Y-96133422D01*
X91385000Y-94543469D01*
X91389281Y-94500000D01*
X91385000Y-94456531D01*
X91385000Y-94456523D01*
X91372195Y-94326510D01*
X91321589Y-94159687D01*
X91239411Y-94005941D01*
X91217099Y-93978754D01*
X91156532Y-93904953D01*
X91156530Y-93904951D01*
X91128817Y-93871183D01*
X91095050Y-93843471D01*
X89800843Y-92549264D01*
X89840107Y-92510000D01*
X90450392Y-92510000D01*
X90500000Y-92514886D01*
X90573417Y-92507655D01*
X90697994Y-92495385D01*
X90888380Y-92437632D01*
X91063840Y-92343847D01*
X91217633Y-92217633D01*
X91249261Y-92179094D01*
X92179100Y-91249256D01*
X92217633Y-91217633D01*
X92343847Y-91063840D01*
X92437632Y-90888380D01*
X92482565Y-90740256D01*
X92495385Y-90697995D01*
X92514886Y-90500000D01*
X92510000Y-90450392D01*
X92510000Y-84640010D01*
X92555820Y-84664502D01*
X92675518Y-84700812D01*
X92800000Y-84713072D01*
X93214250Y-84710000D01*
X93373000Y-84551250D01*
X93373000Y-83627000D01*
X93627000Y-83627000D01*
X93627000Y-84551250D01*
X93785750Y-84710000D01*
X94200000Y-84713072D01*
X94324482Y-84700812D01*
X94444180Y-84664502D01*
X94554494Y-84605537D01*
X94651185Y-84526185D01*
X94730537Y-84429494D01*
X94789502Y-84319180D01*
X94825812Y-84199482D01*
X94838072Y-84075000D01*
X94835000Y-83785750D01*
X94676250Y-83627000D01*
X93627000Y-83627000D01*
X93373000Y-83627000D01*
X93353000Y-83627000D01*
X93353000Y-83373000D01*
X93373000Y-83373000D01*
X93373000Y-83353000D01*
X93627000Y-83353000D01*
X93627000Y-83373000D01*
X94676250Y-83373000D01*
X94835000Y-83214250D01*
X94838072Y-82925000D01*
X94825812Y-82800518D01*
X94789502Y-82680820D01*
X94730537Y-82570506D01*
X94651185Y-82473815D01*
X94634351Y-82460000D01*
X94911928Y-82460000D01*
X94911928Y-82950000D01*
G37*
X94911928Y-82950000D02*
X94924188Y-83074482D01*
X94960498Y-83194180D01*
X95019463Y-83304494D01*
X95098815Y-83401185D01*
X95195506Y-83480537D01*
X95305820Y-83539502D01*
X95425518Y-83575812D01*
X95550000Y-83588072D01*
X97050000Y-83588072D01*
X97174482Y-83575812D01*
X97294180Y-83539502D01*
X97404494Y-83480537D01*
X97450000Y-83443191D01*
X97495506Y-83480537D01*
X97590000Y-83531046D01*
X97590001Y-86611928D01*
X96700000Y-86611928D01*
X96575518Y-86624188D01*
X96455820Y-86660498D01*
X96345506Y-86719463D01*
X96248815Y-86798815D01*
X96169463Y-86895506D01*
X96110498Y-87005820D01*
X96074188Y-87125518D01*
X96061928Y-87250000D01*
X96061928Y-88009716D01*
X94320906Y-89750739D01*
X94282367Y-89782367D01*
X94156153Y-89936160D01*
X94070657Y-90096114D01*
X94062368Y-90111621D01*
X94004615Y-90302006D01*
X93985114Y-90500000D01*
X93990000Y-90549608D01*
X93990000Y-91241538D01*
X93936595Y-91306613D01*
X93854528Y-91460149D01*
X93803992Y-91626745D01*
X93786928Y-91799999D01*
X93786928Y-92700001D01*
X93803992Y-92873255D01*
X93854528Y-93039851D01*
X93936595Y-93193387D01*
X94042283Y-93322168D01*
X94062368Y-93388379D01*
X94156154Y-93563840D01*
X94250180Y-93678411D01*
X94282368Y-93717633D01*
X94320901Y-93749256D01*
X95990000Y-95418355D01*
X95990001Y-109081643D01*
X95331645Y-109740000D01*
X92340107Y-109740000D01*
X92196632Y-109596525D01*
X91953411Y-109434010D01*
X91683158Y-109322068D01*
X91396260Y-109265000D01*
X91103740Y-109265000D01*
X90816842Y-109322068D01*
X90546589Y-109434010D01*
X90303368Y-109596525D01*
X90171513Y-109728380D01*
X90149502Y-109655820D01*
X90090537Y-109545506D01*
X90011185Y-109448815D01*
X89914494Y-109369463D01*
X89804180Y-109310498D01*
X89684482Y-109274188D01*
X89560000Y-109261928D01*
X87860000Y-109261928D01*
X87735518Y-109274188D01*
X87660000Y-109297096D01*
X87660000Y-107571105D01*
X87675518Y-107575812D01*
X87800000Y-107588072D01*
X89500000Y-107588072D01*
X89624482Y-107575812D01*
X89744180Y-107539502D01*
X89854494Y-107480537D01*
X89951185Y-107401185D01*
X90030537Y-107304494D01*
X90089502Y-107194180D01*
X90125812Y-107074482D01*
X90138072Y-106950000D01*
X90138072Y-106835000D01*
X92611928Y-106835000D01*
X92611928Y-106950000D01*
X92624188Y-107074482D01*
X92660498Y-107194180D01*
X92719463Y-107304494D01*
X92798815Y-107401185D01*
X92895506Y-107480537D01*
X93005820Y-107539502D01*
X93125518Y-107575812D01*
X93250000Y-107588072D01*
X94950000Y-107588072D01*
X95074482Y-107575812D01*
X95194180Y-107539502D01*
X95304494Y-107480537D01*
X95401185Y-107401185D01*
X95480537Y-107304494D01*
X95539502Y-107194180D01*
X95575812Y-107074482D01*
X95588072Y-106950000D01*
X95588072Y-104950000D01*
X95575812Y-104825518D01*
X95539502Y-104705820D01*
X95480537Y-104595506D01*
X95401185Y-104498815D01*
X95304494Y-104419463D01*
X95194180Y-104360498D01*
X95074482Y-104324188D01*
X94950000Y-104311928D01*
X93250000Y-104311928D01*
X93125518Y-104324188D01*
X93005820Y-104360498D01*
X92895506Y-104419463D01*
X92798815Y-104498815D01*
X92719463Y-104595506D01*
X92660498Y-104705820D01*
X92624188Y-104825518D01*
X92611928Y-104950000D01*
X92611928Y-105065000D01*
X90138072Y-105065000D01*
X90138072Y-104950000D01*
X90125812Y-104825518D01*
X90089502Y-104705820D01*
X90030537Y-104595506D01*
X89951185Y-104498815D01*
X89854494Y-104419463D01*
X89744180Y-104360498D01*
X89624482Y-104324188D01*
X89535000Y-104315375D01*
X89535000Y-103588212D01*
X90365000Y-103588212D01*
X90365000Y-103811788D01*
X90408617Y-104031067D01*
X90494176Y-104237624D01*
X90618388Y-104423520D01*
X90776480Y-104581612D01*
X90962376Y-104705824D01*
X91168933Y-104791383D01*
X91388212Y-104835000D01*
X91611788Y-104835000D01*
X91831067Y-104791383D01*
X92037624Y-104705824D01*
X92223520Y-104581612D01*
X92381612Y-104423520D01*
X92505824Y-104237624D01*
X92591383Y-104031067D01*
X92635000Y-103811788D01*
X92635000Y-103640379D01*
X92673772Y-103710860D01*
X92754284Y-103806588D01*
X92851924Y-103884770D01*
X92962941Y-103942401D01*
X93083067Y-103977266D01*
X93207688Y-103988026D01*
X93914250Y-103985000D01*
X94073000Y-103826250D01*
X94073000Y-103223000D01*
X94327000Y-103223000D01*
X94327000Y-103826250D01*
X94485750Y-103985000D01*
X95192312Y-103988026D01*
X95316933Y-103977266D01*
X95437059Y-103942401D01*
X95548076Y-103884770D01*
X95645716Y-103806588D01*
X95726228Y-103710860D01*
X95786517Y-103601264D01*
X95824266Y-103482013D01*
X95835000Y-103381750D01*
X95676250Y-103223000D01*
X94327000Y-103223000D01*
X94073000Y-103223000D01*
X92723750Y-103223000D01*
X92587410Y-103359340D01*
X92505824Y-103162376D01*
X92381612Y-102976480D01*
X92223520Y-102818388D01*
X92037624Y-102694176D01*
X91831067Y-102608617D01*
X91611788Y-102565000D01*
X91388212Y-102565000D01*
X91168933Y-102608617D01*
X90962376Y-102694176D01*
X90776480Y-102818388D01*
X90618388Y-102976480D01*
X90494176Y-103162376D01*
X90408617Y-103368933D01*
X90365000Y-103588212D01*
X89535000Y-103588212D01*
X89535000Y-98684625D01*
X89624482Y-98675812D01*
X89744180Y-98639502D01*
X89854494Y-98580537D01*
X89951185Y-98501185D01*
X90030537Y-98404494D01*
X90089502Y-98294180D01*
X90125812Y-98174482D01*
X90138072Y-98050000D01*
X90138072Y-97389650D01*
X91019101Y-98270680D01*
X90962376Y-98294176D01*
X90776480Y-98418388D01*
X90618388Y-98576480D01*
X90494176Y-98762376D01*
X90408617Y-98968933D01*
X90365000Y-99188212D01*
X90365000Y-99411788D01*
X90408617Y-99631067D01*
X90494176Y-99837624D01*
X90618388Y-100023520D01*
X90776480Y-100181612D01*
X90962376Y-100305824D01*
X91168933Y-100391383D01*
X91388212Y-100435000D01*
X91611788Y-100435000D01*
X91831067Y-100391383D01*
X92037624Y-100305824D01*
X92223520Y-100181612D01*
X92328421Y-100076711D01*
X92371183Y-100128817D01*
X92505941Y-100239411D01*
X92574698Y-100276162D01*
X92581929Y-100300000D01*
X92574188Y-100325518D01*
X92561928Y-100450000D01*
X92561928Y-100950000D01*
X92574188Y-101074482D01*
X92581929Y-101100000D01*
X92574188Y-101125518D01*
X92561928Y-101250000D01*
X92561928Y-101750000D01*
X92574188Y-101874482D01*
X92581929Y-101900000D01*
X92574188Y-101925518D01*
X92561928Y-102050000D01*
X92561928Y-102550000D01*
X92574188Y-102674482D01*
X92581684Y-102699192D01*
X92575734Y-102717987D01*
X92565000Y-102818250D01*
X92723750Y-102977000D01*
X92728967Y-102977000D01*
X92748815Y-103001185D01*
X92845506Y-103080537D01*
X92955820Y-103139502D01*
X93075518Y-103175812D01*
X93200000Y-103188072D01*
X95200000Y-103188072D01*
X95324482Y-103175812D01*
X95444180Y-103139502D01*
X95554494Y-103080537D01*
X95651185Y-103001185D01*
X95671033Y-102977000D01*
X95676250Y-102977000D01*
X95835000Y-102818250D01*
X95824266Y-102717987D01*
X95818316Y-102699192D01*
X95825812Y-102674482D01*
X95838072Y-102550000D01*
X95838072Y-102050000D01*
X95825812Y-101925518D01*
X95818071Y-101900000D01*
X95825812Y-101874482D01*
X95838072Y-101750000D01*
X95838072Y-101250000D01*
X95825812Y-101125518D01*
X95818071Y-101100000D01*
X95825812Y-101074482D01*
X95838072Y-100950000D01*
X95838072Y-100450000D01*
X95825812Y-100325518D01*
X95818071Y-100300000D01*
X95825812Y-100274482D01*
X95838072Y-100150000D01*
X95838072Y-99650000D01*
X95825812Y-99525518D01*
X95789502Y-99405820D01*
X95730537Y-99295506D01*
X95651185Y-99198815D01*
X95554494Y-99119463D01*
X95444180Y-99060498D01*
X95324482Y-99024188D01*
X95200000Y-99011928D01*
X94752875Y-99011928D01*
X94613381Y-98937367D01*
X94439960Y-98884760D01*
X94428817Y-98871183D01*
X94294059Y-98760589D01*
X94158388Y-98688072D01*
X94950000Y-98688072D01*
X95074482Y-98675812D01*
X95194180Y-98639502D01*
X95304494Y-98580537D01*
X95401185Y-98501185D01*
X95480537Y-98404494D01*
X95539502Y-98294180D01*
X95575812Y-98174482D01*
X95588072Y-98050000D01*
X95588072Y-96050000D01*
X95575812Y-95925518D01*
X95539502Y-95805820D01*
X95480537Y-95695506D01*
X95401185Y-95598815D01*
X95304494Y-95519463D01*
X95194180Y-95460498D01*
X95074482Y-95424188D01*
X94950000Y-95411928D01*
X94035000Y-95411928D01*
X94035000Y-95398061D01*
X93995226Y-95198102D01*
X93917205Y-95009744D01*
X93803937Y-94840226D01*
X93659774Y-94696063D01*
X93490256Y-94582795D01*
X93301898Y-94504774D01*
X93101939Y-94465000D01*
X92898061Y-94465000D01*
X92698102Y-94504774D01*
X92509744Y-94582795D01*
X92340226Y-94696063D01*
X92196063Y-94840226D01*
X92082795Y-95009744D01*
X92004774Y-95198102D01*
X91965000Y-95398061D01*
X91965000Y-95601939D01*
X92004774Y-95801898D01*
X92082795Y-95990256D01*
X92196063Y-96159774D01*
X92340226Y-96303937D01*
X92509744Y-96417205D01*
X92611928Y-96459531D01*
X92611928Y-97360349D01*
X91385000Y-96133422D01*
X91385000Y-94543469D01*
X91389281Y-94500000D01*
X91385000Y-94456531D01*
X91385000Y-94456523D01*
X91372195Y-94326510D01*
X91321589Y-94159687D01*
X91239411Y-94005941D01*
X91217099Y-93978754D01*
X91156532Y-93904953D01*
X91156530Y-93904951D01*
X91128817Y-93871183D01*
X91095050Y-93843471D01*
X89800843Y-92549264D01*
X89840107Y-92510000D01*
X90450392Y-92510000D01*
X90500000Y-92514886D01*
X90573417Y-92507655D01*
X90697994Y-92495385D01*
X90888380Y-92437632D01*
X91063840Y-92343847D01*
X91217633Y-92217633D01*
X91249261Y-92179094D01*
X92179100Y-91249256D01*
X92217633Y-91217633D01*
X92343847Y-91063840D01*
X92437632Y-90888380D01*
X92482565Y-90740256D01*
X92495385Y-90697995D01*
X92514886Y-90500000D01*
X92510000Y-90450392D01*
X92510000Y-84640010D01*
X92555820Y-84664502D01*
X92675518Y-84700812D01*
X92800000Y-84713072D01*
X93214250Y-84710000D01*
X93373000Y-84551250D01*
X93373000Y-83627000D01*
X93627000Y-83627000D01*
X93627000Y-84551250D01*
X93785750Y-84710000D01*
X94200000Y-84713072D01*
X94324482Y-84700812D01*
X94444180Y-84664502D01*
X94554494Y-84605537D01*
X94651185Y-84526185D01*
X94730537Y-84429494D01*
X94789502Y-84319180D01*
X94825812Y-84199482D01*
X94838072Y-84075000D01*
X94835000Y-83785750D01*
X94676250Y-83627000D01*
X93627000Y-83627000D01*
X93373000Y-83627000D01*
X93353000Y-83627000D01*
X93353000Y-83373000D01*
X93373000Y-83373000D01*
X93373000Y-83353000D01*
X93627000Y-83353000D01*
X93627000Y-83373000D01*
X94676250Y-83373000D01*
X94835000Y-83214250D01*
X94838072Y-82925000D01*
X94825812Y-82800518D01*
X94789502Y-82680820D01*
X94730537Y-82570506D01*
X94651185Y-82473815D01*
X94634351Y-82460000D01*
X94911928Y-82460000D01*
X94911928Y-82950000D01*
G36*
X103490001Y-79533738D02*
G01*
X103490000Y-82581644D01*
X103434716Y-82636928D01*
X103249999Y-82636928D01*
X103076745Y-82653992D01*
X102910149Y-82704528D01*
X102756613Y-82786595D01*
X102622038Y-82897038D01*
X102511595Y-83031613D01*
X102429528Y-83185149D01*
X102378992Y-83351745D01*
X102361928Y-83524999D01*
X102361928Y-84175001D01*
X102378992Y-84348255D01*
X102429528Y-84514851D01*
X102511595Y-84668387D01*
X102622038Y-84802962D01*
X102628594Y-84808342D01*
X102548815Y-84873815D01*
X102469463Y-84970506D01*
X102410498Y-85080820D01*
X102374188Y-85200518D01*
X102361928Y-85325000D01*
X102365000Y-85614250D01*
X102523750Y-85773000D01*
X103573000Y-85773000D01*
X103573000Y-85753000D01*
X103827000Y-85753000D01*
X103827000Y-85773000D01*
X103847000Y-85773000D01*
X103847000Y-86027000D01*
X103827000Y-86027000D01*
X103827000Y-86047000D01*
X103573000Y-86047000D01*
X103573000Y-86027000D01*
X102523750Y-86027000D01*
X102365000Y-86185750D01*
X102361928Y-86475000D01*
X102374188Y-86599482D01*
X102410498Y-86719180D01*
X102469463Y-86829494D01*
X102548815Y-86926185D01*
X102645506Y-87005537D01*
X102755820Y-87064502D01*
X102875518Y-87100812D01*
X103000000Y-87113072D01*
X103278838Y-87111004D01*
X101920845Y-88468998D01*
X101860490Y-88474943D01*
X101846112Y-88476359D01*
X101811672Y-88486806D01*
X101698140Y-88521246D01*
X101561767Y-88594138D01*
X101507859Y-88638380D01*
X101472187Y-88667655D01*
X101472184Y-88667658D01*
X101442236Y-88692236D01*
X101417658Y-88722184D01*
X101138072Y-89001770D01*
X101138072Y-87250000D01*
X101125812Y-87125518D01*
X101089502Y-87005820D01*
X101030537Y-86895506D01*
X100951185Y-86798815D01*
X100854494Y-86719463D01*
X100744180Y-86660498D01*
X100624482Y-86624188D01*
X100500000Y-86611928D01*
X99610000Y-86611928D01*
X99610000Y-83531046D01*
X99704494Y-83480537D01*
X99750000Y-83443191D01*
X99795506Y-83480537D01*
X99905820Y-83539502D01*
X100025518Y-83575812D01*
X100150000Y-83588072D01*
X100614250Y-83585000D01*
X100773000Y-83426250D01*
X100773000Y-82077000D01*
X101027000Y-82077000D01*
X101027000Y-83426250D01*
X101185750Y-83585000D01*
X101650000Y-83588072D01*
X101774482Y-83575812D01*
X101894180Y-83539502D01*
X102004494Y-83480537D01*
X102101185Y-83401185D01*
X102180537Y-83304494D01*
X102239502Y-83194180D01*
X102275812Y-83074482D01*
X102288072Y-82950000D01*
X102285000Y-82235750D01*
X102126250Y-82077000D01*
X101027000Y-82077000D01*
X100773000Y-82077000D01*
X100753000Y-82077000D01*
X100753000Y-81823000D01*
X100773000Y-81823000D01*
X100773000Y-80473750D01*
X101027000Y-80473750D01*
X101027000Y-81823000D01*
X102126250Y-81823000D01*
X102285000Y-81664250D01*
X102288072Y-80950000D01*
X102275812Y-80825518D01*
X102239502Y-80705820D01*
X102180537Y-80595506D01*
X102101185Y-80498815D01*
X102004494Y-80419463D01*
X101894180Y-80360498D01*
X101774482Y-80324188D01*
X101650000Y-80311928D01*
X101185750Y-80315000D01*
X101027000Y-80473750D01*
X100773000Y-80473750D01*
X100614250Y-80315000D01*
X100150000Y-80311928D01*
X100025518Y-80324188D01*
X99905820Y-80360498D01*
X99795506Y-80419463D01*
X99750000Y-80456809D01*
X99704494Y-80419463D01*
X99610000Y-80368954D01*
X99610000Y-79818355D01*
X99715283Y-79713072D01*
X99950001Y-79713072D01*
X100123255Y-79696008D01*
X100289851Y-79645472D01*
X100443387Y-79563405D01*
X100508461Y-79510000D01*
X103461076Y-79510000D01*
X103490001Y-79533738D01*
G37*
X103490001Y-79533738D02*
X103490000Y-82581644D01*
X103434716Y-82636928D01*
X103249999Y-82636928D01*
X103076745Y-82653992D01*
X102910149Y-82704528D01*
X102756613Y-82786595D01*
X102622038Y-82897038D01*
X102511595Y-83031613D01*
X102429528Y-83185149D01*
X102378992Y-83351745D01*
X102361928Y-83524999D01*
X102361928Y-84175001D01*
X102378992Y-84348255D01*
X102429528Y-84514851D01*
X102511595Y-84668387D01*
X102622038Y-84802962D01*
X102628594Y-84808342D01*
X102548815Y-84873815D01*
X102469463Y-84970506D01*
X102410498Y-85080820D01*
X102374188Y-85200518D01*
X102361928Y-85325000D01*
X102365000Y-85614250D01*
X102523750Y-85773000D01*
X103573000Y-85773000D01*
X103573000Y-85753000D01*
X103827000Y-85753000D01*
X103827000Y-85773000D01*
X103847000Y-85773000D01*
X103847000Y-86027000D01*
X103827000Y-86027000D01*
X103827000Y-86047000D01*
X103573000Y-86047000D01*
X103573000Y-86027000D01*
X102523750Y-86027000D01*
X102365000Y-86185750D01*
X102361928Y-86475000D01*
X102374188Y-86599482D01*
X102410498Y-86719180D01*
X102469463Y-86829494D01*
X102548815Y-86926185D01*
X102645506Y-87005537D01*
X102755820Y-87064502D01*
X102875518Y-87100812D01*
X103000000Y-87113072D01*
X103278838Y-87111004D01*
X101920845Y-88468998D01*
X101860490Y-88474943D01*
X101846112Y-88476359D01*
X101811672Y-88486806D01*
X101698140Y-88521246D01*
X101561767Y-88594138D01*
X101507859Y-88638380D01*
X101472187Y-88667655D01*
X101472184Y-88667658D01*
X101442236Y-88692236D01*
X101417658Y-88722184D01*
X101138072Y-89001770D01*
X101138072Y-87250000D01*
X101125812Y-87125518D01*
X101089502Y-87005820D01*
X101030537Y-86895506D01*
X100951185Y-86798815D01*
X100854494Y-86719463D01*
X100744180Y-86660498D01*
X100624482Y-86624188D01*
X100500000Y-86611928D01*
X99610000Y-86611928D01*
X99610000Y-83531046D01*
X99704494Y-83480537D01*
X99750000Y-83443191D01*
X99795506Y-83480537D01*
X99905820Y-83539502D01*
X100025518Y-83575812D01*
X100150000Y-83588072D01*
X100614250Y-83585000D01*
X100773000Y-83426250D01*
X100773000Y-82077000D01*
X101027000Y-82077000D01*
X101027000Y-83426250D01*
X101185750Y-83585000D01*
X101650000Y-83588072D01*
X101774482Y-83575812D01*
X101894180Y-83539502D01*
X102004494Y-83480537D01*
X102101185Y-83401185D01*
X102180537Y-83304494D01*
X102239502Y-83194180D01*
X102275812Y-83074482D01*
X102288072Y-82950000D01*
X102285000Y-82235750D01*
X102126250Y-82077000D01*
X101027000Y-82077000D01*
X100773000Y-82077000D01*
X100753000Y-82077000D01*
X100753000Y-81823000D01*
X100773000Y-81823000D01*
X100773000Y-80473750D01*
X101027000Y-80473750D01*
X101027000Y-81823000D01*
X102126250Y-81823000D01*
X102285000Y-81664250D01*
X102288072Y-80950000D01*
X102275812Y-80825518D01*
X102239502Y-80705820D01*
X102180537Y-80595506D01*
X102101185Y-80498815D01*
X102004494Y-80419463D01*
X101894180Y-80360498D01*
X101774482Y-80324188D01*
X101650000Y-80311928D01*
X101185750Y-80315000D01*
X101027000Y-80473750D01*
X100773000Y-80473750D01*
X100614250Y-80315000D01*
X100150000Y-80311928D01*
X100025518Y-80324188D01*
X99905820Y-80360498D01*
X99795506Y-80419463D01*
X99750000Y-80456809D01*
X99704494Y-80419463D01*
X99610000Y-80368954D01*
X99610000Y-79818355D01*
X99715283Y-79713072D01*
X99950001Y-79713072D01*
X100123255Y-79696008D01*
X100289851Y-79645472D01*
X100443387Y-79563405D01*
X100508461Y-79510000D01*
X103461076Y-79510000D01*
X103490001Y-79533738D01*
G36*
X94811595Y-77268387D02*
G01*
X94922038Y-77402962D01*
X94928594Y-77408342D01*
X94848815Y-77473815D01*
X94769463Y-77570506D01*
X94710498Y-77680820D01*
X94674188Y-77800518D01*
X94661928Y-77925000D01*
X94665000Y-78214250D01*
X94823750Y-78373000D01*
X95873000Y-78373000D01*
X95873000Y-78353000D01*
X96127000Y-78353000D01*
X96127000Y-78373000D01*
X97176250Y-78373000D01*
X97335000Y-78214250D01*
X97338072Y-77925000D01*
X97325812Y-77800518D01*
X97289502Y-77680820D01*
X97230537Y-77570506D01*
X97151185Y-77473815D01*
X97071406Y-77408342D01*
X97077962Y-77402962D01*
X97133737Y-77335000D01*
X98366263Y-77335000D01*
X98422038Y-77402962D01*
X98509816Y-77475000D01*
X98422038Y-77547038D01*
X98311595Y-77681613D01*
X98229528Y-77835149D01*
X98178992Y-78001745D01*
X98161928Y-78174999D01*
X98161928Y-78409717D01*
X97920901Y-78650744D01*
X97882368Y-78682367D01*
X97850745Y-78720900D01*
X97850744Y-78720901D01*
X97756154Y-78836160D01*
X97662368Y-79011621D01*
X97604615Y-79202006D01*
X97585114Y-79400000D01*
X97590001Y-79449617D01*
X97590001Y-80368954D01*
X97495506Y-80419463D01*
X97450000Y-80456809D01*
X97404494Y-80419463D01*
X97294180Y-80360498D01*
X97174482Y-80324188D01*
X97050000Y-80311928D01*
X95550000Y-80311928D01*
X95425518Y-80324188D01*
X95305820Y-80360498D01*
X95195506Y-80419463D01*
X95170482Y-80440000D01*
X94508461Y-80440000D01*
X94443387Y-80386595D01*
X94289851Y-80304528D01*
X94123255Y-80253992D01*
X93950001Y-80236928D01*
X93049999Y-80236928D01*
X92876745Y-80253992D01*
X92710149Y-80304528D01*
X92556613Y-80386595D01*
X92491539Y-80440000D01*
X92099597Y-80440000D01*
X92049999Y-80435115D01*
X92000401Y-80440000D01*
X92000392Y-80440000D01*
X91852006Y-80454615D01*
X91661620Y-80512368D01*
X91486160Y-80606153D01*
X91332367Y-80732367D01*
X91300739Y-80770906D01*
X91285000Y-80786645D01*
X91285000Y-80325157D01*
X92535157Y-79075000D01*
X94661928Y-79075000D01*
X94674188Y-79199482D01*
X94710498Y-79319180D01*
X94769463Y-79429494D01*
X94848815Y-79526185D01*
X94945506Y-79605537D01*
X95055820Y-79664502D01*
X95175518Y-79700812D01*
X95300000Y-79713072D01*
X95714250Y-79710000D01*
X95873000Y-79551250D01*
X95873000Y-78627000D01*
X96127000Y-78627000D01*
X96127000Y-79551250D01*
X96285750Y-79710000D01*
X96700000Y-79713072D01*
X96824482Y-79700812D01*
X96944180Y-79664502D01*
X97054494Y-79605537D01*
X97151185Y-79526185D01*
X97230537Y-79429494D01*
X97289502Y-79319180D01*
X97325812Y-79199482D01*
X97338072Y-79075000D01*
X97335000Y-78785750D01*
X97176250Y-78627000D01*
X96127000Y-78627000D01*
X95873000Y-78627000D01*
X94823750Y-78627000D01*
X94665000Y-78785750D01*
X94661928Y-79075000D01*
X92535157Y-79075000D01*
X94375158Y-77235000D01*
X94793749Y-77235000D01*
X94811595Y-77268387D01*
G37*
X94811595Y-77268387D02*
X94922038Y-77402962D01*
X94928594Y-77408342D01*
X94848815Y-77473815D01*
X94769463Y-77570506D01*
X94710498Y-77680820D01*
X94674188Y-77800518D01*
X94661928Y-77925000D01*
X94665000Y-78214250D01*
X94823750Y-78373000D01*
X95873000Y-78373000D01*
X95873000Y-78353000D01*
X96127000Y-78353000D01*
X96127000Y-78373000D01*
X97176250Y-78373000D01*
X97335000Y-78214250D01*
X97338072Y-77925000D01*
X97325812Y-77800518D01*
X97289502Y-77680820D01*
X97230537Y-77570506D01*
X97151185Y-77473815D01*
X97071406Y-77408342D01*
X97077962Y-77402962D01*
X97133737Y-77335000D01*
X98366263Y-77335000D01*
X98422038Y-77402962D01*
X98509816Y-77475000D01*
X98422038Y-77547038D01*
X98311595Y-77681613D01*
X98229528Y-77835149D01*
X98178992Y-78001745D01*
X98161928Y-78174999D01*
X98161928Y-78409717D01*
X97920901Y-78650744D01*
X97882368Y-78682367D01*
X97850745Y-78720900D01*
X97850744Y-78720901D01*
X97756154Y-78836160D01*
X97662368Y-79011621D01*
X97604615Y-79202006D01*
X97585114Y-79400000D01*
X97590001Y-79449617D01*
X97590001Y-80368954D01*
X97495506Y-80419463D01*
X97450000Y-80456809D01*
X97404494Y-80419463D01*
X97294180Y-80360498D01*
X97174482Y-80324188D01*
X97050000Y-80311928D01*
X95550000Y-80311928D01*
X95425518Y-80324188D01*
X95305820Y-80360498D01*
X95195506Y-80419463D01*
X95170482Y-80440000D01*
X94508461Y-80440000D01*
X94443387Y-80386595D01*
X94289851Y-80304528D01*
X94123255Y-80253992D01*
X93950001Y-80236928D01*
X93049999Y-80236928D01*
X92876745Y-80253992D01*
X92710149Y-80304528D01*
X92556613Y-80386595D01*
X92491539Y-80440000D01*
X92099597Y-80440000D01*
X92049999Y-80435115D01*
X92000401Y-80440000D01*
X92000392Y-80440000D01*
X91852006Y-80454615D01*
X91661620Y-80512368D01*
X91486160Y-80606153D01*
X91332367Y-80732367D01*
X91300739Y-80770906D01*
X91285000Y-80786645D01*
X91285000Y-80325157D01*
X92535157Y-79075000D01*
X94661928Y-79075000D01*
X94674188Y-79199482D01*
X94710498Y-79319180D01*
X94769463Y-79429494D01*
X94848815Y-79526185D01*
X94945506Y-79605537D01*
X95055820Y-79664502D01*
X95175518Y-79700812D01*
X95300000Y-79713072D01*
X95714250Y-79710000D01*
X95873000Y-79551250D01*
X95873000Y-78627000D01*
X96127000Y-78627000D01*
X96127000Y-79551250D01*
X96285750Y-79710000D01*
X96700000Y-79713072D01*
X96824482Y-79700812D01*
X96944180Y-79664502D01*
X97054494Y-79605537D01*
X97151185Y-79526185D01*
X97230537Y-79429494D01*
X97289502Y-79319180D01*
X97325812Y-79199482D01*
X97338072Y-79075000D01*
X97335000Y-78785750D01*
X97176250Y-78627000D01*
X96127000Y-78627000D01*
X95873000Y-78627000D01*
X94823750Y-78627000D01*
X94665000Y-78785750D01*
X94661928Y-79075000D01*
X92535157Y-79075000D01*
X94375158Y-77235000D01*
X94793749Y-77235000D01*
X94811595Y-77268387D01*
G36*
X100261928Y-70250000D02*
G01*
X100274188Y-70374482D01*
X100310498Y-70494180D01*
X100369463Y-70604494D01*
X100448815Y-70701185D01*
X100545506Y-70780537D01*
X100655820Y-70839502D01*
X100775518Y-70875812D01*
X100900000Y-70888072D01*
X101950000Y-70888072D01*
X102074482Y-70875812D01*
X102194180Y-70839502D01*
X102304494Y-70780537D01*
X102390444Y-70710000D01*
X102790000Y-70710000D01*
X102790001Y-72099841D01*
X102557046Y-72332796D01*
X102426250Y-72202000D01*
X101552000Y-72202000D01*
X101552000Y-72876250D01*
X101710750Y-73035000D01*
X101853016Y-73036827D01*
X101472190Y-73417653D01*
X101442236Y-73442236D01*
X101344138Y-73561768D01*
X101271246Y-73698141D01*
X101226359Y-73846114D01*
X101215000Y-73961440D01*
X101215000Y-73961447D01*
X101211203Y-74000000D01*
X101215000Y-74038553D01*
X101215001Y-74674842D01*
X100476265Y-75413578D01*
X100443387Y-75386595D01*
X100289851Y-75304528D01*
X100123255Y-75253992D01*
X99950001Y-75236928D01*
X99049999Y-75236928D01*
X98876745Y-75253992D01*
X98710149Y-75304528D01*
X98556613Y-75386595D01*
X98422038Y-75497038D01*
X98366263Y-75565000D01*
X97133737Y-75565000D01*
X97077962Y-75497038D01*
X96943387Y-75386595D01*
X96789851Y-75304528D01*
X96623255Y-75253992D01*
X96450001Y-75236928D01*
X95549999Y-75236928D01*
X95376745Y-75253992D01*
X95210149Y-75304528D01*
X95056613Y-75386595D01*
X94922038Y-75497038D01*
X94811595Y-75631613D01*
X94793749Y-75665000D01*
X94088552Y-75665000D01*
X94049999Y-75661203D01*
X94011446Y-75665000D01*
X94011439Y-75665000D01*
X93910490Y-75674943D01*
X93896112Y-75676359D01*
X93773270Y-75713623D01*
X93748140Y-75721246D01*
X93611767Y-75794138D01*
X93551559Y-75843550D01*
X93522187Y-75867655D01*
X93522184Y-75867658D01*
X93492236Y-75892236D01*
X93467658Y-75922184D01*
X90235374Y-79154469D01*
X90235000Y-79085750D01*
X90076250Y-78927000D01*
X88877000Y-78927000D01*
X88877000Y-78947000D01*
X88623000Y-78947000D01*
X88623000Y-78927000D01*
X88603000Y-78927000D01*
X88603000Y-78673000D01*
X88623000Y-78673000D01*
X88623000Y-77473750D01*
X88877000Y-77473750D01*
X88877000Y-78673000D01*
X90076250Y-78673000D01*
X90235000Y-78514250D01*
X90238072Y-77950000D01*
X90225812Y-77825518D01*
X90189502Y-77705820D01*
X90130537Y-77595506D01*
X90051185Y-77498815D01*
X89954494Y-77419463D01*
X89844180Y-77360498D01*
X89724482Y-77324188D01*
X89600000Y-77311928D01*
X89035750Y-77315000D01*
X88877000Y-77473750D01*
X88623000Y-77473750D01*
X88464250Y-77315000D01*
X87900000Y-77311928D01*
X87775518Y-77324188D01*
X87660000Y-77359230D01*
X87660000Y-75700881D01*
X88478724Y-75700881D01*
X88838912Y-76190548D01*
X89502882Y-76550849D01*
X90224385Y-76774694D01*
X90975695Y-76853480D01*
X91727938Y-76784178D01*
X92452208Y-76569452D01*
X93120670Y-76217555D01*
X93161088Y-76190548D01*
X93521276Y-75700881D01*
X91000000Y-73179605D01*
X88478724Y-75700881D01*
X87660000Y-75700881D01*
X87660000Y-74888074D01*
X87782445Y-75120670D01*
X87809452Y-75161088D01*
X88299119Y-75521276D01*
X90820395Y-73000000D01*
X91179605Y-73000000D01*
X93700881Y-75521276D01*
X94190548Y-75161088D01*
X94550849Y-74497118D01*
X94774694Y-73775615D01*
X94853480Y-73024305D01*
X94795965Y-72400000D01*
X100261928Y-72400000D01*
X100274188Y-72524482D01*
X100310498Y-72644180D01*
X100369463Y-72754494D01*
X100448815Y-72851185D01*
X100545506Y-72930537D01*
X100655820Y-72989502D01*
X100775518Y-73025812D01*
X100900000Y-73038072D01*
X101139250Y-73035000D01*
X101298000Y-72876250D01*
X101298000Y-72202000D01*
X100423750Y-72202000D01*
X100265000Y-72360750D01*
X100261928Y-72400000D01*
X94795965Y-72400000D01*
X94784178Y-72272062D01*
X94629402Y-71750000D01*
X100261928Y-71750000D01*
X100265000Y-71789250D01*
X100423750Y-71948000D01*
X101298000Y-71948000D01*
X101298000Y-71273750D01*
X101552000Y-71273750D01*
X101552000Y-71948000D01*
X102426250Y-71948000D01*
X102585000Y-71789250D01*
X102588072Y-71750000D01*
X102575812Y-71625518D01*
X102539502Y-71505820D01*
X102480537Y-71395506D01*
X102401185Y-71298815D01*
X102304494Y-71219463D01*
X102194180Y-71160498D01*
X102074482Y-71124188D01*
X101950000Y-71111928D01*
X101710750Y-71115000D01*
X101552000Y-71273750D01*
X101298000Y-71273750D01*
X101139250Y-71115000D01*
X100900000Y-71111928D01*
X100775518Y-71124188D01*
X100655820Y-71160498D01*
X100545506Y-71219463D01*
X100448815Y-71298815D01*
X100369463Y-71395506D01*
X100310498Y-71505820D01*
X100274188Y-71625518D01*
X100261928Y-71750000D01*
X94629402Y-71750000D01*
X94569452Y-71547792D01*
X94217555Y-70879330D01*
X94190548Y-70838912D01*
X93700881Y-70478724D01*
X91179605Y-73000000D01*
X90820395Y-73000000D01*
X90806253Y-72985858D01*
X90985858Y-72806253D01*
X91000000Y-72820395D01*
X93521276Y-70299119D01*
X93161088Y-69809452D01*
X92885675Y-69660000D01*
X100261928Y-69660000D01*
X100261928Y-70250000D01*
G37*
X100261928Y-70250000D02*
X100274188Y-70374482D01*
X100310498Y-70494180D01*
X100369463Y-70604494D01*
X100448815Y-70701185D01*
X100545506Y-70780537D01*
X100655820Y-70839502D01*
X100775518Y-70875812D01*
X100900000Y-70888072D01*
X101950000Y-70888072D01*
X102074482Y-70875812D01*
X102194180Y-70839502D01*
X102304494Y-70780537D01*
X102390444Y-70710000D01*
X102790000Y-70710000D01*
X102790001Y-72099841D01*
X102557046Y-72332796D01*
X102426250Y-72202000D01*
X101552000Y-72202000D01*
X101552000Y-72876250D01*
X101710750Y-73035000D01*
X101853016Y-73036827D01*
X101472190Y-73417653D01*
X101442236Y-73442236D01*
X101344138Y-73561768D01*
X101271246Y-73698141D01*
X101226359Y-73846114D01*
X101215000Y-73961440D01*
X101215000Y-73961447D01*
X101211203Y-74000000D01*
X101215000Y-74038553D01*
X101215001Y-74674842D01*
X100476265Y-75413578D01*
X100443387Y-75386595D01*
X100289851Y-75304528D01*
X100123255Y-75253992D01*
X99950001Y-75236928D01*
X99049999Y-75236928D01*
X98876745Y-75253992D01*
X98710149Y-75304528D01*
X98556613Y-75386595D01*
X98422038Y-75497038D01*
X98366263Y-75565000D01*
X97133737Y-75565000D01*
X97077962Y-75497038D01*
X96943387Y-75386595D01*
X96789851Y-75304528D01*
X96623255Y-75253992D01*
X96450001Y-75236928D01*
X95549999Y-75236928D01*
X95376745Y-75253992D01*
X95210149Y-75304528D01*
X95056613Y-75386595D01*
X94922038Y-75497038D01*
X94811595Y-75631613D01*
X94793749Y-75665000D01*
X94088552Y-75665000D01*
X94049999Y-75661203D01*
X94011446Y-75665000D01*
X94011439Y-75665000D01*
X93910490Y-75674943D01*
X93896112Y-75676359D01*
X93773270Y-75713623D01*
X93748140Y-75721246D01*
X93611767Y-75794138D01*
X93551559Y-75843550D01*
X93522187Y-75867655D01*
X93522184Y-75867658D01*
X93492236Y-75892236D01*
X93467658Y-75922184D01*
X90235374Y-79154469D01*
X90235000Y-79085750D01*
X90076250Y-78927000D01*
X88877000Y-78927000D01*
X88877000Y-78947000D01*
X88623000Y-78947000D01*
X88623000Y-78927000D01*
X88603000Y-78927000D01*
X88603000Y-78673000D01*
X88623000Y-78673000D01*
X88623000Y-77473750D01*
X88877000Y-77473750D01*
X88877000Y-78673000D01*
X90076250Y-78673000D01*
X90235000Y-78514250D01*
X90238072Y-77950000D01*
X90225812Y-77825518D01*
X90189502Y-77705820D01*
X90130537Y-77595506D01*
X90051185Y-77498815D01*
X89954494Y-77419463D01*
X89844180Y-77360498D01*
X89724482Y-77324188D01*
X89600000Y-77311928D01*
X89035750Y-77315000D01*
X88877000Y-77473750D01*
X88623000Y-77473750D01*
X88464250Y-77315000D01*
X87900000Y-77311928D01*
X87775518Y-77324188D01*
X87660000Y-77359230D01*
X87660000Y-75700881D01*
X88478724Y-75700881D01*
X88838912Y-76190548D01*
X89502882Y-76550849D01*
X90224385Y-76774694D01*
X90975695Y-76853480D01*
X91727938Y-76784178D01*
X92452208Y-76569452D01*
X93120670Y-76217555D01*
X93161088Y-76190548D01*
X93521276Y-75700881D01*
X91000000Y-73179605D01*
X88478724Y-75700881D01*
X87660000Y-75700881D01*
X87660000Y-74888074D01*
X87782445Y-75120670D01*
X87809452Y-75161088D01*
X88299119Y-75521276D01*
X90820395Y-73000000D01*
X91179605Y-73000000D01*
X93700881Y-75521276D01*
X94190548Y-75161088D01*
X94550849Y-74497118D01*
X94774694Y-73775615D01*
X94853480Y-73024305D01*
X94795965Y-72400000D01*
X100261928Y-72400000D01*
X100274188Y-72524482D01*
X100310498Y-72644180D01*
X100369463Y-72754494D01*
X100448815Y-72851185D01*
X100545506Y-72930537D01*
X100655820Y-72989502D01*
X100775518Y-73025812D01*
X100900000Y-73038072D01*
X101139250Y-73035000D01*
X101298000Y-72876250D01*
X101298000Y-72202000D01*
X100423750Y-72202000D01*
X100265000Y-72360750D01*
X100261928Y-72400000D01*
X94795965Y-72400000D01*
X94784178Y-72272062D01*
X94629402Y-71750000D01*
X100261928Y-71750000D01*
X100265000Y-71789250D01*
X100423750Y-71948000D01*
X101298000Y-71948000D01*
X101298000Y-71273750D01*
X101552000Y-71273750D01*
X101552000Y-71948000D01*
X102426250Y-71948000D01*
X102585000Y-71789250D01*
X102588072Y-71750000D01*
X102575812Y-71625518D01*
X102539502Y-71505820D01*
X102480537Y-71395506D01*
X102401185Y-71298815D01*
X102304494Y-71219463D01*
X102194180Y-71160498D01*
X102074482Y-71124188D01*
X101950000Y-71111928D01*
X101710750Y-71115000D01*
X101552000Y-71273750D01*
X101298000Y-71273750D01*
X101139250Y-71115000D01*
X100900000Y-71111928D01*
X100775518Y-71124188D01*
X100655820Y-71160498D01*
X100545506Y-71219463D01*
X100448815Y-71298815D01*
X100369463Y-71395506D01*
X100310498Y-71505820D01*
X100274188Y-71625518D01*
X100261928Y-71750000D01*
X94629402Y-71750000D01*
X94569452Y-71547792D01*
X94217555Y-70879330D01*
X94190548Y-70838912D01*
X93700881Y-70478724D01*
X91179605Y-73000000D01*
X90820395Y-73000000D01*
X90806253Y-72985858D01*
X90985858Y-72806253D01*
X91000000Y-72820395D01*
X93521276Y-70299119D01*
X93161088Y-69809452D01*
X92885675Y-69660000D01*
X100261928Y-69660000D01*
X100261928Y-70250000D01*
G36*
X104695506Y-70780537D02*
G01*
X104805820Y-70839502D01*
X104925518Y-70875812D01*
X105050000Y-70888072D01*
X106100000Y-70888072D01*
X106224482Y-70875812D01*
X106344180Y-70839502D01*
X106454494Y-70780537D01*
X106540444Y-70710000D01*
X106849843Y-70710000D01*
X110215001Y-74075158D01*
X110215000Y-77674842D01*
X110131246Y-77758596D01*
X110119300Y-77637303D01*
X110057259Y-77432780D01*
X109956509Y-77244290D01*
X109933463Y-77216208D01*
X110022702Y-77077197D01*
X110094408Y-76874001D01*
X109967502Y-76707000D01*
X108127000Y-76707000D01*
X108127000Y-76727000D01*
X107873000Y-76727000D01*
X107873000Y-76707000D01*
X106032498Y-76707000D01*
X105905592Y-76874001D01*
X105937705Y-76965000D01*
X105837169Y-76965000D01*
X105835000Y-76760750D01*
X105676250Y-76602000D01*
X104627000Y-76602000D01*
X104627000Y-76622000D01*
X104373000Y-76622000D01*
X104373000Y-76602000D01*
X103323750Y-76602000D01*
X103165000Y-76760750D01*
X103161928Y-77050000D01*
X103174188Y-77174482D01*
X103210498Y-77294180D01*
X103269463Y-77404494D01*
X103339636Y-77490000D01*
X100508461Y-77490000D01*
X100490184Y-77475000D01*
X100577962Y-77402962D01*
X100688405Y-77268387D01*
X100713955Y-77220587D01*
X100851860Y-77178754D01*
X100988233Y-77105862D01*
X101107764Y-77007764D01*
X101132347Y-76977810D01*
X102210157Y-75900000D01*
X103161928Y-75900000D01*
X103165000Y-76189250D01*
X103323750Y-76348000D01*
X104373000Y-76348000D01*
X104373000Y-75423750D01*
X104627000Y-75423750D01*
X104627000Y-76348000D01*
X105676250Y-76348000D01*
X105738251Y-76285999D01*
X105905592Y-76285999D01*
X106032498Y-76453000D01*
X107873000Y-76453000D01*
X107873000Y-75495000D01*
X108127000Y-75495000D01*
X108127000Y-76453000D01*
X109967502Y-76453000D01*
X110094408Y-76285999D01*
X110022702Y-76082803D01*
X109907014Y-75902592D01*
X109758391Y-75748413D01*
X109582545Y-75626191D01*
X109386233Y-75540624D01*
X109177000Y-75495000D01*
X108127000Y-75495000D01*
X107873000Y-75495000D01*
X106823000Y-75495000D01*
X106613767Y-75540624D01*
X106417455Y-75626191D01*
X106241609Y-75748413D01*
X106092986Y-75902592D01*
X105977298Y-76082803D01*
X105905592Y-76285999D01*
X105738251Y-76285999D01*
X105835000Y-76189250D01*
X105838072Y-75900000D01*
X105825812Y-75775518D01*
X105789502Y-75655820D01*
X105730537Y-75545506D01*
X105651185Y-75448815D01*
X105554494Y-75369463D01*
X105444180Y-75310498D01*
X105324482Y-75274188D01*
X105200000Y-75261928D01*
X104785750Y-75265000D01*
X104627000Y-75423750D01*
X104373000Y-75423750D01*
X104214250Y-75265000D01*
X103800000Y-75261928D01*
X103675518Y-75274188D01*
X103555820Y-75310498D01*
X103445506Y-75369463D01*
X103348815Y-75448815D01*
X103269463Y-75545506D01*
X103210498Y-75655820D01*
X103174188Y-75775518D01*
X103161928Y-75900000D01*
X102210157Y-75900000D01*
X102527810Y-75582347D01*
X102557764Y-75557764D01*
X102655862Y-75438233D01*
X102728754Y-75301860D01*
X102737459Y-75273164D01*
X102773642Y-75153887D01*
X102781020Y-75078974D01*
X102785000Y-75038561D01*
X102785000Y-75038556D01*
X102788797Y-75000000D01*
X102785000Y-74961444D01*
X102785000Y-74325157D01*
X104102816Y-73007342D01*
X104132764Y-72982764D01*
X104171475Y-72935596D01*
X104198155Y-72903086D01*
X104230862Y-72863233D01*
X104303754Y-72726860D01*
X104348641Y-72578887D01*
X104360000Y-72463561D01*
X104360000Y-72463554D01*
X104363797Y-72425001D01*
X104361335Y-72400000D01*
X104411928Y-72400000D01*
X104424188Y-72524482D01*
X104460498Y-72644180D01*
X104519463Y-72754494D01*
X104598815Y-72851185D01*
X104695506Y-72930537D01*
X104805820Y-72989502D01*
X104925518Y-73025812D01*
X105050000Y-73038072D01*
X105289250Y-73035000D01*
X105448000Y-72876250D01*
X105448000Y-72202000D01*
X105702000Y-72202000D01*
X105702000Y-72876250D01*
X105860750Y-73035000D01*
X106100000Y-73038072D01*
X106224482Y-73025812D01*
X106344180Y-72989502D01*
X106454494Y-72930537D01*
X106551185Y-72851185D01*
X106630537Y-72754494D01*
X106689502Y-72644180D01*
X106725812Y-72524482D01*
X106738072Y-72400000D01*
X106735000Y-72360750D01*
X106576250Y-72202000D01*
X105702000Y-72202000D01*
X105448000Y-72202000D01*
X104573750Y-72202000D01*
X104415000Y-72360750D01*
X104411928Y-72400000D01*
X104361335Y-72400000D01*
X104360000Y-72386448D01*
X104360000Y-71750000D01*
X104411928Y-71750000D01*
X104415000Y-71789250D01*
X104573750Y-71948000D01*
X105448000Y-71948000D01*
X105448000Y-71273750D01*
X105702000Y-71273750D01*
X105702000Y-71948000D01*
X106576250Y-71948000D01*
X106735000Y-71789250D01*
X106738072Y-71750000D01*
X106725812Y-71625518D01*
X106689502Y-71505820D01*
X106630537Y-71395506D01*
X106551185Y-71298815D01*
X106454494Y-71219463D01*
X106344180Y-71160498D01*
X106224482Y-71124188D01*
X106100000Y-71111928D01*
X105860750Y-71115000D01*
X105702000Y-71273750D01*
X105448000Y-71273750D01*
X105289250Y-71115000D01*
X105050000Y-71111928D01*
X104925518Y-71124188D01*
X104805820Y-71160498D01*
X104695506Y-71219463D01*
X104598815Y-71298815D01*
X104519463Y-71395506D01*
X104460498Y-71505820D01*
X104424188Y-71625518D01*
X104411928Y-71750000D01*
X104360000Y-71750000D01*
X104360000Y-70710000D01*
X104609556Y-70710000D01*
X104695506Y-70780537D01*
G37*
X104695506Y-70780537D02*
X104805820Y-70839502D01*
X104925518Y-70875812D01*
X105050000Y-70888072D01*
X106100000Y-70888072D01*
X106224482Y-70875812D01*
X106344180Y-70839502D01*
X106454494Y-70780537D01*
X106540444Y-70710000D01*
X106849843Y-70710000D01*
X110215001Y-74075158D01*
X110215000Y-77674842D01*
X110131246Y-77758596D01*
X110119300Y-77637303D01*
X110057259Y-77432780D01*
X109956509Y-77244290D01*
X109933463Y-77216208D01*
X110022702Y-77077197D01*
X110094408Y-76874001D01*
X109967502Y-76707000D01*
X108127000Y-76707000D01*
X108127000Y-76727000D01*
X107873000Y-76727000D01*
X107873000Y-76707000D01*
X106032498Y-76707000D01*
X105905592Y-76874001D01*
X105937705Y-76965000D01*
X105837169Y-76965000D01*
X105835000Y-76760750D01*
X105676250Y-76602000D01*
X104627000Y-76602000D01*
X104627000Y-76622000D01*
X104373000Y-76622000D01*
X104373000Y-76602000D01*
X103323750Y-76602000D01*
X103165000Y-76760750D01*
X103161928Y-77050000D01*
X103174188Y-77174482D01*
X103210498Y-77294180D01*
X103269463Y-77404494D01*
X103339636Y-77490000D01*
X100508461Y-77490000D01*
X100490184Y-77475000D01*
X100577962Y-77402962D01*
X100688405Y-77268387D01*
X100713955Y-77220587D01*
X100851860Y-77178754D01*
X100988233Y-77105862D01*
X101107764Y-77007764D01*
X101132347Y-76977810D01*
X102210157Y-75900000D01*
X103161928Y-75900000D01*
X103165000Y-76189250D01*
X103323750Y-76348000D01*
X104373000Y-76348000D01*
X104373000Y-75423750D01*
X104627000Y-75423750D01*
X104627000Y-76348000D01*
X105676250Y-76348000D01*
X105738251Y-76285999D01*
X105905592Y-76285999D01*
X106032498Y-76453000D01*
X107873000Y-76453000D01*
X107873000Y-75495000D01*
X108127000Y-75495000D01*
X108127000Y-76453000D01*
X109967502Y-76453000D01*
X110094408Y-76285999D01*
X110022702Y-76082803D01*
X109907014Y-75902592D01*
X109758391Y-75748413D01*
X109582545Y-75626191D01*
X109386233Y-75540624D01*
X109177000Y-75495000D01*
X108127000Y-75495000D01*
X107873000Y-75495000D01*
X106823000Y-75495000D01*
X106613767Y-75540624D01*
X106417455Y-75626191D01*
X106241609Y-75748413D01*
X106092986Y-75902592D01*
X105977298Y-76082803D01*
X105905592Y-76285999D01*
X105738251Y-76285999D01*
X105835000Y-76189250D01*
X105838072Y-75900000D01*
X105825812Y-75775518D01*
X105789502Y-75655820D01*
X105730537Y-75545506D01*
X105651185Y-75448815D01*
X105554494Y-75369463D01*
X105444180Y-75310498D01*
X105324482Y-75274188D01*
X105200000Y-75261928D01*
X104785750Y-75265000D01*
X104627000Y-75423750D01*
X104373000Y-75423750D01*
X104214250Y-75265000D01*
X103800000Y-75261928D01*
X103675518Y-75274188D01*
X103555820Y-75310498D01*
X103445506Y-75369463D01*
X103348815Y-75448815D01*
X103269463Y-75545506D01*
X103210498Y-75655820D01*
X103174188Y-75775518D01*
X103161928Y-75900000D01*
X102210157Y-75900000D01*
X102527810Y-75582347D01*
X102557764Y-75557764D01*
X102655862Y-75438233D01*
X102728754Y-75301860D01*
X102737459Y-75273164D01*
X102773642Y-75153887D01*
X102781020Y-75078974D01*
X102785000Y-75038561D01*
X102785000Y-75038556D01*
X102788797Y-75000000D01*
X102785000Y-74961444D01*
X102785000Y-74325157D01*
X104102816Y-73007342D01*
X104132764Y-72982764D01*
X104171475Y-72935596D01*
X104198155Y-72903086D01*
X104230862Y-72863233D01*
X104303754Y-72726860D01*
X104348641Y-72578887D01*
X104360000Y-72463561D01*
X104360000Y-72463554D01*
X104363797Y-72425001D01*
X104361335Y-72400000D01*
X104411928Y-72400000D01*
X104424188Y-72524482D01*
X104460498Y-72644180D01*
X104519463Y-72754494D01*
X104598815Y-72851185D01*
X104695506Y-72930537D01*
X104805820Y-72989502D01*
X104925518Y-73025812D01*
X105050000Y-73038072D01*
X105289250Y-73035000D01*
X105448000Y-72876250D01*
X105448000Y-72202000D01*
X105702000Y-72202000D01*
X105702000Y-72876250D01*
X105860750Y-73035000D01*
X106100000Y-73038072D01*
X106224482Y-73025812D01*
X106344180Y-72989502D01*
X106454494Y-72930537D01*
X106551185Y-72851185D01*
X106630537Y-72754494D01*
X106689502Y-72644180D01*
X106725812Y-72524482D01*
X106738072Y-72400000D01*
X106735000Y-72360750D01*
X106576250Y-72202000D01*
X105702000Y-72202000D01*
X105448000Y-72202000D01*
X104573750Y-72202000D01*
X104415000Y-72360750D01*
X104411928Y-72400000D01*
X104361335Y-72400000D01*
X104360000Y-72386448D01*
X104360000Y-71750000D01*
X104411928Y-71750000D01*
X104415000Y-71789250D01*
X104573750Y-71948000D01*
X105448000Y-71948000D01*
X105448000Y-71273750D01*
X105702000Y-71273750D01*
X105702000Y-71948000D01*
X106576250Y-71948000D01*
X106735000Y-71789250D01*
X106738072Y-71750000D01*
X106725812Y-71625518D01*
X106689502Y-71505820D01*
X106630537Y-71395506D01*
X106551185Y-71298815D01*
X106454494Y-71219463D01*
X106344180Y-71160498D01*
X106224482Y-71124188D01*
X106100000Y-71111928D01*
X105860750Y-71115000D01*
X105702000Y-71273750D01*
X105448000Y-71273750D01*
X105289250Y-71115000D01*
X105050000Y-71111928D01*
X104925518Y-71124188D01*
X104805820Y-71160498D01*
X104695506Y-71219463D01*
X104598815Y-71298815D01*
X104519463Y-71395506D01*
X104460498Y-71505820D01*
X104424188Y-71625518D01*
X104411928Y-71750000D01*
X104360000Y-71750000D01*
X104360000Y-70710000D01*
X104609556Y-70710000D01*
X104695506Y-70780537D01*
%TD*%
M02*
